<svg xmlns="http://www.w3.org/2000/svg" viewBox="0 0 2500 2500" width="2500" height="2500"><g transform="translate(2170.0 2026.0) rotate(0.0 90.0 24.0) scale(0.9040683073832245 0.9229171874098714)"><svg width="199.1" height="52.009" viewBox="0 0 199.1 52.009"><ellipse cx="99.55" cy="26.005" fill="#232323" rx="99.55" ry="26.005"/></svg></g><g transform="translate(563.0 1963.0) rotate(0.0 240.0 63.5) scale(2.410848819688599 2.4418850583552847)"><svg width="199.1" height="52.009" viewBox="0 0 199.1 52.009"><ellipse cx="99.55" cy="26.005" fill="#232323" rx="99.55" ry="26.005"/></svg></g><g transform="translate(148.0 637.0) rotate(0.0 497.5 711.0) scale(1.0054161109090174 1.0054152428586882)"><svg width="989.64" height="1414.341" viewBox="0 0 989.64 1414.341"><clipPath id="a"><path d="M797.314 359.8c-28.367-9.534-69.281 16.508-112.509 67.945-4.316 38.399-10.635 78.369-18.965 119.455-12.844 63.347-30.47 129.34-52.991 196.348-32.638 97.109-72.186 186.35-115.374 263.861a1252.608 1252.608 0 0 1-20.959 36.229c2.478 44.766 11.758 79.397 27.904 99.556 6.728 8.411 14.649 14.299 23.764 17.362 15.17 5.099 32.428 1.958 50.913-8.25 68.863-38.04 154.801-174.213 213.386-348.525 74.319-221.126 76.488-419.898 4.831-443.981z"/></clipPath><path d="M856.413 104.345c.44.09.87.19 1.28.29-6.839-1.242-285.376-96.841-291.997-97.994-33.342-9.246-75.432-.826-121.682 24.594C266.638 138.198 160.093 344.072 89.139 534.783c-69.224 199.598-127.543 471.81-47.381 672.394 16.439 36.773 37.985 64.953 64.634 82.58 13.614 11.109 308.999 105.192 324.767 113.655 224.251 65.71 489.944-480.991 541.868-889.694 26.055-205.085 1.806-372.114-123.835-410.101M665.843 547.195c-29.883 151.714-94.945 330.406-168.371 460.21-96.575 192.059-149.139-133.489-67.502-324.084C541.948 418.3 692.525 357.858 684.803 427.746c-4.31 38.4-10.631 78.369-18.96 119.449zm18.96-119.449" fill="#fff"/><path d="M468.879 1411.825a136.493 136.493 0 0 1-38.563-5.535 3.127 3.127 0 0 1-.575-.235c-6.256-3.357-62.339-22.09-121.715-41.923-113.581-37.938-194.766-65.342-203.389-71.94-26.551-17.597-48.629-45.788-65.617-83.792l-.048-.111c-36.468-91.253-47.41-204.977-32.524-338.013C18.091 766.222 44.959 653.015 86.305 533.8c42.061-113.053 87.144-205.874 137.849-283.832 30.363-46.683 63.133-88.345 97.4-123.831 37.675-39.015 78.354-71.809 120.91-97.47a1.76 1.76 0 0 1 .104-.06C489.395 2.87 532.227-5.731 566.438 3.734c5.058 1.196 59.171 19.52 146.893 49.286 64.656 21.939 137.755 46.743 144.567 48.581.172.04.34.08.506.121a3.001 3.001 0 0 1 2.275 2.625c54.431 20.547 91.487 67.894 110.223 140.913 17.423 67.899 19.14 158.349 5.103 268.836-20.466 161.087-74.525 346.392-148.319 508.399-78.203 171.69-169.155 297.595-256.103 354.523-35.39 23.168-69.791 34.805-102.704 34.807zm-36.601-11.213c42.424 12.331 88.182 2.705 136.018-28.615 86.01-56.313 176.19-181.319 253.93-351.99C895.78 858.526 949.66 673.853 970.052 513.339c13.941-109.732 12.272-199.426-4.961-266.589-19.373-75.503-58.658-122.694-116.766-140.263a2.999 2.999 0 0 1-2.077-2.297c-20.288-6.639-67.592-22.668-134.846-45.488C644.716 36.074 569.133 10.427 565.15 9.591a2.516 2.516 0 0 1-.257-.059c-32.677-9.061-73.955-.654-119.386 24.306-80.391 48.492-153.175 122.311-216.324 219.401-50.461 77.583-95.351 170.019-137.232 282.589C50.774 654.561 24.004 767.331 12.41 870.943c-14.772 132.02-3.971 244.748 32.111 335.065 16.535 36.968 37.907 64.301 63.526 81.247.083.055.164.114.241.178 7.593 6.196 119.746 43.657 201.637 71.009 63.895 21.34 114.544 38.257 122.353 42.17zm10.025-331.591c-3.473 0-6.977-.755-10.5-2.394-25.488-11.853-42.687-68.823-44.885-148.677-2.296-83.393 12.768-171.546 40.294-235.81 49.938-118.188 103.585-187.241 139.795-224.355 41.372-42.404 81.517-64.98 104.795-58.917 11.866 3.092 17.692 13.738 15.982 29.208-4.338 38.651-10.731 78.928-19.001 119.716-14.735 74.805-38.242 157.363-67.979 238.754-29.881 81.783-64.695 158.64-100.686 222.273-14.433 28.69-35.397 60.198-57.815 60.202zM663.997 403.94c-17.937 0-50.518 14.805-92.695 58.036-35.849 36.744-88.989 105.174-138.568 222.513-27.208 63.52-42.091 150.728-39.817 233.296 2.103 76.39 18.359 132.679 41.417 143.402 2.596 1.207 5.273 1.808 8.021 1.808 15.621.002 33.562-19.399 52.438-56.937.022-.044.046-.087.069-.129 35.843-63.364 70.528-139.937 100.308-221.441 29.635-81.109 53.056-163.363 67.731-237.871l.003-.017c8.235-40.616 14.601-80.717 18.919-119.188.967-8.747-.249-19.798-11.533-22.738-1.839-.479-3.94-.734-6.293-.734z" fill="#232323"/><path d="M866.645 104.355c-13.397-4.526-29.511-4.128-41.931-1.068-352.84 101.049-567.733 813.648-503.187 1135.36 17.703 86.604 54.688 149.172 109.715 167.666 334.992 122.589 776.452-1197.659 435.403-1301.958zM533.024 716.578c41.128-122.372 98.22-225.099 151.781-288.833-23.873 209.137-101.973 438.399-208.288 615.893-4.606-83.255 14.328-201.561 56.507-327.06z" fill="#00676c"/><path d="M797.314 359.8c-28.367-9.534-69.281 16.508-112.509 67.945-4.316 38.399-10.635 78.369-18.965 119.455-12.844 63.347-30.47 129.34-52.991 196.348-32.638 97.109-72.186 186.35-115.374 263.861a1252.608 1252.608 0 0 1-20.959 36.229c2.478 44.766 11.758 79.397 27.904 99.556 6.728 8.411 14.649 14.299 23.764 17.362 15.17 5.099 32.428 1.958 50.913-8.25 68.863-38.04 154.801-174.213 213.386-348.525 74.319-221.126 76.488-419.898 4.831-443.981z" fill="#fff"/><path d="M159.881 1184.322c-28.553-139.755-7.434-349.786 66.813-570.699 72.92-216.964 186.349-392.594 292.768-487.693 51.265-45.803 100.896-72.923 143.597-76.973.923-.086 1.853-.16 2.771-.229.927-.066 1.842-.126 2.76-.166.909-.044 1.824-.075 2.728-.102.912-.023 1.819-.03 2.714-.031.907-.006 1.805.013 2.694.028.847.021 1.7.053 2.539.099.182.004.363.009.542.022.69.034 1.386.079 2.08.133 1.905.14 3.783.328 5.65.579.352.043.7.094 1.04.142l.901.133c.531.084 1.052.165 1.571.255.491.08.989.172 1.478.261a113.179 113.179 0 0 0-13.229-5.399c-.502-.169-.998-.326-1.503-.486a92.014 92.014 0 0 0-3.021-.902c-.41-.11-.827-.231-1.24-.332-.626-.163-1.261-.33-1.902-.479-.459-.116-.924-.216-1.385-.324a88.471 88.471 0 0 0-4.769-.933c-.519-.089-1.041-.17-1.571-.255l-.901-.133c-.34-.048-.688-.099-1.04-.142a95.85 95.85 0 0 0-5.65-.579 73.255 73.255 0 0 0-2.08-.133c-.179-.013-.36-.017-.542-.022a85.025 85.025 0 0 0-2.538-.099c-.889-.016-1.788-.035-2.694-.028-.895.001-1.802.008-2.714.031-.903.027-1.819.058-2.728.102-.918.04-1.833.101-2.76.166-.918.069-1.847.143-2.771.229-42.701 4.05-92.332 31.171-143.597 76.973-106.418 95.099-219.847 270.729-292.768 487.693-74.247 220.913-95.366 430.945-66.813 570.699 17.693 86.597 54.468 146.21 109.494 164.704a111.19 111.19 0 0 0 13.045 3.526c-48.117-22.877-80.658-79.784-96.969-159.636z" fill="#00676c"/><path d="M200.979 1198.135c-28.553-139.755-7.434-349.786 66.813-570.699 72.92-216.964 186.349-392.594 292.768-487.693C611.825 93.94 661.456 66.82 704.157 62.77c.923-.086 1.853-.16 2.771-.229.927-.066 1.842-.126 2.76-.166.909-.044 1.824-.075 2.728-.102.912-.023 1.819-.03 2.714-.031.907-.006 1.805.013 2.694.028.847.021 1.7.053 2.539.099.182.004.363.009.542.022.69.034 1.386.079 2.08.133 1.905.14 3.783.328 5.65.579.352.043.7.094 1.04.142l.901.133c.531.084 1.052.165 1.571.255.491.08.989.172 1.478.261a113.179 113.179 0 0 0-13.229-5.399c-.502-.169-.998-.326-1.503-.486a92.014 92.014 0 0 0-3.021-.902c-.41-.11-.827-.231-1.24-.332-.626-.163-1.261-.33-1.902-.479-.459-.116-.924-.216-1.385-.324a88.471 88.471 0 0 0-4.769-.933c-.519-.089-1.041-.17-1.571-.255l-.901-.133c-.34-.048-.688-.099-1.04-.142a95.85 95.85 0 0 0-5.65-.579 73.255 73.255 0 0 0-2.08-.133c-.179-.013-.36-.017-.542-.022a85.025 85.025 0 0 0-2.538-.099c-.889-.016-1.788-.035-2.694-.028-.895.001-1.802.008-2.714.031-.903.027-1.819.058-2.728.102-.918.04-1.833.101-2.76.166-.918.069-1.847.143-2.771.229-42.701 4.05-92.332 31.171-143.597 76.973-106.42 95.098-219.849 270.728-292.77 487.692-74.247 220.913-95.366 430.945-66.813 570.699 17.693 86.598 54.468 146.21 109.494 164.704a111.19 111.19 0 0 0 13.045 3.526c-48.114-22.876-80.655-79.784-96.967-159.635z" fill="#00676c"/><g fill="#232323"><path clip-path="url(#a)" d="M474.788 1048.846a3 3 0 0 1-2.568-4.547l3.211-5.329c6.357-10.545 13.563-22.497 19.424-33.02 44.546-79.948 83.289-168.554 115.151-263.357 22.005-65.475 39.802-131.415 52.894-195.989 7.613-37.551 14.156-79.808 18.922-122.2a3 3 0 1 1 5.962.67c-4.785 42.565-11.356 85.001-19.004 122.723-13.142 64.816-31.003 130.998-53.087 196.708-31.979 95.152-70.872 184.097-115.597 264.366-5.911 10.613-13.146 22.612-19.528 33.198l-3.207 5.323a2.998 2.998 0 0 1-2.573 1.454z"/><path d="M795.571 87.056c-.318 0-.642-.051-.96-.159-24.559-8.295-53.896-18.25-83.267-28.216-66.658-22.618-142.212-48.254-146.194-49.09a2.987 2.987 0 0 1-2.426-3.467c.285-1.632 1.848-2.719 3.485-2.438 3.312.577 57.77 19.016 147.063 49.315a67745.284 67745.284 0 0 0 83.258 28.213 3 3 0 0 1-.959 5.842zM341.075 1376.004c-.308 0-.619-.048-.927-.147-88.194-28.614-220.39-74.244-235.342-83.553a3 3 0 0 1 3.172-5.094c13.24 8.245 136.672 51.355 234.021 82.94a3 3 0 0 1-.924 5.854z"/></g></svg></g><g transform="translate(803.0 429.0) rotate(0.0 797.0 817.0) scale(1.0061314686868406 1.0056752333702)"><svg width="1584.286" height="1624.779" viewBox="0 0 1584.286 1624.779"><clipPath id="b"><path d="M673.294 1369.297c20.735 43.207 33.633 72.632 33.633 72.632-23.54 44.125-113.753 44.075-113.753 44.075s-34.081-22.816-81.177-63.629c-56.756-49.193-132.417-124.537-190.079-217.613-105.673-170.575 107.337-301.21 160.906-326.814 209.159 4.361 240.245 191.967 240.245 191.967-62.497 30.837-184.679 56.09-184.679 56.09 51.264 75.179 102.593 175.969 134.904 243.292z"/></clipPath><clipPath id="c"><path d="M706.926 1441.928c-23.54 44.125-113.753 44.075-113.753 44.075s-34.081-22.816-81.177-63.629l161.297-53.078c20.736 43.21 33.633 72.632 33.633 72.632z"/></clipPath><clipPath id="d"><path d="M1421.978 1410.627c-34.517.751-107.438-1.934-167.438-15.934l72.268-150.63c43.858 22.463 74.031 31.279 74.031 31.279 38.172 55.264 21.139 135.285 21.139 135.285z"/></clipPath><clipPath id="e"><path d="M782.797 1088.394a266.432 266.432 0 0 1 7.62-4.609s25.133 31.899 40.599 48.332c83.131-57.031 160.477-120.855 213.728-149.417 17.089-8.204 13.644-9.043 28.621-4.885s37.914-17.122 45.819-9.217c0 0-56.997-74.471-100.265-156.014 0 0-70.941 33.409-158.904 41.142-49.057 4.313-157.423-12.489-211.847-21.779 11.67 36.879 46.393 142.751 134.629 256.447z"/></clipPath><clipPath id="f"><path d="M541.991 41.753c10.633-8.7 13.903-13.643 30.119-11.439 5.954-36.969 60.745-37.859 68.848-4.515 26.309-32.513 74.725-5.975 68.649 26.768-2.231 12.021-5.375 32.627 3.982 49.816-14.03 10.994-33.494 60.759-33.494 60.759s-72.121-61.428-100.751-57.11c-45.018 6.784-55.909-47.855-37.353-64.279z"/></clipPath><clipPath id="g"><path d="M542.76 41.405a36.034 36.034 0 0 1 31.923-7.49c3.072-36.628 57.204-42.428 66.274-8.117 26.309-32.513 74.725-5.975 68.649 26.768-2.231 12.021-4.912 33.862 4.445 51.051-14.03 10.994-33.956 59.524-33.956 59.524s-64.991-32.115-98.798-48.478c-1.933-6.766-5.016-1.101-5.362-2.553-42.531 2.9-51.73-54.281-33.175-70.705z"/></clipPath><clipPath id="h"><path d="M563.227 221.214c1.35 9.974 8.79 19.034 20.351 22.566 30.099 9.199 63.527-6.684 63.527-6.684s26.858 26.846 38.441 66.019c0 0 46.798 5.851 120.336-37.606 0 0-50.141-61.841-77.081-93.556 18.359-6.666 35.312-30.409 25.075-55.02-5.839-14.039-23.629-20.578-38.183-14.904-14.95 5.823-22.382 20.759-31.451 36.255-10.253 17.518-16.946 6.23-25.663-7.933-5.599-9.097-12.024-19.382-20.77-23.981-19.765-10.405-58.469-.342-58.469-.342s.919 5.126 1.627 11.656c.936 8.637 1.48 19.721-.978 24.653-4.326 8.654-10.464 8.597-9.646 13.508.702 4.211 6.433 8.302 9.59 9.938 4.105 28.883-19.865 32.161-16.706 55.431z"/></clipPath><clipPath id="i"><path d="M526.727 448.14s5.812-6.447 7.812-9.447c36 53 71.123 80.916 122.539 165.632-21.925 10.488-45.492 18.74-70.616 24.087-129.208 27.497-274.237-99.634-314.321-136.221-24.889-22.717-46.223-49.384-53.689-60.051-56.535-80.002-37.334-93.869-20.267-82.136 34.134 23.467 20.84-4.401 17.067-19.201-13.867-54.402-1.067-67.202 9.6-48.001-7.467-36.268 10.667-32.001 22.401 1.067-4.267-18.134 6.4-29.868 23.467 14.934 1.067-19.201 27.734 7.467 43.363 83.991 84.641 25.878 212.644 65.346 212.644 65.346z"/></clipPath><clipPath id="j"><path d="M509.588 508.326s225.763-243.034 311.345-252.314c137.518-14.912 3.093 412.443-265.225 438.897-117.169 11.552-232.904-30.158-309.546-65.148-47.102-21.504-138.647-57.883-174.915-72.817-43.779-18.027-50.135-36.268-34.134-37.334-28.801-7.467-32.001-24.534-13.867-27.734-25.601-8.534-18.134-27.734 9.6-24.534-19.201-11.734-12.8-27.734 28.801-21.334 24.249 3.731 61.027 16.831 66.135 7.467 6.4-11.734-10.781-51.464 9.6-46.935 19.201 4.267 57.985 63.287 71.864 72.923 41.546 5.811 300.342 28.863 300.342 28.863z"/></clipPath><path d="M487.181 879.408c119.506 48.066 276.969 205.58 249.109 237.154-37.443 42.436-166.215-155.808-249.109-237.154z" fill="#232323"/><path d="m723.291 1125.446-.426-.003c-32.776-.578-89.093-69.131-148.716-141.71-30.79-37.479-62.628-76.235-89.07-102.184a3 3 0 0 1 3.221-4.924c48.483 19.5 107.309 58.601 161.393 107.275 50.601 45.54 85.799 89.713 91.859 115.284 1.978 8.342.964 14.857-3.012 19.363-4.041 4.58-9.17 6.899-15.249 6.899zM500.096 888.254c24.266 25.42 51.874 59.028 78.689 91.67 56.135 68.332 114.181 138.99 144.187 139.52l.317.002c4.343 0 7.862-1.595 10.751-4.869 2.612-2.96 3.175-7.674 1.674-14.01-5.706-24.075-41.047-68.119-90.035-112.208-48.445-43.599-100.649-79.413-145.583-100.105z" fill="#232323"/><path d="M673.294 1369.297c20.735 43.207 33.633 72.632 33.633 72.632-23.54 44.125-113.753 44.075-113.753 44.075s-34.081-22.816-81.177-63.629c-56.756-49.193-132.417-124.537-190.079-217.613C218.723 1038.189 425.563 910.05 484.915 880.27c1.431-.716 12.374-4.826 13.628-5.426 209.159 4.361 227.266 194.075 227.266 194.075-12.819 6.162-28.709 12.604-42.131 17.31-63.903 22.949-145.287 39.773-145.287 39.773 51.263 75.182 102.592 175.972 134.903 243.295z" fill="#fff"/><path d="M593.185 1489.004h-.013a2.997 2.997 0 0 1-1.667-.507c-.343-.229-34.776-23.387-81.474-63.854-54.604-47.329-132.008-123.621-190.664-218.3-28.046-45.271-35.678-91.525-22.684-137.481 12.144-42.948 41.844-85.03 88.276-125.079 42.996-37.084 86.347-60.041 98.609-66.193.847-.424 3.568-1.486 7.949-3.186 2.34-.908 5.253-2.038 5.731-2.266.421-.201.873-.31 1.355-.292 48.23 1.006 90.358 11.968 125.214 32.581 27.933 16.52 51.255 39.222 69.318 67.475 30.709 48.031 35.47 94.767 35.657 96.732a3.001 3.001 0 0 1-1.687 2.989c-12.312 5.918-28.177 12.437-42.438 17.438-54.918 19.723-123.488 35.095-141.295 38.946 49.883 73.953 99.529 171.039 132.624 239.993 20.52 42.758 33.546 72.43 33.676 72.725a3 3 0 0 1-.102 2.616c-10.196 19.114-32.98 32.607-67.718 40.105-25.41 5.485-47.567 5.558-48.667 5.558zm-94.054-611.146c-.993.411-2.79 1.11-5.442 2.139-2.7 1.047-6.779 2.63-7.432 2.956-15.595 7.825-153.274 79.581-183.8 187.541-12.517 44.267-5.111 88.91 22.01 132.688 58.26 94.038 135.204 169.87 189.494 216.926 42.563 36.885 74.822 59.267 80.119 62.885 9.317-.164 87.322-2.703 109.501-41.216-2.772-6.264-14.988-33.668-32.992-71.182-33.559-69.923-84.166-168.824-134.677-242.904a3 3 0 0 1 1.871-4.627c.812-.168 81.917-17.046 144.881-39.658 13.345-4.68 28.081-10.691 39.904-16.267-1.295-9.585-8.18-50.96-34.616-92.21-17.563-27.404-40.213-49.414-67.319-65.417-33.775-19.939-74.649-30.588-121.502-31.654z" fill="#232323"/><path clip-path="url(#b)" d="M542.522 1135.117a2.999 2.999 0 0 1-2.458-1.276c-11.325-16.127-22.911-30.427-35.419-43.717a3 3 0 0 1 4.369-4.113c12.706 13.5 24.469 28.018 35.96 44.381a3 3 0 0 1-2.452 4.725z" fill="#232323"/><path d="M706.926 1441.928c-23.54 44.125-113.753 44.075-113.753 44.075s-34.081-22.816-81.177-63.629l161.297-53.078c20.736 43.21 33.633 72.632 33.633 72.632z" fill="#d9c6f4"/><path clip-path="url(#c)" d="M536.591 1454.394a5 5 0 0 1-1.565-9.749l161.423-53.253c2.62-.867 5.449.559 6.314 3.182s-.56 5.45-3.182 6.314l-161.423 53.253a5.006 5.006 0 0 1-1.567.253z" fill="#fff"/><path d="M593.185 1489.004h-.013a2.997 2.997 0 0 1-1.667-.507c-.343-.229-34.776-23.387-81.474-63.854-54.604-47.329-132.008-123.621-190.664-218.3-28.046-45.271-35.678-91.525-22.684-137.481 12.144-42.948 41.844-85.03 88.276-125.079 42.996-37.084 86.347-60.041 98.609-66.193.847-.424 3.568-1.486 7.949-3.186 2.34-.908 5.253-2.038 5.731-2.266.421-.201.873-.31 1.355-.292 48.23 1.006 90.358 11.968 125.214 32.581 27.933 16.52 51.255 39.222 69.318 67.475 30.709 48.031 35.47 94.767 35.657 96.732a3.001 3.001 0 0 1-1.687 2.989c-12.312 5.918-28.177 12.437-42.438 17.438-54.918 19.723-123.488 35.095-141.295 38.946 49.883 73.953 99.529 171.039 132.624 239.993 20.52 42.758 33.546 72.43 33.676 72.725a3 3 0 0 1-.102 2.616c-10.196 19.114-32.98 32.607-67.718 40.105-25.41 5.485-47.567 5.558-48.667 5.558zm-94.054-611.146c-.993.411-2.79 1.11-5.442 2.139-2.7 1.047-6.779 2.63-7.432 2.956-15.595 7.825-153.274 79.581-183.8 187.541-12.517 44.267-5.111 88.91 22.01 132.688 58.26 94.038 135.204 169.87 189.494 216.926 42.563 36.885 74.822 59.267 80.119 62.885 9.317-.164 87.322-2.703 109.501-41.216-2.772-6.264-14.988-33.668-32.992-71.182-33.559-69.923-84.166-168.824-134.677-242.904a3 3 0 0 1 1.871-4.627c.812-.168 81.917-17.046 144.881-39.658 13.345-4.68 28.081-10.691 39.904-16.267-1.295-9.585-8.18-50.96-34.616-92.21-17.563-27.404-40.213-49.414-67.319-65.417-33.775-19.939-74.649-30.588-121.502-31.654z" fill="#232323"/><path d="M709.213 1428.858s58.801 117.311 73.22 183.91c0 0-222.295 11.979-296.312 8.314-40.169-1.99-59.869-16.362-69.415-26.902l.046-.135c.023-.068.053-.168.1-.287-.001-.004.002-.008.007-.009h.001c1.965-5.155 22.741-56.058 94.202-95.093 11.142-6.08 47.014-23.214 88.786-29.604 28.584-4.372 53.042-3.929 71.224-10.678 23.084-8.57 24.991-29.56 38.141-29.516z" fill="#fff"/><path d="M522.199 1624.771c-14.116 0-26.476-.209-36.228-.692-22.084-1.095-52.413-6.82-71.489-27.885a3 3 0 0 1-.605-3.012l.041-.122c.037-.114.076-.229.124-.356.019-.05.039-.099.061-.147 2.438-6.327 23.938-57.432 95.52-96.533 4.225-2.305 42.626-22.725 89.77-29.937 10.41-1.592 20.08-2.532 29.432-3.44 16.074-1.562 29.955-2.91 41.202-7.085 11.369-4.22 17.164-11.559 22.277-18.034 4.738-6 9.216-11.669 16.868-11.669h.051a3 3 0 0 1 2.672 1.656c.147.294 14.924 29.828 31.269 67.12 15.112 34.48 34.7 82.854 42.201 117.499a2.997 2.997 0 0 1-2.771 3.631c-1.929.102-168.371 9.006-260.395 9.006zm-102.014-31.264c10.156 10.515 29.685 22.775 66.084 24.579 67.912 3.359 263.624-6.618 292.457-8.127-6.294-26.953-20.435-65.859-41.046-112.889-13.965-31.865-26.779-58.041-30.237-65.034-3.602.772-6.328 4.015-10.43 9.209-5.325 6.743-11.951 15.135-24.898 19.94-11.978 4.446-26.22 5.83-42.709 7.432-9.271.901-18.858 1.832-29.105 3.399-46.133 7.058-83.674 27.019-87.803 29.272-66.324 36.23-88.31 82.55-92.313 92.219z" fill="#232323"/><path d="M708.645 1426.442c-9.324 2.554-6.933 5.179-12.677 11.175-28.132 36.177-72.339 19.566-122.108 35.138-52.421 15.749-102.657 43.536-136.718 87.109v.009c-4.72 6.025-9.665 13.36-12.951 19.084 65.299 42.848 139.115 16.173 175.364-.546 31.262-14.421 41.435 2.363 67.024-6.854 21.371-7.697 25.055-25.073 52.481-29.34 25.632-3.988 47.806 12.175 47.806 12.175s-37.934-75.067-58.221-127.95z" fill="#232323"/><path d="M723.094 1601.715c-16.977 0-30.295-8.003-30.755-18.795-.48-11.281 13.3-20.722 31.372-21.493 18.049-.778 32.605 7.462 33.087 18.745.242 5.681-3.103 11.052-9.418 15.122-5.824 3.753-13.621 6.017-21.953 6.372-.784.032-1.564.049-2.333.049zm-24.761-19.051c.292 6.822 11.153 13.674 26.838 13.006 7.284-.311 14.018-2.236 18.959-5.421 4.451-2.869 6.821-6.357 6.674-9.822-.291-6.82-11.146-13.673-26.837-13.006-15.694.669-25.924 8.422-25.634 15.243z" fill="#232323"/><path d="M739.932 1520.164c-8.728 0-23.896-1.791-39.735-11.957-4.954-3.179-8.992-6.023-12.555-8.532-13.217-9.307-19.851-13.978-44.884-16.108a3 3 0 0 1 .508-5.979c26.652 2.268 34.175 7.565 47.83 17.181 3.514 2.474 7.496 5.278 12.341 8.388 21.882 14.043 42.807 10.61 43.014 10.572a3.004 3.004 0 0 1 3.472 2.435 2.997 2.997 0 0 1-2.425 3.473c-.32.058-3.101.527-7.566.527z" fill="#fff"/><path d="M609.639 1534.269a7.497 7.497 0 0 1-6.537-3.813c-.188-.327-19.886-34.189-57.627-42.119a7.501 7.501 0 0 1-5.798-8.882c.852-4.054 4.839-6.65 8.882-5.798 44.527 9.356 66.683 47.791 67.604 49.422a7.5 7.5 0 0 1-2.843 10.219 7.47 7.47 0 0 1-3.681.971zm-32.039 13.917a7.496 7.496 0 0 1-6.543-3.824c-.177-.309-19.128-32.816-59.485-40.408a7.5 7.5 0 0 1-5.984-8.757 7.496 7.496 0 0 1 8.758-5.984c47.423 8.92 68.894 46.211 69.784 47.794a7.5 7.5 0 0 1-6.53 11.179zm-37.157 11.625a7.497 7.497 0 0 1-6.457-3.673c-.153-.255-17.102-27.743-53.351-34.109a7.499 7.499 0 0 1-6.09-8.684c.716-4.08 4.609-6.808 8.684-6.089 43.253 7.595 62.844 39.858 63.657 41.228a7.5 7.5 0 0 1-6.443 11.327zm75.196-733.642c-28.466 7.274-90.694 30.787-132.819 51.783 66.253 24.768 281.868 194.353 256.073 240.116 0 0 33.156-23.65 51.522-34.283 0 0 86.273-56.661 118.613-120.15 23.215-45.574 21.316-99.782 4.085-132.255z" fill="#d9c6f4"/><path d="M835.439 1128.141c30.622-31.762 153.93-282.009 280.752-158.414 17.741 19.08 10.6 89.429-280.752 158.414z" fill="#232323"/><path d="M835.439 1131.141a2.999 2.999 0 0 1-2.16-5.082c5.156-5.348 13.327-17.55 23.673-32.999 18.408-27.488 43.618-65.135 73.641-97.201 35.773-38.208 70.34-59.298 102.74-62.683 29.759-3.107 58.339 8.466 84.952 34.402l.104.105c2.988 3.214 9.446 12.31 4.89 27.325-8.311 27.387-56.667 81.479-287.148 136.051a2.986 2.986 0 0 1-.692.082zm207.255-192.455c-2.902 0-5.814.152-8.738.458-30.923 3.231-64.226 23.692-98.983 60.816-29.688 31.709-54.742 69.121-73.035 96.438-7.275 10.865-13.493 20.149-18.464 26.736 92.025-22.231 162.733-46.46 210.276-72.061 45.688-24.602 59.905-45.015 63.787-57.807 3.627-11.952-1.192-18.945-3.495-21.445-22.611-22.016-46.574-33.135-71.348-33.135z" fill="#232323"/><path d="M1421.978 1410.627a739.375 739.375 0 0 1-103.329-4.991c-336.897-40.318-513.38-306.981-569.76-387.504l-.008-.001a891.526 891.526 0 0 0-2.235-3.502l69.758-79.514 196.137-89.635a614.629 614.629 0 0 0 28.808 95.617c68.888 174.995 201.965 260.209 285.456 302.963 43.858 22.463 74.031 31.279 74.031 31.279 38.175 55.267 21.142 135.288 21.142 135.288z" fill="#fff"/><path d="M1406.027 1413.8a745.4 745.4 0 0 1-87.732-5.185c-140.276-16.788-269.27-74.729-383.398-172.216-92.841-79.303-151.632-163.689-183.216-209.024-1.815-2.604-3.53-5.066-5.147-7.377a3.222 3.222 0 0 1-.186-.26 884.367 884.367 0 0 0-2.228-3.49 3 3 0 0 1 .271-3.598l69.758-79.514a3.003 3.003 0 0 1 1.008-.75l196.137-89.635a2.998 2.998 0 0 1 4.181 2.099 613.41 613.41 0 0 0 28.668 95.151c30.185 76.68 76.11 143.96 136.499 199.968 41.911 38.872 90.169 72.046 147.53 101.42 43.057 22.052 73.206 30.982 73.506 31.07a3.004 3.004 0 0 1 1.627 1.174c20.146 29.164 24.942 65.048 25.419 90.017.515 26.948-3.633 46.77-3.81 47.601a3.002 3.002 0 0 1-2.869 2.375c-5.332.116-10.673.174-16.018.174zm15.952-3.173h.01zm-670.665-394.26.032.044c1.648 2.355 3.4 4.871 5.257 7.534 31.431 45.114 89.935 129.089 182.189 207.891 113.213 96.704 241.135 154.177 380.212 170.821a740.133 740.133 0 0 0 100.475 5.019c2.346-13.381 12.169-81.476-20.527-129.776-5.715-1.78-34.401-11.138-73.516-31.171-57.858-29.627-106.556-63.11-148.876-102.361-61.054-56.625-107.484-124.646-138.004-202.172a619.637 619.637 0 0 1-28.156-92.44l-192.166 87.82-67.847 77.335.927 1.456z" fill="#232323"/><path d="M1421.978 1410.627c-34.517.751-110.438-1.934-167.438-15.934l72.268-150.63c43.858 22.463 74.031 31.279 74.031 31.279 38.172 55.264 21.139 135.285 21.139 135.285z" fill="#d9c6f4"/><path clip-path="url(#d)" d="M1294.539 1420.694a5 5 0 0 1-4.649-6.84l66.152-167.343a5 5 0 1 1 9.299 3.676l-66.152 167.343a5 5 0 0 1-4.65 3.164z" fill="#fff"/><path d="M996.943 1229.535c-8.262 0-18.154-2.004-27.929-9.052a3 3 0 0 1 3.509-4.867c17.077 12.314 34.899 6.971 40.758 5.216l.141-.042a3 3 0 0 1 1.722 5.748l-.141.042c-3.265.978-9.859 2.955-18.06 2.955z" fill="#232323"/><path d="M1406.027 1413.8a745.4 745.4 0 0 1-87.732-5.185c-140.276-16.788-269.27-74.729-383.398-172.216-92.841-79.303-151.632-163.689-183.216-209.024-1.815-2.604-3.53-5.066-5.147-7.377a3.222 3.222 0 0 1-.186-.26 884.367 884.367 0 0 0-2.228-3.49 3 3 0 0 1 .271-3.598l69.758-79.514a3.003 3.003 0 0 1 1.008-.75l196.137-89.635a2.998 2.998 0 0 1 4.181 2.099 613.41 613.41 0 0 0 28.668 95.151c30.185 76.68 76.11 143.96 136.499 199.968 41.911 38.872 90.169 72.046 147.53 101.42 43.057 22.052 73.206 30.982 73.506 31.07a3.004 3.004 0 0 1 1.627 1.174c20.146 29.164 24.942 65.048 25.419 90.017.515 26.948-3.633 46.77-3.81 47.601a3.002 3.002 0 0 1-2.869 2.375c-5.332.116-10.673.174-16.018.174zm15.952-3.173h.01zm-670.665-394.26.032.044c1.648 2.355 3.4 4.871 5.257 7.534 31.431 45.114 89.935 129.089 182.189 207.891 113.213 96.704 241.135 154.177 380.212 170.821a740.133 740.133 0 0 0 100.475 5.019c2.346-13.381 12.169-81.476-20.527-129.776-5.715-1.78-34.401-11.138-73.516-31.171-57.858-29.627-106.556-63.11-148.876-102.361-61.054-56.625-107.484-124.646-138.004-202.172a619.637 619.637 0 0 1-28.156-92.44l-192.166 87.82-67.847 77.335.927 1.456z" fill="#232323"/><path d="M1390.404 1267.302s127.647 27.514 190.882 52.903c0 0-114.682 190.805-159.206 250.047-24.164 32.15-47.108 40.408-61.187 42.406l-.086-.114c-.043-.057-.109-.138-.182-.243-.004-.002-.006-.007-.004-.01v-.001c-3.167-4.517-33.677-50.254-25.947-131.315 1.211-12.635 7.128-51.946 25.251-90.12 12.401-26.122 26.478-46.128 31.08-64.968 5.845-23.923-8.008-47.72-.601-58.585z" fill="#fff"/><path d="M1360.894 1615.658c-.95 0-1.854-.451-2.424-1.231l.021-.017-.087-.092-.012.009a7.186 7.186 0 0 1-.237-.324c-.02-.028-.038-.057-.057-.085-3.834-5.505-34.158-51.972-26.41-133.227.459-4.791 5.075-48.04 25.527-91.122 4.517-9.514 9.159-18.049 13.648-26.303 7.717-14.186 14.381-26.438 17.228-38.091 2.827-11.575.778-23.244-1.029-33.539-1.855-10.563-3.458-19.687.863-26.024a3.003 3.003 0 0 1 3.11-1.243c1.279.276 128.623 27.859 191.368 53.052a3.003 3.003 0 0 1 1.454 4.33c-1.147 1.91-115.271 191.617-159.378 250.304-13.284 17.675-35.026 39.582-63.164 43.574a3.158 3.158 0 0 1-.421.029zm-.558-2.778-.026.053.49-.397zm31.66-342.16c-1.716 4.553-.456 11.728.976 19.878 1.815 10.337 4.075 23.203.948 36-3.031 12.411-9.868 24.98-17.785 39.534-4.45 8.183-9.053 16.644-13.499 26.009-20.013 42.157-24.526 84.438-24.975 89.12-7.173 75.227 18.865 119.407 24.626 128.14 25.24-4.383 45.087-24.574 57.396-40.951 40.855-54.362 142.313-222.068 157.205-246.758-58.621-22.812-167.943-47.246-184.892-50.972z" fill="#232323"/><path d="M1387.861 1268.717c-3.111 9.153-1.835 16.799-.089 24.917 14.191 43.575-24.345 70.874-39.346 120.818-16.341 52.24-21.489 109.417-4.496 162.048l.008.005c2.344 7.286 5.646 15.492 8.545 21.423 72.086-30.059 91.371-106.141 97.844-145.531 5.581-33.973 25.183-32.989 31.893-59.347 5.605-22.012-6.72-34.803 5.119-59.908 11.065-23.463 36.879-32.766 36.879-32.766s-81.192-18.818-136.357-31.659z" fill="#232323"/><path d="M1513.519 1380.12c-2.683 0-5.211-.656-7.45-2.036-4.841-2.984-7.413-8.764-7.243-16.275.156-6.927 2.652-14.652 7.029-21.752 9.492-15.398 24.454-22.818 34.069-16.894 9.612 5.926 9.707 22.63.215 38.028-7.282 11.812-17.785 18.929-26.62 18.929zm-4.302-7.143c5.808 3.58 17.571-1.562 25.814-14.935 8.242-13.371 7.556-26.189 1.744-29.772-5.816-3.582-17.571 1.564-25.813 14.935-3.825 6.206-6.006 12.861-6.139 18.739-.119 5.294 1.442 9.212 4.394 11.033z" fill="#232323"/><path d="M1393.665 1364.568a3 3 0 0 1-2.331-4.886c16.817-20.8 25.421-24.061 41.038-29.979 4.019-1.522 8.572-3.249 13.863-5.518 23.893-10.248 32.779-29.502 32.866-29.696a3.004 3.004 0 0 1 3.963-1.51 2.999 2.999 0 0 1 1.517 3.955c-.39.875-9.836 21.551-35.98 32.765-5.409 2.32-10.027 4.07-14.102 5.614-15.115 5.729-22.703 8.604-38.499 28.141a2.992 2.992 0 0 1-2.335 1.114z" fill="#fff"/><path d="M1340.206 1448.801a7.5 7.5 0 0 1-5.215-12.891c32.708-31.632 76.954-28.434 78.822-28.284a7.5 7.5 0 0 1-1.213 14.951c-.374-.029-39.46-2.696-67.182 24.115a7.473 7.473 0 0 1-5.212 2.109zm-6.184 36.941a7.5 7.5 0 0 1-5.327-12.779c33.971-34.272 76.884-31.152 78.696-31.001a7.5 7.5 0 0 1 6.856 8.092c-.342 4.129-3.97 7.187-8.093 6.857-.352-.027-37.896-2.555-66.806 26.612a7.476 7.476 0 0 1-5.326 2.219zm-2.437 35.815a7.5 7.5 0 0 1-5.39-12.715c30.533-31.56 68.239-29.7 69.823-29.607a7.5 7.5 0 0 1 7.041 7.932c-.245 4.135-3.805 7.274-7.932 7.042-.292-.012-32.563-1.386-58.151 25.063a7.476 7.476 0 0 1-5.391 2.285zm-657.79-687.114c10.213 36.766 18.181 70.916 45.447 125.447 26.383 52.766 50.25 90.151 71.174 123.895 0 0 25.133 31.899 40.599 48.332 85.177-76.389 184.557-132.451 197.829-140.542 44.35-27.037 82.434-30.882 90.339-22.977 0 0-56.997-74.471-100.265-156.014z" fill="#d9c6f4"/><g fill="#232323"><path clip-path="url(#e)" d="M1046.978 988.703c-.92 0-1.827-.421-2.416-1.218-18.592-25.19-77.737-131.875-88.295-164.501a3 3 0 1 1 5.709-1.847c10.435 32.247 68.994 137.83 87.414 162.785a3 3 0 0 1-2.412 4.781zm24.145-2.332c-.959 0-1.9-.458-2.481-1.311-34.876-51.146-77.497-131.76-95.422-174.962a3 3 0 1 1 5.541-2.3c17.812 42.927 60.17 123.041 94.838 173.882a3 3 0 0 1-2.476 4.691zm-266.588 126.57a2.996 2.996 0 0 1-2.459-1.278c-51.74-73.778-87.473-147.635-87.827-148.373a2.999 2.999 0 1 1 5.406-2.602c.353.733 35.885 74.168 87.333 147.529a3.001 3.001 0 0 1-2.453 4.724z"/><path d="M542.76 41.405a36.034 36.034 0 0 1 31.923-7.49c3.072-36.628 57.204-42.428 66.274-8.117 26.309-32.513 74.725-5.975 68.649 26.768-2.231 12.021-4.912 33.862 4.445 51.051-14.03 10.994-33.956 59.524-33.956 59.524s-66.792-40.261-100.599-56.624c-1.933-6.766-4.294-13.047-4.64-14.5-42.531 2.9-50.651-34.188-32.096-50.612z"/><path d="M680.096 166.142a3 3 0 0 1-1.549-.431c-.667-.402-67.062-40.378-100.357-56.494a2.996 2.996 0 0 1-1.578-1.876c-1.161-4.064-2.468-7.917-3.422-10.73l-.5-1.479c-19.324.649-34.143-7.04-39.927-20.862-5.118-12.23-1.899-26.341 8.01-35.111l.049-.042c8.671-7.345 20.159-10.518 31.287-8.776 3.178-19.022 19.144-28.858 34.268-30.183 13.639-1.193 29.234 4.599 35.769 19.87 12.516-12.326 30.333-15.51 46.717-7.958 16.983 7.828 26.727 24.706 23.694 41.045-3.809 20.527-2.419 37.037 4.131 49.069a2.999 2.999 0 0 1-.784 3.795c-5.385 4.219-12.781 15.572-21.39 32.83-6.612 13.258-11.593 25.352-11.642 25.473a2.999 2.999 0 0 1-2.776 1.86zm-98.09-61.74c29.747 14.558 83.484 46.501 96.666 54.387 4.543-10.639 19.456-44.183 31.645-55.885-6.278-13.027-7.511-30.129-3.659-50.885 2.53-13.636-5.82-27.824-20.308-34.501-12.263-5.652-30.017-5.949-43.06 10.168a3 3 0 0 1-5.232-1.121C635.297 16.124 625.48 4.512 606.9 6.135c-13.476 1.181-27.739 10.306-29.227 28.032a3.002 3.002 0 0 1-3.708 2.662c-10.246-2.528-21.177.03-29.24 6.845-7.966 7.069-10.549 18.43-6.428 28.281 5.055 12.08 18.303 18.297 36.355 17.07a2.997 2.997 0 0 1 3.122 2.298c.103.429.586 1.853 1.097 3.361.874 2.575 2.037 6.004 3.135 9.718z"/></g><path clip-path="url(#f)" d="M594.237 47.153a2.997 2.997 0 0 1-2.528-1.38c-13.104-20.427-32.29-16.645-33.1-16.474a3.01 3.01 0 0 1-3.559-2.304 2.996 2.996 0 0 1 2.286-3.56c.241-.052 24.005-4.934 39.423 19.098a3 3 0 0 1-2.522 4.62z" fill="#fff"/><path d="M563.227 221.214c1.35 9.974 8.79 19.034 20.351 22.566 30.099 9.199 63.527-6.684 63.527-6.684s26.858 26.846 38.441 66.019c0 0 35.935-8.353 109.476-51.814 0 0-39.278-47.634-66.218-79.348 18.358-6.667 35.31-30.409 25.074-55.021-5.839-14.039-23.629-20.578-38.182-14.909-14.951 5.823-22.383 20.76-31.452 36.255-10.253 17.518-16.945 6.23-25.662-7.932-5.6-9.098-12.025-19.383-20.77-23.982-19.765-10.405-58.469-.342-58.469-.342s.919 5.126 1.627 11.656c.936 8.637 1.481 19.721-.978 24.653-4.326 8.655-10.464 8.597-9.646 13.508.702 4.211 6.433 8.302 9.59 9.939 4.102 28.888-19.868 32.166-16.709 55.436z" fill="#fff"/><path d="M685.544 306.115a3.002 3.002 0 0 1-2.875-2.15c-9.717-32.861-30.679-57.177-36.285-63.267-7.834 3.33-36.736 14.183-63.684 5.95-12.262-3.746-20.863-13.338-22.446-25.032v.001c-1.648-12.145 3.444-19.445 8.368-26.506 5.134-7.36 9.992-14.327 8.528-27.463-2.854-1.714-8.861-5.91-9.764-11.315-.701-4.207 1.843-6.371 4.088-8.281 1.879-1.599 4.01-3.411 5.834-7.062 1.653-3.317 1.901-11.697.679-22.988-.687-6.34-1.589-11.399-1.598-11.45a3.001 3.001 0 0 1 2.198-3.433c1.627-.423 40.067-10.23 60.622.591 9.613 5.056 16.441 16.15 21.928 25.065l.309.501c4.517 7.342 9.188 14.933 12.759 14.933h.027c1.989-.022 4.626-2.666 7.423-7.445a749.278 749.278 0 0 0 2.495-4.303c8.187-14.179 15.919-27.571 30.457-33.233 16.399-6.387 35.652 1.192 42.04 16.553 5.782 13.901 2.981 25.951-.386 33.611-4.494 10.226-12.914 19.003-22.54 23.722 26.518 31.3 63.234 75.817 63.614 76.278a3.002 3.002 0 0 1-.788 4.491c-73.098 43.199-108.837 51.808-110.322 52.153a2.956 2.956 0 0 1-.681.079zm-38.441-72.018c.779 0 1.547.303 2.122.877 1.092 1.092 26.28 26.575 38.334 64.476 9.443-2.781 43.708-14.256 102.91-48.951-8.716-10.552-41.004-49.588-63.952-76.603a2.997 2.997 0 0 1-.613-2.711 2.997 2.997 0 0 1 1.875-2.051c9.727-3.532 18.535-12.022 22.99-22.156 2.896-6.589 5.306-16.95.339-28.893-5.079-12.211-21.119-18.408-34.323-13.266-12.574 4.897-19.463 16.828-27.438 30.642a760.483 760.483 0 0 1-2.514 4.333c-4.129 7.057-8.112 10.366-12.534 10.415h-.097c-6.922 0-11.995-8.247-17.866-17.789l-.308-.5c-5.103-8.291-11.453-18.609-19.612-22.899-15.618-8.223-44.738-2.698-53.658-.719.335 2.154.796 5.373 1.194 9.055 1.402 12.949.974 21.803-1.275 26.314-2.373 4.748-5.229 7.178-7.313 8.952-2.126 1.809-2.176 2.021-2.059 2.724.408 2.445 4.477 5.937 8.012 7.769a3.004 3.004 0 0 1 1.591 2.242c2.331 16.42-3.882 25.329-9.363 33.188-4.656 6.676-8.678 12.442-7.345 22.267v.001c1.266 9.344 8.26 17.045 18.255 20.099 28.594 8.741 61.041-6.371 61.364-6.524.41-.198.849-.292 1.284-.292z" fill="#232323"/><g clip-path="url(#g)"><path d="m575.085 93.599 4.259 12.432s47.654-16.235 126.946 11.941l15.494-24.022c.001.001-64.705-23.074-146.699-.351z" fill="#fff"/><path d="M706.29 120.973c-.335 0-.674-.057-1.004-.174-40.358-14.341-72.182-16.821-91.795-16.372-21.223.484-33.065 4.405-33.183 4.445a3.003 3.003 0 0 1-3.802-1.868l-4.26-12.432a3 3 0 0 1 2.038-3.864c81.959-22.713 147.853.183 148.509.417a3.004 3.004 0 0 1 1.833 1.86 3.005 3.005 0 0 1-.319 2.592l-15.494 24.022a3.005 3.005 0 0 1-2.523 1.374zm-88.46-22.675c21.389 0 50.909 3.436 87.223 16.059l12.076-18.722c-14.481-4.239-70.357-17.909-138.167.022l2.292 6.691c5.338-1.41 17.837-4.05 36.576-4.05z" fill="#232323"/></g><g clip-path="url(#h)" fill="#232323"><path d="M647.105 237.1s20.051-11.7 28.522-30.3c5.274 1.738 15.752 29.417-7.068 47.158-23.858 18.545-21.454-16.858-21.454-16.858z"/><path d="M656.803 262.331c-1.716 0-3.305-.387-4.765-1.164-8.981-4.778-8.062-22.289-7.927-24.27a3 3 0 0 1 1.479-2.387c.192-.113 19.344-11.473 27.306-28.954a2.999 2.999 0 0 1 3.669-1.605c4.274 1.408 7.414 8.946 8.522 15.353 1.174 6.786 2.092 23.977-14.688 37.022-5.142 3.998-9.694 6.005-13.596 6.005zm-6.769-23.515c-.111 5.497.847 14.943 4.824 17.056 2.435 1.292 6.646-.229 11.859-4.282 12.342-9.595 13.346-21.764 12.846-28.163-.402-5.153-1.881-9.137-3.183-11.488-8.052 14.386-21.868 24.013-26.346 26.877z"/></g><path d="M630.614 125.161c-5.581-33.982-51.096-19.417-34.19-8.117 6.777 2.712 12.792 4.896 19.257 8.383 3.922 2.212 13.344 7.863 14.954.487.016-.251.01-.503-.021-.753zm-10.772 11.322c-4.557-.794-15.542-2.447-25.831-7.218a2.863 2.863 0 0 0-3.804 1.386l-.001.001-.012.028c-1.703 3.736-3.386 10.254 4.042 12.607 9.127 2.892 23.555-.467 26.561-4.502a1.469 1.469 0 0 0-.956-2.302z" fill="#232323"/><path d="M728.804 171.953c18.358-6.667 35.31-30.409 25.074-55.021-5.839-14.039-23.629-20.578-38.182-14.909-14.951 5.823-22.383 20.76-31.452 36.255" fill="#fff"/><path d="M728.804 174.955a3 3 0 0 1-1.024-5.821c9.727-3.532 18.535-12.022 22.99-22.156 2.896-6.589 5.306-16.95.339-28.893-5.079-12.211-21.119-18.408-34.323-13.266-12.574 4.897-19.463 16.828-27.438 30.642a760.483 760.483 0 0 1-2.514 4.333 3 3 0 1 1-5.177-3.031 749.188 749.188 0 0 0 2.495-4.302c8.187-14.179 15.919-27.571 30.457-33.233 16.399-6.387 35.652 1.192 42.04 16.553 5.782 13.901 2.981 25.951-.386 33.611-5.091 11.583-15.221 21.309-26.434 25.382a3.028 3.028 0 0 1-1.025.181z" fill="#232323"/><path d="M706.294 154.555a3 3 0 0 1-2.992-3.257c1.364-15.882 8.927-24.392 15.029-28.734 6.65-4.731 13.01-5.64 13.276-5.676a3 3 0 0 1 .817 5.944c-.881.127-20.94 3.324-23.145 28.979a2.999 2.999 0 0 1-2.985 2.744z" fill="#232323"/><ellipse cx="597.089" cy="194.481" fill="#232323" rx="5.8" ry="9.666" transform="matrix(.5 -.866 .866 .5 130.1192 614.3348)"/><path d="M707.169 177.876a3 3 0 0 1-.068-5.999c13.971-.321 20.587-2.709 20.652-2.733a3.002 3.002 0 0 1 3.855 1.762 2.995 2.995 0 0 1-1.743 3.854c-.298.113-7.479 2.767-22.626 3.115l-.07.001z" fill="#232323"/><path d="M526.727 448.14s146.992-172.502 268.812-176.447c121.723-3.943 31.537 305.513-209.077 356.719-129.208 27.497-274.237-99.634-314.321-136.221-24.889-22.717-46.223-49.384-53.689-60.051-62.935-88.536-42.668-98.136-25.601-86.403 34.134 23.467 26.173-.134 22.401-14.934-13.867-54.402-1.067-67.202 9.6-48.001-7.467-36.268 10.667-32.001 22.401 1.067-4.267-18.134 6.4-29.868 23.467 14.934.813-13.008 14.792-7.595 34.803 38.968 18.016 41.922 27.957 63.157 79.016 75.922 72.001 18 142.188 34.447 142.188 34.447z" fill="#fff"/><path d="M548.679 635.291c-46.464.001-98.173-16.183-154.29-48.355-40.854-23.422-82.664-54.553-124.27-92.529-23.859-21.777-45.44-48.14-54.125-60.547-25.146-35.375-52.58-80.164-40.396-92.54 4.012-4.078 11.274-3.335 18.952 1.944 16.04 11.026 19.783 9.52 20.373 9.107 2.433-1.71-.471-12.772-1.865-18.088-.246-.937-.487-1.854-.713-2.74-8.591-33.703-8.228-56.007.972-59.664 1.297-.515 3.845-1.012 6.99.974-.76-8.74.307-16.68 6.163-18.314 5.576-1.548 12.104 4.176 17.906 15.122.933-2.403 2.457-4.049 4.51-4.679 6.521-2 13.896 6.766 21.977 26.076a6.112 6.112 0 0 1 2.793-1.282c12.207-2.123 28.273 32.031 34.624 46.809 9.591 22.315 16.165 36.685 26.574 48.054 11.268 12.307 26.346 20.125 50.414 26.143 64.876 16.219 129.03 31.353 140.38 34.022 6.778-7.765 41.488-46.778 87.875-85.707 30.332-25.455 59.668-45.914 87.194-60.809 34.6-18.722 66.47-28.679 94.727-29.595 16.295-.524 29.556 4.263 39.346 14.241 9.135 9.309 14.816 22.668 16.889 39.708 5.818 47.833-18.148 116.212-61.057 174.203-51.64 69.792-123.922 117.558-203.534 134.5-12.362 2.632-25.176 3.946-38.409 3.946zM182.326 344.708c-1.058 0-1.906.266-2.453.821-1.147 1.166-9.745 13.451 41.024 84.872 5.916 8.452 26.991 35.591 53.267 59.574 41.282 37.68 82.735 68.551 123.209 91.755 70.779 40.579 134.188 55.298 188.466 43.747 78.178-16.637 149.191-63.587 199.959-132.2 42.045-56.824 65.566-123.518 59.924-169.91-3.93-32.309-21.72-49.609-50.085-48.676-62.05 2.01-131.148 49.479-178.189 88.945-51.204 42.961-88.07 86.02-88.437 86.449a3.008 3.008 0 0 1-2.968.975c-.702-.165-71.032-16.658-142.23-34.458-24.959-6.24-41.424-14.849-53.385-27.912-11.846-12.938-19.175-29.991-27.66-49.736-15.982-37.189-26.228-43.578-28.087-43.267-.17.029-.816.892-.967 3.301a3 3 0 0 1-5.798.881c-9.532-25.023-16.057-29.38-17.276-29.149-.833.397-2.261 4.837-.467 12.46a2.999 2.999 0 0 1-5.747 1.69c-6.695-18.87-14.289-25.117-16.344-24.552-.9.251-3.78 4.933-.292 21.877a3 3 0 0 1-5.561 2.062c-3.253-5.854-5.905-7.118-6.697-6.803-3.066 1.219-6.664 16.158 2.627 52.606.223.873.459 1.776.701 2.699 2.634 10.036 5.357 20.413-.488 24.521-4.795 3.37-13.192.573-27.221-9.072-3.287-2.258-6.543-3.5-8.825-3.5z" fill="#232323"/><path clip-path="url(#i)" d="M536.864 464.474a3.002 3.002 0 0 1-2.656-1.6c-19.884-37.674-37.854-58.981-38.034-59.192a3 3 0 1 1 4.572-3.886c.749.881 18.579 22.025 38.769 60.277a3.002 3.002 0 0 1-2.651 4.401zM285.041 351.153a3.002 3.002 0 0 1-2.907-2.266c-9.294-36.818-27.486-89.095-27.669-89.619a3 3 0 1 1 5.666-1.975c.184.526 18.461 53.048 27.821 90.125a3 3 0 0 1-2.911 3.735zm-41.703 4.085a3.002 3.002 0 0 1-2.916-2.307c-16.103-67.766-32.073-110.877-32.232-111.305a3 3 0 1 1 5.621-2.096c.161.431 16.253 43.856 32.449 112.015a3 3 0 0 1-2.922 3.693zm21.616-2.383a3.001 3.001 0 0 1-2.921-2.327c-7.419-32.212-14.557-57.131-29.375-102.551a3 3 0 0 1 5.705-1.862c14.88 45.613 22.053 70.657 29.518 103.066a3.001 3.001 0 0 1-2.927 3.674z" fill="#232323"/><path d="M684.086 299.844s-87.547 72.849-125.062 113.797l55.464 67.93c.001 0 86.998-138.228 69.598-181.727z" fill="#fff"/><path d="M614.488 484.571a3 3 0 0 1-2.324-1.103l-55.464-67.93a3 3 0 0 1 .112-3.924c37.222-40.628 124.478-113.347 125.354-114.077a3.002 3.002 0 0 1 4.704 1.192c17.763 44.407-66.259 178.743-69.844 184.44a3 3 0 0 1-2.538 1.402zm-51.492-70.808 51.153 62.649c6.01-9.822 23.298-38.689 38.988-70.754 23.342-47.7 33.421-82.271 29.401-100.606-16.322 13.712-86.061 72.766-119.542 108.711z" fill="#232323"/><path d="M789.449 244.746c-49.298 41.565-103.43 57.031-105.363 55.098-54.132 109.23-83.131 218.459-78.297 376.021 1.986 64.741 9.666 149.828 9.666 149.828 65.734 39.107 255.017 53.132 401.352-12.173-33.239-434.444-227.358-568.774-227.358-568.774z" fill="#fff"/><path d="M788.162 861.746c-75.55 0-140.843-13.605-174.241-33.475a3.003 3.003 0 0 1-1.454-2.309c-.076-.852-7.711-85.917-9.677-150.006-2.347-76.53 3.248-144.2 17.106-206.875 12.658-57.244 32.2-111.444 61.501-170.57a3 3 0 0 1 3.66-1.506c6.082-.155 56.145-15.504 102.458-54.553a2.998 2.998 0 0 1 3.641-.173c2.003 1.386 49.665 34.957 102.08 122.395 30.712 51.233 56.581 110.383 76.889 175.805 25.362 81.707 42.074 173.494 49.673 272.812a3 3 0 0 1-1.769 2.969c-73.012 32.583-156.302 45.485-229.867 45.486zm-169.855-37.86c33.836 19.468 97.802 31.657 167.608 31.875 81.708.295 162.492-15.402 227.737-44.125-7.628-97.923-24.163-188.432-49.154-269.044-20.128-64.926-45.754-123.614-76.168-174.434-46.098-77.026-89.479-112.513-98.768-119.597-25.861 21.427-51.891 35.068-69.343 42.789-8.852 3.917-17.705 7.262-24.929 9.42-4.598 1.374-7.498 1.99-9.389 2.169-28.597 57.996-47.723 111.25-60.147 167.438-13.749 62.183-19.299 129.368-16.967 205.396 1.815 59.162 8.479 136.305 9.52 148.113zm67.891-526.172.002.001-.002-.001z" fill="#232323"/><path d="M572.923 453.539c76.334 50.256 149.828 199.127 128.342 236.554-15.246 20.571-88.71 3.171-128.342-236.554z" fill="#232323"/><path d="M687.274 699.442c-2.288 0-4.688-.292-7.154-.888-25.068-6.054-45.548-38.554-55.524-57.388-22.855-43.15-41.237-106.112-54.633-187.138a3.002 3.002 0 0 1 1.325-3.005 3.003 3.003 0 0 1 3.284.01c35.188 23.167 73.267 69.597 101.862 124.202 12.872 24.58 22.376 48.246 27.484 68.438 5.572 22.026 5.555 38.146-.053 47.914a2.99 2.99 0 0 1-.191.292c-3.651 4.928-9.521 7.563-16.4 7.563zM577.06 460.05c13.178 77.01 30.944 136.976 52.838 178.308 22.141 41.8 41.852 52.003 51.63 54.365 7.39 1.784 13.81.185 17.223-4.278 9.341-16.666-1.74-60.982-27.632-110.426-26.572-50.743-61.327-94.222-94.059-117.969zm124.205 230.043h.01z" fill="#232323"/><path d="M509.588 508.326s195.643-220.68 276.951-231.633c137.086-18.467 19 386-241 410-117.239 10.822-222.736-21.942-299.378-56.932-47.102-21.504-138.647-57.883-174.915-72.817-43.779-18.027-50.135-36.268-34.134-37.334-28.801-7.467-32.001-24.534-13.867-27.734-25.601-8.534-18.134-27.734 9.6-24.534-19.201-11.734-12.8-27.734 28.801-21.334 24.249 3.731 61.027 16.831 66.135 7.467 6.4-11.734-10.781-51.464 9.6-46.935 10.671 2.371 25.881 23.014 42.523 39.973 28.634 29.181 42.811 34.726 70.248 37.542 85.6 8.787 259.436 24.271 259.436 24.271z" fill="#fff"/><path d="M499.274 691.813c-82.623.001-167.963-19.879-254.358-59.323-35.958-16.416-96.845-41.104-141.303-59.131-13.396-5.432-24.965-10.123-33.509-13.641-34.34-14.14-45.185-27.689-43.883-35.653a7.793 7.793 0 0 1 2.08-4.124c-12.228-4.73-19.59-11.874-19.3-19.212.149-3.777 2.292-6.941 5.995-9.12-8.913-4.851-11.286-11.123-10.214-15.957 1.265-5.697 7.608-10.851 19.15-11.585-3.918-4.22-5.344-8.707-3.859-12.766 3.24-8.86 18.564-11.869 42.029-8.26 7.377 1.135 15.93 3.132 24.2 5.062 9.443 2.205 19.207 4.484 26.692 5.328 9.96 1.126 11.82-.784 12.152-1.395 2.008-3.681.966-12.41.047-20.112-1.327-11.123-2.58-21.628 2.723-26.426 2.437-2.203 5.842-2.837 10.115-1.889 8.567 1.904 18.639 13.076 30.3 26.012 4.434 4.918 9.018 10.003 13.714 14.789 27.665 28.193 41.347 33.881 68.413 36.659 80.386 8.252 240.639 22.592 257.893 24.133 7.313-8.176 53.282-59.202 107.146-110.754 78.866-75.481 136.278-116.101 170.641-120.729 19.997-2.692 36.141 3.312 46.681 17.365 11.846 15.792 16.508 41.181 13.481 73.422-2.958 31.522-12.993 67.278-29.021 103.401-43.996 99.159-138.415 209.491-271.466 221.772a505.46 505.46 0 0 1-46.539 2.134zM26.986 469.991c-9.654 0-15.53 3.288-16.345 6.96-.778 3.504 3.111 8.597 13.553 12.077a3 3 0 0 1-.427 5.8c-5.377.949-8.656 3.243-8.771 6.136-.19 4.826 7.604 11.782 22.869 15.74a3 3 0 0 1-.554 5.897c-1.132.076-4.85.474-5.169 2.43-.744 4.552 9.524 16.487 40.246 29.138 8.528 3.512 20.09 8.2 33.479 13.628 44.508 18.047 105.465 42.764 141.54 59.233 101.756 46.457 201.963 65.525 297.856 56.674C675.73 671.663 768.49 563.078 811.797 465.475c32.086-72.315 38.605-140.951 16.224-170.79-9.29-12.386-23.107-17.437-41.08-15.019-79.28 10.68-273.158 228.451-275.107 230.65a2.987 2.987 0 0 1-2.512.998c-1.738-.155-174.835-15.586-259.475-24.275-28.682-2.944-43.12-8.911-72.083-38.426-4.784-4.876-9.412-10.009-13.888-14.974-10.516-11.666-20.448-22.684-27.144-24.172-2.27-.505-3.88-.343-4.788.48-3.004 2.718-1.777 13.002-.791 21.267 1.125 9.428 2.188 18.333-.737 23.696-4.444 8.15-20.178 4.943-45.477-.963-8.16-1.905-16.599-3.875-23.748-4.975-25.323-3.898-34.217.926-35.482 4.39-1.108 3.03 2.308 7.512 8.701 11.419a3 3 0 0 1 1.271 3.537 2.987 2.987 0 0 1-3.18 2.003 48.254 48.254 0 0 0-5.515-.33z" fill="#232323"/><path clip-path="url(#j)" d="M83.683 537.026c-.273 0-.551-.038-.826-.116-44.424-12.693-70.816-22.968-71.078-23.07a3 3 0 0 1 2.187-5.588c.26.102 26.418 10.282 70.54 22.888a3.001 3.001 0 0 1-.823 5.886zm3.065-26.043c-.191 0-.386-.019-.58-.057-54.092-10.606-84.06-23.38-84.355-23.508a3 3 0 0 1 2.375-5.51c.291.125 29.743 12.662 83.135 23.131a3 3 0 0 1-.575 5.944zm4.168-27.915c-.17 0-.341-.014-.514-.044-61.536-10.61-86.251-21.548-87.273-22.008a3 3 0 0 1 2.464-5.471c.323.144 25.298 11.129 85.829 21.566a2.998 2.998 0 0 1 2.446 3.466 3 3 0 0 1-2.952 2.491z" fill="#232323"/><path d="M526.55 555.456a3 3 0 0 1-2.908-2.273c-6.021-24.08-16.141-43.476-16.242-43.669a3 3 0 0 1 5.311-2.793c.428.813 10.55 20.196 16.752 45.007a3 3 0 0 1-2.913 3.728z" fill="#232323"/><path d="M815.549 276.645c-49.87-21.943-146.009 65.048-263.891 185.594 173.994 200.092 149.828 228.126 149.828 228.126 118.896-121.797 186.56-381.821 114.063-413.72z" fill="#fff"/><path d="m703.632 692.46-2.146-2.096-2.272-1.959s-.07.059-.16.21c.047-.079 4.495-8.292-12.373-40.801-21.965-42.332-68.154-104.105-137.286-183.606a3 3 0 0 1 .119-4.066C677.762 328.997 767.21 252.096 816.758 273.899c14.699 6.468 24.429 21.492 28.919 44.654 8.271 42.672-2.44 111.043-28.654 182.893-27.717 75.966-69.046 145.588-113.391 191.014zM555.736 462.359C681.042 606.74 703.333 661.791 705.424 681.835c77.527-84.52 153.434-263.75 134.361-362.14-4.093-21.116-12.654-34.676-25.444-40.304-22.09-9.719-55.915 3.042-103.422 39.009-48.267 36.544-105.379 93.076-155.183 143.959z" fill="#232323"/></svg></g></svg>