<svg height="1943.11" viewBox="0 0 2346.82 1943.11" width="2346.82" xmlns="http://www.w3.org/2000/svg" xmlns:xlink="http://www.w3.org/1999/xlink"><clipPath id="a"><path d="m1334.313 27.418c-15.543-5.561-38.198-4.887-56.969 8.621-28.546-60.241-110.506-37.205-115.005 12.361-64.144-35.835-125.801 39.016-94.509 88.427 11.485 18.14 31.724 56.606 27.681 90.732 30.074 8.767 92.66 70.255 92.66 70.255s105.903-139.508 152.029-160.945c57.592-26.761 35.11-94.784-5.887-109.451z"/></clipPath><path d="m1334.313 27.418c-15.543-5.561-38.198-4.887-56.969 8.621-28.546-60.241-110.506-37.205-115.005 12.361-64.144-35.835-125.801 39.016-94.509 88.427 11.485 18.14 28.325 58.22 24.283 92.346 30.068 8.767 96.059 68.641 96.059 68.641s105.903-139.508 152.029-160.945c57.592-26.761 35.11-94.784-5.887-109.451z" fill="#232323"/><g clip-path="url(#a)"><path d="m1247.079 73.016c-.302 0-.607-.046-.91-.142-1.579-.502-2.452-2.189-1.949-3.768 2.388-7.507 6.108-14.558 11.058-20.956 15.033-19.43 36.765-26.879 37.683-27.187 1.57-.53 3.271.321 3.798 1.891.526 1.571-.32 3.271-1.892 3.798-.847.284-20.911 7.163-34.843 25.17-4.519 5.84-7.912 12.268-10.087 19.103-.405 1.276-1.586 2.092-2.857 2.092z" fill="#fff"/></g><path d="m1406.926 360.73c-22.911 33.03-70.204 40.521-107.473 40.699-.495 0-9.218.095-9.235-.183 0 0 8.999 90 18.576 131.991 0 0-120.77 145.523-242.725-14.197 0 0 42.775-85.652 62.99-171.874-34.304 1.109-89.089-29.887-88.463-76.689.355-26.698 21.33-47.91 49.521-44.655 27.378 3.161 39.902 17.095 64.8 36.461 39.008 30.349 20.987-27.489 68.862-83.617 25.449-29.857 79.781-39.529 116.426-41.795 4.556 27.328 10.917 54.324 19.04 80.813 12.04 39.886 40.609 59.584 53.943 90.391 7.156 16.617 4.519 37.121-6.263 52.655z" fill="#fff"/><path d="m1189.899 596.903c-.789 0-1.577-.008-2.371-.024-44.349-.9-86.016-26.477-123.844-76.019-.694-.91-.811-2.137-.299-3.161.42-.841 41.635-83.89 61.875-167.537-21.615-.687-47.849-12.415-65.186-29.426-14.95-14.669-22.724-32.063-22.479-50.3.191-14.346 6.13-27.699 16.294-36.637 9.842-8.654 22.832-12.546 36.571-10.958 23.666 2.732 36.711 13.279 54.765 27.875 3.635 2.938 7.393 5.977 11.533 9.197 7.819 6.083 13.301 8.54 16.776 7.499 4.934-1.477 8.182-11.031 12.295-23.126 6.144-18.072 14.559-42.821 35.667-67.568 28.841-33.837 92.494-41.233 118.522-42.842 1.567-.095 2.893.985 3.145 2.501 4.517 27.093 10.893 54.152 18.949 80.427 6.756 22.38 18.861 38.299 30.569 53.693 8.964 11.787 17.43 22.92 23.258 36.385 7.446 17.29 4.873 39.096-6.55 55.556-23.851 34.385-72.941 41.813-109.923 41.989l-.385.002c-.906.006-3.134.023-5.137.006-.13 0-.259-.002-.385-.003 1.767 16.968 9.795 91.471 18.157 128.136.208.91-.021 1.865-.616 2.583-.536.646-13.376 15.994-35.035 31.382-19.633 13.949-50.358 30.368-86.168 30.369zm-120.316-78.214c36.345 47.038 76.047 71.323 118.027 72.19 62.408 1.262 110.628-50.238 117.924-58.464-9.16-41.281-17.788-125.793-18.28-130.659-.014-.106-.023-.217-.031-.332-.097-1.63 1.128-3.039 2.757-3.169.373-.032.73.009 1.068.106.557.042 2.344.112 7.991.069l.414-.002c35.543-.169 82.627-7.144 105.008-39.409 10.271-14.8 12.615-34.331 5.972-49.759-5.537-12.791-13.789-23.643-22.526-35.131-12.029-15.818-24.469-32.175-31.533-55.579-7.865-25.648-14.145-52.05-18.675-78.507-26.715 1.893-85.213 9.567-111.636 40.568-20.363 23.873-28.563 47.994-34.552 65.606-5.032 14.8-8.357 24.578-16.255 26.943-5.606 1.682-12.452-.943-22.181-8.511-4.185-3.254-7.966-6.311-11.622-9.267-17.911-14.481-29.744-24.049-51.68-26.582-12.035-1.386-23.37 1.986-31.922 9.504-8.892 7.818-14.088 19.559-14.256 32.211-.28 20.919 11.093 36.527 20.682 45.937 17.315 16.989 43.945 28.396 64.685 27.713.917-.036 1.826.375 2.417 1.097.592.722.813 1.678.601 2.586-18.51 78.951-56.318 158.347-62.396 170.839zm223.408-118.588c.109.264.182.547.212.846 0 .005 0 .012.002.022-.028-.317-.104-.607-.214-.869z" fill="#232323"/><path d="m1209.459 207.457c-.9-30.84 32.971-52.96 54.869-39.225 4.831 3.069 5.277 9.973.854 13.631l-1.217.993c-3.557 2.911-15.333 10.539-28.787 23.273-7.156 6.964-12.78 13.82-20.303 12.187-4.708-1.2-5.327-5.974-5.416-10.859z" fill="#232323"/><path d="m1416.675 320.625h-.002c-10.038-40-43.376-56.388-57.43-102.938-4.746-15.474-8.871-31.125-12.405-46.911-4.301-2.017-8.675-4.043-12.354-5.39-6.42-2.389-12.168-4.245-18.825-6.394l-2.359-.762c-3.163-.728-5.787-3.107-6.857-6.225-1.025-2.987-.458-6.196 1.519-8.583 1.13-1.284 2.342-2.437 3.615-3.481-32.308 4.971-68.423 15.995-87.799 38.727-11.26 13.201-25.543 36.122-33.31 60.849-8.751 27.864-12.448 40.742-35.551 22.768-24.898-19.366-37.422-33.3-64.8-36.461-28.191-3.255-49.166 19.475-49.521 46.173-.626 46.802 54.159 76.28 88.463 75.171-20.218 86.218-59.78 162.766-59.78 162.766 112.04 163.676 237.316 18.821 237.316 18.821-4.782-20.978-8.874-52.818-11.772-79.433-52.507-6.894-66.622-41.267-69.704-51.686-2.971-10.043-2.639-19.425.789-22.306.528-.445 1.295-.47 1.852-.062 23.425 17.165 64.096 23.017 66.314 23.324.598.007.744.153 3.234 2.802 17.988-.065 66.422-2.997 100.904-30.706 16.553-13.302 22.767-32.927 18.464-50.064z" fill="none"/><g fill="#232323"><path d="m1310.242 145.371c-1.294 1.564-1.656 3.641-.962 5.661.741 2.16 2.558 3.803 4.74 4.286.047.01.093.022.138.037l2.423.783c6.69 2.16 12.468 4.025 18.942 6.434 3.18 1.164 6.818 2.8 10.482 4.503-2.108-9.689-3.982-19.43-5.629-29.212-1.058-.318-2.105-.571-3.147-.789-5.835.415-12.065 1.018-18.52 1.855-3.158 1.509-6.018 3.659-8.468 6.442z"/><path d="m1307.961 143.423c-1.977 2.387-2.544 5.596-1.519 8.583 1.07 3.118 3.694 5.497 6.857 6.225l2.359.762c6.657 2.149 12.405 4.004 18.825 6.394 3.679 1.346 8.053 3.373 12.354 5.39-.138-.618-.284-1.234-.42-1.853-3.958-1.85-7.989-3.691-11.418-4.946-7.219-2.687-13.664-4.724-21.304-7.195-5.489-1.216-8.273-7.941-4.58-12.403 1.722-1.956 3.599-3.581 5.589-4.906-1.038.148-2.083.306-3.129.467-1.272 1.044-2.484 2.197-3.615 3.481z"/><path d="m1340.203 136.874c-.977.06-1.973.129-2.974.2 1.042.218 2.089.471 3.147.789-.056-.33-.119-.659-.173-.989z"/><path d="m1309.116 144.38c-3.693 4.461-.909 11.187 4.58 12.403 7.64 2.471 14.085 4.509 21.304 7.195 3.429 1.255 7.46 3.096 11.418 4.946-.136-.616-.278-1.231-.413-1.848-3.664-1.704-7.302-3.34-10.482-4.503-6.475-2.409-12.252-4.274-18.942-6.434l-2.423-.783c-.045-.015-.091-.027-.138-.037-2.183-.483-3.999-2.126-4.74-4.286-.694-2.021-.332-4.097.962-5.661 2.45-2.783 5.31-4.934 8.468-6.442-1.327.172-2.661.354-4.005.546-1.99 1.325-3.867 2.95-5.589 4.906z"/><path d="m1227.994 396.786c2.937 9.93 16.39 42.57 66.494 49.451-2.7-25.205-4.275-44.988-4.275-44.988s.632.039 1.797.077c-8.238-1.254-42.729-7.262-64.847-22.792-1.363 2.657-1.761 9.488.831 18.252z"/><path d="m1294.072 398.593c-2.219-.308-42.89-6.16-66.314-23.324-.557-.408-1.323-.383-1.852.062-3.428 2.881-3.76 12.263-.789 22.306 3.082 10.419 17.197 44.792 69.704 51.686-.056-.516-.111-1.027-.167-1.539-67.538-9.067-75.199-65.072-67.784-71.305 24.566 18 67.096 23.614 67.096 23.614s.466.464 1.265 1.297c.638.006 1.329.008 2.074.005-2.49-2.648-2.637-2.794-3.234-2.802z"/><path d="m1293.967 400.093s-42.53-5.614-67.096-23.614c-7.415 6.234.246 62.239 67.784 71.305-.056-.518-.112-1.034-.167-1.547-50.104-6.881-63.557-39.521-66.494-49.451-2.592-8.764-2.194-15.595-.831-18.252 22.119 15.529 56.609 21.538 64.847 22.792.817.027 1.901.052 3.222.064-.799-.833-1.265-1.297-1.265-1.297z"/><path d="m1129.056 350.166c-1.604 0-2.934-1.269-2.996-2.885-.063-1.656 1.228-3.049 2.883-3.113 7.009-.269 14.507-1.799 21.682-4.425 1.556-.569 3.278.23 3.849 1.787.569 1.556-.23 3.279-1.786 3.848-7.867 2.878-15.778 4.489-23.514 4.785-.039.002-.078.002-.117.002z"/><path d="m1293.248 215.758c1.209 8.457-4.836 18.121-21.76 19.329-5.306.357-10.635-.129-15.789-1.44-3.552-.976-8.39-2.184-11.933-5.885-.792-.632-1.013-1.742-.523-2.629.342-.511.911-.825 1.526-.841h.039c15.436 1.333 25.943-2.141 33.196-5.765 4.144-2.07 9.199-5.183 12.204-5.634 1.864-.28 2.868 1.671 3.04 2.865z"/><path d="m1317.97 205.245c2.745-2.325 10.197-2.525 20.036-8.67 2.352-1.47 4.578-3.132 6.655-4.969.5-.539 1.343-.571 1.882-.072.226.21.373.491.415.797.993 3.715-.751 12.119-8.699 17.974-7.35 5.415-13.423 5.047-17.264 3.005-1.799-.956-3.186-2.538-3.898-4.446-.355-1.276-.025-2.645.873-3.619z"/><path d="m830.444 1065.634c-78.146-149.073-331.34-308.894-364.493-274.583-33.153 34.31 132.424 209.512 364.493 274.583z"/><path d="m830.444 1067.134c-.135 0-.271-.018-.405-.056-88.909-24.93-178.901-69.685-253.398-126.021-61.253-46.321-106.384-96.742-114.976-128.453-2.707-9.99-1.628-17.592 3.207-22.596 4.479-4.635 12.528-6.153 23.92-4.519 36.581 5.256 106.179 43.334 173.184 94.753 77.592 59.542 139.48 126.861 169.797 184.694.278.53.215 1.175-.162 1.64-.289.357-.721.556-1.166.556zm-349.923-279.29c-6.236 0-10.759 1.42-13.491 4.25-4.05 4.191-4.881 10.828-2.47 19.727 8.429 31.11 53.133 80.899 113.89 126.844 73.258 55.399 161.563 99.557 249.016 124.567-30.686-56.76-91.444-122.385-167.316-180.608-66.633-51.133-135.668-88.975-171.784-94.164-2.858-.411-5.476-.616-7.844-.616z"/></g><path d="m1061.692 1600.35s130.496-87.037 199.776-138.018c0 0 145.43 220.936 193.678 306.427 26.185 46.398 23.402 79.115 17.887 97.625 0 0-.06.014-.191.05-.095.024-.237.066-.405.103-.004.004-.011.004-.015 0-7.405 1.635-81.499 16.247-177.722-34.645-14.994-7.94-60.423-35.311-97.516-77.275-25.38-28.714-40.194-71.377-60.964-86.692-26.372-19.443-59.761-31.712-74.527-67.575z" fill="#fff"/><path d="m1048.203 1604.25c24.913 40.956 49.657 37.677 84.645 64.927 33.672 26.224 41.618 74.73 91.943 115.787 55.71 45.707 122.665 78.831 193.711 84.087l.01-.007c11.76.842 21.753.848 31.442.29 3.625-104.876-56.257-126.712-98.652-158.688-38.412-28.969-20.472-56.632-62.236-90.226-23.527-18.924-52.815-17.2-77.824-46.42-23.737-27.735-23.864-60.91-23.864-60.91s-68.448 46.084-139.175 91.16z" fill="#232323"/><path d="m1175.493 1677.562c-1.238 0-2.387-.642-3.033-1.697-15.905-25.972-14.475-44.47-12.819-65.887.315-4.07.641-8.282.861-12.684 1.744-34.926-13.132-52.313-13.282-52.485-1.28-1.486-1.112-3.727.375-5.006 1.457-1.253 3.646-1.121 4.941.298.694.78 16.961 19.521 15.061 57.547-.225 4.504-.554 8.755-.873 12.876-1.626 21.02-2.909 37.623 11.796 61.634 1.025 1.672.499 3.857-1.174 4.881-.558.341-1.199.522-1.853.523z" fill="#fff"/><path d="m1281.158 1576.895c11.855-8.106 11.233-28.923-1.415-47.385-5.882-8.587-13.51-15.278-21.476-18.84-8.452-3.778-16.342-3.648-22.218.373-5.876 4.02-8.855 11.323-8.389 20.561.439 8.711 3.922 18.236 9.803 26.824 9.33 13.619 22.219 21.605 33.099 21.605 3.769.059 7.467-1.036 10.596-3.138zm-1.672-2.441-32.904-60.602c3.209.084 6.364.84 9.262 2.217 6.985 3.123 13.736 9.083 19.01 16.781 10.419 15.199 11.77 33.133 2.96 39.161-8.812 6.026-25.053-1.725-35.466-16.927-5.274-7.698-8.39-16.144-8.776-23.781-.359-7.105 1.709-12.568 5.821-15.381 2.129-1.407 4.638-2.13 7.189-2.072z" fill="#232323"/><path d="m1472.872 1869.466c.062-.01.125-.021.187-.034.197-.037.366-.083.498-.118l-.007-.028c.043-.017.085-.036.128-.054l.014.046c1.038-.239 1.867-1.017 2.171-2.037 6.029-20.234 7.774-53.993-18.146-99.921-47.746-84.608-192.888-304.922-194.348-307.137-.021-.032-.043-.064-.065-.095-.952-1.328-2.8-1.634-4.13-.684-73.169 52.321-208.43 140.81-209.786 141.698-.036.022-.071.045-.106.069-1.349.923-1.692 2.764-.768 4.112.924 1.347 2.767 1.691 4.115.768 1.347-.878 133.682-87.456 207.486-140.048 16.447 25 147.595 224.741 192.446 304.216 24.193 42.87 23.399 74.364 18.104 93.667-12.149 2.457-83.14 13.761-174.583-34.605-.882-.465-1.845-.969-2.89-1.514-16.117-8.408-53.859-28.097-93.328-76.832-1.028-1.27-2.892-1.466-4.163-.439s-1.468 2.89-.439 4.16c40.249 49.69 78.753 69.777 95.196 78.354 1.038.537 1.991 1.037 2.859 1.499 59.666 31.561 110.996 38.159 143.495 38.159 19.808 0 32.626-2.453 36.061-3.201h-.001zm-.031-3.031.49 1.626-.143-.245z" fill="#232323"/><path d="m1246.862 1814.877c-3.872-.002-7.296-2.51-8.463-6.198-12.836-40.541 11.324-109.531 12.359-112.448 1.639-4.619 6.714-7.036 11.337-5.399 4.622 1.637 7.041 6.709 5.403 11.328-.237.655-23.207 66.298-12.166 101.164 1.481 4.672-1.108 9.659-5.784 11.139-.869.275-1.774.415-2.686.414z" fill="#d9c6f4"/><path d="m1291.295 1838.801c-3.692 0-6.999-2.283-8.306-5.733-22.512-59.392 5.872-110.323 7.09-112.462 2.427-4.259 7.85-5.745 12.112-3.319 4.262 2.425 5.749 7.844 3.322 12.103-.246.437-25.388 46.015-5.92 97.394 1.738 4.583-.571 9.705-5.157 11.442-1.005.381-2.072.576-3.147.576h.006z" fill="#d9c6f4"/><path d="m1334.106 1860.429c-3.652 0-6.932-2.233-8.267-5.629-21.149-53.75 2.678-98.896 3.704-100.79 2.331-4.312 7.719-5.92 12.035-3.591s5.925 7.713 3.594 12.026c-.198.373-20.839 40.009-2.8 85.862 1.796 4.56-.448 9.712-5.012 11.506-1.035.407-2.138.616-3.25.616z" fill="#d9c6f4"/><path d="m706.121 1282.144c-105.378 95.832-309.03 145.523-409.672 268.568-104.041 127.199-74.35 359.272 209.572 385.696 241.541 22.479 432.169-65.071 432.169-65.071s60.385-93.466 17.76-274.483c0 0 316.242-82.555 503.263 17.878 0 0-55.702 134.744-45.046 235.309 104.194 53.24 323.238 137.242 543.467 65.071 223.106-73.117 256.933-305.244 81.698-430.655-181.012-129.545-282.982-121.861-383.624-215.327z" fill="#00676c"/><path d="m1524.6 1374.994c-37.358 0-70.101-11.385-94.685-32.923-1.247-1.092-1.372-2.987-.28-4.233 1.094-1.247 2.987-1.371 4.233-.279 23.475 20.565 54.849 31.436 90.731 31.436 37.857 0 79.544-12.147 111.512-32.493 8.266-5.279 15.784-10.997 22.343-16.994 1.223-1.119 3.12-1.033 4.238.189s1.033 3.12-.189 4.238c-6.813 6.229-14.606 12.16-23.167 17.625-32.894 20.936-75.784 33.434-114.736 33.434z" fill="#fff"/><path d="m839.027 1382.587c-4.66 0-9.457-.157-14.259-.466-46.353-3.003-90.186-20.579-117.253-47.016-1.186-1.157-1.208-3.057-.051-4.242 1.158-1.185 3.059-1.208 4.242-.05 26.073 25.465 68.484 42.407 113.448 45.32 4.673.301 9.341.454 13.872.454 43.178 0 81.483-13.784 107.86-38.813 1.204-1.142 3.102-1.09 4.241.111 1.141 1.202 1.091 3.101-.11 4.241-27.498 26.092-67.271 40.461-111.991 40.461z" fill="#fff"/><path d="m442.009 1605.346c-1.553 0-2.866-1.195-2.988-2.769-.128-1.652 1.108-3.094 2.76-3.222 110.851-8.564 189.849-50.963 266.245-91.965 80.83-43.383 157.188-84.364 264.658-84.364 1.598 0 3.191.009 4.804.027 1.656.019 2.984 1.377 2.966 3.034-.019 1.646-1.358 2.966-2.999 2.966h-.035c-108.455-1.257-185.224 39.971-266.485 83.586-77.016 41.334-156.58 84.037-268.69 92.699-.079.006-.157.009-.234.009z" fill="#fff"/><path d="m1967.558 1612.289c-.174 0-.349-.015-.525-.046-92.8-16.365-156.345-54.162-223.621-94.178-71.18-42.336-144.78-86.112-258.411-104.922-1.635-.271-2.74-1.815-2.47-3.45.271-1.635 1.813-2.738 3.45-2.47 114.746 18.995 188.84 63.064 260.495 105.683 66.794 39.729 129.881 77.253 221.6 93.427 1.631.288 2.721 1.844 2.433 3.476-.256 1.456-1.522 2.479-2.95 2.479z" fill="#fff"/><path d="m1459.218 1614.734c34.268-87.326 87.144-184.44 28.357-207.176-36.705-14.197-166.947 63.888-73.409 442.486 0-.004-8.287-99.385 45.052-235.31z" fill="#232323"/><path d="m1459.218 1614.734c-.239.663-.484 1.341-.616 1.68.046.44-43.252 114.314-44.436 233.63-66.232-40.299-136.352-85.186-191.812-137.241 0 0 51.982-139.209 139.715-146.707 9.26 4.92 41.194 21.125 50.155 25.603h.012c23.328 11.719 46.391 22.748 46.982 23.035z" fill="#fff"/><path d="m1412.226 1593.848-89.749 197.667c-36.808-25.187-68.21-48.761-100.121-78.713 0 0 48.206-132.77 139.715-146.707 9.443 5.018 41.688 23.522 50.156 27.753z" fill="#d9c6f4"/><path d="m1361.939 1568.08c-12.545-3.428-13.561 3.393-24.918 7.963-.173.069-.334.139-.507.208h-.012c-58.999 22.794-110.749 134.939-110.749 134.939.381.358.762.727 1.154 1.096 17.623 16.629 37.419 32.946 59.56 49.442l90.717-185.753c-6.034-3.089-11.714-6.018-15.245-7.896z" fill="none"/><path d="m1407.261 1591.266c-2.608-1.316-5.251-2.654-7.917-4.005-3.211-1.633-8.031-4.08-13.251-6.738l-91.442 187.238c5.655 4.12 11.454 8.254 17.407 12.41 3.705 2.585 7.467 5.182 11.288 7.802l87.482-194.919c-1.177-.589-2.366-1.189-3.566-1.789z" fill="none"/><path d="m1377.184 1575.976-90.717 185.753c2.695 2.008 5.418 4.018 8.184 6.033l91.442-187.238c-2.916-1.485-5.953-3.035-8.909-4.547z" fill="#fcfcfc"/><path d="m1414.163 1853.044c-.531 0-1.069-.141-1.557-.438-67.462-41.047-137.45-86.129-192.306-137.617-.942-.884-1.213-2.272-.671-3.445.134-.29 13.607-29.309 34.33-60.794 28.006-42.551 55.235-69.156 80.933-79.077.037-.014.075-.028.113-.041 3.778-1.526 6.58-3.297 9.292-5.01 5.815-3.675 10.842-6.85 20.733-4.147.215.059.422.141.617.245 3.775 2.006 10.996 6.029 18.64 10.287 11.15 6.212 23.775 13.246 29.133 15.936.055.023.108.048.161.075 19.439 9.766 38.941 19.174 46.424 22.766l.523.251c1.49.724 2.111 2.519 1.387 4.009s-2.519 2.109-4.01 1.387l-.497-.239c-7.479-3.589-26.938-12.978-46.374-22.74-.052-.022-.103-.045-.152-.071-5.394-2.695-18.209-9.834-29.515-16.133-7.417-4.132-14.434-8.041-18.234-10.07-7.119-1.86-10.345.174-15.632 3.516-2.833 1.79-6.045 3.819-10.403 5.563-.06.024-.12.046-.181.066-54.383 21.13-103.609 119.635-110.913 134.786 54.217 50.493 123.191 94.892 189.721 135.371 1.415.861 1.864 2.707 1.003 4.123-.564.928-1.553 1.441-2.565 1.441z" fill="#232323"/><path d="m955.949 1596.854c13.526 57.459 16.683 106.096 14.664 145.718l87.167-164.648c-5.92-97.019-30.786-156.177-85.254-156.177-24.547 0-35.34 24.365-35.34 62.787 0 30.361 6.74 69.497 18.763 112.321z" fill="#232323"/><path d="m970.613 1742.571c-1.047 20.752-3.507 39.029-6.619 54.818l31.393-66.294 74.233-156.724s-34.642 6.345-67.28 12.752c-18.217 3.582-35.796 7.18-46.392 9.731 13.526 57.459 16.683 106.096 14.664 145.718h.001z" fill="#fff"/><path d="m1360.777 1563.083s-137.657-87.089-210.756-138.425c0 0-152.132 243.034-202.553 336.708-27.364 50.837-24.306 85.706-18.427 105.251l.2.045c.099.021.246.059.426.091.005.004.012.004.017 0 7.797 1.407 85.817 13.622 186.855-45.249 15.748-9.184 63.435-40.557 102.3-87.156 26.588-31.884 42.006-78.204 63.799-95.543 27.665-22.009 62.747-36.68 78.14-75.723h-.001z" fill="#fff"/><path d="m956.851 1871.73c-15.063 0-24.738-1.496-27.602-2.007-.037-.005-.075-.011-.112-.018-.182-.032-.34-.067-.468-.097l-.286-.064c-1.057-.237-1.903-1.026-2.216-2.063-6.415-21.328-8.385-57.296 18.658-107.537 49.891-92.688 201.13-334.447 202.651-336.878.437-.698 1.142-1.186 1.948-1.349.807-.164 1.644.012 2.319.485 71.376 50.126 206.122 135.488 210.534 138.281.109.063.216.134.318.212 1.067.814 1.464 2.237.972 3.486-11.929 30.255-35.242 46.218-57.789 61.655-7.142 4.89-14.526 9.946-21.274 15.315-11.294 8.985-21.212 26.804-31.711 45.669-9.454 16.986-19.229 34.551-31.652 49.448-43.726 52.427-97.145 84.358-103.092 87.826-69.425 40.451-128.213 47.634-161.199 47.635zm-25.442-7.727c12.859 2.075 87.61 10.848 183.619-45.092 5.854-3.413 58.437-34.845 101.507-86.485 12.062-14.464 21.698-31.778 31.017-48.522 10.797-19.399 20.995-37.722 33.218-47.447 6.918-5.503 14.393-10.621 21.621-15.571 21.21-14.522 43.122-29.526 54.657-56.614-17.493-11.096-138.255-87.86-206.159-135.343-16.766 26.838-153.823 246.622-200.779 333.858-25.332 47.062-24.362 80.775-18.7 101.216z" fill="#232323"/><path d="m1366.697 1563.083c-22.496 44.958-43.809 46.142-80.514 76.903-47.458 39.773-34.649 97.921-160.819 176.207-42.328 26.055-89.583 44.888-138.953 50.753l-.011-.006c-10.852 1.275-21.846 1.948-33.081 1.762-4.236-112.018 58.683-138.138 103.162-174.292 40.301-32.758 21.312-61.522 65.121-99.382 24.677-21.327 55.501-20.832 81.698-53.24 24.864-30.761 24.864-66.255 24.864-66.255s63.939 42.591 138.532 87.55z" fill="#232323"/><path d="m1241.333 1650.675c-1.962-.002-3.551-1.592-3.549-3.553 0-.627.167-1.243.483-1.784 15.443-26.477 14.021-44.227 12.222-66.701-.355-4.386-.71-8.922-.969-13.724-2.144-40.445 14.79-61.107 15.511-61.966 1.304-1.465 3.549-1.596 5.015-.294 1.404 1.247 1.593 3.371.432 4.846-.16.192-15.853 19.581-13.867 57.037.25 4.709.61 9.196.957 13.536 1.825 22.774 3.399 42.441-13.165 70.841-.637 1.09-1.805 1.761-3.069 1.76v.002z" fill="#fff"/><path d="m1175.569 1526.276c13.157-20.215 13.707-42.392 1.257-50.482s-32.512 1.405-45.669 21.621c-13.157 20.217-13.71 42.391-1.257 50.482 3.025 1.933 6.553 2.935 10.144 2.881 11.59 0 25.546-9.163 35.525-24.502zm-39.449-25.636c10.97-16.852 28.132-25.962 37.479-19.887s7.976 25.444-2.993 42.298c-10.969 16.853-28.131 25.959-37.479 19.887-9.346-6.073-7.977-25.445 2.993-42.298z" fill="#232323"/><path d="m1164.607 1806.307c-4.908-.005-8.883-3.985-8.878-8.89 0-.835.12-1.666.353-2.468 17.824-61.157-10.101-112.182-10.385-112.69-2.386-4.282-.846-9.685 3.439-12.069 4.259-2.369 9.633-.865 12.041 3.37 1.313 2.327 31.935 57.802 11.959 126.357-1.105 3.788-4.58 6.391-8.528 6.39z" fill="#d9c6f4"/><path d="m1120.115 1828.114c-4.908-.004-8.883-3.983-8.878-8.887 0-1.028.181-2.048.531-3.015 20.526-56.525-6.33-103.996-6.603-104.469-2.494-4.22-1.093-9.661 3.13-12.153s9.668-1.092 12.162 3.128c.028.047.055.094.082.142 1.287 2.223 31.243 55.192 7.925 119.408-1.275 3.51-4.612 5.846-8.349 5.846z" fill="#d9c6f4"/><path d="m1075.159 1853.225c-4.904 0-8.88-3.973-8.88-8.874 0-1.069.193-2.129.571-3.129 18.934-50.24-3.063-91.896-3.288-92.312-2.35-4.303-.764-9.695 3.542-12.043s9.703-.764 12.053 3.539c1.081 1.971 26.223 48.954 4.32 107.072-1.305 3.459-4.618 5.748-8.318 5.746z" fill="#d9c6f4"/><path d="m830.444 1065.634s-27.233 113.579-124.322 216.51c-70.094 74.312-180.386 98.199-316.134-17.747-135.749-115.945-375.752-592.667-385.993-656.63-4.736-29.578 8.288-27.212 17.038-18.066 7.459 7.82 14.931 17.274 14.931 17.274s-13.024-50.081 0-78.476c7.282-15.877 17.606-5.572 24.864 11.831 5.92 14.197 15.392 39.043 20.128 50.874 9.472-27.212 33.153-65.071 67.489-78.086 14.836-5.62 15.392 9.465 7.104 24.845-10.396 19.285-21.312 47.325-26.049 66.255 20.128-22.479 54.465-39.043 88.802-34.31 20.081 2.768 21.028 13.629-.781 24.964-13.427 6.98-30.003 16.445-40.659 29.46-21.893 26.738-9.437 63.888 11.84 65.071 21.312 1.183 30.785-16.564 36.705-60.339 5.967-44.095 21.312-39.859 36.788-.319 9.389 23.982 20.223 51.702 40.174 85.504 54.465 92.283 184.708 188.116 184.708 188.116s7.755-17.392 21.916-43.089c8.584-15.593 19.536-34.251 32.549-53.926 232.258 116.099 287.919 257.73 288.89 260.25.006.011.01.023.012.035z" fill="#fff"/><path d="m570.067 1347.636c-57.896 0-119.118-27.225-182.027-80.958-79.347-67.771-184.89-247.523-240.74-348.639-73.788-133.59-140.77-275.46-146.267-309.798-2.381-14.868-.637-23.873 5.185-26.765 4.716-2.34 11.06-.041 16.983 6.15 2.531 2.654 5.048 5.473 7.28 8.055-3.084-16.903-6.708-47.802 2.756-68.433 2.963-6.46 6.765-9.702 11.308-9.616 8.824.154 15.725 13.563 19.052 21.542 3.795 9.1 8.981 22.401 13.558 34.136 1.313 3.364 2.586 6.631 3.746 9.591 11.244-27.372 34.181-60.346 66.481-72.59 7.715-2.921 11.793-.725 13.857 1.632 4.414 5.041 3.218 15.812-3.05 27.442-8.328 15.45-17.131 36.814-22.67 54.584 22.934-20.521 54.447-30.996 83.192-27.034 13.476 1.857 17.108 6.904 17.784 10.811.771 4.456-1.657 11.505-17.592 19.787-13.969 7.261-29.611 16.35-39.721 28.698-13.324 16.272-12.38 34.933-7.523 45.969 3.742 8.504 10.176 13.815 17.209 14.206 18.629 1.044 27.733-14.617 33.565-57.745 2.973-21.972 8.302-33.118 16.29-34.075 8.451-1.005 17.28 10.112 26.265 33.065l.074.191c9.428 24.082 20.113 51.376 39.89 84.881 49.005 83.032 161.309 170.136 180.953 185.012 2.955-6.313 10.001-20.929 20.459-39.908 10.306-18.72 21.299-36.934 32.675-54.133.837-1.265 2.484-1.708 3.844-1.029 120.64 60.305 192.812 127.607 232.113 173.448 43.407 50.63 57.649 86.888 58.234 88.407.081.208.143.429.176.639.063.391.048.788-.045 1.173-.068.287-7.095 29.155-25.943 70.208-17.379 37.851-48.681 94.193-99.113 147.661-38.449 40.762-85.334 62.69-135.586 63.414-.881.013-1.769.019-2.651.019zm-559.937-761.048c-.468 0-.887.085-1.242.262-2.33 1.158-4.062 7.136-1.931 20.443 4.818 30.092 64.472 160.973 145.596 307.845 55.653 100.76 160.758 279.822 239.384 346.978 115.778 98.889 229.498 105.439 312.003 17.97 49.822-52.82 80.767-108.489 97.952-145.888 16.779-36.514 24.069-63.191 25.405-68.355-2.378-5.794-17.183-39.549-56.854-85.822-38.683-45.119-109.551-111.245-227.862-170.793-10.766 16.409-21.174 33.72-30.959 51.496-13.928 25.273-21.727 42.691-21.804 42.864-.37.83-1.096 1.447-1.974 1.679-.879.232-1.813.053-2.545-.484-1.307-.962-131.363-97.258-185.514-189.007-20.02-33.919-30.799-61.452-40.309-85.744l-.075-.191c-8.732-22.312-15.994-29.776-19.963-29.294-3.511.421-8.26 8.24-11.059 28.922-5.247 38.802-13.474 62.991-37.715 62.992-.697 0-1.405-.02-2.129-.061-9.335-.519-17.697-7.166-22.368-17.779-5.54-12.59-6.672-33.813 8.373-52.187 10.798-13.189 27.087-22.679 41.596-30.221 11.358-5.903 14.881-10.93 14.447-13.441-.354-2.05-3.875-4.674-12.691-5.89-30.451-4.193-64.265 8.89-86.157 33.339-.921 1.028-2.422 1.295-3.642.649-1.218-.646-1.839-2.041-1.504-3.379 4.906-19.604 15.975-47.761 26.318-66.95 5.417-10.053 6.01-18.138 3.817-20.642-1.55-1.77-5.188-.743-7.218.026-31.173 11.815-55.469 46.819-65.719 76.267-.411 1.182-1.513 1.984-2.765 2.013-1.26.039-2.389-.723-2.854-1.884-1.716-4.287-4.092-10.378-6.606-16.827-4.564-11.705-9.737-24.971-13.505-34.007-5.462-13.097-10.751-17.803-13.62-17.853-.014 0-.028 0-.043 0-2.521 0-4.655 3.828-5.706 6.118-12.423 27.084.05 75.98.177 76.471.356 1.373-.297 2.809-1.567 3.44-1.271.631-2.812.287-3.689-.826-.074-.094-7.476-9.44-14.748-17.064-3.071-3.211-6.478-5.183-8.732-5.183z" fill="#232323"/><path d="m481.75 897.551c.021.017.042.035.063.053 59.852 50.779 103.484 98.924 126.171 139.229" fill="#fff"/><path d="m607.986 1039.833c-1.049 0-2.066-.55-2.617-1.529-22.512-39.996-65.908-87.858-125.497-138.413-1.26-1.068-1.45-2.981-.387-4.245 1.062-1.264 2.916-1.458 4.186-.4.021.018.104.089.125.107 60.083 50.974 103.944 99.4 126.802 140.008.813 1.444.301 3.273-1.143 4.086-.465.262-.971.386-1.469.386z" fill="#232323"/><path d="m171.92 810.104h-.009c-1.657-.005-2.996-1.352-2.991-3.009.148-50.743-11.302-85.091-42.245-126.734-.988-1.33-.711-3.209.619-4.197 1.328-.988 3.208-.711 4.197.619 31.811 42.811 43.581 78.134 43.429 130.331-.005 1.654-1.347 2.991-3 2.991z" fill="#232323"/><path d="m72.411 666.312c-1.034 0-2.04-.535-2.597-1.493-7.008-12.06-18.81-29.754-27.428-42.674-3.765-5.645-7.016-10.52-8.952-13.557-.891-1.397-.48-3.251.916-4.142 1.397-.891 3.251-.481 4.143.917 1.903 2.984 5.139 7.835 8.886 13.453 8.66 12.985 20.521 30.769 27.623 42.989.833 1.433.346 3.269-1.086 4.101-.475.276-.993.407-1.505.407z" fill="#232323"/><path d="m103.314 641.485c-1.043 0-2.057-.544-2.609-1.515-4.185-7.344-18.272-35.679-22.575-47.76-.556-1.561.259-3.276 1.819-3.833 1.561-.556 3.276.259 3.833 1.82 4.123 11.575 18.142 39.791 22.136 46.802.82 1.44.318 3.272-1.121 4.092-.469.267-.979.394-1.482.394z" fill="#232323"/><path d="m125.063 634.173c-1.657 0-3-1.343-3-3 0-1.128 2.26-15.19 4.484-27.489.296-1.631 1.864-2.713 3.486-2.418 1.63.295 2.713 1.856 2.418 3.486-2.414 13.346-4.266 25.259-4.392 26.563-.075 1.591-1.388 2.857-2.997 2.857z" fill="#232323"/><path d="m1523.622 1062.385c75.862-150.246 327.529-311.424 361.201-277.623 33.672 33.802-130.153 209.023-361.201 277.623z" fill="#232323"/><path d="m1523.622 1063.885c-.438 0-.861-.191-1.151-.539-.384-.459-.457-1.103-.188-1.638 15.643-30.981 39.417-63.899 70.663-97.84 27.469-29.838 60.735-60.284 96.204-88.045 66.081-51.723 135.279-90.424 172.19-96.304 11.676-1.858 19.929-.451 24.545 4.184 4.869 4.888 6.069 12.349 3.567 22.176-7.995 31.394-52.477 81.977-113.322 128.865-73.829 56.894-163.354 102.734-252.082 129.079-.141.042-.284.062-.427.062zm346.937-282.17c-2.613 0-5.53.255-8.745.768-36.453 5.807-105.098 44.267-170.814 95.704-75.008 58.71-134.719 124.75-164.436 181.752 87.279-26.395 175.126-71.616 247.736-127.57 60.348-46.504 104.406-96.445 112.246-127.229 2.224-8.731 1.286-15.23-2.785-19.318-2.724-2.734-7.147-4.106-13.202-4.106z" fill="#232323"/><path d="m2342.987 591.976c-9.259 64.113-254.483 560.072-391.272 674.791-132.611 111.213-219.044 80.452-296.006 2.366-98.682-100.125-133.333-210.335-133.795-211.766v-.012c.012-.036.047-.118.095-.237.935-2.343 8.229-19.675 26.51-46.165 35.154-50.957 110.896-135.822 260-213.221 13.308 19.474 24.545 37.954 33.366 53.418.107.177.213.367.308.544 14.362 25.189 22.272 42.214 22.272 42.214s128.763-97.808 181.807-190.908c19.442-34.109 29.849-61.984 38.871-86.107 14.871-39.776 30.145-44.249 36.788-.248 6.583 43.681 16.328 61.285 37.616 59.771 21.253-1.503 33.141-38.842 10.846-65.237-10.846-12.849-27.564-22.065-41.097-28.833-21.987-11.003-21.206-21.876-1.16-24.952 34.254-5.253 68.839 10.778 89.311 32.95-5.032-18.859-16.375-46.721-27.055-65.852-8.525-15.25-8.193-30.335 6.725-24.952 34.526 12.494 58.787 49.987 68.673 77.056 4.547-11.902 13.64-36.89 19.347-51.182 6.986-17.51 17.156-27.969 24.675-12.21 13.462 28.194 1.196 78.476 1.196 78.476s7.329-9.571 14.67-17.498c8.608-9.287 21.596-11.847 17.31 17.794z" fill="#fff"/><path d="m1793.539 1342.332c-3.661 0-7.296-.134-10.918-.403-43.707-3.245-84.714-25.708-129.049-70.69-97.246-98.669-133.021-208.283-134.497-212.901-.095-.295-.161-.661-.161-.971 0-.314.05-.638.146-.937.02-.063.062-.178.127-.337l.037-.093c.763-1.909 8.012-19.488 26.825-46.75 22.835-33.1 52.356-65.814 87.746-97.234 48.523-43.081 106.844-82.427 173.341-116.945 1.347-.7 3.003-.282 3.858.97 11.665 17.069 22.935 35.111 33.495 53.625.094.151.228.391.347.613 10.553 18.506 17.706 32.782 20.727 38.985 19.417-15.175 130.385-103.996 178.102-187.747 19.272-33.812 29.539-61.263 38.597-85.483l.071-.189c8.633-23.09 17.296-34.351 25.755-33.467 8.001.835 13.499 11.898 16.81 33.822 6.485 43.04 15.834 58.553 34.437 57.226 7.024-.497 13.375-5.902 16.987-14.461 4.688-11.109 5.35-29.783-8.221-45.848-10.308-12.212-26.079-21.05-40.146-28.086-16.064-8.039-18.6-15.051-17.898-19.517.616-3.917 4.173-9.019 17.625-11.083 28.67-4.395 60.343 5.592 83.587 25.757-5.81-17.673-14.936-38.899-23.494-54.232-6.443-11.525-7.805-22.274-3.469-27.384 2.027-2.39 6.074-4.651 13.831-1.852 32.486 11.755 55.922 44.376 67.581 71.572 1.074-2.87 2.248-6.023 3.457-9.269 4.443-11.934 9.48-25.46 13.178-34.72 3.202-8.028 9.894-21.54 18.718-21.829 4.563-.15 8.393 3.027 11.451 9.439 9.781 20.487 6.627 51.443 3.799 68.393 2.193-2.615 4.667-5.471 7.158-8.161 5.827-6.286 12.138-8.683 16.887-6.417 5.866 2.801 7.748 11.778 5.593 26.679-5.002 34.639-72.845 180.916-148.146 319.422-56.901 104.661-164.285 290.245-244.168 357.239-58.676 49.208-111.189 73.266-160.104 73.266zm-268.434-284.858c4.034 12.15 40.295 115.756 132.74 209.553 43.256 43.888 83.045 65.787 125.22 68.918 3.465.257 6.958.386 10.464.386 47.457.003 98.699-23.592 156.258-71.863 31.505-26.422 70.86-74.932 116.973-144.181 38.811-58.285 82.305-131.36 125.779-211.326 82.789-152.28 143.096-287.067 147.479-317.414 1.929-13.336.107-19.286-2.24-20.407-2.086-.998-6.249 1.141-9.899 5.081-7.155 7.727-14.416 17.188-14.488 17.283-.863 1.126-2.398 1.492-3.677.882-1.279-.612-1.955-2.038-1.62-3.417.12-.493 11.852-49.58-.988-76.473-1.08-2.262-3.254-6.028-5.758-6.028-.027 0-.055 0-.082 0-2.869.094-8.085 4.88-13.342 18.057-3.671 9.195-8.695 22.686-13.127 34.589-2.359 6.336-4.588 12.321-6.204 16.551-.444 1.162-1.56 1.929-2.803 1.929h-.022c-1.252-.009-2.366-.795-2.796-1.971-10.695-29.288-35.522-63.918-66.875-75.264-2.039-.736-5.692-1.705-7.218.091-2.153 2.538-1.438 10.612 4.132 20.576 10.634 19.048 22.129 47.033 27.335 66.542.355 1.333-.243 2.736-1.452 3.401-1.209.666-2.715.421-3.65-.593-22.262-24.11-56.274-36.679-86.652-32.02-8.803 1.351-12.284 4.028-12.607 6.084-.396 2.517 3.205 7.49 14.655 13.22 14.613 7.308 31.037 16.538 42.047 29.581 15.322 18.14 14.513 39.377 9.163 52.052-4.509 10.683-12.767 17.454-22.09 18.113-25.871 1.836-34.791-22.48-40.795-62.316-3.115-20.637-7.982-28.382-11.499-28.75-3.923-.406-11.119 7.153-19.512 29.601l-.071.19c-9.137 24.431-19.493 52.123-39.004 86.352-52.737 92.562-181.306 190.83-182.599 191.812-.723.549-1.657.739-2.536.522-.882-.218-1.616-.824-1.999-1.647-.078-.169-8.033-17.22-22.158-41.992-.107-.2-.186-.341-.265-.472-10.068-17.648-20.741-34.801-31.782-51.084-143.298 74.842-218.582 155.996-256.551 211.033-16.932 24.535-24.229 40.875-25.883 44.817z" fill="#232323"/><path d="m1744.206 1034.765c-.483 0-.974-.117-1.429-.364-1.456-.791-1.995-2.612-1.205-4.068 22.241-40.956 65.359-90.045 124.693-141.961 1.246-1.091 3.142-.965 4.233.282s.965 3.142-.282 4.233c-58.805 51.453-101.466 99.97-123.371 140.309-.544 1.001-1.575 1.569-2.64 1.569z" fill="#232323"/><path d="m2183.813 795.536c-1.604 0-2.934-1.268-2.996-2.884-1.047-27.149 1.506-49.444 8.034-70.163 5.93-18.817 15.362-37.262 29.688-58.046.939-1.364 2.811-1.708 4.172-.768 1.364.94 1.708 2.809.768 4.173-13.975 20.277-23.16 38.213-28.904 56.443-6.315 20.042-8.781 41.69-7.761 68.129.063 1.656-1.227 3.05-2.883 3.113-.039.002-.078.002-.117.002z" fill="#232323"/><path d="m2220.952 618.995c-.016 0-.031 0-.047 0-1.657-.025-2.979-1.389-2.954-3.045.002-.134-.072-14.488-3.359-24.685-.508-1.577.358-3.268 1.935-3.776 1.576-.509 3.267.357 3.776 1.935 3.645 11.307 3.65 26.471 3.648 26.617-.025 1.641-1.364 2.954-2.999 2.954z" fill="#232323"/><path d="m2246.053 623.716c-.475 0-.955-.113-1.403-.351-1.464-.777-2.021-2.593-1.243-4.057 4.756-8.959 16.272-33.545 19.527-43.634.509-1.578 2.201-2.441 3.776-1.934 1.577.509 2.443 2.199 1.935 3.776-3.406 10.558-14.972 35.249-19.939 44.606-.539 1.015-1.577 1.594-2.652 1.594z" fill="#232323"/><path d="m2274.944 652.422c-.497 0-1-.124-1.465-.384-1.445-.811-1.959-2.639-1.148-4.084 7.813-13.929 23.983-39.088 31.755-51.179 2.138-3.326 3.68-5.725 4.298-6.722.872-1.408 2.72-1.842 4.131-.969 1.408.873 1.842 2.722.969 4.13-.626 1.009-2.187 3.438-4.351 6.805-7.739 12.042-23.845 37.098-31.569 50.871-.55.98-1.569 1.533-2.619 1.533z" fill="#232323"/><path d="m1066.064 519.033c-19.024-20.178-133.249-102.386-332.711 43.775-142.083 104.114-197.984 157.878-266.405 229.525 53.281-34.31 322.054 170.369 363.495 273.3-24.864 82.818-73.409 163.27-124.322 216.51 221.412 121.861 736.463 137.242 949.587-13.014-34.337-37.86-99.458-118.312-133.795-211.778 48.545-110.03 317.932-305.497 361.741-271.187-87.618-98.199-178.182-186.976-288.331-249.385-114.85-65.071-210.89-75.85-286.534-3.549-54.465 52.057-165.763 67.438-242.725-14.197z" fill="#fff"/><path d="m1186.486 1380.682c-.825 0-1.643 0-2.469-.002-91.532-.148-183.743-8.823-266.663-25.086-85.382-16.747-158.925-41.236-212.68-70.822-.816-.449-1.378-1.252-1.519-2.173-.142-.921.152-1.855.797-2.528 53.597-56.047 99.644-136.087 123.312-214.286-16.102-38.854-67.166-96.63-136.919-154.86-67.725-56.537-137.373-100.43-181.765-114.55-18.554-5.902-32.388-6.425-40.009-1.518-1.276.824-2.97.56-3.938-.612s-.906-2.883.144-3.982c66.039-69.152 120.287-122.512 266.801-229.873 46.198-33.853 91.389-58.001 134.315-71.776 35.564-11.411 69.788-15.804 101.735-13.058 52.887 4.548 88.13 28.176 100.616 41.42 42.372 44.944 90.027 55.388 122.544 56.234 43.803 1.146 87.123-14.616 115.926-42.147 37.576-35.916 80.348-52.453 130.75-50.569 46.543 1.743 98.663 19.301 159.336 53.677 117.676 66.674 212.173 163.792 289.09 249.999 1.034 1.159 1.013 2.916-.05 4.049s-2.816 1.267-4.038.31c-5.188-4.064-15.09-4.418-28.633-1.025-40.206 10.071-111.001 52.625-180.357 108.41-73.505 59.122-128.571 119.388-147.663 161.549 35.753 96.496 104.71 178.704 132.78 209.654.577.636.854 1.49.759 2.345-.094.854-.551 1.627-1.253 2.123-98.402 69.375-269.96 109.1-470.95 109.101zm-475.503-99.309c106.574 57.313 287.249 93.006 473.044 93.307.821.001 1.644.002 2.464.002 197.896 0 366.856-38.586 464.711-106.068-29.724-33.12-97.041-114.782-132.105-210.228-.268-.729-.242-1.535.071-2.246 18.992-43.046 75.023-104.693 149.885-164.905 69.98-56.286 141.679-99.289 182.66-109.555 8.597-2.153 15.909-2.906 21.873-2.261-75.148-83.603-166.777-176.026-279.741-240.03-123.001-69.688-212.92-70.958-282.982-3.991-29.935 28.612-74.875 44.998-120.229 43.808-33.655-.876-82.966-11.67-126.753-58.116-11.903-12.626-45.679-35.166-96.766-39.559-69.947-6.018-147.993 22.145-231.989 83.696-139.99 102.58-195.492 155.699-257.781 220.583 8.659-1.011 19.719.602 33.055 4.844 45.085 14.341 115.51 58.66 183.792 115.662 71.062 59.322 123.037 118.461 139.035 158.195.254.632.286 1.331.09 1.983-23.439 78.074-69.035 158.088-122.333 214.877z" fill="#232323"/><path d="m1261.652 703.218h-.01c-10.918 0-24.936-11.431-37.495-30.578-9.208-14.037-21.629-38.195-31.731-76.548-4.65 40.512-19.277 74.215-40.57 92.319-11.423 9.712-23.915 14.018-36.112 12.464-13.807-1.762-29.396-7.384-40.346-35.729-10.958-28.369-16.285-77.249-16.285-149.433 0-1.657 1.343-3 3-3s3 1.343 3 3c0 71.431 5.195 119.604 15.882 147.271 9.788 25.337 22.851 30.324 35.509 31.939 10.485 1.342 21.365-2.496 31.466-11.083 23.338-19.842 38.251-59.954 39.894-107.3.053-1.513 1.224-2.75 2.731-2.884 1.497-.128 2.879.875 3.199 2.355 17.861 82.684 51.053 121.206 67.86 121.206h.008c7.518 0 14.682-4.05 21.295-12.04 25.38-30.658 34.952-107.548 26.252-153.238-.31-1.627.759-3.198 2.386-3.508 1.631-.308 3.198.759 3.509 2.386 4.565 23.976 4.382 55.098-.502 85.386-5.188 32.162-14.784 58.017-27.022 72.8-7.808 9.431-16.527 14.213-25.916 14.213z" fill="#232323"/><ellipse cx="1173.1" cy="695.855" fill="#232323" rx="6.582" ry="6.577"/><path d="m1173.099 703.932c-4.456 0-8.082-3.623-8.082-8.077s3.626-8.077 8.082-8.077 8.082 3.624 8.082 8.077-3.626 8.077-8.082 8.077zm0-13.154c-2.802 0-5.082 2.278-5.082 5.077s2.28 5.077 5.082 5.077 5.082-2.277 5.082-5.077-2.28-5.077-5.082-5.077z" fill="#232323"/><ellipse cx="1172.605" cy="781.826" fill="#232323" rx="6.582" ry="6.577"/><path d="m1172.604 789.903c-4.456 0-8.082-3.624-8.082-8.077s3.626-8.077 8.082-8.077 8.082 3.623 8.082 8.077-3.626 8.077-8.082 8.077zm0-13.154c-2.802 0-5.082 2.277-5.082 5.077s2.28 5.077 5.082 5.077 5.082-2.278 5.082-5.077-2.28-5.077-5.082-5.077z" fill="#232323"/><path d="m1145.977 839.082c-1.657 0-3-1.343-3-3 0-1.646 1.327-2.983 2.97-3 .015 0 .029-.002.044-.003.389-.032 40.303-3.634 46.942-35.829 8.938-43.33-4.933-218.601-5.073-220.366-.132-1.652 1.1-3.098 2.751-3.229 1.644-.137 3.098 1.099 3.229 2.751.579 7.243 14.078 177.893 4.97 222.056-7.482 36.273-50.354 40.427-52.319 40.596-.167.017-.345.024-.514.024zm-.075-5.996c-.01 0-.019.002-.027.003.009 0 .018-.002.027-.003z" fill="#232323"/><path d="m1521.915 1060.356c-1.163 0-2.271-.681-2.758-1.818-43.972-102.519-62.535-175.184-70.462-206.213l-.197-.774c-.41-1.605.559-3.239 2.164-3.649 1.61-.411 3.239.56 3.648 2.164l.198.774c7.893 30.894 26.375 103.243 70.162 205.333.653 1.523-.052 3.287-1.574 3.94-.386.165-.787.244-1.182.244z" fill="#232323"/><path d="m830.444 1068.635c-.318 0-.643-.051-.962-.159-1.569-.531-2.411-2.234-1.88-3.804 22.991-67.918 41.854-142.139 57.669-226.903.003-.013.02-.099.022-.111.324-1.624 1.902-2.676 3.529-2.354 1.625.325 2.679 1.906 2.354 3.53l-2.941-.588 2.938.609c-15.87 85.061-34.804 159.551-57.887 227.741-.424 1.25-1.591 2.039-2.842 2.039z" fill="#232323"/><path d="m1135.159 304.745c-1.097 0-2.153-.604-2.681-1.65-5.652-11.216-12.928-19.696-21.623-25.206-16.841-10.668-33.583-6.745-34.285-6.573-1.611.394-3.234-.593-3.627-2.202-.394-1.609.592-3.233 2.201-3.626 2.019-.495 20.271-4.482 38.922 7.333 9.625 6.098 17.622 15.375 23.77 27.574.746 1.479.151 3.284-1.328 4.029-.434.218-.895.321-1.349.321z" fill="#232323"/><path d="m1335.723 250.284c-.657 0-1.32-.215-1.873-.658-1.294-1.036-1.502-2.924-.467-4.217 4.398-5.494 6.299-9.414 5.809-11.985-.546-2.859-4.312-5.192-10.45-8.695-17.293-9.871-17.147-20.854-17.133-21.317.052-1.656 1.47-2.959 3.093-2.903 1.638.052 2.928 1.407 2.905 3.039.008.266.41 8.151 14.109 15.97 6.582 3.756 12.267 7 13.369 12.782.862 4.521-1.303 9.721-7.019 16.859-.593.74-1.464 1.125-2.344 1.125z" fill="#232323"/><path d="m1337.731 286.782c-5.022 9.306-16.554 13.2-26.721 11.529-10.116-1.844-19.328-10.3-20.147-20.807-.095-1.232.827-2.308 2.059-2.402 1.074-.083 2.028.609 2.319 1.6 1.272 3.857 3.606 7.194 6.6 9.738 2.991 2.519 6.648 4.274 10.48 5.005 7.432 1.32 16.596-1.148 21.639-7.029 1.648-2.084 4.933-.005 3.77 2.368v-.002z" fill="#232323"/><path d="m1414.166 1850.044s-8.287-99.385 45.052-235.31c5.746-14.643 12.015-29.56 18.193-44.356 0 0 77.93 103.851 53.14 189.448-14.004 48.354-65.641 90.155-95.105 100.715-11.236-5.547-21.28-10.496-21.28-10.496z" fill="#00676c"/></svg>