<svg enable-background="new 0 0 1609.535 2027.443" height="2028" viewBox="0 0 1609.535 2027.443" width="1610" xmlns="http://www.w3.org/2000/svg" xmlns:xlink="http://www.w3.org/1999/xlink"><clipPath id="a"><path d="m520.692 1855.308c3.553 16.902 11.196 59.057 6.616 86.126-7.587 44.837-4.231 81.394 44.531 84.994 35.384 2.612 44.195-8.658 115.638-.72 84.527 9.392 108.553-21.676 103.68-37.44-5.786-18.72-44.64-20.88-86.4-37.44-53.527-21.226-72.853-29.52-76.343-102.162-58.341 9.148-107.722 6.642-107.722 6.642z"/></clipPath><clipPath id="b"><path d="m174.207 307.985c22.492-39.109 41.828-76.286 54.11-105.508 6.131-14.588 10.523-35.955 13.34-68.289 8.332-95.616-7.064-143.366 31.129-132.727 41.014 11.425 46.868 106.839 82.508 170.559 51.356 91.819-40.273 59.435-85.6 198.596-17.713-24.579-69.886-52.863-95.487-62.631z"/></clipPath><clipPath id="c"><path d="m473.087 776.384c-180.11 84.204-80.711 253.414-62.984 622.618 4.743 98.788-65.265 362.419-65.265 362.419 14.889-28.24 57.121-58.787 153.868 10.335 57.106 40.8 130.614 31.667 130.614 31.667 35.026-351.32-10.182-291.122 52.405-781.018 20.974-164.162-85.698-303.497-208.638-246.021z"/></clipPath><clipPath id="d"><path d="m944.517 881.628s-153.36 195.921-432.095 195.476c-246.283-.393-405.265-46.796-480.168-166.296-47.792-76.248-62.837-283.411 132.723-590.06 0 0 48.026 29.897 81.14 98.107 53.04 109.253 102.146 127.976 117.681 114.182 0 0-126.366 116.219-127.521 244.034 0 0 42.34 33.166 127.34 11.898 60.477-15.133 124.18-70.78 307.136-.586 128.651 49.357 273.764 93.245 273.764 93.245z"/></clipPath><clipPath id="e"><path d="m852.587 597.668s7.638-36.44-59.27-58.04c-66.471-21.459-104.304-110.419-113.087-139.511 3.448 7.749 7.69 60.403-40.521 94.979-48.156 34.536-90.513 26.83-133.141 76.46 103.428 107.251 204.308 113.151 204.308 113.151-46.8 24.48-124.56 16.2-158.928 30.462-16.6 6.889-16.383 31.058-16.032 39.378.04.954 7.74.9 7.74.9-1.62-21.78 5.04-42.3 15.66-30.78 30.96 38.52 15.12 141.12 134.64 231.84 90.38 68.602 179.28 118.44 163.08 163.44 26.152-44.715 82.655-138.92 101.137-328.158 0 0 86.349 39.334 180.077 45.71 4.082-24.404-14.942-58.833-19.92-98.539-11.317-90.264 50.493-130.51 50.493-130.51s-63.387 53.936-136.827 27.656c-35.943-12.862-64.8-6.48-84.664 11.523-.116 15.74 4.348 43.735 4.348 43.735-42.283 2.529-101.675-32.729-99.093-93.696z"/></clipPath><path d="m948.622 667.072c-5.475-66.112 2.495-87.01 16.142-121.773 14.123.795 27.781-3.358 32.013-7.23 17.377-15.905 3.926-58.109.285-71.582 4.432-4.003 8.654-13.998 1.294-15.722-3.431-.866-6.935-1.983-9.537-4.498-2.631-2.547-4.697-6.397-6.448-9.547-1.345-2.415-2.61-4.861-3.862-7.315-1.753-3.434-3.473-6.884-5.324-10.265-.015-.026-.03-.059-.045-.085-1.37-2.508-2.812-4.972-4.386-7.374-5.091-7.955-10.997-15.359-17.62-22.092-16.148-16.017-37.898-24.851-60.72-22.743-10.143 1.033-20.035 3.788-29.252 8.148-.042.018-.079.041-.119.057-.594.276-1.186.557-1.773.842-53.04 25.781-52.993 91.731-20.794 123.273.62-.17 2.321-.626 2.5-.675.007.009.006.001.014.002.34-.093 16.608-4.915 22.938-7.115 47.02 61.914-22.936 111.354-22.936 111.354l2.423 77.62 119.936 56.404c-.001-0-13.365-53.22-14.729-69.684z" fill="#fff"/><path d="m963.349 739.756c-.433 0-.869-.094-1.276-.285l-119.936-56.404c-1.021-.48-1.687-1.493-1.722-2.621l-2.423-77.62c-.031-1.006.445-1.961 1.266-2.542.321-.228 32.155-23.124 37.234-56.192 2.554-16.627-2.045-33.16-13.673-49.174-7.224 2.379-20.604 6.351-21.039 6.47-.005.001-.01.003-.015.004-.055.015-.11.028-.166.04l-2.331.63c-1.029.28-2.13-.003-2.892-.75-17.741-17.379-26.123-44.395-21.874-70.504 4.158-25.55 19.591-46.01 43.456-57.61.601-.292 1.209-.58 1.819-.863.004-.002.007-.003.011-.005.052-.026.104-.05.156-.073 9.485-4.488 19.656-7.321 30.167-8.391 22.887-2.119 45.887 6.488 63.137 23.597 6.782 6.894 12.841 14.49 18.035 22.604 1.474 2.25 2.949 4.729 4.492 7.554.023.042.046.085.062.116 1.52 2.78 2.94 5.574 4.313 8.276l1.034 2.032c1.184 2.322 2.465 4.803 3.811 7.22l.282.509c1.622 2.925 3.46 6.24 5.632 8.342 1.952 1.886 4.683 2.861 8.183 3.744 3.1.725 5.243 2.717 5.985 5.596 1.233 4.785-1.683 10.497-4.665 13.895.139.501.287 1.031.442 1.586 4.627 16.554 15.464 55.319-2.05 71.349-4.679 4.282-17.999 8.415-32.025 8.099-12.879 32.835-20.517 53.824-15.166 118.443 1.328 16.032 14.514 68.672 14.647 69.202.282 1.124-.108 2.311-1.003 3.047-.548.446-1.225.679-1.908.679zm-116.994-61.336 112.57 52.94c-3.564-14.555-12.187-50.697-13.292-64.041-5.573-67.3 2.675-88.31 16.339-123.116.473-1.207 1.662-1.984 2.961-1.899 13.808.778 26.399-3.319 29.819-6.448 14.793-13.54 4.652-49.816.322-65.307-.342-1.224-.649-2.323-.907-3.279-.295-1.09.047-2.252.885-3.009 2.707-2.445 4.794-7.057 4.213-9.311-.118-.459-.349-.973-1.593-1.264-3.884-.979-7.857-2.285-10.937-5.261-2.814-2.725-4.973-6.618-6.707-9.745l-.278-.502c-1.391-2.498-2.702-5.038-3.912-7.41l-1.038-2.041c-1.367-2.691-2.781-5.474-4.244-8.146-.009-.017-.028-.052-.043-.081-.001-.002-.002-.004-.004-.007-1.465-2.682-2.859-5.027-4.262-7.168-4.987-7.792-10.785-15.061-17.25-21.632-15.96-15.83-37.22-23.808-58.306-21.859-9.802.999-19.314 3.648-28.245 7.873-.05.025-.109.054-.171.081-.566.264-1.131.531-1.691.804-22.061 10.723-36.322 29.608-40.158 53.178-3.843 23.614 3.406 47.98 18.95 64.047l.812-.219c.043-.012.087-.022.131-.032 1.615-.472 16.692-4.958 22.625-7.021 1.226-.425 2.589-.014 3.374 1.02 13.599 17.907 19.016 36.572 16.1 55.478-4.938 32.02-31.972 54.292-38.378 59.167z" fill="#232323"/><path d="m942.866 438.708c-8.261 5.757-10.853 15.178-7.579 18.787s12.374 1.462 19.435-5.718c7.262-7.38 10.685-15.667 7.579-18.787-3.221-3.237-11.237.004-19.435 5.718z" fill="#232323"/><path d="m987.778 493.121c-1.069 1.531-2.52 2.757-4.209 3.554-1.647.84-3.463 1.299-5.312 1.342-.908.002-1.813-.113-2.692-.341-.887-.215-1.743-.54-2.549-.968-1.655-.882-3.058-2.17-4.079-3.743l-.056-.086c-.487-.748-1.488-.96-2.237-.473-.569.37-.846 1.056-.693 1.718.678 2.661 2.311 4.98 4.588 6.516 1.123.784 2.361 1.39 3.669 1.797 1.314.394 2.677.599 4.048.609 2.732-.048 5.392-.881 7.663-2.399 1.129-.736 2.136-1.644 2.983-2.692.878-1.073 1.511-2.325 1.855-3.668.205-.868-.333-1.738-1.201-1.943-.658-.155-1.343.116-1.717.679z" fill="#232323"/><path d="m957.15 463.298c2.817-3.247 9.754-10.883 14.359-20.361.642-1.323 2.235-1.874 3.557-1.232.007.003.014.007.02.01 3.419 1.69 8.457 5.395 4.492 11.45-4.873 7.44-17.232 13.492-21.764 12.352-.728-.201-1.155-.954-.954-1.681.054-.199.154-.382.29-.538z" fill="#232323"/><path d="m932.955 370.234c-23.922-13.542 15.786-60.076 29.991-57.056 11.943 2.539-1.125 73.396-29.991 57.056z" fill="#fff"/><path d="m941.39 375.681c-3.24 0-6.569-.944-9.912-2.837-8.984-5.086-11.368-14.651-6.713-26.935 6.441-16.996 27.191-38.138 38.805-35.667 2.107.448 4.879 2.187 6.115 7.924 2.93 13.598-3.965 43.749-17.666 53.821-3.346 2.462-6.929 3.694-10.629 3.694zm20.096-59.651c-7.093 0-24.777 15.296-31.11 32.006-3.58 9.446-2.215 16.036 4.058 19.587 5.091 2.883 9.682 2.729 14.032-.469 11.412-8.39 17.904-35.892 15.354-47.723-.56-2.598-1.362-3.291-1.497-3.319-.259-.055-.539-.082-.837-.082z" fill="#232323"/><path d="m883.912 483.731c16.583 4.989 19.602-11.151 27.035-22.103 6.586-9.704 13.038-25.595 20.774-33.826 13.293 6.983 39.269 3.661 50.956-5.774 46.08-37.2-5.903-98.715-44.725-55.009-10.347-2.929-76.294-26.471-121.061 39.016-26.214 38.346-29.524 51.816-100.28 66.017-28.772 5.775-102.207 8.572-166.32 87.48-56.16 69.12-8.64 102.6-110.588 163.555-88.889 53.147-66.532 141.005-48.706 159.365 55.251 56.905 221.767-20.014 280.254-77.76 30.621-30.233 44.346-105.824 83.16-140.4s141.85-65.88 126.125-147.459c0-0-5.877-35.886 3.376-33.102z" fill="#232323"/><path d="m449.166 905.431c-.514 0-1.023-.003-1.533-.008-25.821-.272-45.601-7.298-58.789-20.881-9.364-9.644-20.569-38.315-16.161-71.86 3.448-26.249 17.608-63.546 65.479-92.169 60.298-36.053 67.33-62.044 75.473-92.14 5.416-20.017 11.554-42.705 34.326-70.732 57.435-70.69 121.885-81.006 156.509-86.548 4.446-.712 8.286-1.327 11.549-1.981 63.507-12.746 71.297-24.377 92.114-55.461 1.964-2.932 4.038-6.029 6.28-9.308 18.61-27.223 42.958-42.744 72.37-46.134 23.212-2.677 42.78 3.169 50.22 5.402 15.541-16.527 30.823-15.636 38.673-13.566 13.436 3.542 24.112 15.153 27.197 29.581 3.472 16.233-3.203 32.54-18.313 44.738-12.221 9.867-37.562 13.133-52.069 7.108-3.914 4.754-7.593 11.58-11.165 18.206-2.695 4.999-5.24 9.72-7.898 13.637-1.577 2.323-2.998 4.996-4.373 7.581-4.802 9.03-10.777 20.271-25.967 15.723-1.984 2.27-1.812 16.184.407 29.732 12.063 62.577-43.409 96.406-87.983 123.588-15.086 9.2-29.335 17.89-39.107 26.595-20.433 18.202-33.794 48.138-46.715 77.087-11.216 25.131-21.81 48.869-36.333 63.208-22.716 22.428-60.808 47.157-101.897 66.148-45.347 20.958-88.693 32.453-122.294 32.454zm449.436-541.859c-39.543 0-64.442 22.517-79.235 44.156-2.23 3.262-4.294 6.344-6.248 9.261-21.207 31.665-29.984 44.771-95.919 58.005-3.379.678-7.273 1.301-11.781 2.023-33.833 5.416-96.811 15.497-152.801 84.407-21.969 27.04-27.674 48.125-33.191 68.516-8.482 31.351-15.808 58.427-78.186 95.723-45.812 27.392-59.334 62.865-62.61 87.801-2.424 18.453.513 52.476 14.517 66.899 12.032 12.393 30.385 18.806 54.547 19.061 32.924.328 75.997-10.979 121.247-31.895 40.493-18.716 77.95-43.004 100.199-64.971 13.719-13.546 24.09-36.782 35.07-61.383 13.179-29.529 26.807-60.062 48.203-79.123 10.177-9.065 24.651-17.892 39.975-27.237 21.748-13.263 46.397-28.294 63.668-47.156 19.498-21.293 26.541-44.274 21.532-70.257-1.472-8.984-4.226-30.247 1.677-35.429 1.517-1.331 3.473-1.726 5.509-1.114 10.018 3.016 13.569-2.601 18.983-12.782 1.449-2.725 2.947-5.542 4.705-8.133 2.486-3.664 4.961-8.254 7.581-13.115 4.182-7.757 8.506-15.779 13.49-21.082.924-.982 2.388-1.228 3.581-.601 12.048 6.329 36.554 3.526 47.676-5.453 13.286-10.725 19.196-24.873 16.214-38.814-2.617-12.236-11.59-22.062-22.859-25.034-11.63-3.067-23.687 1.609-33.952 13.166-.764.86-1.952 1.208-3.06.895-.481-.136-1.079-.315-1.786-.528-13.461-4.042-25.678-5.806-36.746-5.806z" fill="#232323"/><path d="m884.202 484.098s-20.192-10.382-36.455 1.342c-15.34 11.059-5.242 36.647 29.418 42.429 7.034 1 14.183.849 21.168-.449" fill="#fff"/><path d="m886.386 531.522c-3.218 0-6.436-.228-9.642-.683-10.498-1.75-19.614-5.406-26.435-10.582-6.269-4.757-10.518-10.784-11.964-16.97-1.85-7.913 1.01-15.494 7.649-20.281 17.552-12.653 38.69-2.034 39.581-1.576 1.473.757 2.054 2.566 1.296 4.04-.757 1.473-2.564 2.052-4.036 1.298-.254-.129-18.823-9.355-33.332 1.105-4.746 3.421-6.633 8.41-5.315 14.047 1.953 8.355 11.892 19.389 33.473 22.989 6.654.945 13.45.801 20.126-.44 1.629-.302 3.195.772 3.498 2.401s-.772 3.195-2.401 3.498c-4.137.769-8.317 1.154-12.498 1.154z" fill="#232323"/><path d="m803.313 621.805s50.028-71.036 64.911-131.851c-.557.2-1.108.393-1.639.578-2.827.995-5.37 1.86-7.661 2.616-.319.103-.631.211-.943.316l-.678.22c-.399.13-.785.253-1.163.375-.857.278-1.675.539-2.459.786-.303.099-.598.189-.891.279-2.993.93-5.43 1.633-7.488 2.208-.301.084-.593.161-.88.247-.286.086-.56.144-.833.222s-.533.147-.786.212-.506.136-.753.205c-.367.097-.721.182-1.06.275-.007-.001-.007.007-.014-.002-.179.049-.361.098-.533.147-.7.188-1.346.358-1.967.528-32.198-31.542-32.246-97.492 20.794-123.273.587-.285 1.179-.565 1.773-.842.04-.016.078-.038.119-.057 9.216-4.36 19.109-7.115 29.252-8.148 22.822-2.109 44.572 6.726 60.72 22.743 6.624 6.733 12.529 14.137 17.62 22.092 1.574 2.403 3.016 4.866 4.386 7.374.015.026.031.059.045.085 1.851 3.381 3.571 6.831 5.324 10.265 1.252 2.454 2.517 4.9 3.862 7.315 1.75 3.15 3.817 7 6.448 9.547 2.602 2.514 6.106 3.632 9.537 4.498 7.36 1.723 3.138 11.718-1.294 15.722 3.641 13.473 17.092 55.677-.285 71.582-7.082 6.48-33.384 7.937-46.272 7.297-33.875 15.22-38.134 74.89-40.627 99.234" fill="none"/><path d="m954.764 570.196c-19.771-8.443-26.354-21.332-23.955-25.442 2.955-5.06 12.524-2.519 18.18-1.681 5.218.779 9.862 1.711 14.459 2.349-2.182 4.924-5.182 13.924-8.684 24.774z" fill="#232323"/><path d="m954.764 573.196c-.401 0-.802-.08-1.178-.241-15.589-6.657-23.442-15.977-25.593-22.48-.946-2.859-.868-5.36.225-7.233 3.6-6.165 12.363-4.649 18.762-3.542.87.151 1.695.294 2.449.405 2.476.37 4.809.771 7.065 1.158 2.554.439 4.967.854 7.366 1.186.933.129 1.751.689 2.209 1.512s.503 1.813.122 2.675c-2.048 4.623-4.908 13.13-8.572 24.481-.259.803-.844 1.459-1.611 1.809-.395.179-.819.27-1.244.27zm-16.643-28.497c-2.19 0-4.031.384-4.722 1.567-.083.174-.192 1.068.433 2.727 1.719 4.564 7.728 11.552 19.114 17.079 2.526-7.772 4.578-13.851 6.28-18.261-1.229-.202-2.471-.415-3.749-.634-2.224-.382-4.524-.778-6.931-1.137-.794-.118-1.668-.269-2.589-.428-2.23-.386-5.272-.913-7.836-.913z" fill="#232323"/><path d="m910.947 471.948c13.864-20.912 33.57-64.44 27.005-104.429 0 0-8.075-8.131-27.005-6.023.981 18.72-.087 58.899-25.812 122.623 4.338.848 13.764 6.001 25.812-12.171z" fill="#fff"/><path d="m892.383 488.437c-2.619 0-4.808-.589-6.433-1.026-.515-.139-.979-.267-1.391-.347-.879-.171-1.635-.727-2.062-1.514s-.48-1.724-.145-2.554c18.504-45.836 27.356-87.795 25.599-121.343-.083-1.586 1.085-2.962 2.664-3.138 20.136-2.244 29.095 6.516 29.466 6.89.44.443.73 1.012.832 1.628 6.326 38.539-10.842 81.497-27.465 106.573-8.094 12.207-15.537 14.831-21.065 14.831zm-3.188-6.394c4.49 1.002 10.824.959 19.252-11.753 12.784-19.284 32.645-62.117 26.715-101.212-1.998-1.53-8.566-5.599-21.093-4.841 1.14 33.111-7.428 73.7-24.874 117.806zm21.752-10.095h.01z" fill="#232323"/><ellipse cx="928.048" cy="358.085" fill="#fff" rx="10.738" ry="12.68" transform="matrix(.9437 -.3307 .3307 .9437 -66.203 327.0597)"/><path d="m929.163 373.576c-2.316 0-4.652-.651-6.835-1.933-3.317-1.948-5.89-5.15-7.245-9.016-1.354-3.866-1.343-7.973.032-11.566 1.443-3.769 4.194-6.53 7.747-7.774 3.553-1.246 7.426-.806 10.905 1.238 3.318 1.949 5.891 5.151 7.245 9.016 1.354 3.866 1.343 7.973-.032 11.566-1.443 3.769-4.194 6.53-7.747 7.774-1.324.465-2.693.695-4.07.695zm-2.244-24.976c-.708 0-1.405.116-2.072.35-1.861.652-3.326 2.164-4.128 4.257-.868 2.269-.859 4.91.027 7.437.885 2.527 2.527 4.596 4.621 5.827 1.933 1.135 4.022 1.402 5.882.75 1.861-.652 3.326-2.164 4.128-4.257.869-2.269.859-4.91-.027-7.437-.885-2.527-2.527-4.597-4.621-5.827-1.239-.73-2.543-1.1-3.81-1.1z" fill="#232323"/><path d="m921.753 367.751c11.086-26.364-51.206-39.429-60.982-27.909-8.219 9.687 47.605 59.723 60.982 27.909z" fill="#fff"/><path d="m906.63 381.205c-17.607 0-41.966-20.119-48.125-33.021-2.603-5.452-1.448-8.601-.021-10.282 7.956-9.377 38.404-5.161 54.479 4.714 11.589 7.119 15.692 16.458 11.555 26.298-3.299 7.846-9.299 12.094-17.351 12.284-.177.005-.358.007-.537.007zm-31.083-42.585c-5.991 0-10.688 1.042-12.488 3.164-.13.153-.365 1.25.861 3.816 5.437 11.39 28.321 29.906 43.106 29.601 5.669-.134 9.582-2.951 11.962-8.612 2.934-6.977-.15-13.322-9.164-18.86-9.785-6.011-23.952-9.109-34.277-9.109z" fill="#232323"/><path d="m887.764 509.846c-.657 0-1.319-.215-1.872-.657-13.216-10.573-24.999-5.013-25.495-4.771-1.483.724-3.28.119-4.012-1.36-.733-1.479-.141-3.268 1.333-4.009.63-.316 15.607-7.596 31.922 5.455 1.294 1.035 1.504 2.923.469 4.217-.593.74-1.465 1.125-2.345 1.125z" fill="#232323"/><path d="m1171.333 607.501s-102.522 49.828-38.291 225.369c86.779-127.914 86.247-246.988 38.291-225.369z" fill="#232323"/><path d="m1133.042 835.869c-.122 0-.245-.007-.368-.022-1.117-.138-2.063-.89-2.45-1.947-14.779-40.39-21.944-77.521-21.297-110.36.521-26.432 6.073-50.168 16.502-70.549 9.314-18.202 20.873-30.295 28.93-37.235 8.802-7.582 15.386-10.819 15.662-10.954.026-.013.052-.025.078-.037 10.872-4.902 20.464-3.313 27.009 4.471 11.496 13.673 12.735 45.392 3.314 84.847-10.646 44.588-33.695 94.474-64.899 140.47-.561.83-1.494 1.316-2.481 1.316zm39.575-225.656c-1.022.516-25.412 13.137-42.032 45.876-9.931 19.564-15.202 42.403-15.665 67.883-.554 30.504 5.815 64.89 18.939 102.287 29.129-44.023 50.624-91.253 60.728-133.569 8.847-37.052 8.054-67.55-2.071-79.592-4.786-5.693-11.48-6.664-19.899-2.885z" fill="#232323"/><path d="m963.266 668.346c24-29 149.515-18.703 272.846 5.221 0 0 67.818-50.666 131.128-83.379 71.067-36.722 79.082-64.663 84.395-85.226 5.175-20.031 18.74-57.158 33.249-68.364 23.247-17.955.755 43.813 12.147 54.399 11.392 10.587 25.06-9.289 11.455-31.257-10.403-16.798-17.861-28.137-5.676-28.23 19.35-.147 36.269 26.859 36.269 26.859s5.337-10.035 2.081-44.648c-1.975-20.995 21.314-7.599 26.632 23.613 0 0 3.602-7.29 6.373-26.736 3.303-23.185 19.533.91 16.361 38.982-.47-.75 6.577-13.992 8.182-15.939 10.676-12.959 23.565 47.812-59.186 158.264-79.504 106.118-169.62 228.48-319.061 244.12-205.267 21.484-317.117-95.273-257.195-167.679z" fill="#fff"/><g fill="#232323"><path d="m1171.898 841.611c-45.837.001-88.419-7.139-125.111-21.138-43.848-16.729-76.754-42.287-92.656-71.967-15.484-28.898-13.06-58.046 6.824-82.073l2.311 1.913-2.311-1.913c11.853-14.321 46.036-20.485 101.602-18.321 46.562 1.813 107.893 9.714 172.83 22.259 8.933-6.59 71.985-52.625 130.476-82.848 70.795-36.581 77.772-63.59 82.867-83.312 5.641-21.834 19.436-58.492 34.319-69.987 3.091-2.388 7.656-5.309 11.604-3.119.131.072.258.149.382.23 1.538-1.849 4.138-2.798 7.751-2.825h.18c15.289 0 28.679 14.78 34.931 22.98 1.108-6.014 2.148-17.574.274-37.487-1.046-11.115 4.376-13.046 6.755-13.36 7.552-1.004 17.818 9.395 23.218 25.703.981-3.976 2.068-9.295 3.048-16.17 1.459-10.243 5.416-11.974 8.483-11.637 7.65.863 13.445 17.246 14.169 37.23.944-1.659 1.922-3.278 2.545-4.035 3.069-3.726 6.52-3.192 8.542-1.604 10.666 8.381 7.583 69.346-63.012 163.574l-2.636 3.519c-79.412 106.018-169.419 226.182-318.513 241.787-16.604 1.737-32.94 2.601-48.872 2.601zm-129.303-187.891c-40.657 0-67.863 5.477-77.018 16.539-18.227 22.024-20.414 48.807-6.158 75.414 15.22 28.407 47.008 52.981 89.506 69.195 48.57 18.531 107.777 24.815 171.221 18.174 146.488-15.332 235.66-134.381 314.335-239.416l2.637-3.52c26.378-35.208 45.406-68.407 56.554-98.674 11.585-31.454 10.083-47.579 9.347-51.772-.503-2.862-1.206-4.094-1.569-4.565-.113.1-.257.246-.429.454-1.144 1.388-6.684 11.704-7.495 14.129-.004.051-.008.101-.012.151-.107 1.287-1.026 2.361-2.281 2.666-1.253.306-2.564-.227-3.25-1.322-.438-.7-.693-1.275-.391-2.546 2.008-25.958-5.318-42.637-8.417-44.059-.358.393-1.389 1.881-2.041 6.454-2.807 19.696-6.498 27.327-6.654 27.643-.576 1.165-1.837 1.829-3.123 1.639-1.287-.188-2.305-1.183-2.524-2.464-3.502-20.552-15.006-31.798-19.12-31.248-1.286.17-1.931 2.986-1.567 6.849 3.247 34.512-1.829 45.229-2.418 46.337-.503.945-1.472 1.55-2.542 1.589-1.077.033-2.08-.497-2.649-1.403-.16-.255-16.187-25.454-33.568-25.454-.046 0-.091 0-.136 0-2.327.018-3.113.522-3.219.716-1.318 2.39 5.445 13.296 10.384 21.259l1.039 1.675c5.462 8.82 6.329 16.447 6.095 21.292-.306 6.305-2.652 11.706-6.437 14.819-4.76 3.916-10.778 3.502-15.705-1.076-6.016-5.59-4.625-19.558-3.153-34.346.733-7.365 2.098-21.075-.092-22.498-.009 0-1.27-.279-5.025 2.622-13.594 10.499-26.951 46.508-32.178 66.74-5.075 19.643-12.743 49.329-85.922 87.141-62.368 32.227-130.033 82.612-130.71 83.117-.677.507-1.537.702-2.367.542-78.024-15.136-144.883-22.793-192.948-22.793zm456.112-204.297c-.212 3.098-.547 6.465-.901 10.021-1.083 10.885-2.568 25.793 1.267 29.356 1.891 1.757 4.78 3.329 7.81.837 4.433-3.646 7.197-15.167-.947-28.317l-1.037-1.672c-2.335-3.764-4.443-7.162-6.192-10.225z"/><path d="m1534.264 494.346c-.515 0-1.038-.133-1.514-.413-1.429-.838-1.909-2.676-1.071-4.105 5.215-8.896 6.823-18.93 4.779-29.821-.305-1.628.767-3.196 2.396-3.502 1.627-.301 3.196.767 3.502 2.396 2.318 12.354.467 23.781-5.501 33.961-.559.954-1.562 1.484-2.591 1.484z"/><path d="m1554.265 498.347c-.403 0-.812-.082-1.205-.254-1.517-.666-2.207-2.436-1.541-3.953 8.66-19.725 12.99-37.92 13.24-55.628.023-1.658 1.418-3.001 3.042-2.958 1.657.023 2.981 1.385 2.958 3.042-.261 18.525-4.756 37.483-13.745 57.956-.494 1.125-1.595 1.795-2.749 1.795z"/><path d="m1573.264 506.346c-.461 0-.928-.106-1.367-.331-1.474-.756-2.056-2.564-1.3-4.039 11.038-21.523 15.948-44.226 18.124-59.48.234-1.641 1.756-2.783 3.393-2.546 1.641.234 2.781 1.753 2.546 3.393-2.24 15.709-7.307 39.108-18.724 61.372-.531 1.036-1.583 1.631-2.672 1.631z"/><path d="m1511.099 547.089c-.571 0-1.147-.163-1.659-.502-1.379-.918-1.754-2.78-.836-4.16 18.636-28.016 40.842-28.396 41.973-28.396h.014c1.657.005 2.996 1.353 2.991 3.009-.005 1.653-1.346 2.989-2.997 2.991-.842.006-20.171.441-36.985 25.72-.578.868-1.53 1.338-2.501 1.338z"/><path d="m1205.03 723.415c-.395 0-.796-.079-1.183-.245-1.522-.654-2.226-2.418-1.573-3.94 7.4-17.227 18.428-33.722 32.779-49.024 1.133-1.208 3.032-1.27 4.24-.136 1.208 1.133 1.27 3.032.136 4.241-13.872 14.793-24.518 30.703-31.642 47.288-.487 1.136-1.594 1.816-2.757 1.816z"/><path d="m857.037 1119.948c-19.84 36.36-183.192 12.293-261.507-343.564 0 0 298.587 263.644 261.507 343.564z"/><path d="m828.5 1135.346c-3.285 0-6.729-.248-10.299-.756-16.4-2.335-34.5-9.938-52.344-21.986-21.169-14.292-41.669-34.452-60.932-59.919-48.346-63.917-86.138-156.662-112.325-275.657-.279-1.268.289-2.572 1.408-3.23 1.119-.66 2.534-.522 3.508.336.748.66 75.564 66.882 144.878 142.027 93.816 101.708 133.303 170.696 117.365 205.049-.028.059-.057.117-.088.174-4.883 8.948-16.406 13.962-31.171 13.962zm-227.997-350.477c25.903 113.765 62.624 202.61 109.207 264.197 16.316 21.57 59.63 72.506 109.336 79.583 16.756 2.385 30.599-1.56 35.31-10.056 10.111-22.011-1.929-74.293-116.374-198.365-56.816-61.594-117.334-117.172-137.479-135.359zm256.534 335.079h.01z"/><path d="m349.266 1757.346c-20.451 50.4 56.417 109.779 277.73 44.202.001 0-245.62-146.442-277.73-44.202z"/><path d="m459.274 1833.515c-5.276 0-10.42-.124-15.443-.373-52.634-2.609-77.321-18.193-88.761-30.806-12.134-13.377-15.196-29.711-8.629-46.005 5.08-16.072 15.544-27.229 31.104-33.164 31.508-12.02 83.403-2.861 154.245 27.221 52.407 22.253 96.306 48.322 96.743 48.583 1.023.61 1.589 1.768 1.44 2.95-.148 1.182-.982 2.165-2.125 2.503-65.23 19.328-121.841 29.09-168.574 29.091zm-50.167-109.441c-10.919 0-20.878 1.438-29.426 4.699-13.988 5.336-23.001 14.977-27.553 29.472-.024.078-.052.154-.082.229-5.712 14.078-3.06 28.224 7.468 39.831 15.097 16.644 45.147 26.888 84.615 28.845 47.304 2.347 106.256-6.574 175.296-26.512-27.099-15.416-139.109-76.564-210.318-76.564zm-59.841 33.272h.01z"/></g><path d="m487.317 1698.108c5.16 67.66 27.127 108.198 38.327 165.425 19.623 6.813 65.623 6.813 99.965-6.928-.812-16.617-.004-35.345 2.658-56.258-3-8-.035-9.917 1-18z" fill="#fff"/><path d="m560.428 1870.98c-14.375 0-27.152-1.621-35.768-4.613-1.009-.35-1.755-1.21-1.96-2.258-4.31-22.02-10.348-41.961-16.187-61.246-9.341-30.85-19-62.75-22.187-104.527-.085-1.116.458-2.187 1.409-2.777s2.151-.603 3.114-.031l141.949 84.238c1.029.611 1.597 1.774 1.445 2.961-.358 2.801-.943 4.957-1.413 6.689-.936 3.45-1.451 5.351.246 9.876.171.457.229.948.167 1.432-2.571 20.197-3.458 38.949-2.637 55.733.062 1.279-.693 2.456-1.882 2.932-20 8.003-44.915 11.591-66.296 11.591zm-32.184-9.757c18.302 5.547 60.418 6.245 94.272-6.632-.656-16.373.246-34.489 2.683-53.904-2.049-5.88-1.171-9.116-.161-12.841.331-1.222.671-2.474.949-3.957l-135.191-80.228c3.553 38.332 12.649 68.369 21.458 97.463 5.731 18.924 11.65 38.472 15.99 60.099z" fill="#232323"/><path d="m520.692 1855.308c3.553 16.902 11.196 59.057 6.616 86.126-7.587 44.837-4.231 81.394 44.531 84.994 35.384 2.612 44.195-8.658 115.638-.72 84.527 9.392 108.553-21.676 103.68-37.44-5.786-18.72-44.64-20.88-86.4-37.44-53.527-21.226-72.853-29.52-76.343-102.162-58.341 9.148-107.722 6.642-107.722 6.642z" fill="#d9c6f4"/><path clip-path="url(#a)" d="m535.271 1883.087c-12.404 0-20.026-.324-20.26-.334-2.759-.125-4.894-2.461-4.77-5.22.124-2.758 2.46-4.89 5.22-4.771.726.034 73.387 3.109 137.747-10.251 2.706-.562 5.351 1.176 5.912 3.879.562 2.704-1.176 5.351-3.879 5.912-44.756 9.291-93.359 10.785-119.97 10.785z" fill="#fff"/><path d="m473.087 776.384c-180.11 84.204-80.711 253.414-62.984 622.618 4.743 98.788-65.265 362.419-65.265 362.419 14.889-28.24 57.121-58.787 153.868 10.335 57.106 40.8 132.56 28.59 132.56 28.59 25-344-11.873-288.15 50.46-777.941 20.893-164.172-85.699-303.497-208.639-246.021z" fill="#00676c"/><path d="m359.266 533.346s-72.268 54.106-195-193c152.431 67.231 244.409 150.76 195 193z" fill="#232323"/><path d="m339.79 541.368c-4.047 0-8.648-.474-13.79-1.697-34.186-8.134-90.462-49.085-164.42-197.99-.562-1.131-.355-2.494.518-3.407.873-.914 2.224-1.183 3.38-.673 58.95 26.001 109.718 54.782 146.815 83.23 37.824 29.007 59.585 56.365 62.93 79.117 2.054 13.973-2.658 25.977-14.006 35.678-.049.042-.1.083-.152.121-.392.293-7.71 5.621-21.275 5.621zm-169.086-194.867c31.772 62.907 62.911 111.033 92.612 143.122 22.814 24.649 44.372 39.523 64.073 44.211 18.898 4.497 29.155-2.244 30.021-2.847 9.61-8.258 13.605-18.406 11.876-30.166-6.239-42.437-83.869-102.622-198.582-154.32zm188.562 186.845h.01z" fill="#232323"/><path d="m161.266 340.346c3.702-6.124 41.973-91.302 69.87-95.375 39.181-5.721 84.735 27.405 62.882 64.442-47.752 80.933-33.648 132.952-66.266 198.409.001-.001-67.107-166.448-66.486-167.476z" fill="#fff"/><path d="m227.753 510.821c-.04 0-.079-.001-.119-.002-1.18-.046-2.222-.781-2.664-1.876-.168-.416-16.969-42.093-33.479-83.359-9.698-24.24-17.399-43.598-22.89-57.536-10.884-27.63-10.884-27.63-9.902-29.253.445-.736 1.68-3.218 3.243-6.359 18.519-37.215 45.795-87.079 68.761-90.433 24.991-3.646 52.384 7.484 65.136 26.473 8.862 13.197 9.133 28.277.764 42.462-26.485 44.888-33.732 80.67-40.741 115.274-5.603 27.663-10.896 53.792-25.424 82.948-.509 1.02-1.551 1.661-2.685 1.661zm-63.263-170.109c3.667 10.635 38.556 97.767 63.5 159.674 12.005-26.062 16.865-50.062 21.99-75.366 7.107-35.09 14.456-71.375 41.454-117.132 9.14-15.49 4.731-28.164-.577-36.068-11.344-16.893-36.831-27.163-59.288-23.88-14.94 2.181-36.559 31.509-64.256 87.168-1.272 2.557-2.191 4.404-2.823 5.604zm-.655 1.184c-.001 0-.002 0-.001.002 0 0 0-.001.001-.002zm-2.569-1.55h.01z" fill="#232323"/><path d="m174.207 307.985c22.492-39.109 41.828-76.286 54.11-105.508 6.131-14.588 10.523-35.955 13.34-68.289 8.332-95.616-7.064-143.366 31.129-132.727 41.014 11.425 46.868 106.839 82.508 170.559 51.356 91.819-40.273 59.435-85.6 198.596-17.713-24.579-69.886-52.863-95.487-62.631z" fill="#d9c6f4"/><path clip-path="url(#b)" d="m305.019 368.121c-1.178 0-2.328-.595-2.989-1.673-33.125-54.109-119.729-86.599-120.6-86.921-1.813-.67-2.74-2.683-2.07-4.496s2.682-2.742 4.495-2.07c.223.083 22.631 8.418 48.905 23.509 24.37 13.997 57.206 36.865 75.24 66.323 1.009 1.649.491 3.803-1.158 4.812-.569.35-1.2.516-1.823.516z" fill="#fff"/><path d="m927.203 853.501s-136.047 224.048-414.782 223.603c-246.283-.393-403.847-47.696-480.168-166.296-64.677-100.507-37.328-287.563 130.013-579.462 0 0 52.311 35.274 79.53 106.042 43.362 112.738 106.466 109.443 122.001 95.649 0 0-126.366 116.219-127.521 244.034 0 0 42.34 33.166 127.34 11.898 60.477-15.133 166.639-76.947 364.261-2.427 128.932 48.617 199.326 66.959 199.326 66.959z" fill="#00676c"/><path clip-path="url(#c)" d="m313.075 1716.756c-.45 0-.907-.102-1.337-.316-1.483-.739-2.085-2.541-1.346-4.023 51.177-102.625 80.083-197.245 95.319-258.55 16.514-66.444 20.978-109.159 21.021-109.583.168-1.648 1.639-2.855 3.288-2.681 1.648.167 2.849 1.64 2.681 3.288-.043.427-4.534 43.465-21.133 110.286-15.31 61.628-44.359 156.748-95.807 259.917-.525 1.053-1.585 1.662-2.686 1.662z" fill="#fff"/><path clip-path="url(#c)" d="m473.571 1082.104c-9.26 0-18.601-.139-28.024-.417-110.71-3.267-209.415-24.959-264.873-44.171-1.566-.542-2.395-2.251-1.853-3.817.542-1.565 2.25-2.393 3.817-1.853 55.038 19.067 153.054 40.598 263.086 43.844 59.38 1.753 115.6-2.059 167.096-11.328 59.516-10.712 112.675-28.761 158.002-53.646 1.452-.798 3.276-.266 4.073 1.186.797 1.453.266 3.276-1.186 4.074-45.898 25.198-99.671 43.464-159.827 54.291-43.723 7.87-90.81 11.837-140.311 11.837z" fill="#fff"/><path clip-path="url(#d)" d="m192.09 793.197c-1.465 0-2.747-1.075-2.965-2.567-.24-1.64.896-3.163 2.535-3.402 84.388-12.32 85.298-44.193 85.297-44.514-.003-1.642 1.313-3.001 2.955-3.025h.046c1.621 0 2.952 1.271 2.997 2.897.042 1.52-.006 37.378-90.429 50.581-.146.019-.292.03-.436.03z" fill="#fff"/><path d="m680.23 400.117c7.483 20.285 14.459 119.819-171.301 171.659 68.741-180.819 159.301-198.299 171.301-171.659z" fill="#232323"/><path d="m508.929 574.776c-.831 0-1.639-.346-2.216-.978-.763-.836-.991-2.03-.588-3.088 23.592-62.057 51.522-110.168 83.014-142.996 24.104-25.126 49.711-39.891 70.256-40.507 11.492-.338 20.073 3.913 23.572 11.678.029.063.055.128.079.194 4.062 11.012 6.735 37.867-9.014 68.671-10.69 20.909-28.016 39.99-51.497 56.713-28.683 20.429-66.635 37.319-112.799 50.202-.267.075-.539.111-.807.111zm151.747-181.588c-.364 0-.73.005-1.103.017-29.483.884-92.918 38.704-145.685 174.037 56.311-16.405 126.66-47.185 154.8-102.223 14.781-28.911 12.214-54.279 8.764-63.762-2.38-5.16-8.455-8.069-16.776-8.069z" fill="#232323"/><path d="m780.831 603.516c13.404-15.871-331.823-351.944-483.227-407.477-45.805-16.801-89.451 3.775-91.392 20.169-11.359 3.123-15.913 16.434-13.572 23.484-6.539 2.981-12.627 14.149-7.707 24.444-7.677 8.616-6.194 18.654-.77 26.175 8.474-14.762 38.586-39.042 60.232-22.627 24.956 18.924-53.978 24.494-41.124 41.062s75.696-16.156 108.236 15.996c106.677 105.406 194.268 346.827 411.25 347.895 23.102.113 36.709-43.825 58.074-69.121z" fill="#fff"/><path d="m722.848 675.636c-.036 0-.07 0-.106 0-70.631-.348-133.874-25.913-193.343-78.156-51.854-45.552-92.898-103.543-132.59-159.624-29.794-42.096-57.936-81.858-87.41-110.981-18.016-17.801-46.677-14.489-69.706-11.829-18.114 2.094-32.423 3.747-38.791-4.462-2.346-3.024-2.261-5.729-1.777-7.466 1.872-6.709 12.584-10.827 24.989-15.594 9.11-3.501 21.586-8.295 22.175-12.448.181-1.277-1.135-3.054-3.705-5.003-5.809-4.405-12.72-5.832-20.544-4.244-15.726 3.195-30.345 17.388-35.273 25.974-.507.884-1.429 1.45-2.446 1.502-1.019.044-1.993-.415-2.589-1.241-6.691-9.279-6.739-20.013-.266-28.44-1.771-4.79-1.763-10.072.056-15.076 1.567-4.312 4.41-8.083 7.703-10.347-.625-4.237.358-9.306 2.762-13.801 2.665-4.984 6.749-8.655 11.628-10.497 1.471-5.477 6.371-10.978 14.027-15.679 16.324-10.025 47.333-17.349 80.998-5.001 88.877 32.599 235.267 157.711 294.08 209.989 98.565 87.612 186.119 177.803 191.191 196.947.584 2.204.32 3.984-.785 5.292l-2.292-1.936 2.292 1.936c-7.225 8.555-13.62 19.421-19.804 29.929-12.185 20.701-23.695 40.256-40.474 40.256zm-455.1-368.734c16.644 0 33.263 3.25 45.867 15.705 29.849 29.494 58.139 69.465 88.091 111.782 77.79 109.909 165.959 234.483 321.065 235.247h.073c13.354 0 24.015-18.118 35.304-37.298 6.216-10.562 12.64-21.478 20.049-30.35-.467-3.916-12.075-21.465-53.353-64.464-35.965-37.465-82.579-82.035-131.255-125.5-59.559-53.184-207.727-180.418-297.017-213.169-29.623-10.865-59.412-5.578-75.792 4.481-6.767 4.155-11.099 9.099-11.587 13.224-.144 1.212-1.007 2.217-2.184 2.54-4.073 1.12-7.529 4.006-9.733 8.128-2.071 3.873-2.789 8.501-1.788 11.518.483 1.455-.208 3.04-1.603 3.675-2.734 1.247-5.375 4.456-6.727 8.177-1.496 4.116-1.325 8.464.482 12.243.521 1.091.337 2.387-.467 3.29-6.182 6.938-4.96 13.905-2.849 18.526 7.123-9.544 21.137-21.582 36.52-24.707 9.588-1.948 18.121-.149 25.365 5.342 4.51 3.42 6.536 6.996 6.02 10.627-1.084 7.645-13.169 12.289-25.963 17.206-8.568 3.292-20.301 7.802-21.362 11.605-.069.246-.251.9.738 2.176 4.297 5.538 17.765 3.982 33.362 2.18 9.034-1.045 18.895-2.184 28.744-2.184z" fill="#232323"/><path d="m201.268 221.347c-1.149 0-2.246-.665-2.743-1.783-.673-1.514.009-3.287 1.523-3.959l.473-.21c8.99-4 22.577-10.043 54.559-12.042 1.647-.106 3.078 1.153 3.181 2.807.103 1.653-1.153 3.078-2.807 3.181-30.904 1.932-43.897 7.711-52.494 11.536l-.474.211c-.397.175-.811.259-1.218.259z" fill="#232323"/><path d="m190.27 244.343c-.876 0-1.744-.381-2.337-1.116-1.039-1.288-.841-3.172.445-4.213.891-.721 22.266-17.665 61.301-17.909h.019c1.648 0 2.989 1.331 3 2.981.01 1.657-1.324 3.008-2.981 3.019-19.227.121-33.848 4.617-42.728 8.368-9.635 4.07-14.789 8.167-14.84 8.208-.554.446-1.219.662-1.879.662z" fill="#232323"/><path d="m184.264 268.346c-.673 0-1.35-.225-1.909-.687-1.277-1.055-1.458-2.946-.402-4.224.812-.983 20.361-24.082 61.301-24.412h.025c1.646 0 2.986 1.327 3 2.976.013 1.657-1.319 3.01-2.976 3.024-38.172.307-56.542 22.014-56.723 22.233-.594.719-1.452 1.09-2.316 1.09z" fill="#232323"/><path d="m852.587 597.668s7.638-36.44-59.27-58.04c-66.471-21.459-104.304-110.419-113.087-139.511 3.448 7.749 7.69 60.403-40.521 94.979-48.156 34.536-90.513 26.83-133.141 76.46 103.428 107.251 204.308 113.151 204.308 113.151-46.8 24.48-132.242 8.376-166.61 22.638-16.6 6.889-17.351 30.68-17 39l12.87.175c-1.62-21.78 8.561-33.373 19.181-21.853 30.96 38.52 15.12 141.12 134.64 231.84 90.38 68.602 179.28 118.44 163.08 163.44 26.152-44.715 82.655-138.92 101.137-328.158 0 0 86.349 39.334 180.077 45.71 4.082-24.404-14.942-58.833-19.92-98.539-11.317-90.264 50.493-130.51 50.493-130.51s-63.387 53.936-136.827 27.656c-35.943-12.862-64.8-6.48-84.664 11.523-.116 15.74 4.348 43.735 4.348 43.735-42.284 2.529-101.676-32.729-99.094-93.696z" fill="#fff"/><path d="m857.035 1122.948c-.427 0-.859-.091-1.269-.283-1.404-.657-2.077-2.275-1.552-3.734 12.195-33.874-41.203-72.314-108.806-120.981-17.288-12.445-35.165-25.314-53.265-39.053-82.434-62.57-101.013-130.378-114.578-179.89-6.221-22.706-11.137-40.651-20.522-52.38-1.964-2.11-4.846-4.336-7.55-3.163-3.882 1.685-7.314 10.069-6.365 22.833.062.839-.23 1.666-.807 2.279-.577.612-1.384.959-2.226.943l-12.87-.175c-1.592-.021-2.889-1.283-2.957-2.873-.332-7.856.048-34.096 18.847-41.897 15.355-6.372 40.398-6.886 66.911-7.43 30.39-.623 64.358-1.321 89.776-10.81-10.979-1.809-29.654-5.932-53.385-15.189-35.086-13.687-88.204-41.713-142.009-97.507-1.074-1.114-1.125-2.863-.116-4.037 25.575-29.777 50.748-39.204 77.398-49.185 18.074-6.769 36.763-13.768 56.27-27.758 44.422-31.859 42.625-78.225 40.115-89.364-.253-.793-.492-1.564-.718-2.311-.458-1.517.342-3.127 1.827-3.679 1.485-.553 3.143.146 3.786 1.593.36.809.702 1.868 1.005 3.148 5.456 16.909 17.135 44.008 33.667 69.036 22.822 34.55 48.593 56.651 76.595 65.691 28.503 9.202 47.491 22.167 56.437 38.537 6.344 11.609 5.197 20.928 4.901 22.688-1.195 29.823 12.902 50.193 24.956 62.039 18.123 17.811 44.338 28.729 67.674 28.454-1.181-7.958-3.968-28.142-3.874-40.882.006-.839.364-1.637.985-2.201 22.192-20.113 53.334-24.419 87.69-12.125 58.975 21.105 111.933-11.211 128.52-23.053 3.294-2.734 5.426-4.14 5.659-4.292 1.326-.863 3.094-.548 4.041.72.947 1.269.745 3.054-.46 4.079-.224.19-2.185 1.844-5.655 4.346-5.629 4.724-14.846 13.549-23.429 26.662-12.45 19.021-26.091 51.263-20.377 96.845 2.144 17.102 7.044 33.591 11.368 48.14 5.874 19.768 10.948 36.84 8.534 51.267-.254 1.522-1.624 2.609-3.162 2.498-82.125-5.587-159.484-36.722-177.296-44.31-18.68 184.429-73.513 278.104-99.965 323.297l-1.16 1.982c-.552.947-1.553 1.485-2.589 1.485zm-305.954-405.815c2.825 0 6.472 1.195 10.442 5.501.046.05.09.101.133.154 10.207 12.699 15.277 31.205 21.697 54.633 13.339 48.683 31.606 115.357 112.419 176.696 18.04 13.693 35.885 26.54 53.143 38.963 60.46 43.524 109.892 79.112 112.913 112.685 28.045-48.679 76.537-142.003 93.361-314.268.094-.964.648-1.823 1.487-2.307s1.861-.534 2.742-.131c.85.387 85.214 38.397 176.223 45.246 1.169-12.6-3.438-28.105-8.717-45.868-4.389-14.771-9.364-31.512-11.57-49.103-5.959-47.535 8.388-81.229 21.473-101.125 2.514-3.823 5.069-7.29 7.573-10.409-4.604 2.408-9.73 4.836-15.318 7.113-23.319 9.503-59.267 17.915-98.096 4.02-32.124-11.495-59.979-8.017-80.653 10.044.129 15.522 4.267 41.647 4.31 41.917.133.836-.093 1.69-.623 2.351-.53.66-1.315 1.066-2.16 1.116-25.748 1.538-55.396-10.254-75.533-30.045-12.948-12.725-28.097-34.639-26.736-66.774.007-.158.026-.316.058-.471.024-.125 1.568-8.556-4.478-19.317-10.343-18.409-34.408-29.341-52.775-35.271-29.332-9.469-56.166-32.379-79.758-68.094-11.827-17.905-21.228-36.875-27.715-52.578-1.724 21.594-11.688 52.934-43.464 75.724-20.154 14.454-39.222 21.595-57.663 28.501-25.276 9.466-49.183 18.419-73.151 45.414 52.392 53.701 103.842 80.8 137.954 94.107 37.276 14.541 62.206 16.142 62.454 16.156 1.346.079 2.474 1.046 2.758 2.365.283 1.318-.347 2.664-1.542 3.289-27.227 14.242-67.014 15.058-102.117 15.778-25.931.532-50.425 1.034-64.734 6.973-6.248 2.593-10.662 8.315-13.12 17.008-1.723 6.094-2.075 12.312-2.086 16.26l6.774.092c-.291-12.818 3.546-22.665 10.118-25.517.986-.429 2.345-.828 3.977-.828z" fill="#232323"/><path clip-path="url(#e)" d="m700.074 688.678c-46.911 0-97.371-10.819-139.189-31.152-1.49-.724-2.111-2.52-1.386-4.01.724-1.489 2.521-2.11 4.01-1.386 62.24 30.262 143.92 39.06 203.25 21.89 1.591-.46 3.255.456 3.716 2.048.46 1.592-.456 3.255-2.048 3.716-20.7 5.99-44.052 8.894-68.353 8.894z" fill="#232323"/><path clip-path="url(#e)" d="m955.27 822.346c-.121 0-.243-.007-.367-.022-1.645-.201-2.815-1.696-2.615-3.341 5.306-43.509 6.359-78.571-3.961-129.036-.332-1.623.715-3.208 2.338-3.54 1.623-.333 3.208.715 3.54 2.338 10.484 51.266 9.42 86.84 4.039 130.964-.185 1.521-1.479 2.637-2.974 2.637z" fill="#232323"/></svg>