<svg xmlns="http://www.w3.org/2000/svg" viewBox="0 0 3000 3000" width="3000" height="3000"><g transform="translate(2305.2 2769.6) rotate(0.0 103.79999999999995 25.200000000000045) scale(0.827813909347199 0.8295340454597839)"><svg width="250.781" height="60.757" viewBox="0 0 250.781 60.757"><ellipse cx="125.39" cy="30.378" fill="#232323" rx="125.39" ry="30.378"/></svg></g><g transform="translate(429.59999999999997 2772.0) rotate(0.0 98.4 24.0) scale(0.7847484458551486 0.7900324242474118)"><svg width="250.781" height="60.757" viewBox="0 0 250.781 60.757"><ellipse cx="125.39" cy="30.378" fill="#232323" rx="125.39" ry="30.378"/></svg></g><g transform="translate(1557.6 447.59999999999997) rotate(0.0 627.0 1180.8) scale(1.2068832768709579 1.2079733607500729)"><svg width="1039.04" height="1955.01" viewBox="0 0 1039.04 1955.01"><path d="M318.11 1167.26a1354.78 1354.78 0 0 0 280 27.29c263.2-2.09 344.85-81 363.62-101.25 30.8-33.19 30.43-55 29.35-59.2-8.86-34.35-78.37-42.38-105.07-46.45-153.65-23.41-460.01 125.01-567.9 179.61z" fill="#232323"/><path d="M858.32 1532.22c23.08 46.6 43.34 101-28.38 130.23C638.67 1608.64 501 1513.12 410 1414.12c-90.31-82.59-116-200-92.79-313.77C341.61 981 401.84 862.48 468.66 786l260.6 54.58c-69.74 107.46-149.93 304.17-175.2 435.81 158.53 64.61 179.08 151.17 304.26 255.83z" fill="#fff"/><path d="M829.94 1665.45a3.16 3.16 0 0 1-.81-.11c-214.34-60.3-347.37-168.72-421.24-249.1-43.86-40.14-74.06-89.44-89.75-146.53-14.48-52.69-15.81-111.46-3.85-170 23.3-114 81.59-235 152.11-315.69a3 3 0 0 1 2.87-1l260.61 54.59a3 3 0 0 1 1.9 4.56c-34 52.32-70.9 126.3-104 208.33s-58 161.47-70.29 224c100.51 41.5 145.44 91.82 197.35 150.02 29.78 33.38 60.57 67.91 105.41 105.4a2.9 2.9 0 0 1 .76 1c6.81 13.76 14.34 30 18.48 46.24 4.54 17.79 4.35 32.79-.61 45.85-6.87 18.13-22.51 32-47.81 42.25a3 3 0 0 1-1.13.19zM469.77 789.33C400.41 869.27 343.15 988.49 320.16 1101c-11.76 57.58-10.46 115.39 3.77 167.17 15.4 56 45 104.4 88.11 143.78l.18.19c73.22 79.68 205.07 187.2 417.53 247.19 23.12-9.59 37.36-22.16 43.52-38.42 9.69-25.57-2.56-56.78-17.36-86.75-44.91-37.61-75.74-72.17-105.55-105.6-51.81-58.08-96.55-108.24-197.43-149.3a3 3 0 0 1-1.82-3.34c12.15-63.28 37.39-144.08 71.09-227.54 32.49-80.47 68.68-153.28 102.18-205.67z" fill="#232323"/><path d="M864.24 1600.27c-.72 1.3-34.13 61.88-34.84 63.15-23.72-7.74-54.45-18.83-80.26-28.55l73.45-137.45a660.563 660.563 0 0 0 38.59 34.34c0 1 .13 3.15.18 4.18z" fill="#d9c6f4"/><path d="m846.15 1519-.44.8-1.06 1.93-25.87 47.12-41.88 76.28-8.55-3.12 23.85-43.47L837 1517l1.86-3.39.39-.71c1.76 1.59 3.54 3.17 5.36 4.77z" fill="#fff"/><path d="M829.94 1665.45a3.1 3.1 0 0 1-.81-.11c-214.34-60.3-347.37-168.72-421.24-249.1-43.86-40.14-74.06-89.44-89.75-146.53-14.48-52.69-15.81-111.46-3.85-170 23.3-114 81.59-235 152.11-315.69a3 3 0 0 1 2.87-1l260.61 54.59a3 3 0 0 1 1.9 4.56c-34 52.32-70.9 126.3-104 208.33s-58 161.47-70.29 224c100.51 41.5 145.44 91.82 197.35 150.02 29.78 33.38 60.57 67.91 105.41 105.4a3 3 0 0 1 .62.71c23.12 37.06 30.53 66.32 22.66 89.46-6.61 19.43-24.29 34.63-52.54 45.17a3 3 0 0 1-1.05.19zM469.77 789.33C400.41 869.27 343.15 988.49 320.16 1101c-11.76 57.58-10.46 115.39 3.77 167.17 15.4 56 45 104.4 88.11 143.78l.18.19c73.22 79.69 205.07 187.21 417.58 247.21 26-9.86 42.12-23.7 48.05-41.14 7.23-21.25.09-48.71-21.82-84-45-37.65-75.83-72.24-105.67-105.7-51.81-58.08-96.55-108.24-197.43-149.3a3 3 0 0 1-1.82-3.34c12.15-63.28 37.39-144.08 71.09-227.54 32.49-80.47 68.68-153.28 102.18-205.67z" fill="#232323"/><path d="M752.15 979.73c-25.78 114.38-87.16 226.15-141.4 323.6a1818.93 1818.93 0 0 1-17.08 28.56c14.59 26.18 36.69 88.35 40 132.77 5 61.43-17.13 276.56-18.61 293.53-3.38 60.51-99.71 93.31-122.85 41.42-63-141.17-95.82-382.54-79-517a1061.07 1061.07 0 0 1 58.1-258q16.31-118 32.58-236l264.13 7c3.37 79.13-6.47 142.02-15.87 184.12z" fill="#fff"/><path d="M535.41 1828.47c-21.34 0-38-9.81-46-27.63-29.89-67-54.63-160-69.64-261.8-14.34-97.27-17.83-190.87-9.57-256.82a1064.61 1064.61 0 0 1 58.16-258.31q16.26-117.82 32.53-235.64a3 3 0 0 1 3.05-2.59l12 .32 252.16 6.72a3 3 0 0 1 2.92 2.87 709.14 709.14 0 0 1-15.92 184.79c-26.45 117.31-90.3 232.05-141.64 324.27l-.1.19c-5.62 9.59-11.06 18.7-16.2 27.13 14.37 26.64 36.18 87.65 39.47 132.47 2.94 36.53-2.94 131.45-17.48 282.1-.58 6-1 10.09-1.13 11.92-.94 16.88-8.82 32.72-22.76 45.71a93.59 93.59 0 0 1-45.61 22.94 78.37 78.37 0 0 1-14.24 1.36zM506.48 791.75Q490.39 908.41 474.27 1025a3.2 3.2 0 0 1-.15.61 1058.23 1058.23 0 0 0-57.94 257.23c-8.21 65.52-4.73 158.53 9.54 255.28 14.93 101.25 39.5 193.67 69.18 260.24 8.44 18.91 28.49 27.45 53.64 22.82 29.36-5.4 61.59-29.38 63.47-63.18.17-1.93.57-6.06 1.15-12.06 14.51-150.31 20.39-244.87 17.47-281.07-3.3-44.88-25.49-106.27-39.58-131.55a3 3 0 0 1 .07-3c5.35-8.76 11.06-18.31 17-28.38v-.08C659.29 1210 723 1095.59 749.22 979.07a702.69 702.69 0 0 0 15.9-180.43L515.76 792z" fill="#232323"/><path d="M621 1707.84c-2 16.78-3.37 34.35-4.06 51.32l-1.52 1.3-2 1.69-48.67 41.56-71.06-.66c-12.22-27.55-22.61-57-31.69-85.11z" fill="#d9c6f4"/><path d="M619.11 1729.35q-.37 4.51-.77 9.06h-.26l-2.67.14c-11.6.64-28.29 1.7-46.79 2.94-32.58 2.18-70.73 4.88-96.43 6.73-1.05-3-2.07-5.92-3.06-8.8 20.64-1.48 50.24-3.59 78.54-5.52 26.24-1.81 51.35-3.46 67.18-4.33l3.94-.22z" fill="#fff"/><path d="M535.41 1828.47c-21.34 0-38-9.81-46-27.63-29.89-67-54.63-160-69.64-261.8-14.34-97.27-17.83-190.87-9.57-256.82a1064.61 1064.61 0 0 1 58.16-258.31q16.26-117.82 32.53-235.64a3 3 0 0 1 3.05-2.59l12 .32 252.16 6.72a3 3 0 0 1 2.92 2.87 709.14 709.14 0 0 1-15.92 184.79c-26.45 117.31-90.3 232.05-141.64 324.27l-.1.19c-5.62 9.59-11.06 18.7-16.2 27.13 14.37 26.64 36.18 87.65 39.47 132.47 2.94 36.53-2.94 131.45-17.48 282.1-.58 6-1 10.09-1.13 11.92-.94 16.88-8.82 32.72-22.76 45.71a93.59 93.59 0 0 1-45.61 22.94 78.37 78.37 0 0 1-14.24 1.36zM506.48 791.75Q490.39 908.41 474.27 1025a3.2 3.2 0 0 1-.15.61 1058.23 1058.23 0 0 0-57.94 257.23c-8.21 65.52-4.73 158.53 9.54 255.28 14.93 101.25 39.5 193.67 69.18 260.24 8.44 18.91 28.49 27.45 53.64 22.82 29.36-5.4 61.59-29.38 63.47-63.18.17-1.93.57-6.06 1.15-12.06 14.51-150.31 20.39-244.87 17.47-281.07-3.3-44.88-25.49-106.27-39.58-131.55a3 3 0 0 1 .07-3c5.35-8.76 11.06-18.31 17-28.38v-.08C659.29 1210 723 1095.59 749.22 979.07a702.69 702.69 0 0 0 15.9-180.43L515.76 792z" fill="#232323"/><path d="M289.76 1919.5c9.9-21.64 27.1-40.92 45.24-56.39 45.61-37.52 91.37-51.43 159.77-63.41 28.84-3.29 43.5-2.34 62.56-9 20.86-7.55 32.07-30.56 57.68-32.46 4.49 34.13 22.59 169.64 26.7 193 0 0-214.82 3.25-286.06-3-38.67-3.42-57.13-18-65.94-28.52a.22.22 0 0 0 .05-.22z" fill="#fff"/><path d="M522.83 1955c-62.16 0-132.42-.78-167.45-3.88-21.27-1.87-50.33-8.53-68-29.57a3 3 0 0 1-.4-3.23v-.06c8.91-19.5 24.82-39.35 46-57.42 46.55-38.29 92.56-52.06 161.2-64.08h.18c8.61-1 16-1.59 22.52-2.13 15.3-1.27 26.35-2.18 39.38-6.76 8.15-2.95 14.78-8.44 21.8-14.26 10.19-8.44 20.73-17.18 36.66-18.36a3 3 0 0 1 3.19 2.6c4.29 32.57 22.52 169.25 26.69 192.84a3 3 0 0 1-2.91 3.52c-1.02-.03-55.77.79-118.86.79zm-229.58-35.87c9.42 10.48 27.77 22.94 62.66 26 65.31 5.77 254.17 3.46 282.26 3.08-4.92-30.38-21.06-151.19-25.75-186.72-12.49 1.8-21.24 9-30.47 16.69-7.1 5.89-14.45 12-23.6 15.29-13.79 4.85-25.16 5.79-40.9 7.09-6.46.53-13.77 1.14-22.25 2.11-67.58 11.84-112.83 25.35-158.3 62.75-19.9 16.97-34.96 35.51-43.65 53.7z" fill="#232323"/><path d="M628.61 1852.25a3.23 3.23 0 0 0-3.46-2.85c-.68 0-16.82 1-36.69-13.14-4.56-3.24-8.24-6.1-11.48-8.63-12.75-9.91-19.78-15.37-45.42-18.78a3.2 3.2 0 0 0-3 5.08 3.25 3.25 0 0 0 2.17 1.26c23.93 3.18 30.08 8 42.38 17.53 3.31 2.57 7 5.48 11.66 8.75 18.26 13 33.39 14.38 39 14.38a19.47 19.47 0 0 0 2-.08 3.19 3.19 0 0 0 2.84-3.52zm5.26 42.39c-1.07-.79-26.41-19.38-52-15.45-15 2.29-22.81 8.09-30.4 13.71-5.86 4.34-11.4 8.44-20.23 11-9.26 2.7-16.73 1.64-24.65.52-10.71-1.52-22.86-3.25-41 4.28-26 10.8-50.94 17.1-74 18.72-35.13 2.46-66.24-5.76-92.46-24.45a2.75 2.75 0 0 0-3.07 4.57c24.08 17.12 52.17 25.8 83.5 25.8 4.06 0 8.24-.15 12.41-.44 23.68-1.66 49.17-8.1 75.76-19.13 16.74-6.94 27.61-5.4 38.13-3.91 8.14 1.15 16.56 2.35 26.95-.68 9.79-2.86 16-7.44 22-11.87 7.37-5.46 14.33-10.61 28-12.7 23.26-3.54 47.64 14.25 47.88 14.43a2.75 2.75 0 1 0 3.29-4.41z" fill="#232323"/><path d="M608.23 1906.39c-5.65-3.35-13.14-5.21-21.06-5.26h-.26c-7.83 0-15.22 1.79-20.84 5a21.6 21.6 0 0 0-7 6.14 12.92 12.92 0 0 0-2.45 7.43c0 5.24 3.28 10.09 9.3 13.65 5.66 3.35 13.13 5.21 21.06 5.26h.26c7.84 0 15.22-1.79 20.85-5.05 6.06-3.51 9.42-8.33 9.45-13.56s-3.29-10-9.31-13.61zm-123.18-44.56c-.14-.34-14.52-33.22-51.91-46.36h-.09a6.75 6.75 0 0 1 4.57-12.71c43.22 15.19 59.22 52.28 59.88 53.86a6.58 6.58 0 0 1 .52 2.59 6.75 6.75 0 0 1-13 2.65zM453 1872.21c-.14-.33-15.3-33.49-53.51-44.67h-.19a6.75 6.75 0 0 1 4-12.91c44.44 13 61.39 50.6 62.09 52.19a7 7 0 0 1 .57 2.7 6.76 6.76 0 0 1-12.94 2.74zm-36.65 7.79c-.14-.29-13.85-28.44-48.24-38a6.75 6.75 0 0 1 3.64-13c40.56 11.34 56.19 43.94 56.83 45.32a6.6 6.6 0 0 1 .63 2.83 6.76 6.76 0 0 1-12.86 2.9z" fill="#00676c"/><path d="M821.92 1893.2c0-.06-.1-.13-.16-.24-12.92-19.85-20.11-44.53-23.52-68-7.47-58 4.29-100.76 30.9-164 50.4-95.06 11-74.18 29.19-128.71 31.32 14.35 90 41.84 129.26 59.89l-.33.11c12.54 5.33 26.83 11.15 48.79 20.08 0 0-111.54 183.47-154.79 240.4-23.46 30.9-45.64 38.76-59.24 40.62z" fill="#fff"/><path d="M822 1896.32a3 3 0 0 1-2.42-1.24l-.16-.21-.09-.13-.11-.15c-14.81-22.76-21.21-50.21-24-69.23-7.65-59.33 4.47-102.31 31.11-165.59a2.56 2.56 0 0 1 .11-.24c30.2-57 27.75-71 25.16-86-1.73-10-3.52-20.25 3.84-42.3a3 3 0 0 1 1.65-1.8 3 3 0 0 1 2.44 0c15.73 7.21 38.17 17.64 61.93 28.69 23.49 10.92 47.78 22.22 67.34 31.21a2.87 2.87 0 0 1 .88.62c12 5.08 25.37 10.53 47.45 19.51a3 3 0 0 1 1.43 4.34c-1.11 1.83-112.12 184.26-155 240.66-23.39 30.8-46.2 39.71-61.22 41.77a2.83 2.83 0 0 1-.34.09zm9.83-234.13c-26.17 62.22-38.1 104.44-30.63 162.33 3.73 25.73 11.41 48.36 22.24 65.51 13.89-2.38 34.22-11.27 55.41-39.17 39.63-52.17 138.11-213.09 152.78-237.14-21-8.52-33.8-13.77-45.56-18.77a2.88 2.88 0 0 1-1-.73c-19.34-8.9-43.09-19.94-66.07-30.63-22.25-10.34-43.34-20.15-58.83-27.27-5.68 18.4-4.18 27.06-2.59 36.19 2.62 15.28 5.36 31.04-25.74 89.71z" fill="#232323"/><path d="M859.23 1635h.06a3.18 3.18 0 0 0 2.46-1.16c15.43-18.54 22.75-21.2 37.34-26.5 3.71-1.35 8.32-3 13.68-5.23 25.4-10.48 33.61-26.42 33.94-27.1a3.18 3.18 0 0 0-1.43-4.29 3.2 3.2 0 0 0-4.29 1.42c-.08.15-7.68 14.57-30.66 24-5.07 2.09-9.43 3.68-13.29 5.08h-.13c-15.19 5.51-23.55 8.55-40.09 28.43a3.19 3.19 0 0 0-.72 2.34 3.11 3.11 0 0 0 1.14 2.16 3.16 3.16 0 0 0 1.99.85zm128.65-44.22a2.75 2.75 0 0 0-3.54-1.61c-1.26.46-30.83 11.69-41.14 35.46-6 13.88-5.28 23.61-4.56 33 .56 7.27 1.09 14.13-1.43 23-2.64 9.27-7.52 15-12.68 21.13-7 8.26-14.92 17.63-18.19 37-4.7 27.77-12.62 52.2-23.53 72.59-16.6 31-40.12 53-69.89 65.22a2.75 2.75 0 0 0 1 5.29 2.72 2.72 0 0 0 1.18-.26c30.93-12.75 55.33-35.51 72.52-67.66 11.19-20.9 19.3-45.89 24.1-74.27 3-17.86 10.12-26.23 17-34.33 5.31-6.28 10.8-12.77 13.76-23.18 2.79-9.78 2.2-17.47 1.63-24.9-.7-9.14-1.36-17.77 4.12-30.4 9.4-21.68 37.72-32.39 38-32.5a2.76 2.76 0 0 0 1.65-3.58z" fill="#232323"/><path d="M996.8 1616.2c-4.42-2.81-10.3-2.59-16.53.61-5.84 3-11.4 8.33-15.65 15s-6.72 14-7 20.54c-.25 7 2 12.39 6.47 15.21a13 13 0 0 0 7 2c8.24 0 18.14-6.61 25.13-17.6 4.25-6.68 6.72-14 7-20.54.3-7-2-12.42-6.42-15.22zM801.4 1724a6.76 6.76 0 0 1-4.48-11.82c34.36-30.28 74.57-26.14 76.26-26a6.75 6.75 0 1 1-1.5 13.41c-.35 0-36.09-3.54-65.82 22.67a6.73 6.73 0 0 1-4.46 1.69zm-6.13 35.47a6.75 6.75 0 0 1-4.73-11.57c33-32.41 74.15-28.86 75.88-28.69a6.75 6.75 0 1 1-1.3 13.44c-.36 0-36.52-3.17-65.12 24.88a6.75 6.75 0 0 1-4.73 1.94zm-2.82 34.46a6.75 6.75 0 0 1-4.79-11.51c29.7-29.84 65.8-27.57 67.32-27.46a6.75 6.75 0 0 1-1 13.47c-.32 0-31.6-1.8-56.78 23.51a6.76 6.76 0 0 1-4.79 2z" fill="#00676c"/><path d="M182.79 570.18c86.4 8.94 243.72 118.21 221.78 176.21-6.18 16.35-34.17 16.89-62.85-1.66-86.58-56.02-158.93-174.55-158.93-174.55z" fill="#232323"/><path d="M171.8 575.41c19.24-22.06 46.86-95 72.35-112C277.34 441.33 393 522.68 373.62 607c-16.89 73.66-90.39 191.61-164.84 207.66-83.89 14.15-104.68-159.25-36.98-239.25z" fill="#fff"/><path d="M199.45 818.45c-21 0-39.3-12-52.11-34.44-14.9-26.16-21.49-64-18.07-103.94 3.64-42.37 17.92-80.23 40.24-106.6 7.53-8.64 16.64-25.8 26.29-44 15.15-28.53 30.81-58 46.66-68.57 13.81-9.19 40.76-2.66 68.68 16.63C332.55 492.31 351 512 363 533c14.32 25 19 50.79 13.54 74.63-8.81 38.39-32.31 86.87-61.34 126.54-34 46.38-71.53 76-105.79 83.38h-.14a58.21 58.21 0 0 1-9.82.9zm-25.37-241.09c-21.52 25.43-35.3 62.09-38.83 103.22-3.27 38.15 3.2 75.7 17.31 100.46 9.49 16.66 26.85 35.48 55.66 30.66 32.81-7.1 69.08-35.88 102.14-81.05 28.59-39 51.7-86.69 60.34-124.33 11-47.91-23.7-96.72-62.94-123.84-25.48-17.61-50.38-24.28-61.95-16.58-14.58 9.7-30.57 39.82-44.68 66.39-9.81 18.47-19.07 35.91-27.05 45.07z" fill="#232323"/><path d="M404.57 746.39c4.74-46-182.63-204.32-231-181.46C203.11 509.47 241.37 444.31 278 403c45.13-50.88 89-87.68 128.21-71.05 13.6 10.58 36.16 31 40.55 41.55 37.97 108.36 3.24 244.21-42.19 372.89z" fill="#d9c6f4"/><path d="M427.15 690.37a3 3 0 0 1-2.63-1.55c-35-63.43-50.6-128.63-46.25-193.79 3.73-55.95 20.75-101 33.18-134a3 3 0 0 1 5.61 2.12c-12.29 32.58-29.13 77.2-32.8 132.26-4.33 64.9 10.56 127.21 45.51 190.49a3 3 0 0 1-1.17 4.1 3 3 0 0 1-1.45.37zm-202.36-53.18c-6.81-24.72-14.93-42.87-24.37-67C170.22 493 160 383.26 158 336.11c-1.27-41.79 28.12-90 23.76-110.81-2.43-11.61-17-4.17-31.85 11.69-1.2-19.5-1.9-38.4-1.42-53.2 2.18-67.7-12.33-39.74-23.75-14.24 5.61-25.85.38-42.47-4.94-43.62-4.35-.65-12 9.2-16.77 21.6 3.94-13.45-.88-27.5-7.68-23.51-9.71 5.71-27.21 56.21-27.6 57.4 5.44-43.48-13.13-26.84-25.94 11.72-14.12 42.52-17.88 67.94-24.27 112.28-24 166.72-48.14 563.93 191.27 509.23" fill="#fff"/><path d="M166.38 822.75c-34.54 0-64.06-11.13-88.12-33.3-44.17-40.7-69.93-117.92-76.58-229.52C-4.39 458 7.14 356.47 14.55 305c6.24-43.33 10-69.48 24.39-112.79 1.44-4.33 14.36-42.19 26.51-39.44 3.3.75 5.27 4 6 9.88 6.18-15.86 15.5-37.15 22.39-41.2a7 7 0 0 1 8.15.44c2.68 2.08 4.45 6.19 5.13 11.12 4-6 8.7-10.69 13.13-10h.2c4.19.91 7.43 6.37 8.89 15a67.88 67.88 0 0 1 .78 13.61c5.69-10.42 9.67-13.87 13.8-12.92 5.38 1.24 8.73 9.41 7.58 45.21-.38 11.7 0 27.22 1 46.23 7.14-6.78 18-15.29 25.79-13.11 2.32.65 5.31 2.51 6.4 7.69 2.18 10.42-3.16 26.3-9.34 44.68-7 21-15 44.73-14.36 66.65.63 14.37 7.13 143.35 42.23 233.07 2 5.15 4 10 5.87 14.76 7.09 17.68 13.2 32.95 18.6 52.54a3 3 0 0 1-5.79 1.6c-5.3-19.27-11.36-34.4-18.38-51.91-1.9-4.74-3.86-9.64-5.89-14.81-35.45-90.61-42-220.52-42.63-235-.71-23 7.46-47.34 14.67-68.78 5.9-17.55 11-32.71 9.14-41.54-.56-2.7-1.71-3-2.14-3.14-3.56-1-12.78 3.66-24.59 16.26a3 3 0 0 1-5.18-1.87c-1.39-22.58-1.85-40.07-1.42-53.48 1-32.33-2-38.09-2.93-39.09-1.62.62-5.63 5.06-15.08 26.17a3 3 0 0 1-5.67-1.86c5.49-25.31 0-39-2.53-40-1.85.17-8.47 6.84-13.45 19.71a3 3 0 0 1-5.68-1.92c2.71-9.26.71-18.08-1.86-20.08-.37-.29-.67-.44-1.42 0-6.84 4-21.56 41.51-26.27 55.75a3 3 0 0 1-5.82-1.31c2.29-18.34-.28-22-.68-22.43-2.42.27-11.16 10.53-19.44 35.47-14.22 42.8-18 68.75-24.15 111.76C13.11 357.1 1.63 458.21 7.67 559.58c6.55 110 31.67 185.84 74.66 225.46 32 29.47 74.3 38.45 125.79 26.68a3 3 0 0 1 1.33 5.85 193.78 193.78 0 0 1-43.07 5.18z" fill="#232323"/><path d="M119.89 288.21a3 3 0 0 1-.84-.12 3 3 0 0 1-2-3.71c7.1-24.47 23.63-42 30.69-49.45a3 3 0 0 1 4.37 4.12c-6.77 7.16-22.6 23.92-29.3 47a3 3 0 0 1-2.92 2.16zm-5.99-50.4h-.28a3 3 0 0 1-2.71-3.26c.08-.95.18-2.34.29-4.09.81-11.85 2.69-39.6 10.7-61.92a3 3 0 0 1 5.65 2c-7.73 21.53-9.57 48.69-10.36 60.29-.12 1.81-.22 3.25-.31 4.23a3 3 0 0 1-2.98 2.75zm-29.03-1.73h-.33a3 3 0 0 1-2.66-3.31l.22-2c2.78-25.54 5.66-51.94 18.11-84.31a3 3 0 0 1 5.6 2.15c-12.17 31.65-15 57.66-17.74 82.81l-.22 2a3 3 0 0 1-2.98 2.66zm-28.49 0h-.33a3 3 0 0 1-2.66-3.31 368.06 368.06 0 0 1 11.46-52.18 3 3 0 0 1 5.76 1.69 366 366 0 0 0-11.25 51.15 3 3 0 0 1-2.98 2.65zm880.24 187.18c24 41.56 39.51 45.16 60.17 76.92 54.44 83.71-14.09 212.48-122.27 247.21-102.65 33-208.36-16.31-237.18-107.4-75.6-134.49-152.66-374.89-172.7-448.48-49-4.68-149.08-72.14-147.08-140.23 20.22-35.64 85.89-70.22 147-39.27 62 31.4 74.63 126.6 141.88 169.88 65.83 42.36 167.24-18.63 249.78 48.81 67.26 55 42.61 127.1 80.36 192.56z" fill="#232323"/><path d="M527.65 355.69c-58.71 36.28-113.13 8.75-113.13 8.75-9.88-61.21-19.62-103.72-53.2-127.31-16.1 2.75-49.37 7.65-59.87.72-25.06-16-17.42-71.51-15.79-89.06-6.38-4-13.79-15.57-5-19.3 4.09-1.83 8.21-4 10.9-7.66 11.56-22.26 14.28-48.52 28.85-69.56 17.24 49.27 70.29 93.63 114 91.4 35.33-23 82.11 11 30.28 47.94 26.2 69.78 63 107.9 96.11 112.36.08 23.35-33.12 51.72-33.12 51.72z" fill="#fff"/><g fill="#232323"><path d="M462.63 377.43a124.66 124.66 0 0 1-13.89-.78c-21.24-2.38-35-9.24-35.57-9.53a3 3 0 0 1-1.61-2.2c-9.38-58.08-18.56-101.12-51-124.63-32.19 5.42-52.64 5.44-60.79.06-24.83-15.9-19.72-66.17-17.54-87.64.08-.88.17-1.7.24-2.48-4.83-3.73-9.29-10.36-8.84-15.89a8.9 8.9 0 0 1 5.83-7.61c3.35-1.5 7.15-3.38 9.52-6.49 4.78-9.26 8.1-19.5 11.31-29.41 4.45-13.71 9-27.88 17.63-40.27a3 3 0 0 1 5.3.72c8.13 23.25 24.94 46.46 46.12 63.68s44.38 26.49 64.07 25.75c20.82-13.12 44.3-7.92 53.36 5.35 4.35 6.39 5.11 14.28 2.12 22.24-3.13 8.31-10.07 16.51-20.64 24.39 24.2 63.3 58.83 103.73 92.89 108.3a3 3 0 0 1 2.6 3c.09 24.45-32.77 52.81-34.17 54a2.51 2.51 0 0 1-.37.27 125.57 125.57 0 0 1-66.57 19.17zm-45.4-15a113.7 113.7 0 0 0 32.42 8.33 119.25 119.25 0 0 0 76.22-17.46c2.41-2.1 29.66-26.36 31.77-46.76-35.76-6.62-71.39-48.86-95.79-113.83a3 3 0 0 1 1.07-3.5c28.72-20.5 21.74-35.59 18.92-39.73-7.4-10.84-28-14.85-45.82-3.25a3.05 3.05 0 0 1-1.49.48c-1.09.05-2.19.08-3.3.08-41.86 0-92-39.62-111.51-87.82-6.15 10.51-10 22.3-13.69 33.75-3.32 10.22-6.74 20.78-11.81 30.54a3 3 0 0 1-.24.38c-3.06 4.2-7.62 6.63-12.09 8.63-1.86.79-2.18 1.76-2.25 2.6-.28 3.54 3.86 9 7.62 11.42a3 3 0 0 1 1.39 2.81c-.12 1.24-.26 2.67-.43 4.25-2.06 20.38-6.9 68.08 14.85 82 3.94 2.6 16.64 5.88 57.74-1.15a3 3 0 0 1 2.23.5c34.84 24.45 44.57 68.35 54.19 127.69z"/><path d="M464.15 188.65c-16.35 8.65-29.31 7.32-29.48 7.3a2.56 2.56 0 1 0-.58 5.09c1.15.1 2.31.15 3.47.15a41.17 41.17 0 0 0 6.18-.46 66.76 66.76 0 0 0 21.67-6.92zM383.89 261c-10.85-16.33-21.29-24.5-24.57-26.56 4.31-1 17-6.16 28.11-11.48 5.52-2.63 14.33-7.85 18.76-4.47 5.65 4.31.23 25.67-19.95 40.81zm-30.47-157.33c10.92 6.55 15 18.21 11.16 23s-15.47 2.9-25-5.55c-9.78-8.69-14.8-18.85-11.15-23 3.79-4.36 14.17-.95 24.99 5.55zm-49.85 81.93a13.42 13.42 0 0 0 7.08.42 15.65 15.65 0 0 0 6.5-2.79 13.54 13.54 0 0 0 2.48-2.48 13.87 13.87 0 0 0 2.95-10.05v-.1a1.86 1.86 0 0 1 3.54-.94 14 14 0 0 1 .36 9.91 16.82 16.82 0 0 1-2.26 4.55 17 17 0 0 1-12.9 7.16 16.41 16.41 0 0 1-5-.36 11.88 11.88 0 0 1-4.63-2.17 1.85 1.85 0 0 1 1.79-3.18zm31.1-49.4c-4.21-3.44-14.49-11.44-22.27-22.25a3.35 3.35 0 0 0-4.69-.77c-3.89 2.84-9.37 8.54-3.12 15.22 7.67 8.22 24.36 13.09 29.76 10.69a1.74 1.74 0 0 0 .83-2.3 1.91 1.91 0 0 0-.51-.59zm131.47 21.99a34.87 34.87 0 0 0-14.17.34c-7.35 1.58-18 6.14-26.89 18.88a2.55 2.55 0 0 0-.44 1.8 2.57 2.57 0 0 0 2.54 2.23h.34a2.51 2.51 0 0 0 1.76-1.07c15.1-21.58 34.89-17.34 35.73-17.15a2.56 2.56 0 1 0 1.13-5zm445.07 276.32c6.67-23.53-4.68-49-37.4-33.33-31.38 15-153.9 202.94-153.9 202.94s169.59-101.49 191.3-169.61z"/></g><path d="M721 606.47a2.06 2.06 0 0 1-.86-3.83c111.08-65.33 179.23-134.32 189.13-168.7 3.82-13.24 1.42-26.2-6-32.26-6.57-5.38-16.42-4.92-28.49 1.34a2.07 2.07 0 0 1-1.9-3.67c17.25-8.93 27.47-5.39 33-.86 8.65 7.09 11.59 21.8 7.33 36.59-5.21 17.92-25.64 44.56-56.14 73.06-35.37 33.05-82 67-134.89 98.05a2 2 0 0 1-1.18.28z" fill="#d9c6f4"/><path d="M738.59 624.29c13.08 12.15 138.1 162.07 160.68 131.81 146.81-196.75-110.83-359.42-233.17-414.16-72.61-32.49-150.5 33.49-104.88 94.9s155.34 166.99 177.37 187.45z" fill="#fff"/><path d="M890.71 763.12c-26.86 0-85.23-60.63-138.92-120.13-7.61-8.43-13.11-14.52-15.24-16.5C712.1 603.78 603.65 499 558.81 438.63c-18.81-25.32-18.92-54.28-.3-77.48 20.73-25.83 64.76-41.66 108.82-21.95 26.23 11.74 94 44.54 157.07 95.49s102.12 104.09 116.11 157.88c14.5 55.74 1.43 111.36-38.84 165.32a12.8 12.8 0 0 1-10.16 5.21zm-150.08-141c2.33 2.16 7.62 8 15.61 16.88 29.47 32.66 107.73 119.43 135 118.14a6.9 6.9 0 0 0 5.63-2.81C936 701.87 948.72 648 934.7 594.08c-13.66-52.52-52-104.57-114.07-154.72-62.48-50.51-129.74-83-155.75-94.68-41.28-18.47-82.41-3.81-101.69 20.23-16.81 20.93-16.64 47.15.44 70.14 44.57 60 152.64 164.41 177 187z" fill="#232323"/><path d="M410.76 360c12.66 5.84 65.91 18.8 116.42-8 0 0-6.88-34.81 14.74-52.68a41 41 0 0 1 7.26-5c35.23-19.12 89.55 0 180.86 48.77C812.16 387 879.85 387.58 899.21 395c-39.76 2.74-62.22 54-91.79 101-23 36.6-48.85 77.29-87.57 110.26-10.85-9-21.18-13.13-31.31-22.07a746.85 746.85 0 0 0 35.68 91c-86.17-7.06-183.06 9.15-271.62 45-85.36-117.9-86.49-235.31-41.84-360.19z" fill="#d9c6f4"/><path d="M527.15 352q-2.25 1.2-4.52 2.29c9.67 30.88 32.36 73.48 62.66 117.57 33.36 48.52 71 91.72 106 121.63a2.08 2.08 0 0 0 .34.24c-1-3.06-2-6.13-3-9.21C616.79 520.6 545.5 411.51 527.15 352zm-110.79 10.13v-.15c-2.27-.71-4.16-1.4-5.63-2-39.31 110-43.07 214.31 14.85 318.22-74.81-142.2-32.27-254.98-9.22-316.07zm34.98 354.96A794 794 0 0 1 419 810.53c-26.05 62.43-43.6 107.19-67.48 171a816 816 0 0 0-34.34 118.86c106.85 49.86 196.15 50.05 241.24 46.66 36.41-2.74 86.47-6.5 143.51-33.46 73-34.5 136.09-96.92 200.74-108.29 10.85-1.91 34.5-5.74 58.1 6.16a80.68 80.68 0 0 1 27.3 22.89l-10.57-22.89a755.52 755.52 0 0 0-45.78-81.88c-27.38-42.23-101.9-120.85-207.91-254.14a513.86 513.86 0 0 0-272.51 41.69z" fill="#fff"/><path d="M525.81 1151.23c-70 0-141.86-16.43-209.85-48.17a3 3 0 0 1-1.67-3.33 823.22 823.22 0 0 1 34.46-119.29c24.86-66.4 42.53-111.17 67.52-171.07a790.76 790.76 0 0 0 32.18-93.08 3 3 0 0 1 1.66-1.94 516.83 516.83 0 0 1 274.09-41.93 3 3 0 0 1 2 1.11c50.72 63.76 94 114.77 128.81 155.75 37.67 44.39 64.9 76.45 79.28 98.63a764 764 0 0 1 46 82.25l10.57 22.9a3 3 0 0 1-5.1 3.09 76.92 76.92 0 0 0-26.27-22.05c-23.19-11.7-46.34-7.62-56.23-5.89-38.32 6.79-76.26 31.79-116.42 58.33-26.71 17.65-54.33 35.89-83.59 49.72-57.54 27.2-107.84 31-144.56 33.74q-16.35 1.23-32.88 1.23zm-205.16-52.6c77.14 35.58 159.24 51.27 237.59 45.39 36.25-2.73 85.91-6.46 142.45-33.18 28.87-13.65 56.31-31.77 82.85-49.3 40.69-26.89 79.13-52.28 118.65-59.23 9.57-1.69 35-6.16 60 6.44a79.28 79.28 0 0 1 15.62 10.38l-3-6.45a758 758 0 0 0-45.58-81.5c-14.17-21.86-41.28-53.8-78.82-98-34.64-40.81-77.71-91.56-128.15-154.94a511 511 0 0 0-268.42 41 795 795 0 0 1-32.05 92.43c-24.95 59.83-42.6 104.54-67.43 170.86a816.25 816.25 0 0 0-33.71 116.1z" fill="#232323"/><path d="M791.24 614.14c-25.65-1.85-42.21 3.6-52.65 10.15-13.18 10.59-239 297.5-240.55 299.25-24.29 14.79-108.26 32.9-29 41.68-55.32 83.17-54.75 149.14 17.89 29.84-8.72 21.56-47.33 153 6.41 78.33-6.37 59.41 36.46-21.76 44.67-38.24-22.17 95.71 19-6.44 93.25-68.12 73-65.75 221.16-149.6 268-210.93" fill="#fff"/><path d="M470.11 1099.12a6.37 6.37 0 0 1-3.11-.8c-4.41-2.43-8.28-10.31 1-49.93 2.49-10.65 5.47-21.52 8.28-30.91-15.89 24.1-33 46-42.78 45.59a6.33 6.33 0 0 1-5.54-3.62c-5.85-11.42 10.14-52 35.89-91.82-26.22-3.33-30.5-7.73-31.06-12-1-7.69 12.33-13.27 36-22.47 10.28-4 20.91-8.14 27.27-11.91 1.33-1.66 7.58-9.56 16.63-21C604 784.65 726.6 630.07 736.71 622l.29-.2c13.79-8.65 32.12-12.22 54.45-10.6a3 3 0 1 1-.43 6c-20.95-1.51-38 1.72-50.68 9.6-7.82 6.64-82.82 99.89-223 277.2-13.83 17.5-16.83 21.28-17.12 21.61a2.77 2.77 0 0 1-.67.56c-6.75 4.11-17.88 8.44-28.65 12.63-8.15 3.17-16.59 6.45-22.82 9.53-9 4.45-9.38 6.52-9.39 6.61.15.36 2.32 4.24 30.61 7.37a3 3 0 0 1 2.17 4.65c-31.68 47.63-41.58 83.26-38.22 89.82.18.35.25.36.41.36 4.34.17 19.87-13 50.63-63.57a3 3 0 0 1 5.35 2.68c-3.21 7.94-10.7 31.59-15.85 53.57-9.32 39.83-4 43.29-3.94 43.32s4.43 1.55 21-21.43a3 3 0 0 1 5.42 2.07c-1.59 14.84.3 17.7.68 18.11.69-.07 5.55-1.42 19.25-23.59 9.67-15.64 18.14-32.54 19.08-34.42a3 3 0 0 1 5.61 2c-5.28 22.77-6.27 31.71-5.92 34.91 3.68-2.69 12-13.52 20-24 17.05-22.23 42.81-55.82 74.23-82 30.6-27.5 74.92-58.64 117.8-88.79 60.38-42.43 122.82-86.31 149.9-121.75a3 3 0 1 1 4.77 3.64c-27.64 36.18-90.46 80.33-151.22 123C707.7 911 663.51 942 633.25 969.26l-.09.08c-30.92 25.7-56.46 59-73.35 81-17.3 22.56-22.51 29-27.64 26.53-3.21-1.51-4.37-5.56-1.53-21.43-2.95 5.29-6.32 11.14-9.84 16.79-15.23 24.47-21.47 26.54-25.54 25.35-3.86-1.13-5.65-5.56-5.59-14.37-8.59 10.88-14.79 15.91-19.56 15.91z" fill="#232323"/><path d="M469 968.22a3 3 0 0 1-1.54-.42 3 3 0 0 1-1-4.11 345.83 345.83 0 0 1 29.26-42.05 3 3 0 0 1 4.65 3.8 337.67 337.67 0 0 0-28.76 41.32 3 3 0 0 1-2.61 1.46zm17.81 30.15a3 3 0 0 1-2.8-4.09c.59-1.5 1.16-3 1.7-4.39 2.23-5.77 4.15-10.75 6.26-15.06a3 3 0 1 1 5.39 2.63c-2 4.09-3.87 8.95-6.05 14.59q-.82 2.15-1.71 4.41a3 3 0 0 1-2.79 1.91zm6.51 78.02a3.15 3.15 0 0 1-.53 0 3 3 0 0 1-2.43-3.48c5.83-32.77 17.37-65.25 25.75-80.39a3 3 0 0 1 5.25 2.9c-8.14 14.71-19.37 46.41-25.09 78.54a3 3 0 0 1-2.95 2.43zm44.6-38.08a3.15 3.15 0 0 1-.61-.06 3 3 0 0 1-2.34-3.54 229.52 229.52 0 0 1 6.1-23.27l.91-3a3 3 0 1 1 5.74 1.73c-.31 1-.61 2-.92 3a222.52 222.52 0 0 0-5.95 22.71 3 3 0 0 1-2.93 2.43z" fill="#232323"/></svg></g><g transform="translate(52.8 272.4) rotate(0.0 796.2 1270.1999999999998) scale(1.2077727045189084 1.2086322720612022)"><svg width="1318.46" height="2101.88" viewBox="0 0 1318.46 2101.88"><path d="M820.06 38.26a41.07 41.07 0 0 0-37.8-3c-9.08-43.54-65-45.22-75.42-13.61-35.61-33-86.63 10.75-74.13 47.66 4.58 13.55 11.21 39.08 3.42 60.7 17.92 10.25 49.07 62.31 49.07 62.31s72.13-84.18 105.62-84.29c52.67-.16 53.26-54.03 29.24-69.77z" fill="#232323"/><path d="M828.77 235.26c.14 11.81-6.83 23.66-19.46 29.82-32.89 16.06-77.8 1.71-77.8 1.71s-10.41 43.36-6.41 73.82c0 0-63.29 28.87-154.81-8.39 0 0 27.85-38.4 63.77-122.86-22.13-4.45-48.66-30.59-41.12-61 4.31-17.33 23.55-28.1 41.17-24.12 18.1 4.08 29.13 20.08 42.13 36.43 14.7 18.5 20.45 4.2 28-13.79 4.87-11.56 10.48-24.65 19.71-31.55 20.85-15.61 66.85-10.86 66.85-10.86s-.19 6.12.11 13.82c.39 10.19 1.65 23.15 5.29 28.43 6.42 9.27 13.44 8.1 13.33 13.95-.09 5-6 10.78-9.29 13.24.22 34.27 28.21 33.78 28.53 61.35z" fill="#fff"/><path d="M663.14 354.25c-24.45 0-56.89-4.15-94-19.25a3 3 0 0 1-1.3-4.54c.28-.38 27.38-38.17 62.06-119-12.75-3.71-25.47-13.46-33.19-25.64-7.59-12-9.91-25.19-6.7-38.13 4.65-18.7 25.13-30.76 44.74-26.33 17.45 3.94 28.52 18 40.24 33 1.18 1.5 2.37 3 3.58 4.54 4.16 5.23 7.65 7.82 10.13 7.47 4.38-.6 8.51-10.43 12.51-19.94l.27-.63c4.74-11.26 10.65-25.28 20.67-32.78 21.55-16.12 67-11.64 69-11.44a3 3 0 0 1 2.69 3.08c0 .06-.18 6.1.11 13.61.51 13.42 2.25 23.2 4.76 26.83a24.14 24.14 0 0 0 8 7.28c2.78 1.75 5.93 3.73 5.85 8.43-.1 5.64-5.4 11.45-9.27 14.63.49 15.89 7.33 23.21 14.56 30.95 6.77 7.24 13.77 14.73 13.93 28.9.16 13.64-7.94 26.11-21.15 32.56-17.62 8.61-38.47 8.64-52.85 7.16a156.14 156.14 0 0 1-24-4.38c-2.23 10.34-8.94 44.71-5.66 69.66a3 3 0 0 1-1.73 3.12c-.67.3-16.6 7.45-44.05 10-5.7.49-12.12.84-19.2.84zm-88.25-23.43c45 17.64 82.68 18.81 106.54 16.61 21.12-1.95 35.39-6.8 40.42-8.74-3.26-30.43 6.32-70.85 6.74-72.6a3 3 0 0 1 3.83-2.16c.44.14 44.17 13.79 75.57-1.54 11.1-5.42 17.92-15.8 17.78-27.1-.14-11.85-5.78-17.88-12.31-24.88-7.54-8.06-16.09-17.21-16.2-36.46a3 3 0 0 1 1.22-2.43c3.31-2.45 8-7.44 8.07-10.89 0-1.11-.2-1.46-3-3.24a30 30 0 0 1-9.75-8.94c-3.28-4.75-5.24-14.85-5.83-30-.18-4.62-.18-8.63-.16-11.17-10.06-.7-45.17-2.1-62 10.5-8.72 6.52-14.28 19.71-18.74 30.3l-.27.63c-5.07 12.07-9.46 22.49-17.22 23.56-4.88.67-9.86-2.41-15.65-9.69l-3.6-4.57c-11.52-14.67-21.47-27.34-36.84-30.81-16.22-3.66-33.79 6.58-37.59 21.92-3.55 14.3 1.27 26.1 5.94 33.48 7.6 12 20.5 21.36 32.86 23.84a3 3 0 0 1 2.06 1.54 3 3 0 0 1 .1 2.58C606.85 281 582.15 320 574.89 330.82z" fill="#232323"/><path d="M664.6 205.78a3 3 0 0 0-3.93-1.61c-7.4 3.11-17.61 4-26 2.26a3 3 0 0 0-1.22 5.87 52.92 52.92 0 0 0 29.55-2.59 3 3 0 0 0 1.6-3.93z" fill="#232323"/><path d="M782.26 35.28a48.65 48.65 0 0 0-1.49-5.5 49.61 49.61 0 0 0-21.93 19.56 3 3 0 0 0 5.14 3.1 44.76 44.76 0 0 1 24.29-19.13 51.82 51.82 0 0 0-6.01 1.97z" fill="#fff"/><g fill="#232323"><path d="M732.56 263.91a71 71 0 0 1-34.92-26.38c-5.74 3-11.93 35.18 17.19 51.69 5.43 3.08 9.49 4.24 12.49 4.09 2.37-14.21 4.19-23 4.19-23s1 .31 2.71.78c-.75-4.09-1.66-7.18-1.66-7.18zm16.75-115.52c5.08-1.74 17.37-5.62 28.34-13a3.26 3.26 0 0 1 4.6 1c2.58 4 5.61 11.29-2.49 15.35-10 5-27 3.68-31.15-.47a1.74 1.74 0 0 1 .7-2.88zm40.47 60.34a14.36 14.36 0 0 1-5.38 3.08 19.33 19.33 0 0 1-6 .93 21.24 21.24 0 0 1-11.68-3.41 21.54 21.54 0 0 1-4.56-4.17 20 20 0 0 1-3.09-5.33 17.32 17.32 0 0 1-.4-12 2.25 2.25 0 0 1 4.36.81v.12a17.36 17.36 0 0 0 1.94 8.46 16.93 16.93 0 0 0 2.45 3.52 16.09 16.09 0 0 0 3.2 2.8 18.38 18.38 0 0 0 8.06 2.8 16 16 0 0 0 8.5-1.21l.12-.05a2.24 2.24 0 0 1 2.49 3.66zm-136.52-22.14a3 3 0 0 1-2.92-2.32c-7-29.79-30.85-29.84-31.83-29.85a3 3 0 0 1-.06-6c1.23 0 29.77.44 37.73 34.49a3 3 0 0 1-2.23 3.6 3.25 3.25 0 0 1-.69.08zM733.17 132c2.38-12.58 13.73-22.56 26.24-24.28 8.2-2.16 29.81 6 20.35 16.29-6.51 3.09-13.39 3.89-19.86 6.52-4.64 1.51-10.54 4.4-15.37 6.31-4.09 2.28-12.65 1.42-11.36-4.84zm-266.68 870.6c-47.74-1.74-82 13.36-85.81 33.14s42 91.39 567.83-62c0 0-370.58 32.91-482.02 28.86zM376.56 573c-48.93-27.68-85.22-29.16-97.64-16-11.15 11.8-16.35 93.38 235 130.78.08.03-36.4-57.65-137.36-114.78z"/></g><path d="M357.86 564.48a353 353 0 0 0-26.37 37.4c-54.74 90.7-41.46 162.64 23.75 181.8 51.28 15.06 99.81-5.11 99.81-5.11S501.4 719 514 687.81c45-86.68 64.32-315.8 33.13-333-32.22-17.71-189.27 209.67-189.27 209.67z" fill="#fff"/><path d="M395.75 792.31a146.33 146.33 0 0 1-41.36-5.75c-26.29-7.73-44.95-24-53.95-47.18-14-36-3.9-85.4 28.48-139a352.27 352.27 0 0 1 26.53-37.64c1.77-2.55 40.54-58.45 82.61-111.55 25.21-31.81 46.67-56.43 63.79-73.18 23-22.46 37.81-30.65 46.68-25.76 18.88 10.4 19.38 80.86 13.55 143.34s-20.82 146.08-45.4 193.52c-12.68 31.21-57.36 88.89-59.26 91.3a3 3 0 0 1-1.22.93c-1.46.6-26.94 10.97-60.45 10.97zm147.09-435.49c-8.61 0-32.9 13.27-100.08 98.05-42.73 53.93-82 110.75-82.43 111.32l-.12.16a346.49 346.49 0 0 0-26.15 37.08c-31.4 52-41.35 99.53-28 133.78 8.3 21.34 25.61 36.41 50.06 43.59 46.35 13.62 90.94-2.36 97.09-4.72 5-6.53 46.43-60.67 58-89.39l.12-.27c24.22-46.65 39-129.48 44.81-191.44 6.89-73.79 2.58-130.34-10.46-137.53a5.83 5.83 0 0 0-2.84-.63z" fill="#232323"/><path d="M301.37 732.94c17.83 56.4 77.91 112.83 135.51 147.43 137.15 82.4 221.51 84.07 255.44 91.3s31.35-6.06 16.29-15.1c-11-6.6-23-12.88-24-13.4.94.48 12.59 6.27 47.25 12.25 54.45 9.39 27.9-15.68 27.9-15.68 54.48 7.53 16.35-18.83 16.35-18.83 29.11 3.79 26.64-6 6.29-21.22s-78.21-47.14-78.21-47.14c35.65-8.82 10-21.16-14.54-28.25s-78.17-27.3-128.37-72.17c-45.62-40.76-39.79-35.77-55.41-47.9" fill="#fff"/><path d="M708.44 976.73a83 83 0 0 1-16.75-2.13c-5.15-1.1-11.63-2.09-19.14-3.23-42.19-6.45-120.71-18.44-237.22-88.43-30.34-18.23-59.92-41.68-83.28-66-26.62-27.74-45.13-56.47-53.54-83.07a3 3 0 0 1 5.72-1.81c8.13 25.73 26.16 53.64 52.14 80.72 23 24 52.16 47.09 82.05 65 115.49 69.38 193.26 81.25 235 87.64 7.6 1.16 14.16 2.16 19.48 3.29 17.52 3.73 22.76 1.29 23.21.14s-1.79-5.35-9.08-9.73c-11.05-6.63-23.2-13-23.85-13.29a3 3 0 0 1 2.82-5.33c.62.32 12 6 46.36 12 26.58 4.59 30.22.25 30.68-.67 1.06-2.12-2.43-7.09-5.36-9.87a3 3 0 0 1 2.48-5.15c24 3.32 25.87-.65 25.88-.69.72-1.84-5-8.13-11.65-12.7a3 3 0 0 1 2.1-5.44c16.62 2.16 18.29-.76 18.31-.79s.7-3.88-14.21-15.06c-20.06-15-77.28-46.59-77.86-46.91a3 3 0 0 1 .73-5.54c15.07-3.73 15.31-7.26 15.31-7.41 0-2.56-7.89-8.68-30-15.05-21.31-6.15-76.6-25.56-129.49-72.82L546 742.45c-28.38-25.37-28.38-25.37-38.55-33.24L504 706.6a3 3 0 1 1 3.68-4.74l3.36 2.6c10.34 8 10.34 8 38.88 33.52l13.33 11.91c52 46.44 106.24 65.49 127.16 71.52 22.9 6.61 34.44 13.65 34.3 20.94-.09 4.53-4.2 8.11-12.84 11.08 15.62 8.72 55.66 31.41 72.26 43.86 13.34 10 18.32 16.82 16.16 22.12-1.54 3.8-6.22 5.52-14.84 5.31 4.15 4 7.83 9.14 6.12 13.53-2 5.09-9.75 6.8-24.9 5.34 2 3.25 3.47 7.3 1.67 10.88-3.23 6.47-15 7.71-37.06 3.9-8.07-1.39-14.92-2.77-20.69-4.09 8.82 5.42 13.07 11.83 11.11 16.79-1.45 3.77-5.91 5.66-13.26 5.66z" fill="#232323"/><path d="M646.88 861.19c-5.8 0-11.6-.19-17.59-.56a3 3 0 1 1 .37-6c23.75 1.47 44.5.05 74-5a3 3 0 1 1 1 5.91c-22.57 3.87-40.13 5.65-57.78 5.65zm-33.38 37.53a122.74 122.74 0 0 1-27.52-2.9 3 3 0 0 1 1.45-5.82c.51.12 51.62 12.35 89.68-17.55a3 3 0 1 1 3.7 4.72c-22.3 17.52-48.2 21.55-67.31 21.55zm162.57 25.19a3.41 3.41 0 0 1-.55 0c-44.77-8.43-77.38-30.3-78.75-31.23a3 3 0 1 1 3.37-5c.33.22 33 22.12 76.49 30.3a3 3 0 0 1-.56 5.95zm-16.35 18.83a3.59 3.59 0 0 1-.47 0c-45.61-7.25-77-26.84-78.28-27.67a3 3 0 0 1 3.2-5.07c.32.2 31.69 19.77 76 26.81a3 3 0 0 1-.47 6zm-75.15 3.43a3.15 3.15 0 0 1-1.16-.23 272.08 272.08 0 0 1-13.94-6.33 3 3 0 0 1 2.66-5.38c.07 0 6.32 3.12 13.6 6.17a3 3 0 0 1-1.16 5.77z" fill="#232323"/><path d="M513.14 688c-19.84-34-181.3-172.76-232.21-129.31 35.39-69.91 220.34-243.28 276.46-208.15C587.06 474.55 577.51 586.7 513.14 688z" fill="#fff"/><path d="M513.14 691h-.06a3 3 0 0 1-2.53-1.49c-9.49-16.27-46.59-50.14-77-73.48-26.25-20.16-76.12-55-115.13-61.61C303 551.79 291 554 282.88 561a3 3 0 0 1-4.63-3.63c14.81-29.25 55.17-76.25 102.83-119.74 53.31-48.63 103.71-82 138.29-91.67 16.68-4.64 30-3.95 39.61 2.07a3 3 0 0 1 1.33 1.84c31.52 131.76 16.92 242.9-44.64 339.77a3 3 0 0 1-2.53 1.36zM306.6 547.34a76.89 76.89 0 0 1 12.84 1.16c66.24 11.25 170.54 101.88 193.64 134 58.36-94.2 72-202.22 41.69-330-8.07-4.5-19.43-4.76-33.79-.76C450.27 371.38 326.72 488.86 289 550.39a47.57 47.57 0 0 1 17.6-3.05zm-53.66 1111.6c-27.34-70.32-75.53-200.22-129.45-150.12-54.09 50.25 80.17 176.9 195.59 256.13 0 .05-52.25-70.28-66.14-106.01z" fill="#232323"/><path d="M324.13 1758.18c-21.58 15.84-96.73 63.92-108 64-2 0-73-31.69-69.92-114 34.74-29.65 79.68-69.37 116.14-106.59z" fill="#fff"/><path d="M268.18 1796.21q-4.24 2.44-8 4.59c-33.6 19-41.3 20.86-42.2 21h-.1s-73.37-32.62-70.21-114.84l.32-.27c1.67-1.41 9.18-7.78 20.1-17.29l5.57-4.87z" fill="#d9c6f4"/><path d="m154 1701.56 89.37 108.49q4.05-2.16 9-4.87L161.59 1695z" fill="#fff"/><path d="M216.16 1825.18c-2.46 0-21.48-8.92-38.91-26.89-16.42-16.93-35.66-46.33-34-90.19a3 3 0 0 1 1.05-2.17c47.4-40.44 86.41-76.24 116-106.4a3 3 0 0 1 4.93 1L327 1757.08a3 3 0 0 1-1 3.52c-17 12.47-96.53 64.5-109.73 64.59zm-66.98-115.54c-1.11 40.19 16.26 67.37 31.11 83.15 16.13 17.13 33.24 25.34 36.16 26.37 3.82-.42 18.34-7.32 48.25-25.63 22.8-14 45-28.69 55.78-36.42L261.27 1607c-29.04 29.39-66.72 63.89-112.09 102.64z" fill="#232323"/><path d="M148.46 1707.93S57.72 1780.61 1.9 1817.85c0 0 142.81 154.32 197.68 202.42 29.78 26.11 53.56 29.43 67.54 28.51a.63.63 0 0 1 .06-.13 1.87 1.87 0 0 0 .12-.27c2.14-5 22.31-55.23-1.51-131.79-3.72-11.94-17.36-48.62-42.54-81.75-17.23-22.67-32-41-45.41-54.64-30.3-30.76-7.62-49.03-29.38-72.27z" fill="#fff"/><path d="M148.55 1706.21c23.39 24.56-.38 43.37 39.14 79.87 12.46 11.51 34.94 39.29 51.41 69.17 26.3 47 42.81 101.1 37.06 155.26a171.17 171.17 0 0 1-3.9 22.37c-75.55-14.41-109.5-83.84-123.7-120.49-12.24-31.61-30.93-26.71-42.72-50.75-9.85-20.08-.55-34.9-17-56.7a58.56 58.56 0 0 0-37.84-22.5s50.13-32.6 97.55-76.23z" fill="#232323"/><path d="M179.47 1809.52a2.93 2.93 0 0 1-1.87-.66c-19.28-15.44-27.17-16.6-42.89-18.93-4.24-.62-9-1.33-14.73-2.43-27.5-5.27-40.93-23.17-41.49-23.93a3 3 0 0 1 4.83-3.56c.16.22 12.74 16.79 37.79 21.6 5.56 1.07 10.3 1.77 14.48 2.39 16.26 2.4 25.22 3.72 45.76 20.18a3 3 0 0 1-1.88 5.34z" fill="#fff"/><path d="M272.25 2035.88a2.84 2.84 0 0 1-.72-.08c-33.57-6.44-62.65-24.24-86.45-52.91-15.48-18.65-28.71-42-39.33-69.42-6.39-16.47-14.32-22.34-22.75-28.47-7-5.15-14.24-10.47-19.9-22-4.43-9-5.19-17-5.93-24.79-1-10.07-1.85-19.59-10.8-31.42a51.05 51.05 0 0 0-36.22-19.87 3 3 0 0 1 .51-6 57 57 0 0 1 40.49 22.22c10 13.2 11 24 12 34.49.71 7.53 1.39 14.64 5.34 22.71 5 10.2 11.35 14.87 18.07 19.81 8.72 6.41 17.74 13 24.76 31.18 10.38 26.8 23.28 49.6 38.35 67.75 22.92 27.61 50.88 44.73 83.11 50.87a3 3 0 0 1 1.74 1 3 3 0 0 1-2.3 4.92z" fill="#232323"/><path d="M68.65 1856.57a25.22 25.22 0 0 1-6.74-1c-6.57-1.84-13.33-6.11-19-12-12.38-12.82-15.8-28.92-7.79-36.66 8-7.73 24-3.75 36.36 9.07s15.8 28.92 7.79 36.65a14.81 14.81 0 0 1-10.62 3.94zm-29.39-45.34c-5.4 5.22-1.77 18.12 7.94 28.17 5 5.15 10.77 8.85 16.33 10.4 5 1.4 9.1.88 11.54-1.48 5.4-5.22 1.77-18.12-7.94-28.17s-22.47-14.14-27.87-8.92z" fill="#232323"/><path d="M263.06 2051.91c-26.26 0-49.91-15.76-65.46-29.38C143.23 1974.87 2.2 1820.42.78 1818.86a3 3 0 0 1-.76-2.37 3 3 0 0 1 1.3-2.13c98.12-66.45 142.41-107.92 142.84-108.33a3 3 0 0 1 4.12 4.37c-.44.41-44.15 41.36-140.73 107 18.68 20.4 143.74 156.57 194 200.64 15.16 13.28 38.33 28.7 63.53 27.86 3.8-9.65 19.91-57.47-2.17-128.41-.22-.7-.45-1.47-.71-2.3-3.89-12.77-13-42.65-42.63-78.46a3 3 0 1 1 4.62-3.82c30.39 36.73 39.75 67.42 43.75 80.53.25.82.48 1.57.7 2.26 23.89 76.77 4 127.69 1.46 133.77v.07c-.07.16-.14.29-.19.4a3.08 3.08 0 0 1-2.58 1.84c-1.44.09-2.86.13-4.27.13z" fill="#232323"/><path d="M249.84 1880a7.4 7.4 0 0 1-3.93-1.12c-32.23-19.9-69.17-9.13-69.54-9a7.5 7.5 0 0 1-4.37-14.35c1.77-.54 43.66-12.94 81.79 10.6a7.51 7.51 0 0 1-3.95 13.89zm13.71 34.16a7.5 7.5 0 0 1-4.07-1.2c-33.86-21.91-69.35-11.61-69.7-11.5a7.5 7.5 0 0 1-4.38-14.35c1.71-.52 42.34-12.56 82.23 13.25a7.5 7.5 0 0 1-4.08 13.8zm9.87 33.9a7.47 7.47 0 0 1-4.14-1.26c-30.1-20-60.76-11.91-61.07-11.82a7.5 7.5 0 0 1-4.05-14.45c1.51-.42 37.4-10.15 73.42 13.78a7.5 7.5 0 0 1-4.16 13.75z" fill="#d9c6f4"/><path d="M705.52 1239.72c16.52-157 4.36-366.94 4.36-366.94s-137-3.58-141.39-23.71L452.08 859.8s-23.62 108.42-5.87 278.28c8.62 82.38 7.15 147.23-9.31 175.06-16.11 27.22-88.3 55.88-137.62 80.1-132.16 71.82-175.79 115.58-175.79 115.58 37.28-25.73 79 15.37 101.45 111.83S319.08 1765 319.08 1765c303.42-169.42 366.16-427.18 386.44-525.28z" fill="#00676c"/><path d="M551.66 1808.75c-51.59-66.94-101.35-202.11-152-138s97.72 192.8 277.64 205c-.3 0-103.19-37.87-125.64-67z" fill="#232323"/><path d="M677.35 1869.8c-11.43 20.32-40.05 71.34-46.56 81.36 0 0-112.88 22.22-133.83-43.35 12-51.5 29.23-125.37 41.27-177z" fill="#fff"/><path d="M660.23 1903.69c-12.54 19.35-26.31 42.69-29.44 47.47 0 0-112.88 22.22-133.83-43.34 0 0 10.45-44.85 10.46-44.85z" fill="#d9c6f4"/><path d="m477.308 1887.279 2.489-9.686 183.102 47.047-2.488 9.685z" fill="#fff"/><path d="M584.67 1958.71c-4.29 0-8.72-.13-13.22-.43-41.74-2.75-68.55-19-77.52-47.13a3 3 0 0 1-.06-1.59c6-25.9 13.56-58.61 20.84-90.24 7.18-31.23 14.61-63.53 20.59-89.21a3 3 0 0 1 5.05-1.44l139.12 139a3 3 0 0 1 .49 3.59l-4.92 8.78c-13.14 23.4-35.14 62.58-41.74 72.75a3 3 0 0 1-1.87 1.29 241.36 241.36 0 0 1-46.76 4.63zm-84.77-48.6c19.38 57.77 117 40.7 129 38.36 7.28-11.53 29-50.25 40.86-71.36l3.82-6.79-133.7-133.59c-5.75 24.74-12.67 54.8-19.37 83.94-7.16 31.33-14.6 63.66-20.61 89.44z" fill="#232323"/><path d="M497 1907.82s-23.12 120.07-35 186.38c0 0 205.4 7.9 278.41 1.66 39.62-3.39 58.57-18.3 67.63-29.05a1.11 1.11 0 0 1 0-.13c0-.07-.06-.17-.11-.28-2.12-5-24.46-54.58-96.46-90.61-11.22-5.62-47.27-21.28-88.78-26.1-28.4-3.31-52.55-2-70.75-8-23.22-7.69-26.41-30.2-54.94-33.87z" fill="#fff"/><path d="M497.71 1906.22c27 4.89 31.46 26 56.15 35 16 5.82 61.45 2.34 94.54 11.21 52.35 13.7 103 39.37 138.17 81.22A173.65 173.65 0 0 1 800 2052c-63 44.65-126.46 21-162.87 5.73-31.41-13.14-40 4.21-65.59-4-21.38-6.84-25.21-24.74-52.46-28-25.47-3-49.67 14.23-49.67 14.23s14.94-80.42 28.3-133.74z" fill="#232323"/><path d="M482.49 2005.54a19.56 19.56 0 0 1-3.16-.21 3 3 0 0 1 1-5.91c.24 0 15.37 2.15 34.58-14.23q2.49-2.13 4.72-4.08c14-12.22 22.53-19.59 50.43-20.6a3 3 0 0 1 3.1 2.88 3 3 0 0 1-2.89 3.11c-25.77.94-32.77 7-46.7 19.13-1.51 1.32-3.09 2.69-4.77 4.12-16.42 14-30.3 15.79-36.31 15.79z" fill="#fff"/><path d="M722.6 2080.3c-34.62 0-64.87-12.65-85-21.09-16.41-6.86-26.15-5.18-36.46-3.39-8.6 1.48-17.49 3-29.77-.91-9.63-3.08-16-8.1-22.06-12.95-8-6.32-15.48-12.29-30.27-14-23.77-2.82-45.32 16.07-45.54 16.26a3 3 0 1 1-4-4.47c.95-.86 23.73-20.89 50.23-17.75 16.49 2 25 8.75 33.3 15.31 6 4.72 11.57 9.19 20.16 11.94 10.88 3.48 18.67 2.13 26.92.7 10.71-1.85 21.78-3.76 39.79 3.78 16.6 6.94 41.68 17.44 69.81 20 32.5 3 61.48-4.89 88.62-24.13a3 3 0 0 1 4.49 3.63 2.93 2.93 0 0 1-1.16 1.36c-27.19 19.21-54.25 25.71-79.06 25.71z" fill="#232323"/><path d="M515.49 2086.22c-8.2 0-15.95-1.88-21.84-5.32-6.42-3.74-10-8.9-10-14.53 0-11.17 14-20 31.85-20h.12c8.2 0 16 1.89 21.84 5.32 6.42 3.75 10 8.91 10 14.54 0 11.17-14 19.95-31.85 20zm.15-33.85h-.11c-14 0-25.88 6.44-25.86 14 0 3.41 2.49 6.73 7 9.36 5 2.91 11.67 4.5 18.82 4.5h.1c14 0 25.89-6.43 25.87-14 0-3.41-2.49-6.74-7-9.36-4.99-2.87-11.67-4.5-18.82-4.5z" fill="#232323"/><path d="M622.44 2101.86c-78.94 0-161.43-2.1-162.73-2.14a3 3 0 0 1-2.25-1.1 3 3 0 0 1-.63-2.42c11.76-65.61 37.15-187.19 37.41-188.41a3 3 0 0 1 5.87 1.23c-.25 1.2-24.77 118.56-36.75 184.79 27.57.67 209.92 4.78 276.74-.94 20.17-1.73 47.49-7.77 64.39-26.6-4.33-9.46-27.7-54.39-94.47-87.81l-2.16-1.09c-12-6.07-39.93-20.26-86.46-23.74a3 3 0 1 1 .45-6c47.72 3.56 76.45 18.14 88.72 24.37l2.13 1.07c71.84 36 95 85.43 97.8 91.93l.08.15c.07.17.12.31.16.42a3 3 0 0 1-.47 3.11c-18.1 21.51-47.88 28.24-69.67 30.11-26.74 2.35-71.84 3.07-118.16 3.07z" fill="#232323"/><path d="M614.66 2016.11a7.5 7.5 0 0 1-6.69-10.86c.82-1.63 20.61-40 67.62-51.12a7.5 7.5 0 1 1 3.44 14.59c-40 9.45-57.49 43-57.67 43.29a7.5 7.5 0 0 1-6.7 4.1zm32.23 12.33a7.51 7.51 0 0 1-6.69-10.89c.81-1.6 20.37-39.38 66.8-50.29a7.5 7.5 0 0 1 3.43 14.61c-39.7 9.33-56.67 42.12-56.84 42.45a7.51 7.51 0 0 1-6.7 4.12zm37.17 9.82a7.51 7.51 0 0 1-6.61-11c.74-1.39 18.67-34.12 61-43.54a7.5 7.5 0 0 1 3.26 14.65c-35.73 7.94-50.92 35.68-51.07 36a7.49 7.49 0 0 1-6.58 3.89z" fill="#d9c6f4"/><path d="M860.21 823.12 508 849.82c-3.85 24.45-3.78 49.31-5.07 74-6.25 120.12 110.44 470.09 29.22 566.58C439 1601 399.4 1670.75 399.4 1670.75c19.58-25 63.62-3.76 106.05 84.11 47 97.38 171.81 120.9 171.81 120.9C963.69 1452.32 860.21 823.12 860.21 823.12z" fill="#00676c"/><path d="M559.94 1237.78q-.41-9.42-.78-18.76c-3.26-81.14-11.17-160.58-13.39-167.74a3 3 0 1 0-5.73 1.77c1.79 5.79 9.78 83 13.13 166.21q.38 9.35.77 18.77c4.13 99.09 8.41 201.55-24.33 250.72-57.68 86.62-102.22 147.64-123 175.48a23.46 23.46 0 0 1 9.8-3.12c22.49-30.36 64.7-88.71 118.19-169 33.82-50.83 29.51-154.28 25.34-254.33zm-91 57.96a3 3 0 0 0-4.15-.89l-27.64 17.82-.25.47c-4.08 6.89-11.76 13.87-21.74 20.85l52.88-34.1a3 3 0 0 0 .9-4.15z" fill="#fff"/><path d="M537.32 1484.54a3 3 0 0 1-2.45-4.72l65.68-93.77a3 3 0 1 1 4.91 3.44l-65.68 93.77a3 3 0 0 1-2.46 1.28z" fill="#fff"/><path d="m881.49 996.63-32.08 6.74S795 910.79 778.22 861.46s63.54 9.2 63.54 9.2z" fill="#232323"/><path d="m559.25 348.13 15.14-22s56 24.67 135.87 10.18c2.59-.47 5.21-1 7.85-1.53 9.44-2 19.21-4.47 29.25-7.59 0 0 127.9 193.62 201.15 646.52 0 0-29 12.53-79 22.33-21.61-35.31-39.45-81.91-63.7-122.04 1.68 56 .84 87 1.85 129.3-47.85-2.57-112-7.9-173.36-7.09-189.79 2.51-245.8 9.19-250.82 41.8 0 0 9.16-158.53 42.68-343.78 42.41-234.32 133.09-346.1 133.09-346.1z" fill="#fff"/><path d="M383.48 1041h-.31a3 3 0 0 1-2.68-3.15c.09-1.59 9.54-160.84 42.72-344.15 22-121.38 57.1-209.31 82.71-261.7 27-55.21 49.41-83.77 50.92-85.66l15.08-21.87a3 3 0 0 1 3.68-1c.55.24 56.13 24.11 134.12 10 2.84-.51 5.38-1 7.77-1.51 9.63-2 19.38-4.53 29-7.51a3 3 0 0 1 3.39 1.21c.32.49 32.62 49.87 73.4 154 37.58 95.95 90.33 259.5 128.21 493.71a3 3 0 0 1-1.77 3.23c-.29.13-29.89 12.77-79.65 22.52a3 3 0 0 1-3.14-1.38c-10.65-17.46-20.24-37.29-30.38-58.29-8.64-17.88-17.53-36.26-27.39-53.7.66 26.16.78 46.6.9 66.45.09 16.95.19 33 .62 51.14a3 3 0 0 1-3.16 3.06c-10.89-.58-22.58-1.31-35-2.07-42.61-2.64-90.93-5.63-138.2-5-87.55 1.15-154.09 3.23-194.27 9.58-35.71 5.64-51.25 14.24-53.62 29.68a3 3 0 0 1-2.95 2.41zm192-711.16-13.77 20-.14.18c-.23.28-22.87 28.49-50.39 84.85-25.4 52-60.25 139.33-82.07 259.9-27.11 149.74-38.34 283.35-41.57 327.8 8.53-9.42 24.9-15.49 51.59-19.71 40.53-6.41 107.32-8.49 195.13-9.65 47.51-.63 95.93 2.37 138.65 5 11.15.69 21.74 1.35 31.68 1.9-.37-16.91-.46-32-.55-48-.14-22.69-.27-46.14-1.22-78a3 3 0 0 1 5.56-1.64c12.43 20.57 23.17 42.79 33.55 64.28 9.73 20.14 19 39.21 29 56 40.35-8.06 66.77-17.9 74.22-20.86-37.73-232.3-90.06-394.55-127.37-489.89-36.15-92.37-65.54-141.36-71.73-151.26-9.07 2.75-18.26 5.1-27.33 7-2.43.52-5 1-7.93 1.55a279.58 279.58 0 0 1-99 .34 202.77 202.77 0 0 1-36.3-9.78z" fill="#232323"/><path d="M642.81 372.42a239.23 239.23 0 0 1-31.15-2c-26.73-3.56-48.35-11.42-55.08-20a3 3 0 1 1 4.73-3.69c4.61 5.91 22.57 14 51.14 17.79 17.68 2.35 52.83 4.67 89.5-6.2a3 3 0 0 1 1.7 5.76 215.83 215.83 0 0 1-60.84 8.34zm128.55 240.82c-33.84 18.51-77.24 50.64-73 67.38 4.25 16.9 88.64 58.4 309.61-138.22-.04 0-58.83-26.4-236.61 70.84z" fill="#232323"/><path d="M1007.93 538.85S839.38 331.12 760.3 334c-79.94 2.87-20.92 223.37 1.76 281.36.4 1 .81 2 1.22 3.07a329.6 329.6 0 0 0 20.54 41.52l.31.54c47 80.38 167.2 182.07 281.15 131.45 124.86-108.32-39.37-231.68-57.35-253.09z" fill="#fff"/><path d="M1001.65 808.46c-40.37 0-76.66-15-103.56-30.58C851.85 751 808.28 707.69 781.54 662l-.31-.54a332 332 0 0 1-20.73-41.96l-.28-.7c-.32-.81-.64-1.61-1-2.41-8.77-22.4-25.35-76.06-35.08-132-14.51-83.39-5-120 5.54-136.07 7.25-11 17.5-16.87 30.46-17.34 33.63-1.22 86 33.2 155.69 102.26 51.18 50.74 93.35 102.49 94.36 103.73 2.11 2.5 6.56 6.7 12.19 12 14.18 13.38 37.9 35.77 57.45 62.74 23.75 32.75 35.47 64.12 34.86 93.25-.69 32.46-16.67 62.48-47.49 89.21a3.68 3.68 0 0 1-.75.48 158.33 158.33 0 0 1-64.8 13.81zM762 336.92h-1.54c-11.07.4-19.46 5.18-25.66 14.63-14.26 21.72-15.87 67.27-4.65 131.75 9.66 55.53 26.08 108.7 34.76 130.88.3.79.62 1.57.93 2.35l.28.7a324.28 324.28 0 0 0 20.34 41.13l.31.53c26.24 44.88 69 87.41 114.38 113.77 39.45 22.92 99.64 44.38 162.55 16.64 29.27-25.5 44.44-53.93 45.09-84.51.59-27.79-10.76-57.93-33.71-89.59-19.23-26.52-42.7-48.67-56.72-61.91-6-5.68-10.36-9.78-12.68-12.54-1.75-2.06-166.36-203.83-243.68-203.83z" fill="#232323"/><path d="M983.06 597.76c2.18-13.11 15-34.49 29.83-50.36 31.92-28.08 76.76-71.69 115-124.76 12.13-16.84 149.69 75.68 140.26 98.85-35.09 86.27-82.63 190.93-155.93 246.27-121.9 84.79-237.87 7.14-300.78-68.51" fill="#fff"/><path d="M1002.18 807.68a191.27 191.27 0 0 1-63.49-11.18c-61.79-21.67-107.71-69-129.58-95.33a3 3 0 1 1 4.61-3.83c21.48 25.82 66.53 72.31 126.95 93.5 58.69 20.58 115.81 12 169.76-25.5 32.71-24.72 62.63-60.91 91.46-110.62 26-44.83 46.66-93.07 63.45-134.36 1.66-4.08-4.84-16-28.64-36.25a437.6 437.6 0 0 0-66.44-45.85c-29.3-16.2-38.79-15.5-40-13.86-38.45 53.39-83.91 97.51-115.32 125.16-14.48 15.52-26.92 36.43-29 48.69a3 3 0 0 1-5.91-1c2.24-13.52 15.11-35.35 30.59-51.91a1.34 1.34 0 0 1 .21-.2c31.18-27.43 76.36-71.26 114.52-124.26 5-6.87 20.56-2.91 47.74 12.12a444 444 0 0 1 67.42 46.53c23.58 20 33.78 34.54 30.31 43.09-16.87 41.47-37.65 90-63.82 135.1-29.25 50.44-59.7 87.22-93.08 112.43l-.1.07c-29.21 20.31-59.8 32.5-90.93 36.22a175.89 175.89 0 0 1-20.71 1.24z" fill="#232323"/><path d="M1268.12 521.49c47.53-116.67 42.13-182.16 46.41-216.58s-6.94-30.76-16.44-14.94c-3 4.93-7.77 12.85-8.2 13.89.4-1 2.08-1.87 5-36.91 4.67-55.06-14.37-24.74-14.37-24.74 2.81-54.93-20.17-14.67-20.17-14.67 1.27-29.33-8.24-26-21.69-4.44s-40.22 82-40.22 82c-11.87-34.76-22-8.18-26.9 16.92s-11 53-43.73 100.64" fill="#fff"/><path d="M1268.12 524.5a3 3 0 0 1-2.78-4.14c38.38-94.22 42.14-155.88 44.38-192.72.54-8.86 1-16.52 1.83-23.1 2.59-20.87-1.18-23.15-1.22-23.17-.78-.27-4.55 1.62-9.67 10.14l-1.34 2.23c-2.15 3.57-5.63 9.35-6.51 11l-.14.28a3 3 0 0 1-5.55-2.28c.06-.15.13-.29.21-.46.72-1.39 2.27-7.86 4.62-35.56 2.36-27.85-1.78-29.8-1.82-29.82-1.06-.21-4.56 3-7 6.93a3 3 0 0 1-5.54-1.75c1.24-24.23-2.87-25.72-2.91-25.73-1.91-.55-7.67 5.73-11.66 12.7a3 3 0 0 1-5.6-1.62c.73-16.75-2.32-18.17-2.35-18.18s-3.94-.35-13.79 15.45c-13.26 21.29-39.77 81-40 81.61a3 3 0 0 1-2.88 1.78 3 3 0 0 1-2.7-2c-5-14.7-8.57-14.63-8.7-14.61-2.56.17-8 8.61-12.42 31.15-4.6 23.33-10.33 52.37-44.19 101.76a3 3 0 1 1-4.95-3.39c33.16-48.37 38.76-76.74 43.25-99.53 4.61-23.39 10.64-35.49 17.91-36 4.53-.3 8.44 3.49 12.14 11.84 7.34-16.31 26.51-58.16 37.48-75.77 8.69-14 15.27-19.68 20.65-18 3.91 1.22 6 5.73 6.56 14.33 3.66-4.47 8.44-8.58 13-7.26 5.1 1.49 7.48 8.72 7.47 23.13 2.42-2.06 5.31-3.48 8.22-2.51 7.67 2.57 7.28 19.65 5.9 36-.75 8.77-1.41 15.44-2 20.53 3.55-5.75 10-14.22 16.36-12 5.82 2 7.47 11.41 5.21 29.58-.79 6.39-1.25 14-1.79 22.73-2.26 37.21-6.06 99.48-44.81 194.62a3 3 0 0 1-2.87 1.81z" fill="#232323"/><path d="M1289.89 303.86c-7.25 13.23-9.74 18.29-13.07 26.21" fill="#fff"/><path d="M1276.82 333.07a3 3 0 0 1-2.76-4.17c3.5-8.32 6.09-13.52 13.2-26.48a3 3 0 1 1 5.26 2.88c-7.44 13.57-9.75 18.38-12.93 25.93a3 3 0 0 1-2.77 1.84z" fill="#232323"/><path d="M1280.57 242.21c-9.43 16.6-22.35 55.49-28.71 76.19" fill="#fff"/><path d="M1251.86 321.4a3 3 0 0 1-.89-.13 3 3 0 0 1-2-3.75c2.88-9.38 17.82-57.15 29-76.79a3 3 0 1 1 5.22 3c-8.41 14.81-20.58 50-28.46 75.59a3 3 0 0 1-2.87 2.08z" fill="#232323"/><path d="M1260.4 227.54c-11.77 24.3-28.2 65.55-34 82" fill="#fff"/><path d="M1226.44 312.51a3.18 3.18 0 0 1-1-.17 3 3 0 0 1-1.83-3.83c6.16-17.56 22.5-58.35 34.09-82.28a3 3 0 1 1 5.4 2.62c-11.32 23.38-27.86 64.63-33.83 81.65a3 3 0 0 1-2.83 2.01z" fill="#232323"/><path d="M1198.49 305.08c-4.12 9.76-12.93 26.25-20 39.83" fill="#fff"/><path d="M1178.47 347.91a3 3 0 0 1-2.65-4.39c1-2 2.1-4 3.19-6.1 6.21-11.85 13.25-25.29 16.71-33.51a3 3 0 0 1 5.53 2.33c-3.56 8.46-10.66 22-16.92 34-1.09 2.07-2.16 4.12-3.19 6.1a3 3 0 0 1-2.67 1.57z" fill="#232323"/><path d="M1007.93 538.85c-46.88-10.47-163.79 32.22-239.11 76-31.14 18.1-59.35 39.42-66.54 54.86-1.65 3.54-2.19 6.79-1.41 9.6 0-.09-.26-.68-.62-1.72-2.54-7.2-12.16-36.05-19.24-77.91-9.23-54.44-14.17-130.87 6.34-210.22C692.79 368.4 702.9 348 719 336c40-28.61 146.65-8.55 288.93 202.85z" fill="#fff"/><path d="M700.87 682.31a3 3 0 0 1-2.85-2v-.1c-.1-.26-.28-.77-.54-1.52v-.08c-2.76-7.83-12.29-36.61-19.37-78.41-8.72-51.45-14.69-129.9 6.39-211.47 4.5-17.37 13.84-41 32.8-55.06 13.92-10 33.87-13.22 56.21-9.19 30.56 5.51 65.83 24.46 102 54.79 43.73 36.69 89.14 89.83 135 157.94a3 3 0 0 1-3.15 4.6C961.9 531.67 846 573.55 770.42 617.49c-34.78 20.12-59.2 40.13-65.42 53.51-1.39 3-1.8 5.5-1.24 7.53a3 3 0 0 1-2.89 3.8zm54.44-353.56c-13.64 0-25.56 3.31-34.54 9.73-17.51 13-26.27 35.28-30.52 51.71-20.81 80.55-14.91 158.1-6.29 209a526.46 526.46 0 0 0 16.09 68.28c4-7.68 18.11-26.61 67.26-55.18 37.88-22 86.77-43.93 130.78-58.6 44.29-14.77 80.55-21.34 103.46-18.87-110.08-161.65-190.69-197.54-229.17-204.48a96 96 0 0 0-17.07-1.59z" fill="#232323"/></svg></g><g transform="translate(1590.0 282.0) rotate(79.22812271616667 79.19999999999993 135.0) scale(1.3606377130291358 1.3560615953311301)"><svg width="116.416" height="199.106" viewBox="0 0 116.416 199.106"><g fill="#232323"><path d="M113.415 68.743a3.001 3.001 0 0 1-2.869-2.126L91.434 3.874a3 3 0 1 1 5.74-1.748l19.112 62.743a3 3 0 0 1-2.871 3.874zM3.001 199.106a3 3 0 0 1-1.146-5.773l60.619-25.044a3 3 0 1 1 2.291 5.545L4.146 198.878a2.99 2.99 0 0 1-1.145.228zm70.248-84.922a2.99 2.99 0 0 1-1.253-.276L12.424 86.466a3 3 0 0 1 2.511-5.45l59.572 27.442a3 3 0 0 1-1.258 5.726z"/></g></svg></g></svg>