<svg xmlns="http://www.w3.org/2000/svg" viewBox="0 0 3000 3000" width="3000" height="3000"><g transform="translate(531.6 2066.4) rotate(0.0 344.3999999999999 210.0) scale(1.2651973380894561 1.264123571088892)"><svg width="544.421" height="332.246" viewBox="0 0 544.421 332.246"><clipPath id="a"><path d="M331.915 224.413c-43.082-38.242-71.937-101.103-56.526-170.751 5.702-25.771 30.24-49.32 44.803 12.45 12.032 51.037 8.117 54.15 84.437 88.35 57.444 25.741-15.844 120.431-72.714 69.951z"/></clipPath><clipPath id="b"><path d="M428.042 165.342c-24.983-8.251-45.516-31.748-51.796-43.419-13.266-24.653-2.967-46.855 21.504-30.522 25.812 17.228 42.362 20.39 54.372 22.203l-24.079 51.738z"/></clipPath><circle cx="472.342" cy="90.521" fill="#232323" r="21.545"/><path d="M191.061 130.519c-22.074-18.364-40.501-39.77-46.692-62.909-1.675-6.262-2.684-12.181-4.099-17.562-4.921-18.706-7.341-43.747 3.994-46.598 10.286-2.587 11.175 7.515 17.486 4.853 15.36-6.48 14.249 10.812 21.588 8.386 6.492-2.146 18.732 0 12.676 16.45-23.665 64.286 10.519 94.122 28.758 120.351 9.596 13.799 12.265 15.278-33.711-22.971z" fill="#fff"/><path d="M230.479 165.472c-1.822 0-4.086-1.815-7.983-4.941-4.031-3.232-10.167-8.351-19.456-16.098-4.044-3.373-8.66-7.223-13.911-11.591-25.976-21.61-42.018-43.295-47.678-64.451-.907-3.392-1.614-6.643-2.298-9.787-.595-2.738-1.157-5.324-1.805-7.787-1.978-7.52-7.891-32.967-.939-44.736 1.736-2.939 4.131-4.81 7.118-5.562 7.068-1.778 10.925 1.419 13.477 3.535 2.199 1.823 2.555 1.892 3.571 1.464 11.404-4.811 16.06 1.704 18.841 5.595 2.05 2.869 2.375 2.904 2.973 2.706 4.509-1.49 11.159-1.234 15.108 2.85 2.577 2.665 4.904 7.867 1.353 17.515-19.885 54.017 2.349 83.137 20.215 106.536 2.92 3.824 5.678 7.437 8.188 11.045.752 1.083 1.462 2.088 2.109 3.005 1.233 1.748 2.207 3.128 2.884 4.188.766 1.2 2.359 3.696.278 5.616-.661.61-1.318.899-2.045.899zm-37.485-37.276c5.253 4.37 9.871 8.222 13.917 11.596 3.952 3.296 7.468 6.229 10.518 8.76-1.029-1.364-2.087-2.75-3.167-4.165-18.764-24.574-42.116-55.158-21.084-112.292 1.362-3.7 2.464-8.651-.025-11.225-2.02-2.088-6.075-2.235-8.866-1.312-5.069 1.672-7.908-2.3-9.788-4.931-2.685-3.757-4.625-6.473-11.574-3.54-4.577 1.929-7.583-.561-9.777-2.38-2.263-1.875-4.051-3.356-8.146-2.327-1.383.348-2.492 1.255-3.389 2.774-3.772 6.386-3.152 22.136 1.58 40.125.681 2.589 1.257 5.237 1.866 8.041.668 3.075 1.36 6.255 2.23 9.508 5.332 19.925 20.709 40.571 45.705 61.367z" fill="#232323"/><path d="M221.888 160.413c-48.661 14.067-116.299 5.66-166.833-16.03C43.65 139.487.949 119.049 3.101 98.868c1.137-10.667 10.845-7.855 9.451-16.68-3.047-19.3 15.703-12.706 14.668-22.803-.863-8.413 11.027-22.823 26.904-6.432 47.032 48.552 82.834 73.818 106.214 70.294 14.028-2.115 70.773 34.502 61.551 37.168z" fill="#fff"/><path d="M167.589 170.326c-37.345 0-78.456-8.027-113.726-23.166C44.45 143.119-2.382 121.786.095 98.547c.711-6.674 4.294-9.267 6.91-11.16 2.281-1.651 2.969-2.149 2.562-4.729-2.141-13.563 5.428-16.855 10.438-19.034 3.837-1.669 4.388-2.184 4.209-3.933-.551-5.367 2.861-12.772 9.522-15.875 4.052-1.888 12.372-3.484 22.558 7.031 48.359 49.922 82.239 72.619 103.593 69.408 9.144-1.387 29.22 9.826 37.427 14.707 4.49 2.671 26.969 16.347 28.492 23.306.512 2.338-.725 4.367-3.078 5.047-16.325 4.719-35.197 7.009-55.137 7.009zM39.919 48.499c-1.27 0-2.486.264-3.632.797-3.973 1.851-6.383 6.639-6.061 9.779.657 6.409-4.237 8.538-7.811 10.092-4.632 2.015-8.29 3.606-6.878 12.549.986 6.243-2.467 8.743-4.988 10.567-2.245 1.625-4.018 2.908-4.444 6.905-1.685 15.805 32.062 34.657 50.142 42.417 52.085 22.356 117.072 28.898 162.64 16.51-2.948-3.366-11.82-10.364-25.176-18.26-14.983-8.858-28.214-14.325-32.924-13.622a33.407 33.407 0 0 1-4.997.366c-23.525.001-56.764-22.949-103.837-71.545-4.183-4.318-8.335-6.555-12.033-6.555zM221.048 157.51l.839 2.903zm110.867 66.903c-43.082-38.242-71.937-101.103-56.526-170.751 5.702-25.771 30.24-49.32 44.803 12.45 12.032 51.037 8.117 54.15 84.437 88.35 57.444 25.741-15.844 120.431-72.714 69.951z" fill="#232323"/><path d="M91.193 71.039c-3.985-29.572-3.523-48.294 7.927-52.953 9.887-4.023 22.145.798 38.64 12.447 173.243 25.29 189.11 115.65 250.491 98.497 0 0 72.559-50.024 124.467 11.782 33.245 39.585 6.936 111.614-54.54 154.608-52.454 36.684-140.28 40.307-206.189 22.483C121.53 282.623 78.469 165.342 91.193 71.039z" fill="#232323"/><path d="M230.838 310.146C134.923 271.9 92.413 194.782 92.413 105.232c0 112.606 69.256 168.722 113.209 190.373 70.179 34.57 142.73 9.338 171.648-66.982 40.196-106.087 96.907-118.413 140.017-81.193 27.232 23.512 5.992 87.978-33.076 127.263-63.02 63.37-176.139 66.25-253.372 35.453z" fill="#fff"/><g fill="#232323"><path d="M334.175 332.224c-36.071 0-72.913-6.693-104.456-19.271-90.47-36.075-140.303-109.812-140.328-207.644v-.078a3.022 3.022 0 0 1 6.044 0v.182c.076 119.669 78.007 170.97 111.522 187.479 34.156 16.824 69.777 19.464 100.302 7.433 30.462-12.007 53.694-37.172 67.184-72.775 21.791-57.51 50.324-92.22 82.516-100.378 20.985-5.316 42.528.896 62.302 17.969 8.16 7.045 12.745 17.945 13.261 31.52 1.158 30.475-17.828 71.663-46.17 100.162-29.792 29.958-72.389 48.601-123.185 53.914-9.526.997-19.233 1.487-28.993 1.487zm-90.815-20.686c74.502 25.278 179.581 20.477 238.707-38.977 27.25-27.401 45.514-66.743 44.415-95.67-.457-12.026-4.215-21.169-11.171-27.174-18.216-15.728-37.881-21.497-56.867-16.685-30.195 7.652-57.288 41.077-78.349 96.661-14.11 37.239-38.53 63.608-70.62 76.256-20.504 8.082-43.142 9.901-66.116 5.589z"/><path d="M532.984 255.61s-6.501 11.839-21.172 10.004c-21.714-2.716-31.343-21.424-28.992-25.058s53.136 11.171 50.165 15.054z"/><path d="M544.19 255.107c2.368-6.851-13.994-24.203-27.746-26.248s-33.377 6.065-33.625 11.697c-.387 8.786 57.951 24.447 61.371 14.551z"/><ellipse cx="485.446" cy="210.474" rx="14.662" ry="9.933" transform="matrix(.42407298 -.90562802 .90562802 .42407298 88.969 560.85)"/></g><path d="M428.042 165.342c-24.983-8.251-45.516-31.748-51.796-43.419-13.266-24.653-2.967-46.855 21.504-30.522 25.812 17.228 42.362 20.39 54.372 22.203l-24.079 51.738z" fill="#00676c"/><path d="M212.53 268.808c-.491 0-.99-.121-1.45-.375-28.255-15.636-55.504-44.011-71.114-74.053-21.277-40.949-28.389-97.277-13.589-107.626 3.839-2.686 10.519-3.586 20.544 7.363 3.806 4.158 7.868 9.744 12.571 16.213 13.913 19.136 32.966 45.344 67.077 65.87a3 3 0 0 1-3.093 5.14c-35.154-21.153-54.621-47.93-68.836-67.482-4.596-6.322-8.566-11.782-12.143-15.69-3.203-3.499-9.109-8.996-12.68-6.498-10.058 7.034-6.293 58.049 15.475 99.943 14.866 28.61 41.83 56.703 68.695 71.569a3 3 0 0 1-1.456 5.626z" fill="#fff"/><g clip-path="url(#a)"><path d="M372.755 131.71c-16.708 0-31.076-10.397-50.931-24.765-17.502-12.665-39.283-28.426-71.03-43.366a3 3 0 1 1 2.555-5.429c32.255 15.179 54.288 31.123 71.993 43.934 18.941 13.707 32.65 23.625 47.42 23.625h.187a3 3 0 0 1 .016 6h-.209z" fill="#fff"/></g><path d="M532.472 183.865s-13.502-24.614-53.683-21.067c-32.39 2.859-54.831 22.946-81.719 43.506-30.601 23.399-74.881 22.319-97.561 2.159-16.103-14.314-11.616-36.761 14.107-32.04 23.537 4.32 49.502-3.139 57.893-18.054l10.196-28.079c30.166-20.211 66.365-40.693 111.754-19.384 25.298 11.877 42.944 37.383 39.013 72.959z" fill="#00676c"/><g clip-path="url(#b)"><path d="M368.075 137.865a3 3 0 0 1-1.553-5.569c61.927-37.353 77.031-38.431 78.55-38.431a3 3 0 0 1 .073 5.999c-.76.046-15.583 1.416-75.524 37.57a2.991 2.991 0 0 1-1.547.432z" fill="#fff"/></g></svg></g><g transform="translate(758.4 1417.2) rotate(0.0 1016.3999999999999 533.9999999999999) scale(1.2477289467223176 1.2467896334345083)"><svg width="1629.2" height="856.6" viewBox="0 0 1629.2 856.6"><path d="M1470.3 740.2c18.3-11.7 196.7-158.3 121.4-239.3-120.2-129.2-684.4-379.8-896.8-442.3C568 21.4 456.7-45 168.7 58.1 42 103.6-9.9 116.9 5.7 153.8c109.9 123.6 377.5 290.8 671.9 433.5s582.7 287.1 792.7 152.9z" fill="#fff"/><path d="M1276.6 796.5c-49.5 0-103.4-7.9-163.7-23.9-132.3-35.2-271.6-102.7-419.1-174.2l-17.4-8.4c-148.7-72-288.9-149.5-405.5-224.1-122.2-78-214.6-150.7-267.4-210.1-.2-.2-.4-.5-.5-.8-3.6-8.5-3.9-16.1-.9-23 9.4-21.4 49.1-35.4 128.1-63.4 11.9-4.2 24.2-8.6 37.6-13.4C280.1 15 375.7-2.9 460 .4 534.6 3.3 591.4 22 646.4 40.1c16.1 5.3 32.8 10.8 49.3 15.6C805.3 88 999.5 166.9 1179.2 252c96.9 46 184.5 91.4 253.1 131.4 78.8 45.9 133.2 84.7 161.7 115.4 15.3 16.4 21.5 36.6 18.5 60-5.4 42.3-40.3 87.8-68.7 118.6-31 33.6-63.5 59.9-71.8 65.3-50 31.9-105.2 49.3-168.9 53.1-8.8.5-17.6.7-26.5.7zM8.3 152.2c104 116.7 360.8 282.3 670.6 432.4l17.4 8.4c147.2 71.4 286.3 138.8 418 173.8 59.9 15.9 113.9 23.9 163.2 23.9 73 0 135.5-17.6 191.1-53.1 12.8-8.1 127.9-101.5 137.8-179.6 2.7-21.5-3-40.1-17-55.1-28.1-30.2-82-68.6-160.3-114.2-68.5-39.9-155.9-85.3-252.6-131.2C997.2 172.4 803.3 93.7 694 61.5c-16.6-4.9-33.4-10.4-49.5-15.7C533.7 9.4 419-28.3 169.8 61c-13.4 4.8-25.7 9.1-37.6 13.4-75 26.4-116.2 41-124.6 60-2.3 5.3-2.1 10.9.7 17.8z" fill="#232323"/><path d="M1591.7 501.2c117.7 101.1-61.1 497.5-616 296.2C517.5 631.3 122.4 298.7 21 178c-32.2-38.3-10.8-56.5 9.2-48.1 35.9 15.2 127.6 98.8 206 160.2C398 417 734.5 681.7 1164.9 739.7c383.9 51.8 467.4-187.1 426.8-238.5z" fill="#fff"/><g fill="#232323"><path d="M1261.1 856.6c-17.1 0-34.6-.7-52.4-2.2-72.6-6-151.3-24.2-234-54.2C722.8 708.9 502.9 572 362.8 473.1 196.9 356.1 70.5 241.6 18.7 179.9c-23.5-28-17.4-42.8-13.6-47.8 5.4-7.3 16-9.3 26.3-5 24.3 10.3 73.6 51.3 125.9 94.7 26.8 22.3 54.5 45.3 80.8 65.9l1.5 1.2C401 415.6 737 679 1165.3 736.7c111 15 205.6 6.9 281.1-23.9 74.5-30.4 112.1-75.3 130.5-107.6 25.6-44.9 25.7-85.4 12.5-102.1-1-1.2-.8-3 .3-4.1s2.9-1.1 4.1-.1c22.1 19 34.7 48.8 35.5 84.1.8 35.2-10.3 74.4-31.3 110.4-41.5 71-115.5 123.5-208.4 147.7-39.8 10.3-82.9 15.5-128.5 15.5zM20.6 130.9c-4.5 0-8.3 1.7-10.6 4.8-6 8.1-1 23.2 13.4 40.3 87.9 104.7 477.1 445.8 953.4 618.5 103.2 37.4 198.2 56.2 283.9 56.2 45 0 87.5-5.2 127.3-15.6 91.3-23.8 164-75.3 204.7-144.9 20.4-35 31.3-73 30.5-107.2-.6-26.2-8-49.2-21.1-66.5 2 8.1 2.5 17.5 1.6 27.8-1.9 20.3-9.3 42.4-21.5 63.8-18.9 33.1-57.4 79.1-133.4 110.2-76.5 31.3-172.1 39.4-284.2 24.3-429.9-57.9-766.7-322-928.6-449l-1.5-1.2c-26.4-20.7-54.1-43.7-80.9-66-51.9-43.2-101-83.9-124.4-93.8-3.1-1.1-5.9-1.7-8.6-1.7z"/><ellipse cx="1212.2" cy="594.7" rx="22.9" ry="43.1" transform="matrix(.1992 -.98 .98 .1992 387.9925 1664.1055)"/><path d="M1223.2 621c-5.1 0-10.5-.5-16-1.7-25-5.1-42.3-19.9-39.5-33.7 2.8-13.8 24.6-20.7 49.5-15.6 11.7 2.4 22.1 7 29.6 13.1 7.8 6.4 11.3 13.7 9.9 20.6-2.2 10.8-15.8 17.3-33.5 17.3zm-51-34.5c-2.2 10.9 14.2 23.9 35.9 28.3s41.9-1.1 44.1-12c1-5.1-1.9-10.9-8.4-16.1-6.8-5.6-16.6-9.9-27.6-12.2-21.6-4.4-41.8 1.1-44 12z"/><ellipse cx="987.4" cy="517.4" rx="22.9" ry="43.1" transform="matrix(.4603 -.8878 .8878 .4603 73.5833 1155.7916)"/><path d="M1006.6 548.1c-9.1 0-20-2.8-30.8-8.4-22.6-11.7-35.3-30.7-28.8-43.2 6.5-12.5 29.3-13.2 51.9-1.5s35.2 30.7 28.7 43.3c-3.3 6.5-11.1 9.8-21 9.8zm-55.5-49.5c-5.1 9.9 7.1 26.9 26.8 37.1s40.6 10.4 45.7.5-7.1-26.9-26.8-37.1c-19.6-10.2-40.5-10.4-45.7-.5z"/></g><path d="M1232.5 591.8s50.3-125.7-57.8-171.9c-104.3-44.5-175 46-204.4 80.5 2.9 10.7 24.7 25.6 40 21.8 15.7-25.4 73-105.1 146.9-75 77.1 31.3 33.6 134.6 33.6 134.6 2 5.5 20.8 18.6 41.7 10z" fill="#fff"/><path d="M1118.7 413.9c17.6 0 35.6 3.9 53.6 11.5 23.4 10 40.8 24.7 51.8 43.8 8.8 15.3 13.7 33.6 14.3 54.3.9 30-7.3 56.6-10 64.7-2.8.9-5.7 1.3-8.7 1.3-10.8 0-19.7-5.6-23-8.8 4.9-12.7 20.9-59.9 5.3-98.1-7.7-18.9-22-32.7-42.5-41-11.5-4.7-23.3-7.1-35-7.1-59.3 0-103.5 61-117.7 83.4h-1.2c-10.9 0-25-9.6-29.4-16.5.2-.3.5-.6.7-.8 12.3-14.5 30.9-36.5 55-54.6 28.3-21.2 57.5-32.1 86.8-32.1m0-6c-74.2 0-125.8 64.7-149.6 92.6 2.6 9.6 21.6 23.6 36.5 23.6 1.7 0 3.3-.2 4.8-.6 13.3-21.5 56.2-82.9 114-82.9 10.5 0 21.4 2 32.7 6.6 77.1 31.3 32.7 134.3 32.7 134.3 1.6 4.2 14.4 14.1 29.9 14.1 4.3 0 8.8-.8 13.4-2.6 0 0 49.8-127-58.4-173.1-19.9-8.4-38.6-12-56-12z" fill="#232323"/><ellipse cx="1248" cy="432.5" fill="#232323" rx="19.8" ry="37.4" transform="matrix(.5326 -.8464 .8464 .5326 217.3183 1258.4423)"/><path d="M1265.5 460.8c-.9 0-1.8 0-2.7-.1-8.3-.6-17.7-4-26.5-9.5-18.8-11.8-28.4-29.3-21.8-39.8s26.5-9.4 45.3 2.4 28.4 29.3 21.8 39.8c-3 4.7-8.6 7.2-16.1 7.2zm-35-52c-5.6 0-10 1.6-12.1 5-5 8 4.3 23.3 20.4 33.4 8.1 5.1 16.8 8.2 24.4 8.8 7.1.5 12.2-1.2 14.6-4.9 5-8-4.3-23.3-20.4-33.4-9.4-5.9-19.2-8.9-26.9-8.9z" fill="#232323"/><ellipse cx="1420.4" cy="495" fill="#232323" rx="19.8" ry="37.2" transform="matrix(.1293 -.9916 .9916 .1293 745.9302 1839.4966)"/><path d="M1426.8 517.5c-3 0-6.1-.2-9.2-.6-10.2-1.3-19.6-4.7-26.4-9.5-7.2-5.1-10.8-11.3-10-17.4.8-6.1 5.8-11.2 14.1-14.3 7.8-2.9 17.7-3.8 28-2.5s19.6 4.7 26.4 9.5c7.2 5.1 10.8 11.3 10 17.4s-5.8 11.2-14.1 14.3c-5.5 2-11.9 3.1-18.8 3.1zm-12.8-40.4c-6.3 0-12.2.9-17.1 2.8-6.6 2.5-10.6 6.2-11.1 10.6-.6 4.3 2.3 9 8.1 13.1 6.2 4.4 14.8 7.5 24.3 8.7s18.6.5 25.7-2.2c6.6-2.5 10.6-6.2 11.1-10.6.6-4.3-2.3-9-8.1-13.1-6.2-4.4-14.8-7.5-24.3-8.7-2.8-.4-5.8-.6-8.6-.6z" fill="#232323"/><path d="M1439.3 494.4s6.6-80.1-72.4-110.7c-61.7-23.9-105.9 7.8-130.9 32-.1 10.2 14.7 22.7 29.9 22.9 11.6-15.9 44.4-52.2 88.3-36.5 56.5 20.2 48.6 87.5 48.6 87.5s20.3 12.2 36.5 4.8z" fill="#fff"/><path d="M1323.6 381.2c13.4 0 27.3 2.7 41.2 8.1 17 6.6 31.2 16.2 42.3 28.5 8.8 9.9 15.7 21.5 20.3 34.6 5.9 16.7 6.8 31.6 6.9 38.4-1.8.4-3.7.6-5.7.6-7.8 0-15.7-3.1-20.1-5.1.4-6.5.4-19.7-3.2-34.3-6.9-27.5-23.8-46.8-48.9-55.8-7.7-2.7-15.5-4.1-23.2-4.1-34 0-59.1 26.7-70 40.9-6-.9-12.5-4.2-17.2-9-2.4-2.4-3.7-4.7-4.3-6.4 25.6-24.1 53.2-36.4 81.9-36.4m0-6c-39.8 0-69.8 22.2-88.5 40.3-.1 10.2 15.7 23.7 30.8 23.9 9.6-13.2 33.9-41.1 67.1-41.1 6.7 0 13.8 1.1 21.2 3.8 56.5 20.2 47.8 88 47.8 88s13 7.5 26.4 7.5c4 0 8-.7 11.7-2.4 0 0 5.8-80.8-73.3-111.4-15.4-6.1-29.9-8.6-43.2-8.6z" fill="#232323"/></svg></g><g transform="translate(511.2 396.0) rotate(0.0 1016.4 848.3999999999999) scale(1.2486486486486486 1.2481977342945414)"><svg width="1628" height="1359.4" viewBox="0 0 1628 1359.4"><clipPath id="c"><path d="M1009.4 873.2s-58.7-164.9-301-238.6c0 0 84.5-111.6 155.8-270.7 0 0-40.5-43.4-156.8-42.6-77.4.5-140.5-32.4-144-68.8 10.2 92.2 11.2 164-49.8 286.4 0 0-89.4 145.1-14.7 253 63 91 242 160 384.5 256 23.8-48.6 64.3-116.1 126-174.7z"/></clipPath><clipPath id="d"><path d="M1009.4 873.2s-58.7-164.9-301-238.6c0 0 84.5-111.6 155.8-270.7 0 0-40.5-43.4-156.8-42.6-77.4.5-140.5-32.4-144-68.8 10.2 92.2 11.2 164-49.8 286.4 0 0-89.4 145.1-14.7 253 63 91 242 160 384.5 256 23.8-48.6 64.3-116.1 126-174.7z"/></clipPath><clipPath id="e"><path d="M1548.6 1101.6s3.2 6.1 9.6 11.7c9.3 8.5 24.3 18.7 35.6 28.9 32.6 29.1 53.8 78.9 7.4 118.9-47.7 41.2-83 26.4-106.5 11.5-5.2-3.2-44-28-29.8-56.3l-14.5-34.4z"/></clipPath><clipPath id="f"><path d="M1263.3 1160.4s22 2.9 52 9.5c32.2 7.1 64.2 39.1 73 70.7 6 49.6-83.1-1-78.2-15.9-1.9 10.5 75.3 29 78.6 71 .5 17.6-17 36.4-28.6 44.8-31.3 22.5-72.1 24.4-100 8.5-39.7-22.5-77.9-58.3-77.9-58.3l-8.9-15z"/></clipPath><path d="M1486.8 371.4c-8.7-8.4-21.1-12-33.1-9.8-5.3-38.2-45.3-42.2-65.4-22.5-25.6-35.7-78-10.8-73.6 23.8 1.6 12.7 2.9 35.5-8 52.8 14 12.3 32.2 64.8 32.2 64.8s79.3-60 109.1-53.8c46.9 10.1 57.2-36.9 38.8-55.3z" fill="#232323"/><path d="M1458.1 548.7c-2 10.4-10.4 19.4-22.8 22.4-32.1 7.8-65.8-8.7-65.8-8.7-6.7 5.6-11.7 39.1-13.3 68.4 0 0-78.2-5-112.1-84.5 0 0 24.4-27.7 43.5-59.4-18.8-8.1-35.2-34-22.9-59.2 6.9-14.4 26-20.1 41-13.3 13.9 7.1 20.8 23 29.4 39.8 9.7 18.9 18.9 10.9 28.9-3.4 6.5-9.2 14.5-21.6 23.9-25.9 21.3-9.7 60.3 1.7 60.3 1.7s-1.1 5.6-2.2 12.5c-1.6 9-2.8 20.6-.5 25.9 4 9.3 10.4 9.7 9.3 14.7-1 4.3-7.2 8.3-10.7 9.8-6.2 30.1 18.7 35 14 59.2z" fill="#fff"/><path d="M1292.2 417.6c3.8 0 7.6.8 10.9 2.3 11.9 5.5 18.2 17.9 25.4 32.2.8 1.6 1.7 3.3 2.5 5 2.9 5.7 7.7 13.2 15.7 13.2 8.5 0 14.5-8.6 21.5-18.5l.5-.7c5.7-8.1 12.7-18.1 20.8-21.8 5-2.3 11.8-3.4 20.3-3.4 12.2 0 24.8 2.4 31.7 4-.5 2.4-1 5.4-1.4 8.3-2.4 13.9-2.4 23.8-.1 29.2 2.4 5.7 5.7 8.8 7.8 10.9.3.3.6.6.9.8-1 1.3-3.7 3.6-6.9 5-1.8.8-3 2.4-3.4 4.3-3.8 18.1 2.7 28.8 8 37.4 4.3 7 7.7 12.6 5.9 21.7-1.7 8.6-8.7 15.4-18.3 17.7-5.3 1.3-11 1.9-16.9 1.9-23.6 0-44.6-10.1-44.8-10.2-.8-.4-1.7-.6-2.6-.6-1.4 0-2.8.5-3.9 1.4-3 2.5-6.9 8-10.6 28.9-1.9 10.8-3.5 23.9-4.5 37.4-7.2-1.2-20.4-4.1-35.2-11.1-13.2-6.2-25.1-14.4-35.3-24.2-12-11.5-21.7-25.4-29-41.3 6.8-8 25.9-31.1 41.6-57.4.9-1.5 1.1-3.3.6-4.9s-1.7-3-3.3-3.7c-9.4-4.1-17.5-12.9-21.3-23.1-2.4-6.5-4.1-16.7 1.4-27.9 3.5-7.7 12.3-12.8 22-12.8m0-6c-11.4 0-22.6 5.9-27.6 16.2-12.3 25.2 4.1 51 22.9 59.2-19 31.7-43.5 59.4-43.5 59.4 33.9 79.4 112.1 84.5 112.1 84.5 1.7-29.3 6.6-62.8 13.3-68.4 0 0 22.1 10.8 47.5 10.8 6 0 12.2-.6 18.4-2.1 12.3-3 20.7-12 22.8-22.4 4.8-24.2-20.1-29.1-13.9-59.1 3.5-1.6 9.7-5.5 10.7-9.8 1.1-5-5.4-5.4-9.3-14.7-2.3-5.3-1.1-16.9.5-25.9 1.1-6.8 2.5-13.8 2.5-13.8s-19.6-5.5-38.7-5.5c-8.2 0-16.3 1-22.8 3.9-9.5 4.3-16.8 14.6-23.2 23.8-6.3 8.9-11.6 16.7-17.1 16.7-3.3 0-6.7-2.8-10.3-10-8.6-16.8-15.5-32.8-30.8-39.9-4.4-1.9-9-2.9-13.5-2.9z" fill="#232323"/><path d="M1388.1 434.5c10.1-29.7 48-15.4 40.1-5.2-1.1 1.4-2.7 2.2-4.4 2.5-9.4 1.5-18.2 3.7-27.1 7.4-3.1 1.2-9 1-8.7-3.5-.1-.5 0-.8.1-1.2zm15.9 19.9c4.8-.6 16.4-1.6 27.6-6 1.6-.6 3.2.1 4 1.7 1.6 4.1 2.9 10.9-5 12.9-9.7 2.5-24.7-1.9-27.6-6.3-.5-.7-.2-1.7.5-2.2.1 0 .3-.1.5-.1zm24.8 60.4c-1.7 1-3.5 1.4-5.3 1.7-1.8.1-3.6 0-5.4-.4-5.5-1.1-10.2-4.6-12.8-9.5-.8-1.7-1.4-3.4-1.8-5.2-.7-3.6-.1-7.4 1.7-10.5.5-.8 1.7-1.2 2.5-.6.7.5 1.1 1.2.8 2v.1c-.7 2.6-.6 5.4.1 7.9.4 1.3.8 2.5 1.6 3.6.6 1.1 1.4 2.2 2.4 3.1 1.9 1.8 4.2 3.2 6.8 4.1 2.5.8 5.3 1.1 7.9.5h.1c1-.2 2 .4 2.3 1.3.2.7-.2 1.5-.9 1.9zm-117.3-42.4c-.1 0-.1 0 0 0-1.8 0-3.1-1.4-3-3.1.9-32.4-21.2-33.9-22.1-33.9-1.7-.1-3-1.5-2.9-3.1s1.5-3 3.1-2.9c.3 0 29 1.6 27.9 40.1-.1 1.6-1.4 2.9-3 2.9zm-1.7 18.8h-.2c-11.6-.8-20.7-3.8-21.1-3.9-1.6-.5-2.4-2.2-1.9-3.8s2.2-2.4 3.8-1.9c.1 0 8.8 2.9 19.6 3.6 1.7.1 2.9 1.6 2.8 3.2s-1.5 2.8-3 2.8z" fill="#232323"/><circle cx="1342.8" cy="303.2" fill="#232323" r="11.6"/><path d="M1342.8 317.1c-7.7 0-13.9-6.2-13.9-13.9s6.2-13.9 13.9-13.9 13.9 6.2 13.9 13.9-6.2 13.9-13.9 13.9zm0-23.2c-5.1 0-9.3 4.2-9.3 9.3s4.2 9.3 9.3 9.3 9.3-4.2 9.3-9.3-4.1-9.3-9.3-9.3z" fill="#232323"/><path d="M1426.5 332.4s-25.4-43.8-78.1-25c-51.1 18.3-41.8 74.1-41.8 74.1z" fill="#fff"/><path d="M1306.5 384.6c-.5 0-1-.1-1.5-.4-.8-.4-1.4-1.2-1.5-2.1-.1-.6-2.4-14.8 1.8-31.4 3.9-15.5 14.3-36.1 42-46.1 28.4-10.1 49.1-2.5 61.5 5.8 13.4 8.9 20 20.1 20.2 20.5.4.8.5 1.7.2 2.5s-.9 1.5-1.7 1.8l-119.9 49.2c-.3.1-.7.2-1.1.2zm67.3-78.9c-7.8 0-16 1.5-24.5 4.5-40.6 14.5-41.1 54.4-40.2 67l112.8-46.2c-2.7-3.7-8.3-10.3-16.6-15.8-9.7-6.3-20.2-9.5-31.5-9.5z" fill="#232323"/><path d="M1455.1 361.2s.1-13.8-13.6-28.8c-14.6-16.1-137.4 40.9-142.2 55.5-4.6 14 10.7 38.8 20.2 37.9s67.4-45.7 135.6-64.6z" fill="#fff"/><path d="M1318.9 428.8c-4.1 0-8.8-3-13.2-8.4-7.2-8.9-12.7-23.3-9.4-33.4 4.6-14.2 82.9-50.5 120.4-58.5 14.2-3 23-2.4 26.9 1.9 14.3 15.7 14.4 30.2 14.4 30.8 0 1.4-.9 2.5-2.2 2.9-46 12.8-87.5 37.5-112.2 52.3-14 8.3-20.3 12-23.9 12.4h-.8zm112.8-96.2c-3.1 0-7.5.4-13.6 1.8-18 3.9-45.7 14.2-72.1 27-30.4 14.7-42.9 24.5-43.8 27.5-2.5 7.7 2.3 20.2 8.4 27.8 3.9 4.8 7.1 6.3 8.7 6.2 2.4-.2 11.6-5.7 21.4-11.6 24.6-14.7 65.4-39 111.3-52.2-.6-4.3-3.1-14.1-12.6-24.5-.7-.7-2.4-2-7.7-2zm-572.3 36.7C732.9 180.6 569.9 176.5 565.3 247.6c1.3 75 148.2 117.2 294.1 121.7z" fill="#232323"/><path d="M859.4 371.6c-.1 0-.1 0 0 0-76.8-2.4-148.5-14.7-202.1-34.6-61.1-22.7-93.7-53.6-94.3-89.4v-.2c1.3-20.3 15.2-35.5 38.1-41.6 31.2-8.4 74 .4 117.3 24.1 36.2 19.8 90.4 59.9 142.9 138.1.5.7.5 1.6.1 2.4s-1.2 1.2-2 1.2zM567.6 247.7c.8 42.6 50.1 69.7 91.3 85.1 52.1 19.4 121.5 31.4 196 34.1-51.1-75-103.5-113.7-138.7-132.9-42.3-23.1-83.8-31.8-113.9-23.7-21.2 5.7-33.5 19-34.7 37.4z" fill="#232323"/><path d="M628.8 13.7c43.3-14.8 111.1 14 165.9 39.5 68.8 32 177.5 79.9 177.5 79.9C917 245.6 846.6 395.7 832.5 419.6c-132.2-43.4-203.1-80-203.1-80s48.7-59.6 114.1-143.2C701.9 162 652 116 634.8 53.9c-1.9-7.4-5.2-33.7-6-40.2z" fill="#fff"/><path d="M832.5 422.6c-.3 0-.6 0-.9-.1-130.9-43-202.8-79.8-203.5-80.2-.8-.4-1.4-1.2-1.6-2.1s0-1.8.6-2.5c.5-.6 48.5-59.4 112.3-140.8-44.1-36.7-90.8-82.2-107.4-142.2v-.2c-2-7.7-5.2-32.8-6.2-40.4-.2-1.4.7-2.7 2-3.2C669.9-3.6 733.5 21.4 796 50.5c68 31.7 176.3 79.4 177.4 79.8.7.3 1.3.9 1.6 1.7s.2 1.6-.1 2.4c-21.9 44.7-46.6 96.1-68.4 141.5-33.7 70.1-62.8 130.7-71.3 145.2-.6.9-1.6 1.4-2.7 1.5zm-198.4-84.1c15.4 7.6 83.7 40 197 77.4 9.7-17.4 37.7-75.6 69.9-142.6 21.4-44.5 45.5-94.7 67.1-138.8-17.7-7.8-112.8-49.8-174.7-78.6-60.1-28-121.2-52.2-161.4-40.1 1.1 8.5 4 30.8 5.7 37.2v.2c16.5 59.4 63.7 104.5 107.6 140.9 1.3 1 1.5 2.9.5 4.2-56.5 72.3-101.1 127.3-111.7 140.2z" fill="#232323"/><path d="M751 301.8c-12.5 0-43.9-2.3-74.1-23.1-3.4-2.4-4.3-7-1.9-10.4 2.3-3.4 7-4.3 10.4-1.9 33.5 23.1 69.5 20.4 69.9 20.4 4.1-.3 7.7 2.7 8.1 6.8s-2.7 7.7-6.8 8.1c-.3-.1-2.3.1-5.6.1zm9.7-48.8c-15 0-34.7-2.5-55.2-11.9-3.8-1.7-5.4-6.2-3.7-9.9 1.7-3.8 6.2-5.4 9.9-3.7 37 17 72 8.1 72.3 8.1 4-1 8.1 1.3 9.2 5.3s-1.3 8.1-5.3 9.2c-.9.2-11.5 2.9-27.2 2.9zm.3-46c-10.1 0-21.2-1.1-32.8-4.2-4-1.1-6.4-5.1-5.4-9.2s5.2-6.4 9.2-5.4c39.3 10.3 72.3-4.4 72.6-4.6 3.8-1.7 8.2-.1 9.9 3.7s.1 8.2-3.7 9.9c-1 .7-21.2 9.8-49.8 9.8zm-50-43.7c-7 0-14.5-.6-22.3-1.9-4.1-.7-6.8-4.6-6.1-8.7s4.6-6.8 8.7-6.1c40 7.1 71.7-10.3 72-10.5 3.6-2 8.2-.7 10.2 2.9s.8 8.2-2.8 10.2c-1.2.7-25.5 14.1-59.7 14.1z" fill="#00676c"/><path d="M628.9 13.3c12.8-6 32.6-12.8 74.1 1.9C772.6 39.9 970.8 135 970.8 135c-10.2 20.3-23.5 50.4-27.8 55.6-66.5 11.2-73.6-69.4-150.3-109.6-46.5-29.2-108.5-59.5-161-49.8-.9-5.1-2.8-17.9-2.8-17.9z" fill="#fff"/><path d="M931 194.6c-31.4 0-49.2-22.2-69.6-47.5-17.5-21.7-37.4-46.4-70.1-63.6-.1 0-.1-.1-.2-.1C726.7 43 673.3 26.4 632.2 34c-.8.1-1.6 0-2.2-.5-.7-.5-1.1-1.1-1.2-1.9-.9-5-2.7-17.4-2.8-17.9-.2-1.3.5-2.6 1.7-3.2 15.1-7.1 36.1-12.5 76.4 1.8 69 24.4 266.1 119 268.1 119.9.7.3 1.3 1 1.5 1.7.3.8.2 1.6-.2 2.3-3.6 7.2-7.6 15.6-11.5 23.8-7.3 15.4-13.7 28.7-16.7 32.3-.5.6-1.1.9-1.8 1-4.4 1-8.6 1.3-12.5 1.3zM794.2 78.3c33.7 17.8 54 42.9 71.8 65.1 22.4 27.8 40.1 49.8 75.3 44.4 2.9-4.3 9.2-17.5 15.3-30.2 3.4-7.2 6.9-14.6 10.2-21.2C942.6 124.8 766.2 40.8 702 18.1c-40.5-14.3-59.9-7.5-69.8-3 .5 3 1.3 8.5 2 12.6 42.1-6.6 95.9 10.4 160 50.6zM882 272.7c-.5 0-1.1-.1-1.6-.4s-13.3-8.2-23.8-24.7c-9.7-15.2-19.3-41-9.7-77 .4-1.6 2.1-2.6 3.7-2.1 1.6.4 2.6 2.1 2.1 3.7-7.3 27.2-4.3 51.4 8.8 72 9.8 15.5 21.9 23 22.1 23.1 1.4.9 1.9 2.7 1 4.1-.6.8-1.6 1.3-2.6 1.3z" fill="#232323"/><path d="M1009.4 873.2s-58.7-164.9-301-238.6c0 0 84.5-111.6 155.8-270.7 0 0-40.5-43.4-156.8-42.6-77.4.5-140.5-32.4-144-68.8 10.2 92.2 11.2 164-49.8 286.4 0 0-89.4 145.1-14.7 253 63 91 242 160 384.5 256 23.8-48.6 64.3-116.1 126-174.7z" fill="#00676c"/><g clip-path="url(#c)"><path d="M688.4 645.6c-1.3 0-2.5-.9-2.9-2.2-.5-1.6.5-3.3 2.1-3.7 1-.3 25.7-7.2 38.4-9.3 1.6-.3 3.2.9 3.4 2.5.3 1.6-.9 3.2-2.5 3.4-12.3 1.9-37.4 9-37.7 9.1-.2.1-.5.2-.8.2z" fill="#fff"/></g><path d="M422.5 259.3c-183.3-49.1-342.6 45.5-306.7 94.2 54.9 54.1 215 3 306.7-94.2z" fill="#232323"/><path d="M182.7 377.8c-29.8 0-53.4-7.8-68.5-22.7-.1-.1-.2-.2-.2-.3-8.1-10.9-7.3-24.7 2.4-38.8 17.3-25.3 60-49.1 111.6-61.9 43.6-10.8 112.8-19.1 195.2 3 .8.2 1.4.8 1.6 1.6s0 1.6-.5 2.2c-31.5 33.4-71.8 62.5-116.5 84-42.7 20.6-86 32.2-121.9 32.9-1.1-.1-2.2 0-3.2 0zm-65.1-25.9c14.7 14.4 38.3 21.8 68.2 21.2 73.4-1.3 170.5-48.5 232.4-112.6-79.8-20.6-146.7-12.5-189.1-2-50.5 12.6-92.2 35.6-108.9 60-6 8.7-11.2 21.6-2.6 33.4z" fill="#232323"/><path d="M3.2 167.3c19.4-41.5 87.2-70.3 143.7-92C217.6 48 327.5 3 327.5 3c42.7 117.9 101.8 272.8 109.2 299.4-123.1 65-198.6 90.6-198.6 90.6s-9.1-76.4-23.8-181.5c-53.7 6.1-121.4 10-178-20.8-6.7-3.7-27.9-19.5-33.1-23.4z" fill="#fff"/><path d="M238.2 396c-.6 0-1.1-.2-1.6-.5-.8-.5-1.3-1.3-1.4-2.2-.1-.8-9.1-76.2-23.4-178.6-57 6.3-122.2 8.3-176.9-21.4-.1 0-.1-.1-.2-.1-7-3.9-27.2-19-33.3-23.6-1.1-.9-1.5-2.4-.9-3.7 18.9-40.3 81-68.8 145.3-93.5C215.8 45.5 325.3.6 326.4.2c.8-.3 1.6-.3 2.4 0s1.3 1 1.6 1.7c16.9 46.8 36.8 100.3 54.3 147.5 27.1 72.9 50.5 135.9 55 152.1.4 1.4-.2 2.8-1.5 3.5-121.9 64.4-198.3 90.5-199 90.8-.4.2-.7.2-1 .2zm-23.9-187.5c1.5 0 2.8 1.1 3 2.6 12.8 91 21.4 161.3 23.4 177.9 16.1-5.8 86.9-32.4 192.5-88-5.8-19.1-28.3-79.6-54.1-149.3-17.2-46.4-36.6-98.6-53.4-144.7-17.9 7.3-114.2 46.6-177.8 71.1C86 101.9 26.2 129.1 7 166.3c12.1 9 25.9 19.1 30.8 21.7.1 0 .1.1.2.1 54.2 29.3 119.4 26.7 176.1 20.3 0 .1.1.1.2.1z" fill="#232323"/><path d="M225.8 316.7c-3.5 0-6.6-2.5-7.3-6-.8-4.1 1.8-8 5.9-8.8 39.9-8.1 62.9-35.9 63.2-36.1 2.6-3.2 7.3-3.7 10.5-1.1s3.7 7.3 1.1 10.5c-1.1 1.3-26.5 32.2-71.8 41.4-.6.1-1.1.1-1.6.1zm-8.4-46.2c-3 0-5.8-1.8-7-4.8-1.5-3.9.4-8.2 4.3-9.7 38.1-14.9 55.8-46.1 56-46.4 2-3.6 6.6-4.9 10.2-2.9s4.9 6.6 2.9 10.2c-.8 1.5-20.6 36.3-63.6 53.1-1 .3-1.9.5-2.8.5zm-13-42.4c-2.5 0-5-1.3-6.4-3.6-2.2-3.5-1-8.2 2.5-10.3 34.9-21.3 47-55.1 47.1-55.4 1.4-3.9 5.6-6 9.5-4.6s6 5.6 4.6 9.5c-.6 1.6-14 39.3-53.5 63.3-1.1.8-2.5 1.1-3.8 1.1zm-57.7 0c-2.3 0-4.6-1.1-6.1-3.1-2.4-3.4-1.7-8 1.7-10.5 32.9-23.9 42.3-58.8 42.4-59.1 1-4 5.1-6.4 9.1-5.4s6.4 5.1 5.4 9.1c-.4 1.6-10.7 40.3-48.1 67.5-1.3 1-2.9 1.5-4.4 1.5z" fill="#00676c"/><path d="M3 166.9c4.6-13.4 13.4-32.3 52.8-52C121.9 81.9 328 5.3 328 5.3c7.5 21.5 19.9 51.9 20.7 58.6-38.1 55.6-101 4.8-183.3 32-53.3 13.2-118.2 36.8-147.7 81.3C13.5 174.4 3 166.9 3 166.9z" fill="#fff"/><path d="M17.8 180.3c-.6 0-1.2-.2-1.7-.5-4.3-2.8-14.4-10.1-14.8-10.4-1.1-.8-1.5-2.2-1.1-3.4 5.4-15.8 16.1-34.6 54.3-53.8C119.9 79.5 324.9 3.3 326.9 2.5c.8-.3 1.6-.2 2.3.1s1.3 1 1.6 1.7c2.7 7.6 5.9 16.4 9.1 24.8 6 16 11.2 29.8 11.7 34.5.1.7-.1 1.4-.5 2-22.6 33-54 30.2-90.4 26.9-27.8-2.5-59.3-5.3-94.4 6.3-.1 0-.1 0-.2.1-73.8 18.3-122.8 45.2-145.9 80-.4.7-1.1 1.1-1.9 1.3-.2 0-.4.1-.5.1zM6.6 165.8c2.5 1.8 7 5 10.4 7.3 24.5-34.9 74.2-61.8 147.6-80 36.2-12 68.3-9.1 96.7-6.5 35.5 3.2 63.7 5.7 84.2-23.3-1.1-5.1-6.2-18.7-11.2-32-2.8-7.4-5.7-15.1-8.1-22-25.1 9.4-208.1 77.9-269 108.4-38.5 19.1-47 37.8-50.6 48.1zm340.7 1.7c-5.1 0-11.1-.4-17.7-1.8-17.7-3.6-42.9-14.6-62.2-46.5-.9-1.4-.4-3.3 1-4.1 1.4-.9 3.3-.4 4.1 1 14.6 24.2 34.2 38.9 58.2 43.8 17.9 3.6 31.5.1 31.7.1 1.6-.4 3.2.5 3.7 2.1s-.5 3.2-2.1 3.7c-.4 0-6.8 1.7-16.7 1.7z" fill="#232323"/><path d="M513.6 538.8s-33.4-153.9-91.3-290.2c0 0-44.2-11.5-136.4 68.3-62.3 53.9-160.1 51.7-171.5 38.5 22.5 20.2 89.7 58.3 128.5 183.1 38.2 123.1 60.7 190.6 124.6 266 76.3 90.3 256.2 221.5 488.5 309.1 0-.1 22.9-73.4 79.6-154.2-.7-185.5-258.7-270.5-403.7-327.5-5-25-13-68-18.3-93.1z" fill="#00676c"/><g clip-path="url(#d)"><path d="M861.9 806.9c-.7 0-1.5-.3-2.1-.8-54.4-51.9-141.1-96.1-204.1-124-68.4-30.3-124.6-48.6-125.2-48.8-1.1-.3-1.9-1.3-2-2.4l-17.8-110.1c-.3-1.6.8-3.2 2.5-3.4 1.6-.3 3.2.8 3.4 2.5l17.5 108.3c10 3.3 62.1 20.9 124 48.4 63.5 28.1 150.8 72.7 205.8 125.2 1.2 1.1 1.2 3 .1 4.2-.5.6-1.3.9-2.1.9z" fill="#fff"/></g><path d="M465.7 696.3c-.6 0-1.1-.2-1.7-.5-1.4-.9-1.8-2.8-.8-4.2 1-1.5 24.9-37.1 66.7-61.8 1.4-.8 3.3-.4 4.1 1.1.8 1.4.4 3.3-1.1 4.1-40.6 23.9-64.5 59.6-64.7 59.9-.5.9-1.5 1.4-2.5 1.4z" fill="#fff"/><path d="M1548.6 1101.6s3.2 6.1 9.6 11.7c9.3 8.5 24.3 18.7 35.6 28.9 32.6 29.1 53.8 78.9 7.4 118.9-47.7 41.2-83 26.4-106.5 11.5-5.2-3.2-44-28-29.8-56.3l-14.5-34.4z" fill="#d9c6f4"/><path d="M1552.4 1149.4c48.5 8.5 22.5 28.5 16.7 66.4-2.2 12.2 28.6 42.5 16.1 57.4-39.8 25.5-69.7 12.7-90.4-.5-5.2-3.2-44-28-29.8-56.3 0 0 33.1-47.1 58-36.5 4.5-36 6.9-34 29.4-30.5z" fill="#d9c6f4"/><path d="M1546.4 1254.6h-1c-5-.2-9.3-2.4-12.8-6.5-17.5-20.8-8.9-87.4-8.6-90.2.2-1.6 1.7-2.8 3.4-2.6 1.6.2 2.8 1.7 2.6 3.4-.1.7-8.6 66.8 7.2 85.5 2.4 2.8 5.1 4.3 8.4 4.4 11.1.4 13.6-8.9 17.6-28.3 2.4-11.6 5.2-24.7 11.5-38.1.7-1.5 2.5-2.1 4-1.4s2.1 2.5 1.4 4c-6 12.7-8.6 25.5-11 36.8-3.7 17.6-6.9 32.9-22.7 33z" fill="#fff"/><g clip-path="url(#e)"><path d="M1461.5 1218.4c-.7 0-1.4-.2-1.9-.7-1.3-1.1-1.5-2.9-.4-4.2 1.7-2 40.9-48.8 67.4-33.1 1.4.8 1.9 2.7 1.1 4.1s-2.7 1.9-4.1 1.1c-22.1-13.1-59.3 31.4-59.7 31.8-.7.6-1.6 1-2.4 1z" fill="#fff"/></g><path d="M1380.7 597.7c54.1-3.6 82.9 98.8 49.4 158.7 21.6 39.5 0 127-27.6 139 37.1 0 82.7 56.3 81.8 90.7 38 7.7 72.5 95.6 51.3 112.6l-101.5 68.5c-24.6 8.4-101.2-29.9-112-58.7-55.1-12-119.8-53.9-177.2-177.4-33.2-71.3 72.9-317.6 235.8-333.4z" fill="#fff"/><path d="M1425.7 1171.3c-15.4 0-37-8.1-54.1-16.9-20.6-10.6-44.6-27.4-51.6-43.4-31.4-7.1-60.8-23-87.6-47.3-33.3-30.2-63.7-74.5-90.1-131.5-16.7-35.9.7-113.8 41.5-185.2 23.1-40.4 51.6-75.3 82.6-101.2 36.2-30.2 74.6-47.4 114.1-51.3h.1c18.3-1.2 35.3 9 47.9 28.9 20.5 32.5 27.8 90.7 5.1 132.9 13.5 26.7 8.9 70.5-1.4 100.4-3.6 10.4-10.6 27.1-20.9 36.4 13.9 2.8 29.2 12.1 43.2 26.5 19.3 19.8 32.3 45.1 33 63.9 14.2 4 25.9 17.3 33.4 28.1 9.8 14.1 17.7 31.6 21.7 48.1 4.9 20.1 3.1 34.7-4.9 41.2-.1.1-.1.1-.2.1l-101.5 68.5c-.2.2-.5.3-.7.4-3 1-6.1 1.4-9.6 1.4zm-44.8-570.6c-101.9 9.9-168.2 107.8-192 149.4-39.9 69.8-57.2 145.3-41.3 179.6 47.2 101.6 106.1 160.7 175.1 175.7 1 .2 1.8.9 2.2 1.9 4.6 12.2 24 28.6 49.4 41.6 24.4 12.6 47.8 18.7 58.4 15.4l101-68.2c5.9-4.8 6.9-17.9 2.7-35-7.6-31.3-30.6-67.8-52.8-72.2-1.4-.3-2.5-1.6-2.4-3 .4-17.5-12.1-42.4-31.3-62-15.9-16.3-33.2-25.6-47.5-25.6-1.4 0-2.7-1-3-2.4s.4-2.8 1.8-3.4c8.9-3.9 18.3-18 25.1-37.7 10-29.2 14.6-72.1 1-97.1-.5-.9-.5-2 0-2.9 22.6-40.3 15.6-96.8-4.2-128.2-11.2-17.7-26.2-27-42.2-25.9z" fill="#232323"/><path d="m1557.7 1112.9-18.2-23.6-105.4 78 17.2 17.7z" fill="#fff"/><path d="M1451.3 1188c-.8 0-1.6-.3-2.2-.9l-17.2-17.7c-.6-.6-.9-1.5-.8-2.4s.5-1.7 1.2-2.2l105.4-78c1.3-1 3.2-.7 4.2.6l18.2 23.6c.5.7.7 1.5.6 2.3s-.6 1.6-1.3 2l-106.4 72.1c-.5.4-1.1.6-1.7.6zm-12.6-20.4 13.1 13.4 101.6-68.9-14.4-18.7zm-48.8-395.3h-1.7c-1.7-.1-2.9-1.5-2.9-3.1.1-1.7 1.5-3 3.1-2.9.3 0 28 .8 39.3-11.9 1.1-1.2 3-1.3 4.2-.2s1.3 3 .2 4.2c-11.4 13-35.5 13.9-42.2 13.9zm-52.5 156.8c-.8 0-1.6-.3-2.2-1-1.1-1.2-1-3.1.2-4.2s30.7-27.4 67.7-31.5c1.6-.2 3.1 1 3.3 2.7s-1 3.1-2.7 3.3c-35.1 3.9-64.1 29.7-64.4 30-.5.5-1.2.7-1.9.7zm-15.3 182.3c-.5 0-1-.1-1.5-.4-1.4-.8-2-2.6-1.1-4.1.2-.3 17.1-30.2 46.2-60 27-27.7 70.3-61 123.2-62.6 1.7-.1 3 1.3 3.1 2.9.1 1.7-1.3 3-2.9 3.1-50.9 1.5-92.9 33.9-119.1 60.8-28.6 29.3-45.1 58.5-45.3 58.8-.5 1-1.6 1.5-2.6 1.5z" fill="#232323"/><path d="M1392.5 628.4s26.7 189.2-84.7 346c-58.7 82.7-99.4 117.4-206 118.6-68.8-3.1-523.8-138.1-196.7-443.2 54.5-50.8 197.4-120.6 313-112.6z" fill="#fff"/><path d="M1101.7 1096h-.1c-23.8-1.1-88.9-16.9-152.9-47.6-56.4-27-129-73.7-154.4-142.8-28.5-77.4 8.1-164.2 108.7-258.1 55.2-51.5 199.2-121.5 315.3-113.4.4 0 .8.1 1.2.3l174.5 91.2c.9.5 1.5 1.3 1.6 2.3.1.5 6.6 48.4-.6 114.9-4.2 39.1-12.3 76.8-24 112.2-14.7 44.3-35.1 85-60.6 121-59.5 83.7-101.6 118.8-208.7 120zm97.6-556.4c-110.8 0-240.7 64.4-292.2 112.4-98.7 92-134.7 176.7-107.1 251.6 24.7 67.2 96 112.9 151.4 139.4 63.1 30.2 127.1 45.9 150.5 47 102.9-1.2 142.8-31.8 203.5-117.3 57.1-80.4 77-169.6 83.6-230.2 6.4-59.2 1.8-103.5.8-112.1l-172.5-90.2c-6-.5-12-.6-18-.6z" fill="#232323"/><path d="M1284.3 802.8c-42.6 0-76.2-27.1-77.8-28.4-1.3-1-1.5-2.9-.4-4.2 1-1.3 2.9-1.5 4.2-.4.4.3 42.5 34.1 90 25.6 1.6-.3 3.2.8 3.5 2.4s-.8 3.2-2.4 3.5c-5.8 1-11.5 1.5-17.1 1.5zm90.1 10.1c-6.2 0-13-1.5-14-1.8-1.6-.4-2.6-2-2.2-3.6s2-2.6 3.6-2.2c3.2.7 12.3 2.4 16.9 1.2 1.6-.4 3.2.5 3.7 2.1.4 1.6-.5 3.2-2.1 3.7-1.8.5-3.8.6-5.9.6z" fill="#232323"/><path d="M1176.5 1054.2c-.9 0-1.7-.4-2.3-1.1-1-1.3-.8-3.2.4-4.2 98.5-80 141.9-188.4 160.9-265.3 20.6-83.3 17.9-148.5 17.9-149.1-.1-1.7 1.2-3.1 2.9-3.1 1.7-.1 3.1 1.2 3.1 2.9 0 .7 2.8 66.7-18.1 150.8-12.3 49.5-30.1 95.5-53.1 136.7-28.8 51.6-65.7 96-109.8 131.7-.5.5-1.2.7-1.9.7z" fill="#232323"/><path d="M1397.2 570.6c-50.7-18.1-75.9-42.6-112.6-75.5-21.4-19.2-71.5 26.8-68.2 40.4 3 12.6 35.3 47 52.8 58.3 47.9 31 84.1 47.6 122.3 36.7 30-15.5 21.6-57.4 5.7-59.9z" fill="#fff"/><path d="M1367.5 636.9c-30.4 0-61.1-15.4-99.9-40.6-18.2-11.8-50.9-46.8-54.1-60.2-2.5-10.2 15.3-29.6 32.9-40.2 16.8-10.1 31.1-11.2 40.2-3.1 2.3 2.1 4.6 4.1 6.8 6.1 33.5 30.2 57.8 52 104.6 68.7 7.7 1.4 14.2 10.2 16.1 22.1 2.2 13.9-2 33.6-21.1 43.4-.2.1-.4.2-.6.2-8.4 2.5-16.6 3.6-24.9 3.6zm-95.8-143.4c-8 0-16.6 4.3-22.2 7.6-18.5 11.1-31.5 28.3-30.1 33.6 2.6 11 33.4 44.7 51.5 56.5 47.7 30.9 82.6 46.8 119.5 36.4 16.1-8.4 19.6-25.2 17.6-37-1.5-9.3-6.2-16.3-11.4-17.1-.2 0-.4-.1-.5-.1-48.1-17.2-74-40.5-106.8-70-2.2-2-4.5-4-6.8-6.1-3-2.7-6.8-3.8-10.8-3.8z" fill="#232323"/><path d="M1356.5 637.4c-.7 0-1.4-.2-1.9-.7-1.3-1.1-1.4-3-.4-4.2 25.7-30.5 19.4-69.2 19.3-69.6-.3-1.6.8-3.2 2.4-3.5s3.2.8 3.5 2.4c.3 1.7 6.9 41.8-20.7 74.5-.5.7-1.4 1.1-2.2 1.1z" fill="#232323"/><path d="M1263.3 1160.4s22 2.9 52 9.5c32.2 7.1 64.2 39.1 73 70.7 6 49.6-83.1-1-78.2-15.9-1.9 10.5 75.3 29 78.6 71 .5 17.6-17 36.4-28.6 44.8-31.3 22.5-72.1 24.4-100 8.5-39.7-22.5-77.9-58.3-77.9-58.3l-8.9-15z" fill="#d9c6f4"/><g fill="#fff"><path d="M1252.6 1316.1c-.7 0-1.3-.2-1.8-.8-.8-1.1-.7-2.5.4-3.4l57.9-47.9c1.1-.8 2.5-.7 3.4.4s.7 2.5-.4 3.4l-57.9 47.9c-.5.3-1 .4-1.6.4z"/><path d="M1305.4 1321.2c-.7 0-1.3-.2-1.8-.8l-47.9-57.9c-.8-1.1-.7-2.5.4-3.4s2.5-.7 3.4.4l47.9 57.9c.8 1.1.7 2.5-.4 3.4-.5.3-1.1.4-1.6.4zm5.2-33.9h-.2l-20.4-2.3c-1.3-.1-2.3-1.3-2.2-2.6s1.3-2.3 2.6-2.2l20.4 2.3c1.3.1 2.3 1.3 2.2 2.6-.3 1.2-1.2 2.2-2.4 2.2z"/><path d="M1290.5 1285.4h-.2c-1.3-.1-2.3-1.2-2.2-2.5l1.6-20.4c.1-1.3 1.2-2.3 2.5-2.2s2.3 1.2 2.2 2.5l-1.6 20.4c-.1 1.2-1.1 2.2-2.3 2.2zm-16.6-2.1h-.2c-1.3-.1-2.3-1.3-2.2-2.6l2.3-20.4c.1-1.3 1.3-2.3 2.6-2.2s2.3 1.3 2.2 2.6l-2.3 20.4c-.2 1.3-1.2 2.2-2.4 2.2z"/><path d="M1274.2 1283.1h-.2l-20.4-1.6c-1.3-.1-2.3-1.2-2.2-2.5s1.2-2.3 2.5-2.2l20.4 1.6c1.3.1 2.3 1.2 2.2 2.5 0 1.2-1 2.2-2.3 2.2zm-1.1 16.2h-.2l-20.4-2.3c-1.3-.1-2.3-1.3-2.2-2.6s1.3-2.3 2.6-2.2l20.4 2.3c1.3.1 2.3 1.3 2.2 2.6s-1.2 2.2-2.4 2.2z"/><path d="M1271.3 1319.4h-.2c-1.3-.1-2.3-1.2-2.2-2.5l1.6-20.4c.1-1.3 1.2-2.3 2.5-2.2s2.3 1.2 2.2 2.5l-1.6 20.4c0 1.2-1.1 2.2-2.3 2.2zm15 1.1h-.2c-1.3-.1-2.3-1.3-2.2-2.6l2.3-20.4c.1-1.3 1.3-2.3 2.6-2.2s2.3 1.3 2.2 2.6l-2.3 20.4c-.1 1.2-1.2 2.2-2.4 2.2z"/><path d="M1308.7 1301.9h-.2l-20.4-1.6c-1.3-.1-2.3-1.2-2.2-2.5s1.2-2.3 2.5-2.2l20.4 1.6c1.3.1 2.3 1.2 2.2 2.5 0 1.2-1.1 2.2-2.3 2.2z"/></g><g clip-path="url(#f)"><path d="M1379.7 1271.2c-.7 0-1.4-.3-2-.8-15.6-14.3-29.8-21.9-43.4-29.3-6.3-3.4-12.2-6.6-18.1-10.4-1.4-.9-1.8-2.7-.9-4.1s2.7-1.8 4.1-.9c5.8 3.7 11.6 6.8 17.8 10.2 14 7.6 28.5 15.4 44.6 30.2 1.2 1.1 1.3 3 .2 4.2-.6.5-1.5.9-2.3.9z" fill="#fff"/></g><path d="M1219.1 526.4c24.6 28.5 13.2 98.7-11.4 146.7-35.7 69.6-75.8 101-91.2 101.1 0 0-2.6 73.5-103.3 136 0 0 75.2 51.1 63.2 87.1 4.2 1.1 43.5 9.3 91 46.7 77.9 61.1 74.3 101.8 74.3 101.8l-89.8 133s-43.1 39.5-173.7-13.2c-88.4-35.7-80.3-70.7-80.3-70.7s-93.4 15.6-198.8-119.8c-43.1-55.4-55-134.1-29.8-146.1C590.2 800.8 801 581.6 862.1 615.1c-.7-74.7 281.5-175 357-88.7z" fill="#fff"/><path d="M1096.2 1296c-26.3 0-65.2-5.9-119-27.6-73.5-29.7-81.9-59.4-82.3-70.1-8.1.6-28.8.6-57.7-9.7-33.7-12-85.4-41.1-140.3-111.6-15.8-20.2-28.7-45.4-36.3-70.8-7.1-23.6-9.1-45.8-5.6-60.8 1.9-8 5.4-14 10.2-17.5-43.4-74.6 5.9-180.3 74.7-252.7 38.8-40.8 89.7-75.4 119.5-64.7 1.9-14.9 13.7-31.1 34.4-47.2 21-16.3 49.7-31.6 83.2-44.4 46.6-17.8 95.5-28 137.9-28.9 49.2-1 86 10.8 106.5 34.2 25.5 29.6 14.1 100.9-11 150.1-20.3 39.6-40.4 63.9-53.8 77.4-14.2 14.3-27.9 23.5-37.3 25.1-.7 6.1-3.4 22.1-14 43.2-11.9 23.6-36.6 58.2-86.6 90.2 15 10.8 68.3 51.9 61.5 84.8 17.7 4.6 50.9 16.5 89.2 46.5 78.2 61.4 75.6 102.7 75.4 104.5 0 .5-.2 1-.5 1.4l-89.8 133c-.1.2-.3.4-.5.5-.5.4-11.8 10.6-39.6 13.9-5.2.8-11.3 1.2-18.2 1.2zM898 1191.9c.8 0 1.6.3 2.2 1 .7.7 1 1.8.7 2.7-.1.3-5.8 33.2 78.4 67.2 66.3 26.8 109.2 29.1 133.6 26.2 24-2.8 35-10.9 36.7-12.3l89.1-131.9c-.1-5.5-3.3-43.7-73.1-98.5-39-30.7-72.6-42-89.1-46-.4-.1-.6-.2-.9-.2-.8-.2-1.5-.7-1.9-1.5s-.5-1.6-.2-2.4c11.1-33.4-61.3-83.1-62.1-83.6-.8-.6-1.3-1.5-1.3-2.6 0-1 .6-2 1.4-2.5 51.2-31.8 76.2-66.4 88.1-89.8 12.9-25.4 13.7-43.5 13.8-43.7.1-1.6 1.4-2.9 3-2.9 13.1-.1 52.6-29.4 88.5-99.5 12.3-24.1 21-53.2 23.8-79.6 3-28.6-1.3-51.3-12-63.8-42.5-48.6-153-36-237.7-3.7-32.4 12.4-61.4 27.8-81.6 43.5-21.3 16.5-32.5 32.8-32.4 46.9 0 1.1-.5 2.1-1.5 2.6s-2.1.6-3 .1c-22.4-12.3-70.2 13.1-116.4 61.7-68 71.6-116.8 176-72.4 248 .5.7.6 1.6.3 2.4-.2.8-.8 1.5-1.6 1.9-5.8 2.7-8.5 9.7-9.8 15.1-6.5 27.4 7.3 83.5 40.8 126.5 53.8 69.1 104.3 97.7 137.1 109.5 35.5 12.8 58.6 9.2 58.8 9.2z" fill="#232323"/><path d="m1263.9 1160.3-21.7-15.1-90.7 133.9 31.2 12.5z" fill="#fff"/><path d="M1182.7 1294.6c-.4 0-.8-.1-1.1-.2l-31.1-12.5c-.8-.3-1.5-1-1.8-1.9s-.1-1.8.4-2.6l90.7-133.9c.5-.7 1.2-1.1 1.9-1.3s1.6 0 2.3.5l21.7 15.1c1.3.9 1.7 2.7.8 4.1l-81.2 131.3c-.6.9-1.6 1.4-2.6 1.4zm-26.6-16.9 25.3 10.1 78.4-126.7-16.8-11.7zm-39.6-500.5c-.2 0-.5 0-.7-.1-86.4-21.2-148.6-59.8-185.7-88.4-44.4-34.3-66.5-64.4-70.8-72.2-.8-1.5-.3-3.3 1.2-4.1s3.3-.3 4.1 1.2c5.2 9.5 28.9 39.1 69.2 70.3 36.6 28.3 98.1 66.4 183.4 87.3 1.6.4 2.6 2 2.2 3.6-.3 1.5-1.5 2.4-2.9 2.4zM815.2 944.8c-67.8 0-127.8-7.1-146.8-13a3.037 3.037 0 0 1 1.8-5.8c20.7 6.4 83.8 13 149.8 12.6 58.7-.4 139.7-6.1 192-31.3 1.5-.7 3.3-.1 4 1.4s.1 3.3-1.4 4c-50.6 24.5-129.2 32.1-199.4 32.1zm82.8 253.5c-.2 0-.4 0-.6-.1-1.6-.3-2.7-1.9-2.4-3.5.3-1.3 6.8-32.7 32.2-73.3 23.5-37.4 68.2-89.8 147.9-126.8 1.5-.7 3.3 0 4 1.5s0 3.3-1.5 4c-78.3 36.4-122.2 87.7-145.2 124.3-25 39.7-31.5 71.3-31.6 71.6-.1 1.3-1.4 2.3-2.8 2.3z" fill="#232323"/></svg></g><g transform="translate(174.0 2096.4) rotate(0.0 154.2 116.39999999999986) scale(1.2521366306805954 1.2462460051070376)"><svg width="246.299" height="186.801" viewBox="0 0 246.299 186.801"><path d="M243.276 183.773c.328.356-138.422-16.018-203.107-57.096-27.385-17.391-26.733-55.009 2.169-65.471 10.377-3.756 22.534-3.266 24.148-24.271C68.066 16.381 88 2.302 107.357 17.505c29.495 23.164 37.338 3.819 53.261 9.751 17.556 6.54 11.324 33.544 18.014 68.563 10.955 57.347 58.52 81.316 64.644 87.954z" fill="#fff"/><path d="M242.887 186.722c-2.692 0-8.58-.822-22.825-2.995-12.669-1.932-32.471-5.247-54.858-10.066-39.12-8.42-92.849-22.964-126.655-44.433-14.83-9.417-22.958-25.152-21.213-41.063 1.511-13.773 10.473-24.914 23.973-29.801 1.782-.645 3.59-1.165 5.339-1.667 8.734-2.511 15.633-4.494 16.824-19.993.928-12.075 7.578-22.246 17.356-26.544 9.125-4.01 19.208-2.246 28.395 4.968 17.627 13.844 26.509 11.628 35.098 9.485 5.258-1.313 10.695-2.668 17.352-.189 13.628 5.077 14.795 20.411 16.272 39.823.703 9.245 1.5 19.723 3.656 31.005 8.818 46.163 42.492 70.526 56.872 80.93 3.464 2.506 5.752 4.161 7.025 5.542a3.024 3.024 0 0 1 .099 3.988c-.513.615-.844 1.01-2.71 1.01zM90.652 14.131c-2.531 0-5.013.517-7.39 1.562-7.615 3.348-13.016 11.776-13.762 21.474-1.513 19.685-11.962 22.688-21.181 25.339-1.729.497-3.362.966-4.952 1.542-11.452 4.146-18.75 13.176-20.022 24.777-1.492 13.602 5.576 27.129 18.445 35.301 52.029 33.042 156.779 50.853 191.054 55.44-15.906-11.585-48.319-36.793-57.18-83.18-2.219-11.617-3.03-22.276-3.746-31.68-1.545-20.298-2.796-31.056-12.355-34.618-4.901-1.826-8.819-.849-13.778.389-9.062 2.26-20.34 5.075-40.294-10.595-4.848-3.808-9.934-5.751-14.839-5.751z" fill="#232323"/><circle cx="22.74" cy="22.74" fill="#fff" r="19.718"/><path d="M22.729 45.481A22.58 22.58 0 0 1 6.967 39.12 22.586 22.586 0 0 1 .004 23.168C-.232 10.632 9.775.24 22.312.004c6.077-.122 11.827 2.143 16.202 6.356s6.847 9.879 6.962 15.951c.236 12.537-9.771 22.929-22.308 23.165-.146.003-.294.004-.44.004zm.02-39.437c-.107 0-.215 0-.323.003-9.205.173-16.552 7.803-16.379 17.007a16.586 16.586 0 0 0 5.112 11.712 16.566 16.566 0 0 0 11.896 4.667c9.205-.173 16.552-7.803 16.379-17.007a16.586 16.586 0 0 0-5.112-11.712 16.58 16.58 0 0 0-11.573-4.67z" fill="#232323"/></svg></g><g transform="translate(280.8 1239.6) rotate(0.0 176.99999999999997 148.20000000000005) scale(1.2672910043818195 1.2656390110593967)"><svg width="279.336" height="234.19" viewBox="0 0 279.336 234.19"><path d="M242.372 226.888c.613.483 5.32 4.28 5.32 4.28s-5.798-1.495-6.582-1.682c-30.355-7.272-142.087-33.674-181.53-48.451-54.565-20.443-61.885-55.716-53.791-77.813C11.416 87.86 30.206 69.43 62.001 81.959c39.567 15.591 31.042-34.545 66.058-34.963 39.219-.467 51.593 83.872 73.716 126.72 15.916 30.826 31.971 46.383 40.597 53.171z" fill="#fff"/><path d="M247.692 234.19c-.25 0-.503-.031-.755-.096-.001 0-5.754-1.483-6.533-1.669l-5.533-1.323c-37.973-9.076-138.84-33.183-176.353-47.237-25.416-9.522-42.908-22.872-51.991-39.679-7.183-13.291-8.487-28.601-3.577-42.003C6.781 91.724 15.01 82.81 24.96 78.341c11.035-4.958 24.227-4.679 38.147.807 19.285 7.597 25.356-1.599 33.043-13.244 6.72-10.181 14.337-21.72 31.871-21.929 29.599-.348 44.213 41.692 58.325 82.352 5.949 17.141 11.568 33.331 18.112 46.004 15.796 30.594 31.704 45.826 39.781 52.183.617.486 5.349 4.303 5.349 4.303a3.021 3.021 0 0 1-1.897 5.374zM41.978 80.817c-5.176 0-10.032 1.012-14.54 3.037-8.496 3.816-15.529 11.445-18.812 20.408-8.091 22.09.676 54.709 52.014 73.943 36.921 13.832 136.463 37.655 174.892 46.84-9.125-8.286-22.892-23.696-36.442-49.941-6.741-13.057-12.429-29.445-18.451-46.795-13.41-38.638-27.298-78.64-52.543-78.29-14.328.17-20.434 9.421-26.898 19.214-5.88 8.909-12.362 18.724-25.671 18.725-4.151 0-8.963-.954-14.632-3.188-6.687-2.635-13.009-3.953-18.915-3.953z" fill="#232323"/><circle cx="62.514" cy="30.633" fill="#fff" r="27.604"/><path d="M62.469 61.272c-5.126 0-10.196-1.3-14.804-3.854-7.155-3.966-12.336-10.481-14.591-18.345-4.654-16.233 4.767-33.226 21-37.88s33.225 4.768 37.88 21c2.255 7.864 1.312 16.134-2.654 23.289S78.819 57.818 70.955 60.073c-2.8.803-5.651 1.2-8.485 1.2zm.035-55.224c-2.237 0-4.51.308-6.765.955-13.029 3.735-20.59 17.375-16.855 30.404a24.426 24.426 0 0 0 11.711 14.725c5.743 3.184 12.381 3.94 18.693 2.13 6.312-1.809 11.541-5.968 14.725-11.711 3.183-5.743 3.94-12.381 2.13-18.692-3.089-10.774-12.951-17.81-23.639-17.81z" fill="#232323"/><circle cx="256.591" cy="183.708" fill="#fff" r="19.718"/><path d="M256.557 206.459c-3.806 0-7.571-.965-10.992-2.862a22.588 22.588 0 0 1-10.834-13.621c-3.456-12.054 3.539-24.671 15.592-28.127 12.052-3.453 24.67 3.541 28.127 15.593 1.674 5.839.974 11.98-1.971 17.293s-7.783 9.16-13.622 10.834a22.843 22.843 0 0 1-6.3.891zm.027-39.449c-1.52 0-3.063.209-4.595.648-8.85 2.537-13.985 11.801-11.448 20.651 1.229 4.287 4.054 7.839 7.954 10.001s8.409 2.676 12.696 1.447 7.839-4.054 10.001-7.954 2.676-8.409 1.447-12.696c-2.098-7.318-8.797-12.097-16.056-12.097z" fill="#232323"/></svg></g><g transform="translate(2605.2 1532.3999999999999) rotate(-23.95115032603027 85.20000000000005 187.20000000000005) scale(1.355554671651884 1.3596548568440323)"><svg width="125.705" height="275.364" viewBox="0 0 125.705 275.364"><g fill="#232323"><path d="M78.441 275.364a3 3 0 0 1-2.562-4.557c39.274-64.698 45.351-133.754 43.533-180.292-1.976-50.554-13.43-86.23-13.546-86.585a3.001 3.001 0 0 1 5.704-1.861c.118.361 11.798 36.679 13.829 88.017 1.876 47.414-4.303 117.795-44.392 183.834a2.993 2.993 0 0 1-2.566 1.444zm-58.442-7.888a3 3 0 0 1-2.766-4.159C46.12 194.295 28.84 136.783 28.663 136.21a3.002 3.002 0 0 1 5.731-1.78c.753 2.424 18.096 60.186-11.625 131.203a3.005 3.005 0 0 1-2.77 1.843z"/></g></svg></g><g transform="translate(2322.0 1771.2) rotate(0.0 110.39999999999986 116.39999999999998) scale(1.2432432432432416 1.2495974235104668)"><svg width="177.6" height="186.3" viewBox="0 0 177.6 186.3"><g xmlns:xlink="http://www.w3.org/1999/xlink"><g><path d="M102.1 47.8c48.5 8.5 22.5 28.5 16.7 66.4-2.2 12.2 28.6 42.5 16.1 57.4-39.9 25.5-69.9 12.6-90.6-.5-5.2-3.2-44-28-29.8-56.3 0 0 33.1-47.1 58-36.5 4.6-36 7-34 29.6-30.5z" style="fill:#d9c6f4"/></g><g><path d="M96 152.9h-1c-5-.2-9.3-2.4-12.8-6.5-17.5-20.7-8.9-87.4-8.6-90.2.2-1.6 1.7-2.8 3.4-2.6 1.6.2 2.8 1.7 2.6 3.4-.1.7-8.6 66.8 7.2 85.5 2.4 2.8 5.1 4.3 8.4 4.4 11.1.5 13.6-8.9 17.6-28.3 2.4-11.6 5.2-24.7 11.5-38.1.7-1.5 2.5-2.1 4-1.4 1.5.7 2.1 2.5 1.4 4-6 12.7-8.7 25.5-11 36.8-3.6 17.7-6.9 33-22.7 33z" style="fill:#fff"/></g><g><defs><path id="g" d="M98.2 0s3.2 6.1 9.6 11.7c9.3 8.5 24.3 18.7 35.6 28.9 32.6 29.1 53.8 78.9 7.4 118.9-47.7 41.2-83 26.4-106.5 11.5-5.2-3.2-44-28-29.8-56.3L0 80.4 98.2 0z" fill="#000"/></defs><clipPath id="h"><use xlink:href="#g" style="overflow:visible"/></clipPath><g style="clip-path:url(#h)"><path d="M11.1 116.8c-.7 0-1.4-.2-1.9-.7-1.3-1.1-1.5-2.9-.4-4.2 1.7-2 40.9-48.8 67.4-33.1 1.4.8 1.9 2.7 1.1 4.1-.8 1.4-2.7 1.9-4.1 1.1-22.1-13-59.3 31.4-59.7 31.8-.7.6-1.6 1-2.4 1z" style="fill:#fff"/></g></g></g></svg></g><g transform="translate(1561.2 2486.4) rotate(0.0 303.6 85.19999999999982) scale(1.223687790328594 1.23230014897525)"><svg width="496.205" height="138.278" viewBox="0 0 496.205 138.278"><g fill="#232323"><path d="M228.831 138.268c-31.705 0-50.784-1.906-51.049-1.933a3 3 0 0 1 .612-5.969c.368.038 37.509 3.739 94.529.716 52.592-2.789 133.338-12.033 219.347-40.235a3 3 0 1 1 1.869 5.701c-86.69 28.426-168.052 37.731-221.04 40.533a840.292 840.292 0 0 1-44.269 1.187zm73.233-77.284c-85.506 0-160.509-14.188-209.36-26.452C36.909 20.525 2.173 5.908 1.829 5.762A3.001 3.001 0 0 1 4.171.238c.341.145 34.748 14.615 90.13 28.509 51.083 12.816 130.972 27.751 221.472 26.114 1.638-.055 3.024 1.289 3.054 2.945a3 3 0 0 1-2.945 3.054c-4.632.083-9.243.125-13.818.125z"/></g></svg></g><g transform="translate(2139.6 1920.0) rotate(0.0 71.40000000000009 55.19999999999993) scale(1.294650951949231 1.3018867924528286)"><svg width="110.3" height="84.8" viewBox="0 0 110.3 84.8"><g><g><path d="M102.3 44.8c-18-19-52-43-99.3-41.8 0 0 61.3 23.8 85.3 74.8" style="fill:#fff"/></g><g><path d="M90.3 84.8c-1.2 0-2.4-.7-2.8-1.9C67.2 29.8 2.7 6.1 2 5.9.6 5.4-.2 4 0 2.6.3 1.1 1.5.1 2.9 0c45.7-1.2 85 23.9 106.6 47.7 1.1 1.2 1 3.1-.2 4.3-1.2 1.1-3.1 1-4.3-.2-18.1-20-49.3-41-86-45 21.2 10.5 58.9 34.1 74.2 74 .6 1.6-.2 3.3-1.7 3.9-.5.1-.8.1-1.2.1z" style="fill:#232323"/></g></g></svg></g></svg>