<svg xmlns="http://www.w3.org/2000/svg" viewBox="0 0 2500 2500" width="2500" height="2500"><g transform="translate(1134.0 1651.0) rotate(0.0 65.0 47.5) scale(1.0127213380385927 1.0075406463108103)"><svg width="128.367" height="94.289" viewBox="0 0 128.367 94.289"><path d="M76.534 44.304H50.668c-7.124 0-12.9-5.776-12.9-12.9V12.9c0-7.124 5.776-12.9 12.9-12.9h25.866c7.124 0 12.9 5.776 12.9 12.9v18.504c0 7.125-5.776 12.9-12.9 12.9z" fill="#00676c"/><path d="M112.467 91.289H15.9c-7.124 0-12.9-5.776-12.9-12.9V35.237c0-7.124 5.776-12.9 12.9-12.9h96.567c7.124 0 12.9 5.776 12.9 12.9V78.39c0 7.124-5.776 12.899-12.9 12.899z" fill="#fff"/><path d="M112.467 94.289H15.9c-8.767 0-15.9-7.133-15.9-15.9V35.237c0-8.767 7.133-15.9 15.9-15.9h96.567c8.767 0 15.9 7.133 15.9 15.9V78.39c0 8.767-7.133 15.899-15.9 15.899zM15.9 25.337c-5.459 0-9.9 4.441-9.9 9.9V78.39c0 5.459 4.441 9.9 9.9 9.9h96.567c5.459 0 9.9-4.441 9.9-9.9V35.237c0-5.459-4.441-9.9-9.9-9.9z" fill="#232323"/></svg></g><g transform="translate(306.0 278.0) rotate(0.0 552.0 993.5) scale(1.0930693069306932 1.0931625351688048)"><svg width="1010" height="1817.662" viewBox="0 0 1010 1817.662"><clipPath id="a"><path d="M505.976 79.712h-.644C405 93.073 210 422.073 418 836.073h175.307c208-414 13-743-87.331-756.361z"/></clipPath><path d="M592.189 836.227h-172c-14 71-65.849 488.023-121.189 777.023h211.62l206.38-5c-59.66-296-111.811-700.023-124.811-772.023z" fill="#fff"/><path d="M501 1616.25H299a2.997 2.997 0 0 1-2.946-3.565c36.311-189.622 71.461-436.793 94.72-600.352 12.566-88.365 21.646-152.211 26.472-176.687a3 3 0 0 1 2.943-2.42h172a3 3 0 0 1 2.952 2.467c3.661 20.276 10.321 66.142 19.539 129.621 23.329 160.665 62.376 429.57 105.261 642.342a3 3 0 0 1-2.868 3.592l-206.38 5zm-198.373-6H510.62l202.734-4.912c-42.639-212.371-81.402-479.317-104.612-639.16-8.851-60.955-15.342-105.655-19.067-126.95H422.666c-4.904 25.948-13.795 88.464-25.952 173.951-23.123 162.596-57.99 407.783-94.087 597.071z" fill="#232323"/><path d="M605.189 940.227c0 56.088-70.464 222.795-98.415 222.795-26.088 0-99.585-167.707-99.585-223.795s42.565-100.438 98.653-100.438 99.347 45.35 99.347 101.438z" fill="#d9c6f4"/><path d="M595.929 844.235c0 49.318-63.902 195.802-88.48 195.802-22.939 0-90.118-146.484-90.118-195.802s39.98-89.299 89.299-89.299 89.299 39.981 89.299 89.299zm-257.258-238.59L257.8 708.67a78.73 78.73 0 0 0-16.8 48.611v162.447c0 16.48 22.714 20.863 28.866 5.575 24.751-61.507 64.966-136.067 118.88-153.113L366 594.073z" fill="#fff"/><path d="M256.092 937.71a18.69 18.69 0 0 1-3.546-.338C245.306 935.97 238 929.97 238 919.728V757.281c0-18.214 6.194-36.136 17.44-50.464l80.871-103.024a3.002 3.002 0 0 1 1.19-.91l27.329-11.573a3.004 3.004 0 0 1 4.146 2.383l22.746 178.117a3 3 0 0 1-2.072 3.24c-53.115 16.793-92.942 91.586-117.001 151.373-3.222 8.007-10.129 11.287-16.557 11.287zm84.462-329.604L260.16 710.522C249.739 723.798 244 740.404 244 757.281v162.446c0 7.291 5.219 10.889 9.687 11.754 4.476.866 10.669-.524 13.395-7.299 24.188-60.106 64.237-135.157 118.375-154.061l-21.932-171.744z" fill="#232323"/><path d="M674.329 605.645 755.2 708.67a78.73 78.73 0 0 1 16.8 48.611v163.996c0 16.151-22.292 20.46-28.288 5.464-24.701-61.778-65.122-137.373-119.457-154.552L647 594.073z" fill="#fff"/><path d="M757.194 938.967c-6.325 0-13.117-3.229-16.268-11.112-24.144-60.383-64.14-135.909-117.576-152.805a3.002 3.002 0 0 1-2.072-3.24l22.746-178.117a3.003 3.003 0 0 1 1.481-2.222 3.007 3.007 0 0 1 2.665-.161l27.329 11.573c.467.198.876.511 1.19.91l80.871 103.024c11.247 14.328 17.44 32.25 17.44 50.464v163.996c0 10.086-7.202 15.986-14.339 17.36-1.122.217-2.287.33-3.467.33zM627.543 770.122c54.461 19.018 94.683 94.802 118.955 155.505 2.638 6.599 8.67 7.962 13.029 7.119 4.37-.841 9.474-4.35 9.474-11.469V757.281c0-16.877-5.739-33.483-16.16-46.759l-80.393-102.416-22.972-9.729z" fill="#232323"/><path d="M505.976 79.712h-.644C405 93.073 210 422.073 418 836.073h175.307c208-414 13-743-87.331-756.361z" fill="#fff"/><path d="M593.307 839.072H418a3.001 3.001 0 0 1-2.681-1.653c-62.609-124.616-93.721-250.546-92.473-374.292.99-98.176 23.596-193.963 63.654-269.716 17.628-33.337 38.202-61.865 59.497-82.503 20.599-19.963 40.98-31.778 58.938-34.17.131-.018.263-.026.396-.026h.644c.133 0 .265.009.396.026 17.958 2.392 38.339 14.207 58.938 34.17 21.295 20.638 41.869 49.166 59.497 82.503 40.058 75.753 62.664 171.54 63.654 269.716 1.248 123.746-29.865 249.676-92.473 374.292a2.996 2.996 0 0 1-2.68 1.653zm-173.455-6h171.603c61.621-123.213 92.239-247.65 91.006-369.885-.981-97.236-23.34-192.049-62.959-266.972-33.927-64.16-78.543-108.678-113.729-113.504h-.24c-35.186 4.826-79.802 49.344-113.729 113.504-39.619 74.923-61.978 169.735-62.959 266.972-1.232 122.235 29.386 246.672 91.007 369.885z" fill="#232323"/><path d="m417.379 836.25-34.53 83.587H630.34l-35.76-83.587z" fill="#fff"/><path d="M630.34 922.837H382.849a3 3 0 0 1-2.773-4.145l34.53-83.587a3 3 0 0 1 2.773-1.854H594.58a3 3 0 0 1 2.758 1.82l35.76 83.587a2.999 2.999 0 0 1-2.758 4.179zm-243.006-6h238.459L592.6 839.25H419.386z" fill="#232323"/><g clip-path="url(#a)"><path d="M363 217.073C399.74 88.316 445.984 3 502.687 3c46.556 0 85.716 51.778 118.262 135.806 9.172 23.67 17.822 49.915 25.967 78.267z" fill="#fff"/><path d="M646.916 220.072H363a2.999 2.999 0 0 1-2.885-3.823C401.06 72.757 449.028 0 502.687 0c44.934 0 85.664 46.336 121.06 137.722 8.966 23.139 17.732 49.558 26.053 78.522a3 3 0 0 1-2.884 3.828zm-279.934-6h275.943c-7.94-27.294-16.269-52.233-24.774-74.183C583.741 51.047 544.893 6 502.687 6c-25.994 0-51.154 19.29-74.781 57.335-21.577 34.743-42.066 85.441-60.924 150.737z" fill="#232323"/></g><path d="M624 927.073H389c-5.523 0-10-4.477-10-10s4.477-10 10-10h235c5.523 0 10 4.477 10 10s-4.477 10-10 10z" fill="#fff"/><path d="M624 930.072H389c-7.168 0-13-5.832-13-13s5.832-13 13-13h235c7.168 0 13 5.832 13 13s-5.832 13-13 13zm-235-20c-3.86 0-7 3.141-7 7s3.14 7 7 7h235c3.86 0 7-3.141 7-7s-3.14-7-7-7z" fill="#232323"/><circle cx="505.063" cy="193.95" fill="#232323" r="7.975"/><circle cx="580.025" cy="193.95" fill="#232323" r="7.975"/><circle cx="431.696" cy="193.95" fill="#232323" r="7.975"/><circle cx="506.332" cy="431.115" fill="#d9c6f4" r="70.87"/><path d="M555.901 453.582a3 3 0 0 1-2.805-4.063 52.528 52.528 0 0 0 3.179-13.718 2.995 2.995 0 0 1 3.264-2.71 3 3 0 0 1 2.71 3.265 58.484 58.484 0 0 1-3.542 15.289 3.002 3.002 0 0 1-2.806 1.937zm1.843-33.27a3.001 3.001 0 0 1-2.902-2.249c-4.586-17.709-18.337-31.871-35.885-36.957a3 3 0 0 1 1.671-5.764c19.572 5.674 34.908 21.467 40.023 41.217a3 3 0 0 1-2.907 3.753z" fill="#fff"/><path d="M506.332 524.024c-51.23 0-92.909-41.679-92.909-92.909s41.679-92.909 92.909-92.909 92.91 41.679 92.91 92.909-41.68 92.909-92.91 92.909zm0-179.818c-47.922 0-86.909 38.987-86.909 86.909s38.987 86.909 86.909 86.909 86.91-38.987 86.91-86.909-38.988-86.909-86.91-86.909z" fill="#232323"/><path d="M923.5 1545.073c-11.28 0-22.04 2.24-31.86 6.3-11.25-57.18-61.66-100.3-122.14-100.3-45.91 0-86.01 24.85-107.6 61.83-10.6 18.16-16.73 39.24-16.89 61.75-8.28-3.59-17.41-5.58-27.01-5.58-11.93 0-23.14 3.07-32.88 8.47a80.909 80.909 0 0 0 2.88-21.47c0-44.74-36.26-81-81-81-39.27 0-72 27.93-79.43 65.01-11.97-8.21-26.46-13.01-42.07-13.01-17.48 0-33.55 6.02-46.25 16.09a73.503 73.503 0 0 0-7.34 6.66c-.81-3.11-3.91-11.75-4.68-14.24-18.29-46-63.22-78.51-115.73-78.51-68.76 0-124.5 55.74-124.5 124.5 0 1.4.02 2.79.07 4.17a65.437 65.437 0 0 0-18.57-2.67c-36.17 0-65.5 29.33-65.5 65.5s29.33 65.5 65.5 65.5c7.21 0 14.16-1.17 20.65-3.32 6.83 24.41 29.25 42.32 55.85 42.32 19.65 0 37.02-9.77 47.51-24.72 21.89 38.65 63.4 64.72 110.99 64.72 26.95 0 51.94-8.36 72.53-22.63 27.99 23.62 62.74 39.47 100.94 44.22h48.46c35.79-4.45 68.56-18.65 95.57-39.84 10.79 8.31 24.32 13.25 39 13.25 25.76 0 47.96-15.21 58.1-37.14 21.53 16.83 48.64 26.86 78.09 26.86 48.47 0 90.6-27.18 111.98-67.13 4.97.93 10.09 1.41 15.33 1.41 46.12 0 83.5-37.38 83.5-83.5s-37.38-83.5-83.5-83.5z" fill="#fff"/><g fill="#232323"><path d="M525.43 1817.662h-48.46c-.124 0-.248-.008-.37-.022-37.068-4.609-71.856-19.618-100.754-43.444-21.448 14.321-46.41 21.877-72.346 21.877-45.421 0-87.656-23.775-111.305-62.348-11.541 14.071-28.863 22.348-47.195 22.348-26.222 0-49.576-16.945-57.836-41.573a68.627 68.627 0 0 1-18.664 2.573c-37.771 0-68.5-30.729-68.5-68.5s30.729-68.5 68.5-68.5c5.245 0 10.442.592 15.5 1.762v-.262c0-70.304 57.196-127.5 127.5-127.5 26.03 0 51.067 7.793 72.403 22.537 20.844 14.403 36.79 34.412 46.115 57.864.029.073.055.147.078.222.266.86.841 2.541 1.507 4.488.572 1.672 1.179 3.446 1.721 5.08a76.73 76.73 0 0 1 4.063-3.453c13.81-10.95 30.448-16.738 48.112-16.738 14.255 0 28.027 3.848 40.097 11.167 9.408-36.854 42.966-63.167 81.403-63.167 46.318 0 84 37.683 84 84 0 5.384-.509 10.73-1.518 15.967a71.153 71.153 0 0 1 28.518-5.967c8.312 0 16.405 1.412 24.115 4.203.856-20.745 6.763-41.016 17.193-58.886 22.802-39.056 65.025-63.317 110.191-63.317 59.57 0 111.296 41.517 124.344 99.223 9.483-3.467 19.442-5.223 29.656-5.223 47.696 0 86.5 38.804 86.5 86.5s-38.804 86.5-86.5 86.5c-4.619 0-9.227-.365-13.726-1.087-22.968 41.267-66.287 66.807-113.584 66.807-28.057 0-54.604-8.727-77.018-25.277-11.554 21.717-34.387 35.558-59.172 35.558-14.147 0-27.567-4.309-38.962-12.483-27.756 21.259-60.637 34.749-95.238 39.051a3.73 3.73 0 0 1-.368.02zm-48.273-6h48.087c34.211-4.286 66.677-17.839 93.905-39.2a3 3 0 0 1 3.682-.017c10.725 8.261 23.578 12.627 37.169 12.627 23.697 0 45.434-13.895 55.377-35.398a3 3 0 0 1 4.571-1.104c21.946 17.155 48.31 26.223 76.242 26.223 45.804 0 87.698-25.115 109.335-65.546a3.002 3.002 0 0 1 3.197-1.533 80.46 80.46 0 0 0 14.778 1.359c44.388 0 80.5-36.112 80.5-80.5s-36.112-80.5-80.5-80.5c-10.634 0-20.967 2.043-30.714 6.072a3.004 3.004 0 0 1-4.09-2.193c-11.158-56.715-61.288-97.879-119.196-97.879-43.041 0-83.278 23.122-105.009 60.343-10.631 18.214-16.33 39.051-16.481 60.259a2.999 2.999 0 0 1-4.194 2.731c-8.161-3.539-16.847-5.333-25.817-5.333-11.008 0-21.874 2.799-31.426 8.094a3 3 0 0 1-4.347-3.419 78.001 78.001 0 0 0 2.773-20.675c0-43.01-34.991-78-78-78-37.052 0-69.22 26.327-76.488 62.6a2.999 2.999 0 0 1-4.638 1.883c-11.907-8.167-25.868-12.483-40.373-12.483-16.297 0-31.646 5.339-44.386 15.44a70.814 70.814 0 0 0-7.042 6.39 2.998 2.998 0 0 1-5.065-1.324c-.488-1.874-1.926-6.076-3.081-9.452-.654-1.913-1.223-3.575-1.526-4.541-8.892-22.303-24.073-41.333-43.908-55.04-20.329-14.048-44.186-21.473-68.992-21.473-66.995 0-121.5 54.505-121.5 121.5 0 1.47.022 2.798.068 4.062a3 3 0 0 1-3.848 2.986 62.543 62.543 0 0 0-17.72-2.547c-34.463 0-62.5 28.037-62.5 62.5s28.037 62.5 62.5 62.5a62.559 62.559 0 0 0 19.707-3.167 2.997 2.997 0 0 1 3.832 2.039c6.611 23.627 28.39 40.128 52.961 40.128 17.912 0 34.754-8.764 45.054-23.442a2.966 2.966 0 0 1 2.601-1.273 2.999 2.999 0 0 1 2.466 1.518c22.078 38.982 63.606 63.198 108.38 63.198 25.475 0 49.965-7.641 70.821-22.096a2.998 2.998 0 0 1 3.644.173c28.3 23.88 62.594 38.924 99.191 43.51z"/><path d="M316.009 1577.66a3 3 0 0 1-2.796-4.085c5.588-14.417 15.271-26.731 28.002-35.611 13.03-9.088 28.343-13.892 44.285-13.892 28.443 0 54.554 15.541 68.145 40.558a2.998 2.998 0 1 1-5.272 2.863 71.509 71.509 0 0 0-62.872-37.421c-29.304 0-56.106 18.354-66.693 45.671a3.004 3.004 0 0 1-2.799 1.917zm250.65 17.821a2.999 2.999 0 0 1-2.263-4.967A71.002 71.002 0 0 1 618 1566.073c18.965 0 36.794 7.386 50.205 20.796a3 3 0 1 1-4.243 4.242c-12.277-12.276-28.6-19.038-45.962-19.038a65.005 65.005 0 0 0-49.075 22.377 2.995 2.995 0 0 1-2.266 1.031zM923.5 1715.072c-15.982 0-31.594-4.393-45.15-12.704a3 3 0 0 1 3.136-5.115c12.611 7.732 27.139 11.819 42.014 11.819 44.388 0 80.5-36.112 80.5-80.5s-36.112-80.5-80.5-80.5c-10.492 0-20.131 2.01-30.333 6.325a2.997 2.997 0 0 1-3.932-1.594 3 3 0 0 1 1.594-3.932c10.967-4.64 21.348-6.8 32.671-6.8 47.696 0 86.5 38.804 86.5 86.5s-38.804 86.501-86.5 86.501zm-855 2c-37.771 0-68.5-30.729-68.5-68.5s30.729-68.5 68.5-68.5a68.357 68.357 0 0 1 45.87 17.626 3 3 0 0 1-4.019 4.455 62.368 62.368 0 0 0-41.851-16.081c-34.463 0-62.5 28.037-62.5 62.5s28.037 62.5 62.5 62.5c6.033 0 11.995-.856 17.721-2.546a2.996 2.996 0 0 1 3.727 2.028 3 3 0 0 1-2.028 3.726 68.563 68.563 0 0 1-19.42 2.792zm524.807-878H418a3.001 3.001 0 0 1-2.681-1.653c-62.609-124.616-93.721-250.546-92.473-374.292.99-98.176 23.596-193.963 63.654-269.716 17.628-33.337 38.202-61.865 59.497-82.503 20.599-19.963 40.98-31.778 58.938-34.17.131-.018.263-.026.396-.026h.644c.133 0 .265.009.396.026 17.958 2.392 38.339 14.207 58.938 34.17 21.295 20.638 41.869 49.166 59.497 82.503 40.058 75.753 62.664 171.54 63.654 269.716 1.248 123.746-29.865 249.676-92.473 374.292a2.996 2.996 0 0 1-2.68 1.653zm-173.455-6h171.603c61.621-123.213 92.239-247.65 91.006-369.885-.981-97.236-23.34-192.049-62.959-266.972-33.927-64.16-78.543-108.678-113.729-113.504h-.24c-35.186 4.826-79.802 49.344-113.729 113.504-39.619 74.923-61.978 169.735-62.959 266.972-1.232 122.235 29.386 246.672 91.007 369.885z"/></g></svg></g><g transform="translate(1094.0 853.0) rotate(0.0 584.0 702.0) scale(1.0807869757766768 1.080205238995409)"><svg width="1080.694" height="1299.753" viewBox="0 0 1080.694 1299.753"><clipPath id="b"><path d="M491.579 15.939c11.654-3.234 23.13-5.043 32.579 2.507 22-34 67.855-14.39 69.014 15.234 39.226-19.359 73.592 27.059 53.477 55.498-7.385 10.44-19.398 28.636-18.039 49.061-18.144 4.299-58.428 43.034-58.428 43.034S528.584 91.337 499.5 82.895c-45.735-13.273-32.741-59.484-7.921-66.956z"/></clipPath><clipPath id="c"><path d="m288.565 744.336 53.968-14.245c12.524 47.446 16.898 116.222 4.625 175.355l-58.866-11.253c2.866-48.747 10.597-110.744.273-149.857z"/></clipPath><path d="M574.953 763.71s-172.841-32.076-221.938-45.227c-38.374-10.282-79.036-9.73-116.746 2.769-2.409 14.779-42.807 22.884-52.405 7.86-9.587 2.484-22.574-3.596-22.149-13.347-12.605.708-19.185-12.54-17.736-21.376-15.177 24.197-40.05 48.938-46.304 41.508-10.686-12.697 11.32-58.521 24.38-77.442 36.024-52.191 62.258-53.941 93.778-58.984 133.401-21.345 379.59 20.347 500.772 52.465l-81.666 94.845z" fill="#fff"/><path d="M574.954 766.71c-.183 0-.366-.017-.547-.051-1.73-.32-173.52-32.248-222.167-45.279-38.095-10.207-77.292-9.438-113.466 2.209-2.742 8.272-14.167 13.418-23.639 15.373-10.927 2.258-25.561 1.76-32.546-6.535-6.188.925-13.206-.897-18.044-4.813-3.045-2.464-4.972-5.554-5.607-8.911-4.655-.451-8.9-2.614-12.173-6.256-2.347-2.61-4.083-5.832-5.065-9.199-12.879 18.406-30.372 36.278-40.278 36.97-3.146.214-5.022-1.179-6.041-2.389-5.523-6.562-4.59-19.81 2.773-39.375 6.087-16.176 15.151-32.601 21.433-41.702 35.027-50.747 61.096-54.819 91.281-59.534 1.486-.232 2.983-.466 4.492-.707 75.344-12.054 180.701-3.3 255.817 6.17 83.852 10.569 178.189 28.333 246.197 46.356a3.002 3.002 0 0 1 1.505 4.858l-81.666 94.845a2.995 2.995 0 0 1-1.458.93l-59.986 16.93c-.267.072-.541.11-.815.11zm-276.268-58.46c18.334 0 36.842 2.441 55.105 7.335 46.86 12.552 209.032 42.815 221.021 45.048l58.442-16.493 77.943-90.521c-67.378-17.539-159.059-34.686-240.772-44.985-74.728-9.42-179.475-18.141-254.119-6.199-1.516.243-3.02.478-4.514.711-28.818 4.502-53.707 8.39-87.269 57.015-15.362 22.256-32.826 63.977-24.553 73.806.094.112.271.319 1.033.267 6.986-.488 26.17-18.694 40.434-41.437a3 3 0 0 1 5.502 2.079c-.718 4.378 1.045 9.954 4.287 13.562 1.918 2.133 5.267 4.604 10.321 4.334a3.027 3.027 0 0 1 2.276.86c.603.596.926 1.419.889 2.266-.144 3.302 1.882 5.658 3.606 7.055 3.906 3.161 9.989 4.504 14.793 3.257a3.006 3.006 0 0 1 3.28 1.289c4.37 6.842 17.333 7.692 27.529 5.59 10.589-2.185 18.561-7.25 19.386-12.317a3 3 0 0 1 2.017-2.365c20.405-6.766 41.763-10.157 63.363-10.157z" fill="#232323"/><path d="M171.645 712.786c-2.101 0-3.671-.723-4.698-1.422-5.959-4.058-6.831-16.097-2.169-29.958 10.443-31.054 33.179-50.088 34.141-50.884a3.001 3.001 0 0 1 3.822 4.626c-.273.227-22.409 18.829-32.276 48.17-2.558 7.607-4.372 20.205-.141 23.086 1.472 1.006 4.167.02 7.393-2.695a438.49 438.49 0 0 0 5.932-5.118c9.078-7.931 18.465-16.131 33.102-22.762 7.868-3.565 15.098-6.228 22.09-8.801 18.974-6.986 33.961-12.504 47.366-31.148a3 3 0 0 1 4.872 3.502c-14.477 20.139-31.015 26.227-50.165 33.276-6.891 2.537-14.017 5.16-21.687 8.636-13.832 6.267-22.88 14.171-31.631 21.815-1.955 1.708-3.977 3.475-6.015 5.189-4.076 3.431-7.395 4.487-9.936 4.488z" fill="#232323"/><path d="M143.753 697.308a3 3 0 0 1-2.82-4.025c3.66-10.088 12.422-23.772 33.377-31.673a3 3 0 0 1 2.116 5.615c-18.821 7.095-26.622 19.199-29.853 28.104a3 3 0 0 1-2.82 1.979zm17.408 22.14a2.998 2.998 0 0 1-2.945-3.589c1.077-5.388 2.242-7.771 4.446-11.076a3 3 0 1 1 4.992 3.328c-1.758 2.637-2.625 4.277-3.554 8.924a3.003 3.003 0 0 1-2.939 2.413zm23.027 13.013a3.038 3.038 0 0 1-2.525-1.348c-1.111-1.662-2.54-5.644-.848-10.024 2.461-6.373 10.397-11.273 23.589-14.564 13.256-3.307 22.991-2.591 28.935 2.128 5.364 4.258 5.856 10.336 5.819 12.751-.026 1.647-1.418 3.012-3.023 2.998-1.648-.013-2.977-1.308-2.977-2.955l.001-.137c.024-1.526-.275-5.358-3.55-7.958-4.346-3.448-12.559-3.797-23.752-1.005-14.537 3.627-18.397 8.324-19.404 10.801-1.045 2.572.173 4.588.225 4.673a2.98 2.98 0 0 1-.84 4.141 2.96 2.96 0 0 1-1.65.499z" fill="#232323"/><path d="M217.16 710.448a3 3 0 0 1-1.27-5.719c9.869-4.605 13.956-11.472 12.206-15.449-1.744-3.963-9.652-5.733-22.894-.253a3 3 0 0 1-2.294-5.545c18.229-7.543 27.92-2.895 30.68 3.382 3.889 8.839-4.683 18.413-15.16 23.303a3.02 3.02 0 0 1-1.268.281z" fill="#232323"/><path d="M620.939 319.38c-72.003 39.456-42.58 142.459-47.126 286.673 0 0-47.512 2.668-185.32-9.047l-28.1 123.165c111.104 38.505 165.944 48.479 274.024 64.372 143.232 21.063 157.742-62.097 152.742-236.097-6.27-218.154-102.884-263.773-166.22-229.066z" fill="#fff"/><path d="M674.47 790.778c-12.266 0-25.725-1.095-40.49-3.267-109.164-16.053-164.562-26.382-274.57-64.505a3 3 0 0 1-1.942-3.502l28.1-123.165a3 3 0 0 1 3.179-2.322c118.088 10.039 170.215 9.475 182.151 9.141 1.048-36.677-.078-71.102-1.074-101.564-2.94-89.897-5.064-154.851 49.673-184.845l1.442 2.631-1.442-2.631c26.711-14.637 57.163-14.359 83.546.759 30.56 17.514 82.514 70.793 87.114 230.853 1.295 45.071 1.785 96.556-4.399 136.673-6.033 39.138-17.722 65.26-36.786 82.21-17.784 15.81-41.931 23.534-74.502 23.534zm-310.555-72.563c107.844 37.238 163.013 47.489 270.937 63.36 52.084 7.657 87.079 1.68 110.132-18.816 36.969-32.868 42.358-103.438 39.175-214.227-4.515-157.135-54.629-208.93-84.099-225.818-24.529-14.058-52.843-14.314-77.68-.703-23.992 13.147-37.428 33.626-43.566 66.402-5.694 30.404-4.442 68.673-2.993 112.984 1.024 31.326 2.186 66.832.99 104.75a3 3 0 0 1-2.83 2.9c-.474.03-48.673 2.515-183.143-8.833z" fill="#232323"/><circle cx="393.866" cy="703.397" fill="#232323" r="7.844"/><path d="M418.16 740.448a3 3 0 0 1-2.89-3.809c16.964-60.612 26.355-105.94 31.944-134.763a3.001 3.001 0 0 1 5.89 1.143c-5.608 28.925-15.033 74.414-32.056 135.237a3.004 3.004 0 0 1-2.888 2.192z" fill="#232323"/><path d="M789.894 1102.292s58.764-42.346 118.1-102.725c0 0 119.398 135.59 153.716 192.353 18.624 30.805 17.816 52.617 14.771 64.975l-.123.034c-.062.017-.151.044-.262.07-.003.003-.007.003-.01 0l-.001-.001c-4.809 1.121-52.98 11.175-117.709-22.324-10.087-5.227-40.753-23.273-66.398-51.075-17.548-19.025-29.63-37.16-43.565-47.512-22.011-16.354-46.03-17.393-58.519-33.795z" fill="#fff"/><path d="M1051.827 1261.797c-21.465 0-55.027-4.381-94.616-24.87-3.823-1.98-38.172-20.251-67.097-51.608-6.394-6.933-11.957-13.614-17.336-20.076-9.244-11.104-17.228-20.694-25.877-27.12-9.539-7.086-19.345-11.172-28.829-15.123-11.75-4.896-22.848-9.519-30.197-19.17a2.534 2.534 0 0 1 .535-3.596c.586-.423 59.282-42.926 117.773-102.446.494-.503 1.173-.804 1.88-.758a2.54 2.54 0 0 1 1.835.859c1.196 1.358 119.942 136.412 153.984 192.717 10.224 16.912 21.137 42.247 15.063 66.896a2.537 2.537 0 0 1-1.842 1.853l-.008-.024c-.035.016-.07.029-.105.043l.003.013c-.091.025-.203.057-.333.087v-.001a1.462 1.462 0 0 1-.115.023c-2.295.527-11.057 2.301-24.718 2.301zm24.707-4.142.067.1-.259-.821zm-282.971-154.906c6.5 7.25 15.813 11.129 26.461 15.565 9.312 3.88 19.865 8.276 29.904 15.734 9.135 6.786 17.298 16.593 26.751 27.947 5.339 6.413 10.859 13.044 17.166 19.882 28.337 30.721 61.959 48.604 65.699 50.542 60.309 31.213 105.848 24.191 114.822 22.355 4.851-22.499-5.314-45.805-14.828-61.542-31.516-52.128-136.583-172.728-151.653-189.94-51.781 52.364-103.237 91.252-114.322 99.457z" fill="#232323"/><path d="M791.222 1101.433c4.902 6.998 17.054 13.644 23.889 16.562 60.337 25.756 56.16 53.893 92.62 83.035 37.919 31.022 83.678 54.398 133.058 57.87l.006-.005c6.833.488 14.751.487 20.643.062-.878-69.901-53.993-112.839-84.193-124.919-34.541-13.817-33.164-24.499-47.559-36.279-14.785-12.099-30.139-8.755-43.346-23.94-15.238-17.519-14.106-38.704-14.106-38.704s-29.839 32.476-81.012 66.318z" fill="#232323"/><path d="M923.319 1079.655c-2.526 0-5.27-.611-8.128-1.836-5.677-2.435-11.236-7.071-15.654-13.057-9.566-12.959-10.742-27.775-2.677-33.729 4.051-2.988 9.659-3.188 15.789-.561 5.677 2.434 11.236 7.071 15.654 13.057 4.418 5.984 7.211 12.663 7.865 18.805.706 6.633-1.136 11.933-5.188 14.923-2.163 1.597-4.769 2.398-7.661 2.398zm-18.777-45.939c-1.817 0-3.401.467-4.667 1.401-5.583 4.121-3.867 16.316 3.747 26.631 3.89 5.271 8.71 9.32 13.57 11.404 4.406 1.89 8.232 1.896 10.774.021 2.542-1.876 3.662-5.534 3.154-10.302-.56-5.259-3.01-11.058-6.901-16.327-3.891-5.271-8.71-9.322-13.57-11.406-2.212-.948-4.277-1.422-6.107-1.422z" fill="#232323"/><path d="M878.935 1147.913a2.117 2.117 0 0 1-1.85-1.086c-12.283-22.044-11.977-30.253-11.367-46.608.116-3.125.249-6.667.305-10.652.231-16.472-9.621-31.943-9.721-32.098a2.116 2.116 0 0 1 3.553-2.296c.435.673 10.647 16.675 10.397 34.452-.057 4.035-.19 7.604-.307 10.752-.599 16.054-.872 23.381 10.835 44.392a2.115 2.115 0 0 1-1.845 3.144z" fill="#fff"/><path d="M927.282 1223.173a6.347 6.347 0 0 1-5.88-3.957c-15.277-37.573 2.089-73.104 2.836-74.598a6.345 6.345 0 1 1 11.351 5.674c-.151.305-15.499 32.005-2.432 64.145a6.346 6.346 0 0 1-5.875 8.736zm28.611 17.476a6.348 6.348 0 0 1-5.829-3.833c-17.043-39.502-.187-73.947.539-75.394a6.345 6.345 0 1 1 11.343 5.69c-.143.289-14.863 30.761-.23 64.677a6.346 6.346 0 0 1-5.823 8.86zm28.926 13.988a6.346 6.346 0 0 1-5.799-3.763c-15.938-35.746-1.868-66.281-1.261-67.563a6.345 6.345 0 0 1 11.471 5.428c-.114.245-12.108 26.717 1.38 56.968a6.346 6.346 0 0 1-5.791 8.93z" fill="#d9c6f4"/><path d="M697.568 1223.831s-12.651 72.912 44.219 70.951c57.388-1.979 47.065-144.137-19.61-196.105-12.767 2.709-20.507 81.952-24.609 125.154z" fill="#232323"/><path d="M739.561 1297.821c-14.104 0-25.227-4.566-33.091-13.593-18.164-20.848-12.353-57.966-11.878-60.791 8.618-90.737 15.928-125.354 26.962-127.694a2.993 2.993 0 0 1 2.467.568c22.66 17.661 40.627 46.753 50.59 81.915 9.074 32.021 10.044 64.843 2.595 87.797-6.463 19.916-19.005 31.194-35.315 31.757-.785.027-1.563.041-2.33.041zm-17.717-195.574c-2.032 2.006-6.874 10.27-12.258 44.292-4.164 26.312-7.211 58.403-9.031 77.576a2.995 2.995 0 0 1-.031.229c-.063.366-6.136 36.903 10.48 55.956 7.046 8.079 17.365 11.944 30.679 11.484 17.431-.602 25.835-15.348 29.815-27.613 14.3-44.062-4.715-125.435-49.654-161.924zm-24.276 121.585h.01z" fill="#232323"/><path d="M898.248 1174.076s-2.31 1.04-6.7 2.91c-13.1 5.6-44.77 18.65-89.23 33.83-2.58.89-5.21 1.78-7.88 2.67-7.37 2.48-15.07 5-23.06 7.55-91.73 29.24-222.61 61.82-356.6 64.53l281.38-186.12c19.6-1.55 38.23-4.64 55.08-8.38v-.01c6.8-1.5 13.3-3.12 19.46-4.78 2.72-.73 5.38-1.47 7.96-2.21 7.68-2.22 14.73-4.47 21.04-6.61 21.09-7.2 33.84-13.28 33.84-13.28 44 15.03 64.71 109.9 64.71 109.9z" fill="#fff"/><path d="M414.778 1288.567a3.001 3.001 0 0 1-1.655-5.502l281.38-186.12c.424-.28.912-.448 1.418-.488 17.637-1.396 35.947-4.176 54.426-8.265.08-.025.162-.047.245-.065a433.467 433.467 0 0 0 19.325-4.746 488.356 488.356 0 0 0 7.914-2.197 485.096 485.096 0 0 0 20.903-6.567c20.646-7.049 33.386-13.087 33.512-13.147a2.999 2.999 0 0 1 2.261-.131c45.082 15.399 65.811 108.158 66.671 112.1a3 3 0 0 1-1.699 3.375 399.63 399.63 0 0 1-6.756 2.935c-11.785 5.037-44.097 18.429-89.437 33.909-2.581.891-5.22 1.783-7.9 2.677a1557.67 1557.67 0 0 1-23.097 7.562c-87.778 27.979-221.044 61.912-357.452 64.671l-.059-.001zm282.39-186.192-272.006 179.92c132.023-4.204 260.153-36.974 345.305-64.117a1569.67 1569.67 0 0 0 23.015-7.535c2.667-.89 5.288-1.776 7.858-2.662 45.156-15.418 77.303-28.74 89.029-33.753 1.83-.779 3.301-1.416 4.389-1.891-3.525-14.517-23.69-90.792-61.074-104.921-3.589 1.645-15.331 6.841-33.017 12.879a488.928 488.928 0 0 1-21.176 6.653 491.28 491.28 0 0 1-8.015 2.226 439.763 439.763 0 0 1-19.349 4.758 2.637 2.637 0 0 1-.24.063c-18.561 4.12-36.967 6.938-54.719 8.38z" fill="#232323"/><path d="M891.548 1176.986c-13.1 5.6-44.77 18.65-89.23 33.83-2.58.89-5.21 1.78-7.88 2.67-7.37 2.48-15.07 5-23.06 7.55-6.92-64.56-17.24-116.13-20.14-129.97v-.01c6.8-1.5 13.3-3.12 19.46-4.78 2.72-.73 5.38-1.47 7.96-2.21 7.68-2.22 14.73-4.47 21.04-6.61 79.07 5.85 90.27 78.02 91.85 99.53z" fill="#d9c6f4"/><path d="M802.318 1210.816c-2.58.89-5.21 1.78-7.88 2.67l-23.74-127.21c2.72-.73 5.38-1.47 7.96-2.21z" fill="#fff"/><path d="M414.775 1288.566a3.001 3.001 0 0 1-1.655-5.502l281.383-186.119c.424-.28.912-.448 1.419-.488 74.528-5.885 135.719-34.697 136.329-34.987a2.995 2.995 0 0 1 2.261-.131c45.083 15.403 65.812 108.152 66.672 112.094a3 3 0 0 1-1.699 3.375c-.593.268-60.327 27.016-149.476 54.008-82.29 24.916-207.238 55.16-335.172 57.75h-.062zm282.393-186.191L425.16 1282.293c123.582-3.949 243.425-33.094 323.109-57.221 79.087-23.946 134.843-47.66 146.492-52.741-3.525-14.517-23.69-90.792-61.08-104.916-8.803 3.999-66.838 29.307-136.513 34.96z" fill="#232323"/><path d="M973.158 821.446c-3 52-32 243-249 275-143.575 21.172-308.861 9.899-376 2-204-24-254.345-132.824-128-210 203-124 476.525-116.283 476.525-116.283z" fill="#00676c"/><path d="M348.597 1097.697s173.553 25.494 377.501-2.942c0 0 6.147 36.49-10.786 93.15-25.494 85.306 12.807 110.313 27.845 109.841-405.937 12.747-616.02-34.427-647.536-165.043-23.936-99.201 36.436-191.277 140.538-254.517 69.197-42.035 237.999 108.26 112.438 219.511z" fill="#00676c"/><path d="M799.658 1072.946s65-22 140-70c0 0 81.78 161.098 100.846 224.629 10.346 34.479 4.12 55.398-1.912 66.606l-.128.002c-.064.001-.158.005-.271.002-.003.002-.008.001-.01-.003v-.001c-4.936-.115-54.093-2.401-108.413-50.994-8.464-7.579-33.655-32.708-51.55-66.03-12.244-22.802-19.418-43.379-30.328-56.881-17.234-21.33-40.234-28.33-48.234-47.33z" fill="#fff"/><path d="m1038.261 1296.724-.134-.002a3.8 3.8 0 0 1-.104-.005c-5.976-.157-55.52-2.949-109.945-51.639-3.208-2.872-31.911-29.139-52.094-66.721-4.462-8.309-8.18-16.167-11.777-23.767-6.181-13.061-11.519-24.34-18.29-32.721-7.468-9.242-15.945-15.646-24.143-21.839-10.156-7.673-19.75-14.921-24.457-26.1a2.537 2.537 0 0 1 1.525-3.389c.647-.219 65.597-22.47 139.446-69.733a2.534 2.534 0 0 1 3.631.989c.819 1.612 82.102 162.027 101.014 225.048 5.68 18.929 9.925 46.185-2.109 68.538-.453.842-1.337 1.406-2.297 1.334-.095.005-.18.007-.266.007zm-235.114-222.321c4.496 8.59 12.52 14.652 21.688 21.578 8.049 6.081 17.171 12.973 25.031 22.7 7.152 8.851 12.61 20.384 18.93 33.738 3.569 7.543 7.26 15.342 11.661 23.536 19.772 36.819 47.868 62.53 51.007 65.341 50.623 45.287 96.463 49.848 105.61 50.304 10.312-20.576 6.286-45.681 1-63.295-17.491-58.283-89.002-201.047-99.417-221.711-64.948 41.208-122.62 63.144-135.51 67.809z" fill="#232323"/><path d="M801.158 1072.446c3 8 13.109 17.468 19 22 52 40 40.932 66.204 68.966 103.523 28.977 39.504 67.454 73.56 114.405 89.247l.007-.003c6.495 2.178 14.162 4.153 19.975 5.212 16.595-67.908-24.123-122.743-50.353-141.978-30-22-26-32-37-47-11.298-15.406-27-16-36-34-10.384-20.767-4-41-4-41s-37 23.999-95 43.999z" fill="#232323"/><path d="M938.007 1084.783c-3.51 0-7.257-1.446-10.91-4.266-4.889-3.773-9.116-9.65-11.9-16.549-6.029-14.938-3.47-29.578 5.825-33.33 4.67-1.886 10.149-.678 15.43 3.397 4.889 3.774 9.115 9.651 11.9 16.55s3.822 14.063 2.923 20.174c-.972 6.599-4.079 11.271-8.748 13.155-1.44.582-2.957.869-4.52.869zm-12.468-49.931c-.923 0-1.8.163-2.617.493-6.435 2.598-7.817 14.835-3.018 26.723 2.452 6.075 6.108 11.2 10.294 14.431 3.795 2.929 7.499 3.891 10.428 2.709 2.929-1.183 4.927-4.445 5.626-9.188.771-5.231-.156-11.458-2.608-17.533s-6.108-11.2-10.294-14.432c-2.736-2.113-5.426-3.203-7.811-3.203z" fill="#232323"/><path d="M875.02 1139.412a2.117 2.117 0 0 1-2.045-1.579c-6.393-24.412-4.048-32.285.624-47.969.893-2.998 1.905-6.396 2.954-10.242 4.345-15.93-1.344-33.332-1.402-33.506a2.116 2.116 0 0 1 4.014-1.338c.253.76 6.149 18.805 1.47 35.957-1.062 3.894-2.082 7.316-2.981 10.336-4.586 15.396-6.679 22.423-.586 45.689a2.115 2.115 0 0 1-2.048 2.652z" fill="#fff"/><path d="M904.104 1224.49a6.345 6.345 0 0 1-6.28-5.498c-5.416-40.197 20.268-70.27 21.364-71.529a6.342 6.342 0 0 1 8.951-.625 6.344 6.344 0 0 1 .625 8.951c-.222.258-22.996 27.125-18.363 61.508a6.345 6.345 0 0 1-6.297 7.193zm23.343 24.062a6.346 6.346 0 0 1-6.261-5.365c-6.646-42.506 18.274-71.653 19.338-72.873a6.345 6.345 0 1 1 9.563 8.342c-.21.244-22.069 26.076-16.364 62.57a6.345 6.345 0 0 1-6.276 7.326zm24.519 20.765a6.345 6.345 0 0 1-6.249-5.29c-6.513-38.592 14.733-64.648 15.64-65.739a6.345 6.345 0 1 1 9.753 8.12c-.172.209-18.392 22.849-12.881 55.509a6.345 6.345 0 0 1-6.263 7.4z" fill="#d9c6f4"/><path d="M538.493 1110.297c-54.139 0-117.656-2.418-190.112-9.041a2.999 2.999 0 0 1-2.714-3.261 2.995 2.995 0 0 1 3.261-2.714c194.969 17.82 327.072 4.393 374.819-2.207a3 3 0 1 1 .822 5.944c-36.674 5.07-99.33 11.279-186.076 11.279z" fill="#fff"/><path d="M491.579 15.939a37.686 37.686 0 0 1 33.602 6.871c18.814-34.965 66.832-18.754 67.99 10.87 39.226-19.359 73.592 27.059 53.477 55.498-7.385 10.44-19.141 29.77-17.781 50.196-18.144 4.299-58.686 41.9-58.686 41.9S528.584 91.337 499.5 82.895c-45.735-13.273-32.741-59.484-7.921-66.956z" fill="#232323"/><path d="M570.181 184.275a3.003 3.003 0 0 1-2.723-1.741c-.104-.225-10.513-22.649-24.312-45.788-17.957-30.11-33.339-47.735-44.482-50.971-29.314-8.508-32.575-28.599-32.616-36.843-.081-16.189 10.523-31.608 24.667-35.867l.062-.018c11.429-3.174 23.705-1.152 33.489 5.38 10.959-17.36 28.702-20.451 42.128-17.345 15.33 3.545 26.816 14.823 29.297 28.208 17.572-6.862 36.391-2.21 48.885 12.42 12.663 14.827 14.522 35.06 4.521 49.199-12.402 17.533-18.202 33.772-17.237 48.265a3 3 0 0 1-2.302 3.118c-6.984 1.655-19.065 9.249-34.935 21.962-12.181 9.758-22.302 19.126-22.402 19.219a2.991 2.991 0 0 1-2.04.802zM492.413 18.821c-11.489 3.479-20.432 16.685-20.365 30.083.073 14.574 10.384 25.914 28.289 31.11 26.932 7.817 62.491 78.946 70.823 96.312 9.398-8.46 38.112-33.514 54.609-39.166-.314-15.257 5.878-31.968 18.431-49.714 8.414-11.896 6.693-29.101-4.185-41.838-9.207-10.78-25.998-18.868-45.515-9.237a3 3 0 0 1-4.325-2.573c-.489-12.511-10.824-23.56-25.132-26.868-11.999-2.778-28.077.312-37.219 17.304a3.004 3.004 0 0 1-2.042 1.518 2.995 2.995 0 0 1-2.473-.596c-8.663-6.922-20.21-9.287-30.896-6.335z" fill="#232323"/><path clip-path="url(#b)" d="M540.156 42.448a3 3 0 0 1-2.883-2.177c-5.539-19.387-16.163-24.011-16.269-24.055a3 3 0 1 1 2.308-5.539c.544.228 13.406 5.811 19.731 27.945a3 3 0 0 1-2.887 3.826z" fill="#fff"/><path d="M433.726 185.241c-3.081 10.065.01 21.929 9.444 30.349 24.559 21.922 63.266 21.484 63.266 21.484s21.011 28.143 29.751 116.519c0 0 56.306-17.892 123.338-71.866-16.51-.971-42.731-36.904-46.948-70.735 20.359 1.709 46.862-13.415 47.922-41.279.601-15.894-13.425-29.894-29.738-30.883-16.753-1.016-30.354 9.914-45.756 20.66-17.413 12.147-18.826-1.506-20.899-18.78-1.333-11.093-2.93-23.678-9.219-31.876C540.672 90.296 499.5 82.895 499.5 82.895s-1.371 5.271-3.56 11.785c-2.894 8.611-7.235 19.381-11.73 22.987-7.899 6.325-13.706 3.581-15.079 8.605-1.177 4.306 2.474 10.701 4.755 13.641-8.76 29.23-32.965 21.842-40.16 45.328z" fill="#fff"/><g fill="#232323"><path d="M536.188 356.593a3 3 0 0 1-2.986-2.705c-6.562-66.346-20.933-102.604-28.342-113.828-7.776-.17-41.126-2.093-63.688-22.231-9.96-8.89-13.913-21.713-10.315-33.465v-.001c3.739-12.207 11.752-16.896 19.501-21.432 8.137-4.763 15.838-9.27 20.214-22.483-1.936-2.831-5.841-9.459-4.335-14.966 1.155-4.228 4.481-5.158 7.415-5.979 2.498-.699 5.329-1.491 8.682-4.177 3.045-2.443 6.968-10.317 10.761-21.602 2.126-6.328 3.487-11.532 3.501-11.584a3 3 0 0 1 3.434-2.197c1.728.311 42.484 7.827 57.237 27.066 6.889 8.979 8.512 22.488 9.817 33.343l.073.606c1.081 9.018 2.199 18.343 5.683 19.904 1.946.872 5.656-.489 10.448-3.833 1.429-.997 2.843-1.996 4.245-2.986 13.969-9.869 27.158-19.194 43.408-18.207 18.302 1.109 33.209 16.676 32.554 33.99-.597 15.689-8.511 25.877-15.045 31.66-8.898 7.876-21.008 12.542-32.382 12.634 2.417 14.275 8.817 29.702 17.846 42.864 8.784 12.806 18.906 21.343 25.786 21.747a3 3 0 0 1 1.705 5.332c-66.698 53.704-123.742 72.208-124.311 72.389a2.986 2.986 0 0 1-.906.141zm-29.751-122.519a3 3 0 0 1 2.404 1.205c.865 1.159 21.014 28.999 29.946 114.225 12.906-4.73 59.799-23.644 114.191-66.4-18.173-7.824-39.688-42.143-43.377-71.74a3 3 0 0 1 .813-2.449 3.027 3.027 0 0 1 2.415-.911c10.824.9 22.948-3.31 31.646-11.008 5.657-5.008 12.51-13.825 13.026-27.396.526-13.894-12.054-26.872-26.922-27.774-14.138-.832-25.931 7.474-39.583 17.119-1.412.997-2.835 2.003-4.275 3.007-6.971 4.862-12.162 6.255-16.334 4.388-6.585-2.95-7.791-13.014-9.188-24.666l-.073-.604c-1.217-10.127-2.732-22.731-8.621-30.407-11.325-14.769-41.656-22.281-50.858-24.267a211.147 211.147 0 0 1-2.865 9.241c-4.332 12.89-8.604 21.089-12.696 24.372-4.311 3.452-8.072 4.505-10.818 5.273-2.885.807-3.031 1.001-3.244 1.783-.695 2.539 1.656 7.691 4.231 11.011.594.766.782 1.771.504 2.7-4.964 16.562-14.743 22.285-23.371 27.334-7.374 4.315-13.742 8.043-16.795 18.012-2.904 9.485.381 19.92 8.573 27.231 23.422 20.907 60.858 20.741 61.235 20.722l.036-.001z"/><path d="M506.44 237.075s24.176-2.326 40.369-16.283c4.243 3.96 2.075 34.839-27.377 41.695-8.274-20.041-12.992-25.412-12.992-25.412z"/><path d="M519.431 265.487a3 3 0 0 1-2.772-1.855c-7.863-19.042-12.445-24.542-12.49-24.596a3.017 3.017 0 0 1-.503-3.079 3 3 0 0 1 2.486-1.868c.338-.033 23.48-2.452 38.698-15.568a2.997 2.997 0 0 1 4.005.079c3.4 3.174 3.07 11.651 1.324 18.186-1.853 6.934-8.491 23.602-30.068 28.624a3.09 3.09 0 0 1-.68.077zm-7.84-26.134c2.137 3.541 5.398 9.64 9.602 19.566 14.357-4.279 20.119-14.775 22.308-20.859 1.844-5.128 2.133-9.56 1.891-12.312-11.92 8.738-26.389 12.282-33.801 13.605zm37.222-121.663c4.981-30.732-35.08-35.988-32.786-23.414.309 1.693 1.342 3.172 2.703 4.227 6.897 5.348 13.134 10.503 18.813 17.35 2.288 3.503 9.514 8.139 11.27 1.837zm-23.343 10.036c-3.983-2.75-13.694-9.129-21.375-18.172a2.991 2.991 0 0 0-4.216-.351l-.027.024c-3.254 2.802-7.708 8.256-1.684 13.745 7.402 6.745 22.578 9.876 27.201 7.36a1.538 1.538 0 0 0 .101-2.606zm-50.157 41.429a12.974 12.974 0 0 0 3.874 3.898 17.562 17.562 0 0 0 4.913 2.23 18.332 18.332 0 0 0 15.716-2.347 18.026 18.026 0 0 0 4.01-3.723 15.295 15.295 0 0 0 3.443-10.119 1.844 1.844 0 0 0-3.634-.345l-.019.08a15.1 15.1 0 0 1-3.82 6.914 15.328 15.328 0 0 1-3.065 2.44 15.019 15.019 0 0 1-3.553 1.617c-2.553.722-5.238.84-7.845.347a14.534 14.534 0 0 1-7.15-3.272l-.067-.061a1.844 1.844 0 0 0-2.806 2.337zm124.416 15.117a2.998 2.998 0 0 1-2.659-4.381c.146-.28 14.902-27.946 42.97-19.312a3 3 0 0 1-1.765 5.734c-9.693-2.981-18.617-1.22-26.522 5.238-6.113 4.994-9.33 11.051-9.362 11.111a3.002 3.002 0 0 1-2.662 1.61zm12.851 29.72-.11-.002c-13.005-.47-26.933-6.539-27.52-6.797a3 3 0 0 1-1.537-3.953 2.997 2.997 0 0 1 3.953-1.539c.134.059 13.483 5.865 25.321 6.293a3 3 0 0 1-.107 5.998z"/></g><path d="M964.78 862.288c42.346-249.244-115.41-518.891-316.625-585.467L536.07 351.045c-29.912 154.401-1.912 341.401 31.088 428.401-1.09-1.542 139 83 397.622 82.842z" fill="#fff"/><path d="M964.04 865.288c-100.161 0-194.333-12.498-279.922-37.152-30.525-8.792-75.432-23.718-116.022-44.892-.721-.376-1.411-.735-1.771-.914a2.997 2.997 0 0 1-1.982-1.843c-17.688-46.644-32.382-117.549-39.308-189.678-5.816-60.57-9.133-151.435 8.089-240.333a3.001 3.001 0 0 1 1.289-1.931l112.085-74.225a2.994 2.994 0 0 1 2.599-.348c98.202 32.492 189.808 114.729 251.328 225.626 30.567 55.1 52.095 113.927 63.986 174.848 12.532 64.203 13.65 127.571 3.325 188.345a3 3 0 0 1-2.956 2.497h-.74zm.74-3h.01zm-395.249-85.05c.414.203.859.436 1.34.687 40.148 20.943 84.647 35.729 114.908 44.445 84.534 24.351 177.537 36.768 276.461 36.917 9.753-59.295 8.504-121.081-3.717-183.691-11.771-60.303-33.082-118.537-63.344-173.087-60.509-109.071-150.32-190.042-246.586-222.379l-109.816 72.722c-29.994 156.61-.241 341.698 30.754 424.386z" fill="#232323"/><path d="M567.158 779.446c137 77 400.707 90.652 397.811 84.846 3-13 5-30 5.807-50.727-222.617 11.881-416.617-79.119-416.617-79.119s3.999 25 12.999 45z" fill="#232323"/><path d="M952.646 868.502c-6.987 0-17.494-.376-33.387-1.446-18.586-1.253-56.958-4.445-105.123-11.761-73.858-11.217-176.915-33.028-248.448-73.233a2.997 2.997 0 0 1-1.266-1.384c-9.059-20.133-13.061-44.721-13.227-45.758a2.999 2.999 0 0 1 4.237-3.189c.484.227 49.242 22.924 124.49 43.877 69.393 19.324 176.156 41.077 290.694 34.962a3 3 0 0 1 3.158 3.112c-.793 20.381-2.74 37.493-5.787 50.871a3.235 3.235 0 0 1-1.011 2.173c-.61.58-1.868 1.776-14.33 1.776zm-383.152-91.185c69.748 38.912 169.83 60.327 241.646 71.449 79.237 12.271 141.093 14.678 151.234 13.393 2.668-12.133 4.437-27.392 5.265-45.429-114.152 5.578-220.268-16.103-289.459-35.378-61.478-17.128-105.424-35.434-120.023-41.827 1.662 8.233 5.356 24.17 11.337 37.792z" fill="#232323"/><path d="M569.358 771.349a9.587 9.587 0 0 1-1.658 7.468l-26.791 36.741c-2.829 3.88-8.629 3.849-11.416-.063l-32.077-36.481a10.588 10.588 0 0 1-2.597-6.037c-2.105-23.298-33.662-194.532 20.948-349.632.552-1.568.91-3.2 1.37-4.81v-.008c-3.976-16.091 3.02-48.083 18.93-67.482.83 37.04 0 78.61 0 78.61s-.2 1.46-.52 4.23c-.14 1.2-.31 2.65-.49 4.33-3.751 34.623 8.084 197.603 34.301 333.134z" fill="#d9c6f4"/><path d="M535.548 433.886c-.14 1.2-.31 2.65-.49 4.33-3.46-1.63-7.3-4.05-10.92-6.91-3.06-2.41-5.96-5.13-8.37-7.96.45-1.6.91-3.2 1.37-4.81-.01-.04-.02-.08-.03-.13 4.43 6.12 12.05 12.18 18.44 15.48z" fill="#fff"/><path d="M546.645 451.299a10.6 10.6 0 0 1-2.926-.425c-7.129-2.039-10.565-14.276-11.142-39.681-.467-20.551 1.188-45.844 2.658-63.442.138-1.651 1.59-2.888 3.239-2.739a3 3 0 0 1 2.74 3.239c-7.587 90.812 2.93 96.504 4.154 96.854 7.181 2.045 16.169-17.666 24.858-36.738 9.435-20.71 20.128-44.184 35.054-59.896 8.336-8.775 39.314-38.666 87.929-54.87a2.998 2.998 0 0 1 3.795 1.897 2.999 2.999 0 0 1-1.897 3.794c-47.296 15.766-77.382 44.791-85.476 53.312-14.233 14.981-24.705 37.969-33.944 58.25-10.556 23.172-18.426 40.445-29.042 40.445z" fill="#232323"/><path d="M419.689 910.99c-33.959-4.156-67.2-8.439-97.809-11.094-96.09-8.335-121.114-2.226-190.668-2.452-14.939-.049-42.731-2.914-46.616-20.394-7.769-1.942-24.279-8.74-24.279-21.366-16.51-7.769-17.481-23.308-17.481-23.308-9.712-2.914-4.856-.971-12.625-3.885C3.176 818.353-3.9 804.728 9.817 801.299c24.178-6.044 112.132 14.363 135.963-1.942 18.452-12.625-3.068-29.289-12.625-38.846.971-14.567 18.233-14.13 70.895-10.683 52.919 3.464 148.522.368 181.919-3.536 154-18 146.159 178.46 33.72 164.698z" fill="#fff"/><path d="M430.49 914.662c-3.65 0-7.375-.229-11.166-.693-4.82-.59-9.625-1.182-14.41-1.772-29.355-3.619-57.082-7.037-83.293-9.312-65.443-5.676-97.165-4.655-133.895-3.475-16.92.544-34.416 1.094-56.523 1.034-12.981-.042-43.115-2.207-49.053-20.95-9.469-2.759-23.375-9.91-24.726-21.901-12.999-6.861-16.412-18.176-17.289-22.888-2.685-.785-3.801-1.054-4.584-1.242-1.482-.357-1.903-.479-6.393-2.162C10.724 824.389-.444 815.119.013 807.11c.139-2.444 1.504-6.827 9.076-8.72 10.18-2.546 29.811-.748 52.542 1.332 30.769 2.817 69.062 6.321 82.454-2.84 3.733-2.555 5.665-5.263 5.906-8.28.588-7.341-8.614-16.085-15.333-22.47a205.929 205.929 0 0 1-3.626-3.5 2.995 2.995 0 0 1-.872-2.32c1.216-18.248 22.548-16.853 74.084-13.477 52.586 3.438 148.81.284 181.374-3.522 65.29-7.622 94.783 22.684 106.553 41.432 18.374 29.27 18.555 68.08.451 96.574-13.683 21.54-35.94 33.342-62.132 33.343zm-198.443-22.176c23.447 0 50.684 1.003 90.093 4.421 26.319 2.284 54.099 5.709 83.509 9.335 4.783.589 9.587 1.182 14.405 1.771 29.019 3.545 52.994-7.071 67.507-29.913 16.625-26.166 16.432-63.243-.469-90.166-11.018-17.552-38.761-45.913-100.774-38.663-33.55 3.923-128.641 7.076-182.463 3.55-51.162-3.352-65.784-3.196-67.548 6.582.778.756 1.615 1.551 2.487 2.379 7.595 7.218 17.997 17.103 17.181 27.298-.39 4.871-3.25 9.161-8.499 12.753-15.175 10.384-53.009 6.92-86.389 3.864-21.264-1.946-41.348-3.782-50.54-1.487-1.651.413-4.435 1.383-4.541 3.241-.189 3.315 6.502 11.197 25.261 18.232 4.288 1.607 4.53 1.666 5.692 1.946 1.006.242 2.526.608 6.741 1.874a3 3 0 0 1 2.132 2.686c.04.553 1.156 13.906 15.764 20.78a3 3 0 0 1 1.723 2.715c0 10.248 14.395 16.553 22.006 18.455a2.997 2.997 0 0 1 2.201 2.26c3.695 16.626 34.38 18.015 43.697 18.045 22.009.077 39.444-.489 56.311-1.031 14.807-.477 28.812-.927 44.513-.927z" fill="#232323"/><path d="M125.503 842.182c-62.895 0-83.434-6.603-84.294-6.89a2.999 2.999 0 0 1 1.892-5.693c.291.094 21.769 6.814 86.157 6.575h.013a3 3 0 0 1 .012 6 966.02 966.02 0 0 1-3.78.008zm-4.872 21.45c-48.397 0-61.101-5.19-61.655-5.428a3 3 0 0 1 2.34-5.525c.265.105 15.015 5.749 70.821 4.86h.048a3 3 0 0 1 .046 6 739.1 739.1 0 0 1-11.6.093zm-1.453 18.679c-27.049 0-37.345-2.837-37.844-2.979a3 3 0 0 1 1.64-5.771c.138.038 14.272 3.843 52.635 2.434 1.665-.017 3.047 1.232 3.108 2.888a3 3 0 0 1-2.888 3.108c-6.144.224-11.682.32-16.651.32z" fill="#232323"/><path d="M407.427 908.156c81.542 14.136 179.946 31.031 258.86 9.125 103.871-28.834 134.871-115.834 134.871-115.834 91-199-8-532-162-472-77 30-116 203-47 400-82 3-207.189 16.846-207.189 16.846s18.536 89.304 22.458 161.863z" fill="#fff"/><path d="M578.675 930.789c-58.26 0-119.208-10.566-171.761-19.677a2.999 2.999 0 0 1-2.483-2.794c-3.864-71.494-22.215-160.525-22.4-161.417a2.996 2.996 0 0 1 2.608-3.591c1.232-.137 122.148-13.441 203.357-16.706-31.034-90.31-41.71-182.576-30.055-260.228 5.325-35.479 15.38-66.934 29.079-90.962 13.844-24.283 31.496-41.146 51.048-48.763 41.739-16.263 82.19-5.383 116.98 31.464 20.158 21.349 37.482 50.26 51.491 85.931 13.466 34.287 23.263 74.002 28.333 114.851 5.272 42.479 5.51 84.741.709 125.616-5.12 43.588-15.767 83.312-31.644 118.068-.735 2.016-8.712 23.131-28.942 47.868-19.192 23.47-53.492 54.616-107.907 69.722-27.62 7.668-57.647 10.618-88.413 10.618zm-168.386-25.182C489.594 919.351 587.63 936 665.484 914.39c52.789-14.653 86.078-44.818 104.708-67.544 20.238-24.685 28.064-46.193 28.14-46.408.029-.08.062-.161.097-.239 15.646-34.213 26.14-73.371 31.193-116.386 4.745-40.396 4.509-82.176-.704-124.177-5.009-40.358-14.678-79.57-27.963-113.397-13.534-34.461-30.917-63.51-50.269-84.005-32.975-34.925-71.166-45.295-110.439-29.993-37.314 14.538-65.865 65.015-76.372 135.025-11.677 77.804-.627 170.563 31.115 261.188a3.001 3.001 0 0 1-2.722 3.991c-73.612 2.693-183.459 14.29-203.708 16.474 3.293 16.513 18.021 92.948 21.729 156.688z" fill="#232323"/><path d="M487.908 921.552a3 3 0 0 1-2.945-2.446c-6.995-37.174-22.123-109.714-44.84-177.866a2.999 2.999 0 0 1 1.897-3.794 2.996 2.996 0 0 1 3.795 1.897c22.83 68.488 38.021 141.329 45.045 178.653a3 3 0 0 1-2.952 3.556z" fill="#232323"/><circle cx="437.075" cy="884.923" fill="#232323" r="7.844"/><path d="M293.104 750.593c5.607 37.661 3.881 101.714-4.812 143.6l14.349 2.975 40.306 8.37c.75-3.617 1.454-7.265 2.112-10.944 8.543-47.81 9.38-103.628 2.281-145.713z" fill="#232323"/><path d="M342.947 908.538c-.203 0-.408-.021-.61-.062l-54.655-11.345a3 3 0 0 1-2.328-3.547c8.349-40.23 10.495-104.178 4.782-142.549a2.998 2.998 0 0 1 2.873-3.439l54.236-1.713c1.493-.081 2.803 1.021 3.053 2.499 7.169 42.498 6.293 98.726-2.286 146.739a407.451 407.451 0 0 1-2.128 11.026 2.995 2.995 0 0 1-1.291 1.898 2.993 2.993 0 0 1-1.646.493zm-51.126-16.677 48.787 10.127c.524-2.63 1.027-5.283 1.499-7.923 8.293-46.412 9.299-100.56 2.698-142.103l-48.265 1.523c5.077 38.282 3.028 98.623-4.719 138.376z" fill="#232323"/><ellipse cx="322.279" cy="881.27" fill="#232323" rx="48.243" ry="33.669" transform="matrix(.9982 -.0592 .0592 .9982 -51.5986 20.6213)"/><path d="M320.114 918.003c-11.888 0-23.133-2.925-32.047-8.392-10.333-6.336-16.349-15.324-16.941-25.309-1.197-20.185 20.777-37.966 48.983-39.639 13.47-.791 26.391 2.136 36.383 8.263 10.332 6.336 16.349 15.324 16.941 25.309 1.197 20.185-20.777 37.966-48.982 39.639a73.449 73.449 0 0 1-4.337.129zm4.346-67.467c-1.324 0-2.656.039-3.996.119-24.903 1.477-44.349 16.412-43.348 33.293.473 7.97 5.476 15.268 14.088 20.549 8.954 5.49 20.633 8.12 32.891 7.388 24.903-1.477 44.349-16.412 43.348-33.293-.473-7.97-5.476-15.268-14.088-20.549-7.975-4.891-18.114-7.507-28.895-7.507z" fill="#232323"/><g clip-path="url(#c)"><path d="M297.775 845.271a71.852 71.852 0 0 1 22.271-4.846c14.033-.832 27.48 2.215 37.863 8.583 10.615 6.51 16.794 15.707 17.397 25.896 1.232 20.748-21.556 39.038-50.8 40.766-29.245 1.728-54.028-13.729-55.259-34.478-.605-10.191 4.444-20.054 14.216-27.773a57.207 57.207 0 0 1 14.312-8.148zm47.521 61.754c16.075-6.401 26.729-18.585 25.941-31.879-.524-8.822-6.016-16.87-15.459-22.663-9.678-5.934-22.282-8.772-35.491-7.989-13.208.783-25.389 5.089-34.298 12.127-8.695 6.869-13.196 15.509-12.673 24.332 1.097 18.501 23.952 32.251 50.95 30.652a67.905 67.905 0 0 0 21.03-4.58z" fill="#fff"/></g><ellipse cx="322.617" cy="886.503" fill="#fff" rx="46.832" ry="28.872" transform="matrix(.9982 -.0592 .0592 .9982 -51.9078 20.6506)"/><path d="M321.494 869.932a2.038 2.038 0 0 1 2.793 1.849l.39 17.924a2.039 2.039 0 0 1-1.993 2.083h-.042l-27.971.036a2.04 2.04 0 0 1-.006-4.078l25.891-.032-.343-15.849a2.038 2.038 0 0 1 1.281-1.933zm270.662-137.485a3 3 0 0 1-.125-5.997c1.922-.082 47.155-2.003 55.127-2.003a3 3 0 1 1 0 6c-7.845 0-54.403 1.978-54.873 1.997a2.776 2.776 0 0 1-.129.003z" fill="#232323"/></svg></g><g transform="translate(232.0 223.0) rotate(0.0 1006.5 452.5) scale(1.086118456513986 1.0852607203972655)"><svg width="1853.389" height="833.901" viewBox="0 0 1853.389 833.901"><path d="m947.095 779.008.159 16.12c.005.505.258.976.677 1.258l13.369 9.008c1.056.711.837 2.324-.369 2.729l-15.282 5.132a1.535 1.535 0 0 0-.987 1.033l-4.436 15.498c-.35 1.224-1.951 1.514-2.71.492l-9.603-12.948a1.536 1.536 0 0 0-1.288-.62l-16.111.57c-1.272.045-2.043-1.388-1.305-2.425l9.347-13.135c.293-.412.365-.941.192-1.416l-5.521-15.146c-.436-1.196.689-2.372 1.903-1.991l15.38 4.831a1.537 1.537 0 0 0 1.406-.255l12.699-9.931c1.001-.782 2.468-.077 2.48 1.196z" fill="#fff"/><path d="M938.736 833.902a4.504 4.504 0 0 1-3.629-1.834l-9.146-12.331-15.341.543a4.516 4.516 0 0 1-4.154-2.383 4.506 4.506 0 0 1 .298-4.779l8.901-12.508-5.257-14.423a4.506 4.506 0 0 1 .982-4.687 4.508 4.508 0 0 1 4.639-1.193l14.645 4.6 12.092-9.457a4.512 4.512 0 0 1 4.761-.515 4.512 4.512 0 0 1 2.569 4.042v.001l.151 15.351 12.73 8.577c1.442.972 2.193 2.646 1.96 4.369s-1.402 3.139-3.051 3.692l-14.552 4.887-4.224 14.759a4.506 4.506 0 0 1-3.548 3.214 4.548 4.548 0 0 1-.826.075zm-12.058-20.191c1.435 0 2.787.678 3.645 1.834l7.835 10.564 3.62-12.646a4.539 4.539 0 0 1 2.915-3.052l12.471-4.188-10.909-7.35a4.54 4.54 0 0 1-2.001-3.718l-.129-13.152-10.361 8.104a4.543 4.543 0 0 1-4.153.754l-12.549-3.941 4.504 12.358a4.534 4.534 0 0 1-.564 4.182l-7.628 10.718 13.146-.465a8.22 8.22 0 0 1 .158-.002zm23.576-18.612h.01zm-6.159-16.061v.003z" fill="#232323"/><path d="m1835.095 592.314.163 16.565c.005.519.265 1.003.696 1.293l13.738 9.257c1.085.731.86 2.388-.379 2.805l-15.704 5.274a1.578 1.578 0 0 0-1.015 1.062l-4.558 15.927c-.36 1.257-2.005 1.556-2.785.506l-9.869-13.306a1.578 1.578 0 0 0-1.323-.637l-16.556.586c-1.307.046-2.1-1.426-1.341-2.492l9.605-13.497c.301-.423.375-.967.197-1.455l-5.674-15.564c-.448-1.229.708-2.438 1.955-2.046l15.805 4.964a1.58 1.58 0 0 0 1.445-.262l13.049-10.206c1.031-.807 2.538-.082 2.551 1.226z" fill="#fff"/><path d="M1826.505 648.642a4.547 4.547 0 0 1-3.664-1.853l-9.423-12.705-15.809.56a4.552 4.552 0 0 1-4.192-2.403 4.55 4.55 0 0 1 .299-4.825l9.172-12.89-5.417-14.861a4.55 4.55 0 0 1 .991-4.73 4.544 4.544 0 0 1 4.681-1.205l15.092 4.74 12.46-9.745a4.555 4.555 0 0 1 4.807-.519 4.55 4.55 0 0 1 2.592 4.08l.156 15.817 13.118 8.839c1.455.98 2.213 2.67 1.979 4.409s-1.414 3.168-3.078 3.728l-14.998 5.036-4.352 15.207a4.549 4.549 0 0 1-3.583 3.245c-.277.05-.555.075-.831.075zm-12.388-20.583c1.444 0 2.809.684 3.674 1.85l8.153 10.992 3.765-13.156a4.58 4.58 0 0 1 2.941-3.079l12.976-4.357-11.349-7.646a4.579 4.579 0 0 1-2.02-3.753l-.135-13.684-10.779 8.431a4.576 4.576 0 0 1-4.19.762l-13.058-4.101 4.687 12.857a4.576 4.576 0 0 1-.572 4.224l-7.934 11.148 13.677-.484c.055-.003.11-.004.164-.004zm33.9-6.141h.01z" fill="#232323"/><path d="m33.43 437.39.632 13.326c.02.418.244.799.599 1.02l11.336 7.035c.895.555.765 1.896-.221 2.269l-12.479 4.719a1.272 1.272 0 0 0-.785.885l-3.187 12.955c-.252 1.023-1.567 1.313-2.226.491l-8.344-10.41a1.274 1.274 0 0 0-1.084-.473l-13.306.972c-1.051.077-1.733-1.084-1.155-1.965l7.322-11.152c.23-.35.272-.79.114-1.177L5.61 443.531c-.398-.975.496-1.983 1.512-1.706l12.869 3.517c.403.11.835.015 1.155-.255l10.193-8.607c.807-.681 2.042-.143 2.091.91z" fill="#fff"/><path d="M28.078 483.567a4.24 4.24 0 0 1-3.32-1.603l-7.775-9.7-12.398.906a4.252 4.252 0 0 1-3.992-2.094 4.247 4.247 0 0 1 .11-4.509l6.824-10.394-4.693-11.512c-.618-1.517-.327-3.22.759-4.445s2.742-1.715 4.321-1.288l11.993 3.278 9.499-8.021a4.248 4.248 0 0 1 4.461-.652 4.245 4.245 0 0 1 2.561 3.713v.001l.588 12.418 10.564 6.556a4.245 4.245 0 0 1 1.999 4.041 4.245 4.245 0 0 1-2.739 3.582l-11.63 4.397-2.97 12.072a4.243 4.243 0 0 1-3.228 3.15c-.312.07-.625.104-.934.104zm-10.314-17.364c1.291 0 2.518.584 3.332 1.598l6.154 7.678 2.35-9.553a4.273 4.273 0 0 1 2.64-2.976l9.199-3.479-8.359-5.188a4.268 4.268 0 0 1-2.014-3.427l-.466-9.826-7.516 6.347a4.262 4.262 0 0 1-3.882.856l-9.49-2.594 3.714 9.11a4.268 4.268 0 0 1-.385 3.956l-5.399 8.224 9.812-.717c.103-.006.207-.009.31-.009zm16.598 2.359-.003.001.003-.001zm2.696-17.988h.01zm-6.624-13.042v.002z" fill="#232323"/><path d="m787.187 4.213-.632 13.326c-.02.418-.244.799-.599 1.02l-11.336 7.035c-.895.555-.765 1.896.221 2.269l12.479 4.719c.391.148.685.479.785.885l3.187 12.955c.252 1.023 1.567 1.313 2.226.491l8.344-10.41a1.274 1.274 0 0 1 1.084-.473l13.306.972c1.051.077 1.733-1.084 1.155-1.965l-7.322-11.152c-.23-.35-.272-.79-.115-1.177l5.036-12.354c.398-.975-.496-1.983-1.512-1.706l-12.869 3.517c-.403.11-.835.015-1.155-.255l-10.193-8.607c-.806-.681-2.04-.142-2.09.91z" fill="#fff"/><path d="M792.538 50.39c-.309 0-.622-.033-.933-.103a4.245 4.245 0 0 1-3.227-3.148l-2.97-12.073-11.629-4.397a4.246 4.246 0 0 1-2.741-3.584 4.242 4.242 0 0 1 2-4.04l10.562-6.556.588-12.417a4.247 4.247 0 0 1 2.56-3.714 4.25 4.25 0 0 1 4.462.652l9.498 8.021 11.993-3.277c1.58-.431 3.236.062 4.322 1.287s1.377 2.928.759 4.444l-4.693 11.514 6.823 10.392a4.247 4.247 0 0 1 .111 4.51 4.254 4.254 0 0 1-3.994 2.094l-12.398-.905-7.776 9.7a4.236 4.236 0 0 1-3.317 1.6zm-13.359-24.095 9.202 3.48a4.268 4.268 0 0 1 2.637 2.973l2.35 9.554 6.153-7.676a4.268 4.268 0 0 1 3.642-1.589l9.813.717-5.399-8.224a4.27 4.27 0 0 1-.384-3.956l3.713-9.11-9.49 2.594a4.274 4.274 0 0 1-3.881-.855l-7.517-6.348-.466 9.826a4.272 4.272 0 0 1-2.014 3.427zm7.079 9.092.003.001zm.929-31.174h.01z" fill="#232323"/></svg></g></svg>